%TF.GenerationSoftware,KiCad,Pcbnew,5.1.10-88a1d61d58~88~ubuntu20.04.1*%
%TF.CreationDate,2021-06-28T11:18:36+05:30*%
%TF.ProjectId,LB1A_DCA7M4_R512MB_F4GB,4c423141-5f44-4434-9137-4d345f523531,1.0.0*%
%TF.SameCoordinates,Original*%
%TF.FileFunction,Legend,Top*%
%TF.FilePolarity,Positive*%
%FSLAX46Y46*%
G04 Gerber Fmt 4.6, Leading zero omitted, Abs format (unit mm)*
G04 Created by KiCad (PCBNEW 5.1.10-88a1d61d58~88~ubuntu20.04.1) date 2021-06-28 11:18:36*
%MOMM*%
%LPD*%
G01*
G04 APERTURE LIST*
%ADD10C,0.100000*%
%ADD11C,0.150000*%
%ADD12C,0.300000*%
%ADD13C,0.400000*%
%ADD14C,0.304800*%
%ADD15C,0.010000*%
%ADD16C,0.120000*%
%ADD17C,0.200000*%
%ADD18C,0.152400*%
%ADD19C,0.127000*%
G04 APERTURE END LIST*
D10*
D11*
X177002200Y-166007200D02*
X177002200Y-198007200D01*
X285002200Y-198007200D01*
X285002200Y-166007200D01*
X177002200Y-166007200D01*
D10*
D11*
X10000000Y-10000000D02*
X10000000Y-200007200D01*
X287002200Y-200007200D01*
X287002200Y-10000000D01*
X10000000Y-10000000D01*
D10*
D11*
X12000000Y-12000000D02*
X12000000Y-198007200D01*
X285002200Y-198007200D01*
X285002200Y-12000000D01*
X12000000Y-12000000D01*
D10*
D11*
X60000000Y-12000000D02*
X60000000Y-10000000D01*
D10*
D11*
X110000000Y-12000000D02*
X110000000Y-10000000D01*
D10*
D11*
X160000000Y-12000000D02*
X160000000Y-10000000D01*
D10*
D11*
X210000000Y-12000000D02*
X210000000Y-10000000D01*
D10*
D11*
X260000000Y-12000000D02*
X260000000Y-10000000D01*
D10*
D11*
X36065476Y-11588095D02*
X35322619Y-11588095D01*
X35694047Y-11588095D02*
X35694047Y-10288095D01*
X35570238Y-10473809D01*
X35446428Y-10597619D01*
X35322619Y-10659523D01*
D10*
D11*
X85322619Y-10411904D02*
X85384523Y-10350000D01*
X85508333Y-10288095D01*
X85817857Y-10288095D01*
X85941666Y-10350000D01*
X86003571Y-10411904D01*
X86065476Y-10535714D01*
X86065476Y-10659523D01*
X86003571Y-10845238D01*
X85260714Y-11588095D01*
X86065476Y-11588095D01*
D10*
D11*
X135260714Y-10288095D02*
X136065476Y-10288095D01*
X135632142Y-10783333D01*
X135817857Y-10783333D01*
X135941666Y-10845238D01*
X136003571Y-10907142D01*
X136065476Y-11030952D01*
X136065476Y-11340476D01*
X136003571Y-11464285D01*
X135941666Y-11526190D01*
X135817857Y-11588095D01*
X135446428Y-11588095D01*
X135322619Y-11526190D01*
X135260714Y-11464285D01*
D10*
D11*
X185941666Y-10721428D02*
X185941666Y-11588095D01*
X185632142Y-10226190D02*
X185322619Y-11154761D01*
X186127380Y-11154761D01*
D10*
D11*
X236003571Y-10288095D02*
X235384523Y-10288095D01*
X235322619Y-10907142D01*
X235384523Y-10845238D01*
X235508333Y-10783333D01*
X235817857Y-10783333D01*
X235941666Y-10845238D01*
X236003571Y-10907142D01*
X236065476Y-11030952D01*
X236065476Y-11340476D01*
X236003571Y-11464285D01*
X235941666Y-11526190D01*
X235817857Y-11588095D01*
X235508333Y-11588095D01*
X235384523Y-11526190D01*
X235322619Y-11464285D01*
D10*
D11*
X285941666Y-10288095D02*
X285694047Y-10288095D01*
X285570238Y-10350000D01*
X285508333Y-10411904D01*
X285384523Y-10597619D01*
X285322619Y-10845238D01*
X285322619Y-11340476D01*
X285384523Y-11464285D01*
X285446428Y-11526190D01*
X285570238Y-11588095D01*
X285817857Y-11588095D01*
X285941666Y-11526190D01*
X286003571Y-11464285D01*
X286065476Y-11340476D01*
X286065476Y-11030952D01*
X286003571Y-10907142D01*
X285941666Y-10845238D01*
X285817857Y-10783333D01*
X285570238Y-10783333D01*
X285446428Y-10845238D01*
X285384523Y-10907142D01*
X285322619Y-11030952D01*
D10*
D11*
X60000000Y-198007200D02*
X60000000Y-200007200D01*
D10*
D11*
X110000000Y-198007200D02*
X110000000Y-200007200D01*
D10*
D11*
X160000000Y-198007200D02*
X160000000Y-200007200D01*
D10*
D11*
X210000000Y-198007200D02*
X210000000Y-200007200D01*
D10*
D11*
X260000000Y-198007200D02*
X260000000Y-200007200D01*
D10*
D11*
X36065476Y-199595295D02*
X35322619Y-199595295D01*
X35694047Y-199595295D02*
X35694047Y-198295295D01*
X35570238Y-198481009D01*
X35446428Y-198604819D01*
X35322619Y-198666723D01*
D10*
D11*
X85322619Y-198419104D02*
X85384523Y-198357200D01*
X85508333Y-198295295D01*
X85817857Y-198295295D01*
X85941666Y-198357200D01*
X86003571Y-198419104D01*
X86065476Y-198542914D01*
X86065476Y-198666723D01*
X86003571Y-198852438D01*
X85260714Y-199595295D01*
X86065476Y-199595295D01*
D10*
D11*
X135260714Y-198295295D02*
X136065476Y-198295295D01*
X135632142Y-198790533D01*
X135817857Y-198790533D01*
X135941666Y-198852438D01*
X136003571Y-198914342D01*
X136065476Y-199038152D01*
X136065476Y-199347676D01*
X136003571Y-199471485D01*
X135941666Y-199533390D01*
X135817857Y-199595295D01*
X135446428Y-199595295D01*
X135322619Y-199533390D01*
X135260714Y-199471485D01*
D10*
D11*
X185941666Y-198728628D02*
X185941666Y-199595295D01*
X185632142Y-198233390D02*
X185322619Y-199161961D01*
X186127380Y-199161961D01*
D10*
D11*
X236003571Y-198295295D02*
X235384523Y-198295295D01*
X235322619Y-198914342D01*
X235384523Y-198852438D01*
X235508333Y-198790533D01*
X235817857Y-198790533D01*
X235941666Y-198852438D01*
X236003571Y-198914342D01*
X236065476Y-199038152D01*
X236065476Y-199347676D01*
X236003571Y-199471485D01*
X235941666Y-199533390D01*
X235817857Y-199595295D01*
X235508333Y-199595295D01*
X235384523Y-199533390D01*
X235322619Y-199471485D01*
D10*
D11*
X285941666Y-198295295D02*
X285694047Y-198295295D01*
X285570238Y-198357200D01*
X285508333Y-198419104D01*
X285384523Y-198604819D01*
X285322619Y-198852438D01*
X285322619Y-199347676D01*
X285384523Y-199471485D01*
X285446428Y-199533390D01*
X285570238Y-199595295D01*
X285817857Y-199595295D01*
X285941666Y-199533390D01*
X286003571Y-199471485D01*
X286065476Y-199347676D01*
X286065476Y-199038152D01*
X286003571Y-198914342D01*
X285941666Y-198852438D01*
X285817857Y-198790533D01*
X285570238Y-198790533D01*
X285446428Y-198852438D01*
X285384523Y-198914342D01*
X285322619Y-199038152D01*
D10*
D11*
X10000000Y-60000000D02*
X12000000Y-60000000D01*
D10*
D11*
X10000000Y-110000000D02*
X12000000Y-110000000D01*
D10*
D11*
X10000000Y-160000000D02*
X12000000Y-160000000D01*
D10*
D11*
X10690476Y-35216666D02*
X11309523Y-35216666D01*
X10566666Y-35588095D02*
X11000000Y-34288095D01*
X11433333Y-35588095D01*
D10*
D11*
X11092857Y-84907142D02*
X11278571Y-84969047D01*
X11340476Y-85030952D01*
X11402380Y-85154761D01*
X11402380Y-85340476D01*
X11340476Y-85464285D01*
X11278571Y-85526190D01*
X11154761Y-85588095D01*
X10659523Y-85588095D01*
X10659523Y-84288095D01*
X11092857Y-84288095D01*
X11216666Y-84350000D01*
X11278571Y-84411904D01*
X11340476Y-84535714D01*
X11340476Y-84659523D01*
X11278571Y-84783333D01*
X11216666Y-84845238D01*
X11092857Y-84907142D01*
X10659523Y-84907142D01*
D10*
D11*
X11402380Y-135464285D02*
X11340476Y-135526190D01*
X11154761Y-135588095D01*
X11030952Y-135588095D01*
X10845238Y-135526190D01*
X10721428Y-135402380D01*
X10659523Y-135278571D01*
X10597619Y-135030952D01*
X10597619Y-134845238D01*
X10659523Y-134597619D01*
X10721428Y-134473809D01*
X10845238Y-134350000D01*
X11030952Y-134288095D01*
X11154761Y-134288095D01*
X11340476Y-134350000D01*
X11402380Y-134411904D01*
D10*
D11*
X10659523Y-185588095D02*
X10659523Y-184288095D01*
X10969047Y-184288095D01*
X11154761Y-184350000D01*
X11278571Y-184473809D01*
X11340476Y-184597619D01*
X11402380Y-184845238D01*
X11402380Y-185030952D01*
X11340476Y-185278571D01*
X11278571Y-185402380D01*
X11154761Y-185526190D01*
X10969047Y-185588095D01*
X10659523Y-185588095D01*
D10*
D11*
X287002200Y-60000000D02*
X285002200Y-60000000D01*
D10*
D11*
X287002200Y-110000000D02*
X285002200Y-110000000D01*
D10*
D11*
X287002200Y-160000000D02*
X285002200Y-160000000D01*
D10*
D11*
X285692676Y-35216666D02*
X286311723Y-35216666D01*
X285568866Y-35588095D02*
X286002200Y-34288095D01*
X286435533Y-35588095D01*
D10*
D11*
X286095057Y-84907142D02*
X286280771Y-84969047D01*
X286342676Y-85030952D01*
X286404580Y-85154761D01*
X286404580Y-85340476D01*
X286342676Y-85464285D01*
X286280771Y-85526190D01*
X286156961Y-85588095D01*
X285661723Y-85588095D01*
X285661723Y-84288095D01*
X286095057Y-84288095D01*
X286218866Y-84350000D01*
X286280771Y-84411904D01*
X286342676Y-84535714D01*
X286342676Y-84659523D01*
X286280771Y-84783333D01*
X286218866Y-84845238D01*
X286095057Y-84907142D01*
X285661723Y-84907142D01*
D10*
D11*
X286404580Y-135464285D02*
X286342676Y-135526190D01*
X286156961Y-135588095D01*
X286033152Y-135588095D01*
X285847438Y-135526190D01*
X285723628Y-135402380D01*
X285661723Y-135278571D01*
X285599819Y-135030952D01*
X285599819Y-134845238D01*
X285661723Y-134597619D01*
X285723628Y-134473809D01*
X285847438Y-134350000D01*
X286033152Y-134288095D01*
X286156961Y-134288095D01*
X286342676Y-134350000D01*
X286404580Y-134411904D01*
D10*
D11*
X285661723Y-185588095D02*
X285661723Y-184288095D01*
X285971247Y-184288095D01*
X286156961Y-184350000D01*
X286280771Y-184473809D01*
X286342676Y-184597619D01*
X286404580Y-184845238D01*
X286404580Y-185030952D01*
X286342676Y-185278571D01*
X286280771Y-185402380D01*
X286156961Y-185526190D01*
X285971247Y-185588095D01*
X285661723Y-185588095D01*
D10*
D11*
X200434342Y-193785771D02*
X200434342Y-192285771D01*
X200791485Y-192285771D01*
X201005771Y-192357200D01*
X201148628Y-192500057D01*
X201220057Y-192642914D01*
X201291485Y-192928628D01*
X201291485Y-193142914D01*
X201220057Y-193428628D01*
X201148628Y-193571485D01*
X201005771Y-193714342D01*
X200791485Y-193785771D01*
X200434342Y-193785771D01*
X202577200Y-193785771D02*
X202577200Y-193000057D01*
X202505771Y-192857200D01*
X202362914Y-192785771D01*
X202077200Y-192785771D01*
X201934342Y-192857200D01*
X202577200Y-193714342D02*
X202434342Y-193785771D01*
X202077200Y-193785771D01*
X201934342Y-193714342D01*
X201862914Y-193571485D01*
X201862914Y-193428628D01*
X201934342Y-193285771D01*
X202077200Y-193214342D01*
X202434342Y-193214342D01*
X202577200Y-193142914D01*
X203077200Y-192785771D02*
X203648628Y-192785771D01*
X203291485Y-192285771D02*
X203291485Y-193571485D01*
X203362914Y-193714342D01*
X203505771Y-193785771D01*
X203648628Y-193785771D01*
X204720057Y-193714342D02*
X204577200Y-193785771D01*
X204291485Y-193785771D01*
X204148628Y-193714342D01*
X204077200Y-193571485D01*
X204077200Y-193000057D01*
X204148628Y-192857200D01*
X204291485Y-192785771D01*
X204577200Y-192785771D01*
X204720057Y-192857200D01*
X204791485Y-193000057D01*
X204791485Y-193142914D01*
X204077200Y-193285771D01*
X205434342Y-193642914D02*
X205505771Y-193714342D01*
X205434342Y-193785771D01*
X205362914Y-193714342D01*
X205434342Y-193642914D01*
X205434342Y-193785771D01*
X205434342Y-192857200D02*
X205505771Y-192928628D01*
X205434342Y-193000057D01*
X205362914Y-192928628D01*
X205434342Y-192857200D01*
X205434342Y-193000057D01*
X207220057Y-192428628D02*
X207291485Y-192357200D01*
X207434342Y-192285771D01*
X207791485Y-192285771D01*
X207934342Y-192357200D01*
X208005771Y-192428628D01*
X208077200Y-192571485D01*
X208077200Y-192714342D01*
X208005771Y-192928628D01*
X207148628Y-193785771D01*
X208077200Y-193785771D01*
X209005771Y-192285771D02*
X209148628Y-192285771D01*
X209291485Y-192357200D01*
X209362914Y-192428628D01*
X209434342Y-192571485D01*
X209505771Y-192857200D01*
X209505771Y-193214342D01*
X209434342Y-193500057D01*
X209362914Y-193642914D01*
X209291485Y-193714342D01*
X209148628Y-193785771D01*
X209005771Y-193785771D01*
X208862914Y-193714342D01*
X208791485Y-193642914D01*
X208720057Y-193500057D01*
X208648628Y-193214342D01*
X208648628Y-192857200D01*
X208720057Y-192571485D01*
X208791485Y-192428628D01*
X208862914Y-192357200D01*
X209005771Y-192285771D01*
X210077200Y-192428628D02*
X210148628Y-192357200D01*
X210291485Y-192285771D01*
X210648628Y-192285771D01*
X210791485Y-192357200D01*
X210862914Y-192428628D01*
X210934342Y-192571485D01*
X210934342Y-192714342D01*
X210862914Y-192928628D01*
X210005771Y-193785771D01*
X210934342Y-193785771D01*
X212362914Y-193785771D02*
X211505771Y-193785771D01*
X211934342Y-193785771D02*
X211934342Y-192285771D01*
X211791485Y-192500057D01*
X211648628Y-192642914D01*
X211505771Y-192714342D01*
X213005771Y-193214342D02*
X214148628Y-193214342D01*
X215148628Y-192285771D02*
X215291485Y-192285771D01*
X215434342Y-192357200D01*
X215505771Y-192428628D01*
X215577200Y-192571485D01*
X215648628Y-192857200D01*
X215648628Y-193214342D01*
X215577200Y-193500057D01*
X215505771Y-193642914D01*
X215434342Y-193714342D01*
X215291485Y-193785771D01*
X215148628Y-193785771D01*
X215005771Y-193714342D01*
X214934342Y-193642914D01*
X214862914Y-193500057D01*
X214791485Y-193214342D01*
X214791485Y-192857200D01*
X214862914Y-192571485D01*
X214934342Y-192428628D01*
X215005771Y-192357200D01*
X215148628Y-192285771D01*
X216934342Y-192285771D02*
X216648628Y-192285771D01*
X216505771Y-192357200D01*
X216434342Y-192428628D01*
X216291485Y-192642914D01*
X216220057Y-192928628D01*
X216220057Y-193500057D01*
X216291485Y-193642914D01*
X216362914Y-193714342D01*
X216505771Y-193785771D01*
X216791485Y-193785771D01*
X216934342Y-193714342D01*
X217005771Y-193642914D01*
X217077200Y-193500057D01*
X217077200Y-193142914D01*
X217005771Y-193000057D01*
X216934342Y-192928628D01*
X216791485Y-192857200D01*
X216505771Y-192857200D01*
X216362914Y-192928628D01*
X216291485Y-193000057D01*
X216220057Y-193142914D01*
X217720057Y-193214342D02*
X218862914Y-193214342D01*
X219505771Y-192428628D02*
X219577200Y-192357200D01*
X219720057Y-192285771D01*
X220077200Y-192285771D01*
X220220057Y-192357200D01*
X220291485Y-192428628D01*
X220362914Y-192571485D01*
X220362914Y-192714342D01*
X220291485Y-192928628D01*
X219434342Y-193785771D01*
X220362914Y-193785771D01*
X221220057Y-192928628D02*
X221077200Y-192857200D01*
X221005771Y-192785771D01*
X220934342Y-192642914D01*
X220934342Y-192571485D01*
X221005771Y-192428628D01*
X221077200Y-192357200D01*
X221220057Y-192285771D01*
X221505771Y-192285771D01*
X221648628Y-192357200D01*
X221720057Y-192428628D01*
X221791485Y-192571485D01*
X221791485Y-192642914D01*
X221720057Y-192785771D01*
X221648628Y-192857200D01*
X221505771Y-192928628D01*
X221220057Y-192928628D01*
X221077200Y-193000057D01*
X221005771Y-193071485D01*
X220934342Y-193214342D01*
X220934342Y-193500057D01*
X221005771Y-193642914D01*
X221077200Y-193714342D01*
X221220057Y-193785771D01*
X221505771Y-193785771D01*
X221648628Y-193714342D01*
X221720057Y-193642914D01*
X221791485Y-193500057D01*
X221791485Y-193214342D01*
X221720057Y-193071485D01*
X221648628Y-193000057D01*
X221505771Y-192928628D01*
D10*
D11*
X177002200Y-194507200D02*
X285002200Y-194507200D01*
D10*
D11*
X178434342Y-196585771D02*
X178434342Y-195085771D01*
X179291485Y-196585771D02*
X178648628Y-195728628D01*
X179291485Y-195085771D02*
X178434342Y-195942914D01*
X179934342Y-196585771D02*
X179934342Y-195585771D01*
X179934342Y-195085771D02*
X179862914Y-195157200D01*
X179934342Y-195228628D01*
X180005771Y-195157200D01*
X179934342Y-195085771D01*
X179934342Y-195228628D01*
X181505771Y-196442914D02*
X181434342Y-196514342D01*
X181220057Y-196585771D01*
X181077200Y-196585771D01*
X180862914Y-196514342D01*
X180720057Y-196371485D01*
X180648628Y-196228628D01*
X180577200Y-195942914D01*
X180577200Y-195728628D01*
X180648628Y-195442914D01*
X180720057Y-195300057D01*
X180862914Y-195157200D01*
X181077200Y-195085771D01*
X181220057Y-195085771D01*
X181434342Y-195157200D01*
X181505771Y-195228628D01*
X182791485Y-196585771D02*
X182791485Y-195800057D01*
X182720057Y-195657200D01*
X182577200Y-195585771D01*
X182291485Y-195585771D01*
X182148628Y-195657200D01*
X182791485Y-196514342D02*
X182648628Y-196585771D01*
X182291485Y-196585771D01*
X182148628Y-196514342D01*
X182077200Y-196371485D01*
X182077200Y-196228628D01*
X182148628Y-196085771D01*
X182291485Y-196014342D01*
X182648628Y-196014342D01*
X182791485Y-195942914D01*
X184148628Y-196585771D02*
X184148628Y-195085771D01*
X184148628Y-196514342D02*
X184005771Y-196585771D01*
X183720057Y-196585771D01*
X183577200Y-196514342D01*
X183505771Y-196442914D01*
X183434342Y-196300057D01*
X183434342Y-195871485D01*
X183505771Y-195728628D01*
X183577200Y-195657200D01*
X183720057Y-195585771D01*
X184005771Y-195585771D01*
X184148628Y-195657200D01*
X186005771Y-195800057D02*
X186505771Y-195800057D01*
X186720057Y-196585771D02*
X186005771Y-196585771D01*
X186005771Y-195085771D01*
X186720057Y-195085771D01*
X187362914Y-196442914D02*
X187434342Y-196514342D01*
X187362914Y-196585771D01*
X187291485Y-196514342D01*
X187362914Y-196442914D01*
X187362914Y-196585771D01*
X188077200Y-196585771D02*
X188077200Y-195085771D01*
X188434342Y-195085771D01*
X188648628Y-195157200D01*
X188791485Y-195300057D01*
X188862914Y-195442914D01*
X188934342Y-195728628D01*
X188934342Y-195942914D01*
X188862914Y-196228628D01*
X188791485Y-196371485D01*
X188648628Y-196514342D01*
X188434342Y-196585771D01*
X188077200Y-196585771D01*
X189577200Y-196442914D02*
X189648628Y-196514342D01*
X189577200Y-196585771D01*
X189505771Y-196514342D01*
X189577200Y-196442914D01*
X189577200Y-196585771D01*
X190220057Y-196157200D02*
X190934342Y-196157200D01*
X190077200Y-196585771D02*
X190577200Y-195085771D01*
X191077200Y-196585771D01*
X191577200Y-196442914D02*
X191648628Y-196514342D01*
X191577200Y-196585771D01*
X191505771Y-196514342D01*
X191577200Y-196442914D01*
X191577200Y-196585771D01*
X194577200Y-196585771D02*
X194577200Y-195085771D01*
X194720057Y-196014342D02*
X195148628Y-196585771D01*
X195148628Y-195585771D02*
X194577200Y-196157200D01*
X195791485Y-196585771D02*
X195791485Y-195585771D01*
X195791485Y-195085771D02*
X195720057Y-195157200D01*
X195791485Y-195228628D01*
X195862914Y-195157200D01*
X195791485Y-195085771D01*
X195791485Y-195228628D01*
X197148628Y-196514342D02*
X197005771Y-196585771D01*
X196720057Y-196585771D01*
X196577200Y-196514342D01*
X196505771Y-196442914D01*
X196434342Y-196300057D01*
X196434342Y-195871485D01*
X196505771Y-195728628D01*
X196577200Y-195657200D01*
X196720057Y-195585771D01*
X197005771Y-195585771D01*
X197148628Y-195657200D01*
X198434342Y-196585771D02*
X198434342Y-195800057D01*
X198362914Y-195657200D01*
X198220057Y-195585771D01*
X197934342Y-195585771D01*
X197791485Y-195657200D01*
X198434342Y-196514342D02*
X198291485Y-196585771D01*
X197934342Y-196585771D01*
X197791485Y-196514342D01*
X197720057Y-196371485D01*
X197720057Y-196228628D01*
X197791485Y-196085771D01*
X197934342Y-196014342D01*
X198291485Y-196014342D01*
X198434342Y-195942914D01*
X199791485Y-196585771D02*
X199791485Y-195085771D01*
X199791485Y-196514342D02*
X199648628Y-196585771D01*
X199362914Y-196585771D01*
X199220057Y-196514342D01*
X199148628Y-196442914D01*
X199077200Y-196300057D01*
X199077200Y-195871485D01*
X199148628Y-195728628D01*
X199220057Y-195657200D01*
X199362914Y-195585771D01*
X199648628Y-195585771D01*
X199791485Y-195657200D01*
X202362914Y-195085771D02*
X201648628Y-195085771D01*
X201577200Y-195800057D01*
X201648628Y-195728628D01*
X201791485Y-195657200D01*
X202148628Y-195657200D01*
X202291485Y-195728628D01*
X202362914Y-195800057D01*
X202434342Y-195942914D01*
X202434342Y-196300057D01*
X202362914Y-196442914D01*
X202291485Y-196514342D01*
X202148628Y-196585771D01*
X201791485Y-196585771D01*
X201648628Y-196514342D01*
X201577200Y-196442914D01*
X203077200Y-196442914D02*
X203148628Y-196514342D01*
X203077200Y-196585771D01*
X203005771Y-196514342D01*
X203077200Y-196442914D01*
X203077200Y-196585771D01*
X204577200Y-196585771D02*
X203720057Y-196585771D01*
X204148628Y-196585771D02*
X204148628Y-195085771D01*
X204005771Y-195300057D01*
X203862914Y-195442914D01*
X203720057Y-195514342D01*
X205220057Y-196442914D02*
X205291485Y-196514342D01*
X205220057Y-196585771D01*
X205148628Y-196514342D01*
X205220057Y-196442914D01*
X205220057Y-196585771D01*
X206720057Y-196585771D02*
X205862914Y-196585771D01*
X206291485Y-196585771D02*
X206291485Y-195085771D01*
X206148628Y-195300057D01*
X206005771Y-195442914D01*
X205862914Y-195514342D01*
X207648628Y-195085771D02*
X207791485Y-195085771D01*
X207934342Y-195157200D01*
X208005771Y-195228628D01*
X208077200Y-195371485D01*
X208148628Y-195657200D01*
X208148628Y-196014342D01*
X208077200Y-196300057D01*
X208005771Y-196442914D01*
X207934342Y-196514342D01*
X207791485Y-196585771D01*
X207648628Y-196585771D01*
X207505771Y-196514342D01*
X207434342Y-196442914D01*
X207362914Y-196300057D01*
X207291485Y-196014342D01*
X207291485Y-195657200D01*
X207362914Y-195371485D01*
X207434342Y-195228628D01*
X207505771Y-195157200D01*
X207648628Y-195085771D01*
X208791485Y-196014342D02*
X209934342Y-196014342D01*
X210862914Y-195728628D02*
X210720057Y-195657200D01*
X210648628Y-195585771D01*
X210577200Y-195442914D01*
X210577200Y-195371485D01*
X210648628Y-195228628D01*
X210720057Y-195157200D01*
X210862914Y-195085771D01*
X211148628Y-195085771D01*
X211291485Y-195157200D01*
X211362914Y-195228628D01*
X211434342Y-195371485D01*
X211434342Y-195442914D01*
X211362914Y-195585771D01*
X211291485Y-195657200D01*
X211148628Y-195728628D01*
X210862914Y-195728628D01*
X210720057Y-195800057D01*
X210648628Y-195871485D01*
X210577200Y-196014342D01*
X210577200Y-196300057D01*
X210648628Y-196442914D01*
X210720057Y-196514342D01*
X210862914Y-196585771D01*
X211148628Y-196585771D01*
X211291485Y-196514342D01*
X211362914Y-196442914D01*
X211434342Y-196300057D01*
X211434342Y-196014342D01*
X211362914Y-195871485D01*
X211291485Y-195800057D01*
X211148628Y-195728628D01*
X212291485Y-195728628D02*
X212148628Y-195657200D01*
X212077200Y-195585771D01*
X212005771Y-195442914D01*
X212005771Y-195371485D01*
X212077200Y-195228628D01*
X212148628Y-195157200D01*
X212291485Y-195085771D01*
X212577200Y-195085771D01*
X212720057Y-195157200D01*
X212791485Y-195228628D01*
X212862914Y-195371485D01*
X212862914Y-195442914D01*
X212791485Y-195585771D01*
X212720057Y-195657200D01*
X212577200Y-195728628D01*
X212291485Y-195728628D01*
X212148628Y-195800057D01*
X212077200Y-195871485D01*
X212005771Y-196014342D01*
X212005771Y-196300057D01*
X212077200Y-196442914D01*
X212148628Y-196514342D01*
X212291485Y-196585771D01*
X212577200Y-196585771D01*
X212720057Y-196514342D01*
X212791485Y-196442914D01*
X212862914Y-196300057D01*
X212862914Y-196014342D01*
X212791485Y-195871485D01*
X212720057Y-195800057D01*
X212577200Y-195728628D01*
X214148628Y-196585771D02*
X214148628Y-195800057D01*
X214077200Y-195657200D01*
X213934342Y-195585771D01*
X213648628Y-195585771D01*
X213505771Y-195657200D01*
X214148628Y-196514342D02*
X214005771Y-196585771D01*
X213648628Y-196585771D01*
X213505771Y-196514342D01*
X213434342Y-196371485D01*
X213434342Y-196228628D01*
X213505771Y-196085771D01*
X213648628Y-196014342D01*
X214005771Y-196014342D01*
X214148628Y-195942914D01*
X215648628Y-196585771D02*
X214791485Y-196585771D01*
X215220057Y-196585771D02*
X215220057Y-195085771D01*
X215077200Y-195300057D01*
X214934342Y-195442914D01*
X214791485Y-195514342D01*
X216934342Y-196585771D02*
X216934342Y-195085771D01*
X216934342Y-196514342D02*
X216791485Y-196585771D01*
X216505771Y-196585771D01*
X216362914Y-196514342D01*
X216291485Y-196442914D01*
X216220057Y-196300057D01*
X216220057Y-195871485D01*
X216291485Y-195728628D01*
X216362914Y-195657200D01*
X216505771Y-195585771D01*
X216791485Y-195585771D01*
X216934342Y-195657200D01*
X218291485Y-195085771D02*
X218005771Y-195085771D01*
X217862914Y-195157200D01*
X217791485Y-195228628D01*
X217648628Y-195442914D01*
X217577200Y-195728628D01*
X217577200Y-196300057D01*
X217648628Y-196442914D01*
X217720057Y-196514342D01*
X217862914Y-196585771D01*
X218148628Y-196585771D01*
X218291485Y-196514342D01*
X218362914Y-196442914D01*
X218434342Y-196300057D01*
X218434342Y-195942914D01*
X218362914Y-195800057D01*
X218291485Y-195728628D01*
X218148628Y-195657200D01*
X217862914Y-195657200D01*
X217720057Y-195728628D01*
X217648628Y-195800057D01*
X217577200Y-195942914D01*
X219862914Y-196585771D02*
X219005771Y-196585771D01*
X219434342Y-196585771D02*
X219434342Y-195085771D01*
X219291485Y-195300057D01*
X219148628Y-195442914D01*
X219005771Y-195514342D01*
X221148628Y-196585771D02*
X221148628Y-195085771D01*
X221148628Y-196514342D02*
X221005771Y-196585771D01*
X220720057Y-196585771D01*
X220577200Y-196514342D01*
X220505771Y-196442914D01*
X220434342Y-196300057D01*
X220434342Y-195871485D01*
X220505771Y-195728628D01*
X220577200Y-195657200D01*
X220720057Y-195585771D01*
X221005771Y-195585771D01*
X221148628Y-195657200D01*
X222577200Y-195085771D02*
X221862914Y-195085771D01*
X221791485Y-195800057D01*
X221862914Y-195728628D01*
X222005771Y-195657200D01*
X222362914Y-195657200D01*
X222505771Y-195728628D01*
X222577200Y-195800057D01*
X222648628Y-195942914D01*
X222648628Y-196300057D01*
X222577200Y-196442914D01*
X222505771Y-196514342D01*
X222362914Y-196585771D01*
X222005771Y-196585771D01*
X221862914Y-196514342D01*
X221791485Y-196442914D01*
X223505771Y-195728628D02*
X223362914Y-195657200D01*
X223291485Y-195585771D01*
X223220057Y-195442914D01*
X223220057Y-195371485D01*
X223291485Y-195228628D01*
X223362914Y-195157200D01*
X223505771Y-195085771D01*
X223791485Y-195085771D01*
X223934342Y-195157200D01*
X224005771Y-195228628D01*
X224077200Y-195371485D01*
X224077200Y-195442914D01*
X224005771Y-195585771D01*
X223934342Y-195657200D01*
X223791485Y-195728628D01*
X223505771Y-195728628D01*
X223362914Y-195800057D01*
X223291485Y-195871485D01*
X223220057Y-196014342D01*
X223220057Y-196300057D01*
X223291485Y-196442914D01*
X223362914Y-196514342D01*
X223505771Y-196585771D01*
X223791485Y-196585771D01*
X223934342Y-196514342D01*
X224005771Y-196442914D01*
X224077200Y-196300057D01*
X224077200Y-196014342D01*
X224005771Y-195871485D01*
X223934342Y-195800057D01*
X223791485Y-195728628D01*
X224362914Y-194677200D02*
X225791485Y-194677200D01*
X224934342Y-195728628D02*
X224791485Y-195657200D01*
X224720057Y-195585771D01*
X224648628Y-195442914D01*
X224648628Y-195371485D01*
X224720057Y-195228628D01*
X224791485Y-195157200D01*
X224934342Y-195085771D01*
X225220057Y-195085771D01*
X225362914Y-195157200D01*
X225434342Y-195228628D01*
X225505771Y-195371485D01*
X225505771Y-195442914D01*
X225434342Y-195585771D01*
X225362914Y-195657200D01*
X225220057Y-195728628D01*
X224934342Y-195728628D01*
X224791485Y-195800057D01*
X224720057Y-195871485D01*
X224648628Y-196014342D01*
X224648628Y-196300057D01*
X224720057Y-196442914D01*
X224791485Y-196514342D01*
X224934342Y-196585771D01*
X225220057Y-196585771D01*
X225362914Y-196514342D01*
X225434342Y-196442914D01*
X225505771Y-196300057D01*
X225505771Y-196014342D01*
X225434342Y-195871485D01*
X225362914Y-195800057D01*
X225220057Y-195728628D01*
X225791485Y-194677200D02*
X227220057Y-194677200D01*
X226362914Y-195728628D02*
X226220057Y-195657200D01*
X226148628Y-195585771D01*
X226077199Y-195442914D01*
X226077199Y-195371485D01*
X226148628Y-195228628D01*
X226220057Y-195157200D01*
X226362914Y-195085771D01*
X226648628Y-195085771D01*
X226791485Y-195157200D01*
X226862914Y-195228628D01*
X226934342Y-195371485D01*
X226934342Y-195442914D01*
X226862914Y-195585771D01*
X226791485Y-195657200D01*
X226648628Y-195728628D01*
X226362914Y-195728628D01*
X226220057Y-195800057D01*
X226148628Y-195871485D01*
X226077199Y-196014342D01*
X226077199Y-196300057D01*
X226148628Y-196442914D01*
X226220057Y-196514342D01*
X226362914Y-196585771D01*
X226648628Y-196585771D01*
X226791485Y-196514342D01*
X226862914Y-196442914D01*
X226934342Y-196300057D01*
X226934342Y-196014342D01*
X226862914Y-195871485D01*
X226791485Y-195800057D01*
X226648628Y-195728628D01*
X228220057Y-195585771D02*
X228220057Y-196585771D01*
X227577199Y-195585771D02*
X227577199Y-196371485D01*
X227648628Y-196514342D01*
X227791485Y-196585771D01*
X228005771Y-196585771D01*
X228148628Y-196514342D01*
X228220057Y-196442914D01*
X228934342Y-196585771D02*
X228934342Y-195085771D01*
X228934342Y-195657200D02*
X229077199Y-195585771D01*
X229362914Y-195585771D01*
X229505771Y-195657200D01*
X229577199Y-195728628D01*
X229648628Y-195871485D01*
X229648628Y-196300057D01*
X229577199Y-196442914D01*
X229505771Y-196514342D01*
X229362914Y-196585771D01*
X229077199Y-196585771D01*
X228934342Y-196514342D01*
X230934342Y-195585771D02*
X230934342Y-196585771D01*
X230291485Y-195585771D02*
X230291485Y-196371485D01*
X230362914Y-196514342D01*
X230505771Y-196585771D01*
X230720057Y-196585771D01*
X230862914Y-196514342D01*
X230934342Y-196442914D01*
X231648628Y-195585771D02*
X231648628Y-196585771D01*
X231648628Y-195728628D02*
X231720057Y-195657200D01*
X231862914Y-195585771D01*
X232077199Y-195585771D01*
X232220057Y-195657200D01*
X232291485Y-195800057D01*
X232291485Y-196585771D01*
X232791485Y-195585771D02*
X233362914Y-195585771D01*
X233005771Y-195085771D02*
X233005771Y-196371485D01*
X233077199Y-196514342D01*
X233220057Y-196585771D01*
X233362914Y-196585771D01*
X234505771Y-195585771D02*
X234505771Y-196585771D01*
X233862914Y-195585771D02*
X233862914Y-196371485D01*
X233934342Y-196514342D01*
X234077200Y-196585771D01*
X234291485Y-196585771D01*
X234434342Y-196514342D01*
X234505771Y-196442914D01*
X235148628Y-195228628D02*
X235220057Y-195157200D01*
X235362914Y-195085771D01*
X235720057Y-195085771D01*
X235862914Y-195157200D01*
X235934342Y-195228628D01*
X236005771Y-195371485D01*
X236005771Y-195514342D01*
X235934342Y-195728628D01*
X235077200Y-196585771D01*
X236005771Y-196585771D01*
X236934342Y-195085771D02*
X237077199Y-195085771D01*
X237220057Y-195157200D01*
X237291485Y-195228628D01*
X237362914Y-195371485D01*
X237434342Y-195657200D01*
X237434342Y-196014342D01*
X237362914Y-196300057D01*
X237291485Y-196442914D01*
X237220057Y-196514342D01*
X237077199Y-196585771D01*
X236934342Y-196585771D01*
X236791485Y-196514342D01*
X236720057Y-196442914D01*
X236648628Y-196300057D01*
X236577199Y-196014342D01*
X236577199Y-195657200D01*
X236648628Y-195371485D01*
X236720057Y-195228628D01*
X236791485Y-195157200D01*
X236934342Y-195085771D01*
X238077199Y-196442914D02*
X238148628Y-196514342D01*
X238077199Y-196585771D01*
X238005771Y-196514342D01*
X238077199Y-196442914D01*
X238077199Y-196585771D01*
X239077199Y-195085771D02*
X239220057Y-195085771D01*
X239362914Y-195157200D01*
X239434342Y-195228628D01*
X239505771Y-195371485D01*
X239577199Y-195657200D01*
X239577199Y-196014342D01*
X239505771Y-196300057D01*
X239434342Y-196442914D01*
X239362914Y-196514342D01*
X239220057Y-196585771D01*
X239077199Y-196585771D01*
X238934342Y-196514342D01*
X238862914Y-196442914D01*
X238791485Y-196300057D01*
X238720057Y-196014342D01*
X238720057Y-195657200D01*
X238791485Y-195371485D01*
X238862914Y-195228628D01*
X238934342Y-195157200D01*
X239077199Y-195085771D01*
X240862914Y-195585771D02*
X240862914Y-196585771D01*
X240505771Y-195014342D02*
X240148628Y-196085771D01*
X241077199Y-196085771D01*
X241648628Y-196442914D02*
X241720057Y-196514342D01*
X241648628Y-196585771D01*
X241577199Y-196514342D01*
X241648628Y-196442914D01*
X241648628Y-196585771D01*
X243148628Y-196585771D02*
X242291485Y-196585771D01*
X242720057Y-196585771D02*
X242720057Y-195085771D01*
X242577199Y-195300057D01*
X242434342Y-195442914D01*
X242291485Y-195514342D01*
D10*
D11*
X177002200Y-191507200D02*
X285002200Y-191507200D01*
D10*
D12*
X264411485Y-193785771D02*
X263911485Y-193071485D01*
X263554342Y-193785771D02*
X263554342Y-192285771D01*
X264125771Y-192285771D01*
X264268628Y-192357200D01*
X264340057Y-192428628D01*
X264411485Y-192571485D01*
X264411485Y-192785771D01*
X264340057Y-192928628D01*
X264268628Y-193000057D01*
X264125771Y-193071485D01*
X263554342Y-193071485D01*
X265625771Y-193714342D02*
X265482914Y-193785771D01*
X265197200Y-193785771D01*
X265054342Y-193714342D01*
X264982914Y-193571485D01*
X264982914Y-193000057D01*
X265054342Y-192857200D01*
X265197200Y-192785771D01*
X265482914Y-192785771D01*
X265625771Y-192857200D01*
X265697200Y-193000057D01*
X265697200Y-193142914D01*
X264982914Y-193285771D01*
X266197200Y-192785771D02*
X266554342Y-193785771D01*
X266911485Y-192785771D01*
X267482914Y-193642914D02*
X267554342Y-193714342D01*
X267482914Y-193785771D01*
X267411485Y-193714342D01*
X267482914Y-193642914D01*
X267482914Y-193785771D01*
X267482914Y-192857200D02*
X267554342Y-192928628D01*
X267482914Y-193000057D01*
X267411485Y-192928628D01*
X267482914Y-192857200D01*
X267482914Y-193000057D01*
X270125771Y-193785771D02*
X269268628Y-193785771D01*
X269697200Y-193785771D02*
X269697200Y-192285771D01*
X269554342Y-192500057D01*
X269411485Y-192642914D01*
X269268628Y-192714342D01*
X270768628Y-193642914D02*
X270840057Y-193714342D01*
X270768628Y-193785771D01*
X270697200Y-193714342D01*
X270768628Y-193642914D01*
X270768628Y-193785771D01*
X271768628Y-192285771D02*
X271911485Y-192285771D01*
X272054342Y-192357200D01*
X272125771Y-192428628D01*
X272197200Y-192571485D01*
X272268628Y-192857200D01*
X272268628Y-193214342D01*
X272197200Y-193500057D01*
X272125771Y-193642914D01*
X272054342Y-193714342D01*
X271911485Y-193785771D01*
X271768628Y-193785771D01*
X271625771Y-193714342D01*
X271554342Y-193642914D01*
X271482914Y-193500057D01*
X271411485Y-193214342D01*
X271411485Y-192857200D01*
X271482914Y-192571485D01*
X271554342Y-192428628D01*
X271625771Y-192357200D01*
X271768628Y-192285771D01*
X272911485Y-193642914D02*
X272982914Y-193714342D01*
X272911485Y-193785771D01*
X272840057Y-193714342D01*
X272911485Y-193642914D01*
X272911485Y-193785771D01*
X273911485Y-192285771D02*
X274054342Y-192285771D01*
X274197200Y-192357200D01*
X274268628Y-192428628D01*
X274340057Y-192571485D01*
X274411485Y-192857200D01*
X274411485Y-193214342D01*
X274340057Y-193500057D01*
X274268628Y-193642914D01*
X274197200Y-193714342D01*
X274054342Y-193785771D01*
X273911485Y-193785771D01*
X273768628Y-193714342D01*
X273697200Y-193642914D01*
X273625771Y-193500057D01*
X273554342Y-193214342D01*
X273554342Y-192857200D01*
X273625771Y-192571485D01*
X273697200Y-192428628D01*
X273768628Y-192357200D01*
X273911485Y-192285771D01*
D10*
D11*
X178362914Y-193714342D02*
X178577200Y-193785771D01*
X178934342Y-193785771D01*
X179077200Y-193714342D01*
X179148628Y-193642914D01*
X179220057Y-193500057D01*
X179220057Y-193357200D01*
X179148628Y-193214342D01*
X179077200Y-193142914D01*
X178934342Y-193071485D01*
X178648628Y-193000057D01*
X178505771Y-192928628D01*
X178434342Y-192857200D01*
X178362914Y-192714342D01*
X178362914Y-192571485D01*
X178434342Y-192428628D01*
X178505771Y-192357200D01*
X178648628Y-192285771D01*
X179005771Y-192285771D01*
X179220057Y-192357200D01*
X179862914Y-193785771D02*
X179862914Y-192785771D01*
X179862914Y-192285771D02*
X179791485Y-192357200D01*
X179862914Y-192428628D01*
X179934342Y-192357200D01*
X179862914Y-192285771D01*
X179862914Y-192428628D01*
X180434342Y-192785771D02*
X181220057Y-192785771D01*
X180434342Y-193785771D01*
X181220057Y-193785771D01*
X182362914Y-193714342D02*
X182220057Y-193785771D01*
X181934342Y-193785771D01*
X181791485Y-193714342D01*
X181720057Y-193571485D01*
X181720057Y-193000057D01*
X181791485Y-192857200D01*
X181934342Y-192785771D01*
X182220057Y-192785771D01*
X182362914Y-192857200D01*
X182434342Y-193000057D01*
X182434342Y-193142914D01*
X181720057Y-193285771D01*
X183077200Y-193642914D02*
X183148628Y-193714342D01*
X183077200Y-193785771D01*
X183005771Y-193714342D01*
X183077200Y-193642914D01*
X183077200Y-193785771D01*
X183077200Y-192857200D02*
X183148628Y-192928628D01*
X183077200Y-193000057D01*
X183005771Y-192928628D01*
X183077200Y-192857200D01*
X183077200Y-193000057D01*
X184862914Y-193357200D02*
X185577200Y-193357200D01*
X184720057Y-193785771D02*
X185220057Y-192285771D01*
X185720057Y-193785771D01*
X186862914Y-192785771D02*
X186862914Y-193785771D01*
X186505771Y-192214342D02*
X186148628Y-193285771D01*
X187077200Y-193285771D01*
D10*
D11*
X263434342Y-196585771D02*
X263434342Y-195085771D01*
X264791485Y-196585771D02*
X264791485Y-195085771D01*
X264791485Y-196514342D02*
X264648628Y-196585771D01*
X264362914Y-196585771D01*
X264220057Y-196514342D01*
X264148628Y-196442914D01*
X264077200Y-196300057D01*
X264077200Y-195871485D01*
X264148628Y-195728628D01*
X264220057Y-195657200D01*
X264362914Y-195585771D01*
X264648628Y-195585771D01*
X264791485Y-195657200D01*
X265505771Y-196442914D02*
X265577200Y-196514342D01*
X265505771Y-196585771D01*
X265434342Y-196514342D01*
X265505771Y-196442914D01*
X265505771Y-196585771D01*
X265505771Y-195657200D02*
X265577200Y-195728628D01*
X265505771Y-195800057D01*
X265434342Y-195728628D01*
X265505771Y-195657200D01*
X265505771Y-195800057D01*
X268148628Y-196585771D02*
X267291485Y-196585771D01*
X267720057Y-196585771D02*
X267720057Y-195085771D01*
X267577200Y-195300057D01*
X267434342Y-195442914D01*
X267291485Y-195514342D01*
X269862914Y-195014342D02*
X268577200Y-196942914D01*
X271148628Y-196585771D02*
X270291485Y-196585771D01*
X270720057Y-196585771D02*
X270720057Y-195085771D01*
X270577200Y-195300057D01*
X270434342Y-195442914D01*
X270291485Y-195514342D01*
D10*
D11*
X177002200Y-187507200D02*
X285002200Y-187507200D01*
D10*
D13*
X178714580Y-188211961D02*
X179857438Y-188211961D01*
X179036009Y-190211961D02*
X179286009Y-188211961D01*
X180274104Y-190211961D02*
X180440771Y-188878628D01*
X180524104Y-188211961D02*
X180416961Y-188307200D01*
X180500295Y-188402438D01*
X180607438Y-188307200D01*
X180524104Y-188211961D01*
X180500295Y-188402438D01*
X181107438Y-188878628D02*
X181869342Y-188878628D01*
X181476485Y-188211961D02*
X181262200Y-189926247D01*
X181333628Y-190116723D01*
X181512200Y-190211961D01*
X181702676Y-190211961D01*
X182655057Y-190211961D02*
X182476485Y-190116723D01*
X182405057Y-189926247D01*
X182619342Y-188211961D01*
X184190771Y-190116723D02*
X183988390Y-190211961D01*
X183607438Y-190211961D01*
X183428866Y-190116723D01*
X183357438Y-189926247D01*
X183452676Y-189164342D01*
X183571723Y-188973866D01*
X183774104Y-188878628D01*
X184155057Y-188878628D01*
X184333628Y-188973866D01*
X184405057Y-189164342D01*
X184381247Y-189354819D01*
X183405057Y-189545295D01*
X185155057Y-190021485D02*
X185238390Y-190116723D01*
X185131247Y-190211961D01*
X185047914Y-190116723D01*
X185155057Y-190021485D01*
X185131247Y-190211961D01*
X185286009Y-188973866D02*
X185369342Y-189069104D01*
X185262200Y-189164342D01*
X185178866Y-189069104D01*
X185286009Y-188973866D01*
X185262200Y-189164342D01*
X188559819Y-190211961D02*
X187607438Y-190211961D01*
X187857438Y-188211961D01*
X189857438Y-188211961D02*
X190238390Y-188211961D01*
X190416961Y-188307200D01*
X190583628Y-188497676D01*
X190631247Y-188878628D01*
X190547914Y-189545295D01*
X190405057Y-189926247D01*
X190190771Y-190116723D01*
X189988390Y-190211961D01*
X189607438Y-190211961D01*
X189428866Y-190116723D01*
X189262200Y-189926247D01*
X189214580Y-189545295D01*
X189297914Y-188878628D01*
X189440771Y-188497676D01*
X189655057Y-188307200D01*
X189857438Y-188211961D01*
X192607438Y-188307200D02*
X192428866Y-188211961D01*
X192143152Y-188211961D01*
X191845533Y-188307200D01*
X191631247Y-188497676D01*
X191512200Y-188688152D01*
X191369342Y-189069104D01*
X191333628Y-189354819D01*
X191381247Y-189735771D01*
X191452676Y-189926247D01*
X191619342Y-190116723D01*
X191893152Y-190211961D01*
X192083628Y-190211961D01*
X192381247Y-190116723D01*
X192488390Y-190021485D01*
X192571723Y-189354819D01*
X192190771Y-189354819D01*
X193321723Y-190211961D02*
X193571723Y-188211961D01*
X195440771Y-190021485D02*
X195333628Y-190116723D01*
X195036009Y-190211961D01*
X194845533Y-190211961D01*
X194571723Y-190116723D01*
X194405057Y-189926247D01*
X194333628Y-189735771D01*
X194286009Y-189354819D01*
X194321723Y-189069104D01*
X194464580Y-188688152D01*
X194583628Y-188497676D01*
X194797914Y-188307200D01*
X195095533Y-188211961D01*
X195286009Y-188211961D01*
X195559819Y-188307200D01*
X195643152Y-188402438D01*
X198595533Y-189164342D02*
X198869342Y-189259580D01*
X198952676Y-189354819D01*
X199024104Y-189545295D01*
X198988390Y-189831009D01*
X198869342Y-190021485D01*
X198762200Y-190116723D01*
X198559819Y-190211961D01*
X197797914Y-190211961D01*
X198047914Y-188211961D01*
X198714580Y-188211961D01*
X198893152Y-188307200D01*
X198976485Y-188402438D01*
X199047914Y-188592914D01*
X199024104Y-188783390D01*
X198905057Y-188973866D01*
X198797914Y-189069104D01*
X198595533Y-189164342D01*
X197928866Y-189164342D01*
X200428866Y-188211961D02*
X200809819Y-188211961D01*
X200988390Y-188307200D01*
X201155057Y-188497676D01*
X201202676Y-188878628D01*
X201119342Y-189545295D01*
X200976485Y-189926247D01*
X200762200Y-190116723D01*
X200559819Y-190211961D01*
X200178866Y-190211961D01*
X200000295Y-190116723D01*
X199833628Y-189926247D01*
X199786009Y-189545295D01*
X199869342Y-188878628D01*
X200012200Y-188497676D01*
X200226485Y-188307200D01*
X200428866Y-188211961D01*
X201869342Y-189640533D02*
X202821723Y-189640533D01*
X201607438Y-190211961D02*
X202524104Y-188211961D01*
X202940771Y-190211961D01*
X204750295Y-190211961D02*
X204202676Y-189259580D01*
X203607438Y-190211961D02*
X203857438Y-188211961D01*
X204619342Y-188211961D01*
X204797914Y-188307200D01*
X204881247Y-188402438D01*
X204952676Y-188592914D01*
X204916961Y-188878628D01*
X204797914Y-189069104D01*
X204690771Y-189164342D01*
X204488390Y-189259580D01*
X203726485Y-189259580D01*
X205607438Y-190211961D02*
X205857438Y-188211961D01*
X206333628Y-188211961D01*
X206607438Y-188307200D01*
X206774104Y-188497676D01*
X206845533Y-188688152D01*
X206893152Y-189069104D01*
X206857438Y-189354819D01*
X206714580Y-189735771D01*
X206595533Y-189926247D01*
X206381247Y-190116723D01*
X206083628Y-190211961D01*
X205607438Y-190211961D01*
X210178866Y-190211961D02*
X209036009Y-190211961D01*
X209607438Y-190211961D02*
X209857438Y-188211961D01*
X209631247Y-188497676D01*
X209416961Y-188688152D01*
X209214580Y-188783390D01*
X211012200Y-189640533D02*
X211964580Y-189640533D01*
X210750295Y-190211961D02*
X211666961Y-188211961D01*
X212083628Y-190211961D01*
X214750295Y-190973866D02*
X214666961Y-190878628D01*
X214512200Y-190592914D01*
X214440771Y-190402438D01*
X214381247Y-190116723D01*
X214345533Y-189640533D01*
X214393152Y-189259580D01*
X214547914Y-188783390D01*
X214678866Y-188497676D01*
X214797914Y-188307200D01*
X215024104Y-188021485D01*
X215131247Y-187926247D01*
X216559819Y-190211961D02*
X215607438Y-190211961D01*
X215857438Y-188211961D01*
X218024104Y-189164342D02*
X218297914Y-189259580D01*
X218381247Y-189354819D01*
X218452676Y-189545295D01*
X218416961Y-189831009D01*
X218297914Y-190021485D01*
X218190771Y-190116723D01*
X217988390Y-190211961D01*
X217226485Y-190211961D01*
X217476485Y-188211961D01*
X218143152Y-188211961D01*
X218321723Y-188307200D01*
X218405057Y-188402438D01*
X218476485Y-188592914D01*
X218452676Y-188783390D01*
X218333628Y-188973866D01*
X218226485Y-189069104D01*
X218024104Y-189164342D01*
X217357438Y-189164342D01*
X220274104Y-190211961D02*
X219131247Y-190211961D01*
X219702676Y-190211961D02*
X219952676Y-188211961D01*
X219726485Y-188497676D01*
X219512200Y-188688152D01*
X219309819Y-188783390D01*
X221107438Y-189640533D02*
X222059819Y-189640533D01*
X220845533Y-190211961D02*
X221762200Y-188211961D01*
X222178866Y-190211961D01*
X222345533Y-190402438D02*
X223869342Y-190402438D01*
X224369342Y-190211961D02*
X224619342Y-188211961D01*
X225095533Y-188211961D01*
X225369342Y-188307200D01*
X225536009Y-188497676D01*
X225607438Y-188688152D01*
X225655057Y-189069104D01*
X225619342Y-189354819D01*
X225476485Y-189735771D01*
X225357438Y-189926247D01*
X225143152Y-190116723D01*
X224845533Y-190211961D01*
X224369342Y-190211961D01*
X227536009Y-190021485D02*
X227428866Y-190116723D01*
X227131247Y-190211961D01*
X226940771Y-190211961D01*
X226666961Y-190116723D01*
X226500295Y-189926247D01*
X226428866Y-189735771D01*
X226381247Y-189354819D01*
X226416961Y-189069104D01*
X226559819Y-188688152D01*
X226678866Y-188497676D01*
X226893152Y-188307200D01*
X227190771Y-188211961D01*
X227381247Y-188211961D01*
X227655057Y-188307200D01*
X227738390Y-188402438D01*
X228345533Y-189640533D02*
X229297914Y-189640533D01*
X228083628Y-190211961D02*
X229000295Y-188211961D01*
X229416961Y-190211961D01*
X230143152Y-188211961D02*
X231476485Y-188211961D01*
X230369342Y-190211961D01*
X231988390Y-190211961D02*
X232238390Y-188211961D01*
X232726485Y-189640533D01*
X233571723Y-188211961D01*
X233321723Y-190211961D01*
X235297914Y-188878628D02*
X235131247Y-190211961D01*
X234916961Y-188116723D02*
X234262200Y-189545295D01*
X235500295Y-189545295D01*
X235678866Y-190402438D02*
X237202676Y-190402438D01*
X238845533Y-190211961D02*
X238297914Y-189259580D01*
X237702676Y-190211961D02*
X237952676Y-188211961D01*
X238714580Y-188211961D01*
X238893152Y-188307200D01*
X238976485Y-188402438D01*
X239047914Y-188592914D01*
X239012200Y-188878628D01*
X238893152Y-189069104D01*
X238786009Y-189164342D01*
X238583628Y-189259580D01*
X237821723Y-189259580D01*
X240905057Y-188211961D02*
X239952676Y-188211961D01*
X239738390Y-189164342D01*
X239845533Y-189069104D01*
X240047914Y-188973866D01*
X240524104Y-188973866D01*
X240702676Y-189069104D01*
X240786009Y-189164342D01*
X240857438Y-189354819D01*
X240797914Y-189831009D01*
X240678866Y-190021485D01*
X240571723Y-190116723D01*
X240369342Y-190211961D01*
X239893152Y-190211961D01*
X239714580Y-190116723D01*
X239631247Y-190021485D01*
X242655057Y-190211961D02*
X241512200Y-190211961D01*
X242083628Y-190211961D02*
X242333628Y-188211961D01*
X242107438Y-188497676D01*
X241893152Y-188688152D01*
X241690771Y-188783390D01*
X243643152Y-188402438D02*
X243750295Y-188307200D01*
X243952676Y-188211961D01*
X244428866Y-188211961D01*
X244607438Y-188307200D01*
X244690771Y-188402438D01*
X244762200Y-188592914D01*
X244738390Y-188783390D01*
X244607438Y-189069104D01*
X243321723Y-190211961D01*
X244559819Y-190211961D01*
X245416961Y-190211961D02*
X245666961Y-188211961D01*
X246155057Y-189640533D01*
X247000295Y-188211961D01*
X246750295Y-190211961D01*
X248500295Y-189164342D02*
X248774104Y-189259580D01*
X248857438Y-189354819D01*
X248928866Y-189545295D01*
X248893152Y-189831009D01*
X248774104Y-190021485D01*
X248666961Y-190116723D01*
X248464580Y-190211961D01*
X247702676Y-190211961D01*
X247952676Y-188211961D01*
X248619342Y-188211961D01*
X248797914Y-188307200D01*
X248881247Y-188402438D01*
X248952676Y-188592914D01*
X248928866Y-188783390D01*
X248809819Y-188973866D01*
X248702676Y-189069104D01*
X248500295Y-189164342D01*
X247833628Y-189164342D01*
X249202676Y-190402438D02*
X250726485Y-190402438D01*
X252024104Y-189164342D02*
X251357438Y-189164342D01*
X251226485Y-190211961D02*
X251476485Y-188211961D01*
X252428866Y-188211961D01*
X253964580Y-188878628D02*
X253797914Y-190211961D01*
X253583628Y-188116723D02*
X252928866Y-189545295D01*
X254166961Y-189545295D01*
X256131247Y-188307200D02*
X255952676Y-188211961D01*
X255666961Y-188211961D01*
X255369342Y-188307200D01*
X255155057Y-188497676D01*
X255036009Y-188688152D01*
X254893152Y-189069104D01*
X254857438Y-189354819D01*
X254905057Y-189735771D01*
X254976485Y-189926247D01*
X255143152Y-190116723D01*
X255416961Y-190211961D01*
X255607438Y-190211961D01*
X255905057Y-190116723D01*
X256012200Y-190021485D01*
X256095533Y-189354819D01*
X255714580Y-189354819D01*
X257643152Y-189164342D02*
X257916961Y-189259580D01*
X258000295Y-189354819D01*
X258071723Y-189545295D01*
X258036009Y-189831009D01*
X257916961Y-190021485D01*
X257809819Y-190116723D01*
X257607438Y-190211961D01*
X256845533Y-190211961D01*
X257095533Y-188211961D01*
X257762200Y-188211961D01*
X257940771Y-188307200D01*
X258024104Y-188402438D01*
X258095533Y-188592914D01*
X258071723Y-188783390D01*
X257952676Y-188973866D01*
X257845533Y-189069104D01*
X257643152Y-189164342D01*
X256976485Y-189164342D01*
X258559819Y-190973866D02*
X258666961Y-190878628D01*
X258893152Y-190592914D01*
X259012200Y-190402438D01*
X259143152Y-190116723D01*
X259297914Y-189640533D01*
X259345533Y-189259580D01*
X259309819Y-188783390D01*
X259250295Y-188497676D01*
X259178866Y-188307200D01*
X259024104Y-188021485D01*
X258940771Y-187926247D01*
D10*
D11*
X178934342Y-185600057D02*
X178434342Y-185600057D01*
X178434342Y-186385771D02*
X178434342Y-184885771D01*
X179148628Y-184885771D01*
X179720057Y-186385771D02*
X179720057Y-185385771D01*
X179720057Y-184885771D02*
X179648628Y-184957200D01*
X179720057Y-185028628D01*
X179791485Y-184957200D01*
X179720057Y-184885771D01*
X179720057Y-185028628D01*
X180648628Y-186385771D02*
X180505771Y-186314342D01*
X180434342Y-186171485D01*
X180434342Y-184885771D01*
X181791485Y-186314342D02*
X181648628Y-186385771D01*
X181362914Y-186385771D01*
X181220057Y-186314342D01*
X181148628Y-186171485D01*
X181148628Y-185600057D01*
X181220057Y-185457200D01*
X181362914Y-185385771D01*
X181648628Y-185385771D01*
X181791485Y-185457200D01*
X181862914Y-185600057D01*
X181862914Y-185742914D01*
X181148628Y-185885771D01*
X182505771Y-186242914D02*
X182577200Y-186314342D01*
X182505771Y-186385771D01*
X182434342Y-186314342D01*
X182505771Y-186242914D01*
X182505771Y-186385771D01*
X182505771Y-185457200D02*
X182577200Y-185528628D01*
X182505771Y-185600057D01*
X182434342Y-185528628D01*
X182505771Y-185457200D01*
X182505771Y-185600057D01*
X185077200Y-186385771D02*
X184362914Y-186385771D01*
X184362914Y-184885771D01*
X186077200Y-185600057D02*
X186291485Y-185671485D01*
X186362914Y-185742914D01*
X186434342Y-185885771D01*
X186434342Y-186100057D01*
X186362914Y-186242914D01*
X186291485Y-186314342D01*
X186148628Y-186385771D01*
X185577200Y-186385771D01*
X185577200Y-184885771D01*
X186077200Y-184885771D01*
X186220057Y-184957200D01*
X186291485Y-185028628D01*
X186362914Y-185171485D01*
X186362914Y-185314342D01*
X186291485Y-185457200D01*
X186220057Y-185528628D01*
X186077200Y-185600057D01*
X185577200Y-185600057D01*
X187862914Y-186385771D02*
X187005771Y-186385771D01*
X187434342Y-186385771D02*
X187434342Y-184885771D01*
X187291485Y-185100057D01*
X187148628Y-185242914D01*
X187005771Y-185314342D01*
X188434342Y-185957200D02*
X189148628Y-185957200D01*
X188291485Y-186385771D02*
X188791485Y-184885771D01*
X189291485Y-186385771D01*
X189434342Y-186528628D02*
X190577200Y-186528628D01*
X190934342Y-186385771D02*
X190934342Y-184885771D01*
X191291485Y-184885771D01*
X191505771Y-184957200D01*
X191648628Y-185100057D01*
X191720057Y-185242914D01*
X191791485Y-185528628D01*
X191791485Y-185742914D01*
X191720057Y-186028628D01*
X191648628Y-186171485D01*
X191505771Y-186314342D01*
X191291485Y-186385771D01*
X190934342Y-186385771D01*
X193291485Y-186242914D02*
X193220057Y-186314342D01*
X193005771Y-186385771D01*
X192862914Y-186385771D01*
X192648628Y-186314342D01*
X192505771Y-186171485D01*
X192434342Y-186028628D01*
X192362914Y-185742914D01*
X192362914Y-185528628D01*
X192434342Y-185242914D01*
X192505771Y-185100057D01*
X192648628Y-184957200D01*
X192862914Y-184885771D01*
X193005771Y-184885771D01*
X193220057Y-184957200D01*
X193291485Y-185028628D01*
X193862914Y-185957200D02*
X194577200Y-185957200D01*
X193720057Y-186385771D02*
X194220057Y-184885771D01*
X194720057Y-186385771D01*
X195077200Y-184885771D02*
X196077200Y-184885771D01*
X195434342Y-186385771D01*
X196648628Y-186385771D02*
X196648628Y-184885771D01*
X197148628Y-185957200D01*
X197648628Y-184885771D01*
X197648628Y-186385771D01*
X199005771Y-185385771D02*
X199005771Y-186385771D01*
X198648628Y-184814342D02*
X198291485Y-185885771D01*
X199220057Y-185885771D01*
X199434342Y-186528628D02*
X200577200Y-186528628D01*
X201791485Y-186385771D02*
X201291485Y-185671485D01*
X200934342Y-186385771D02*
X200934342Y-184885771D01*
X201505771Y-184885771D01*
X201648628Y-184957200D01*
X201720057Y-185028628D01*
X201791485Y-185171485D01*
X201791485Y-185385771D01*
X201720057Y-185528628D01*
X201648628Y-185600057D01*
X201505771Y-185671485D01*
X200934342Y-185671485D01*
X203148628Y-184885771D02*
X202434342Y-184885771D01*
X202362914Y-185600057D01*
X202434342Y-185528628D01*
X202577200Y-185457200D01*
X202934342Y-185457200D01*
X203077200Y-185528628D01*
X203148628Y-185600057D01*
X203220057Y-185742914D01*
X203220057Y-186100057D01*
X203148628Y-186242914D01*
X203077200Y-186314342D01*
X202934342Y-186385771D01*
X202577200Y-186385771D01*
X202434342Y-186314342D01*
X202362914Y-186242914D01*
X204648628Y-186385771D02*
X203791485Y-186385771D01*
X204220057Y-186385771D02*
X204220057Y-184885771D01*
X204077200Y-185100057D01*
X203934342Y-185242914D01*
X203791485Y-185314342D01*
X205220057Y-185028628D02*
X205291485Y-184957200D01*
X205434342Y-184885771D01*
X205791485Y-184885771D01*
X205934342Y-184957200D01*
X206005771Y-185028628D01*
X206077200Y-185171485D01*
X206077200Y-185314342D01*
X206005771Y-185528628D01*
X205148628Y-186385771D01*
X206077200Y-186385771D01*
X206720057Y-186385771D02*
X206720057Y-184885771D01*
X207220057Y-185957200D01*
X207720057Y-184885771D01*
X207720057Y-186385771D01*
X208934342Y-185600057D02*
X209148628Y-185671485D01*
X209220057Y-185742914D01*
X209291485Y-185885771D01*
X209291485Y-186100057D01*
X209220057Y-186242914D01*
X209148628Y-186314342D01*
X209005771Y-186385771D01*
X208434342Y-186385771D01*
X208434342Y-184885771D01*
X208934342Y-184885771D01*
X209077200Y-184957200D01*
X209148628Y-185028628D01*
X209220057Y-185171485D01*
X209220057Y-185314342D01*
X209148628Y-185457200D01*
X209077200Y-185528628D01*
X208934342Y-185600057D01*
X208434342Y-185600057D01*
X209577200Y-186528628D02*
X210720057Y-186528628D01*
X211577200Y-185600057D02*
X211077200Y-185600057D01*
X211077200Y-186385771D02*
X211077200Y-184885771D01*
X211791485Y-184885771D01*
X213005771Y-185385771D02*
X213005771Y-186385771D01*
X212648628Y-184814342D02*
X212291485Y-185885771D01*
X213220057Y-185885771D01*
X214577200Y-184957200D02*
X214434342Y-184885771D01*
X214220057Y-184885771D01*
X214005771Y-184957200D01*
X213862914Y-185100057D01*
X213791485Y-185242914D01*
X213720057Y-185528628D01*
X213720057Y-185742914D01*
X213791485Y-186028628D01*
X213862914Y-186171485D01*
X214005771Y-186314342D01*
X214220057Y-186385771D01*
X214362914Y-186385771D01*
X214577200Y-186314342D01*
X214648628Y-186242914D01*
X214648628Y-185742914D01*
X214362914Y-185742914D01*
X215791485Y-185600057D02*
X216005771Y-185671485D01*
X216077200Y-185742914D01*
X216148628Y-185885771D01*
X216148628Y-186100057D01*
X216077200Y-186242914D01*
X216005771Y-186314342D01*
X215862914Y-186385771D01*
X215291485Y-186385771D01*
X215291485Y-184885771D01*
X215791485Y-184885771D01*
X215934342Y-184957200D01*
X216005771Y-185028628D01*
X216077200Y-185171485D01*
X216077200Y-185314342D01*
X216005771Y-185457200D01*
X215934342Y-185528628D01*
X215791485Y-185600057D01*
X215291485Y-185600057D01*
X216791485Y-186242914D02*
X216862914Y-186314342D01*
X216791485Y-186385771D01*
X216720057Y-186314342D01*
X216791485Y-186242914D01*
X216791485Y-186385771D01*
X217505771Y-186385771D02*
X217505771Y-184885771D01*
X217648628Y-185814342D02*
X218077200Y-186385771D01*
X218077200Y-185385771D02*
X217505771Y-185957200D01*
X218720057Y-186385771D02*
X218720057Y-185385771D01*
X218720057Y-184885771D02*
X218648628Y-184957200D01*
X218720057Y-185028628D01*
X218791485Y-184957200D01*
X218720057Y-184885771D01*
X218720057Y-185028628D01*
X220077200Y-186314342D02*
X219934342Y-186385771D01*
X219648628Y-186385771D01*
X219505771Y-186314342D01*
X219434342Y-186242914D01*
X219362914Y-186100057D01*
X219362914Y-185671485D01*
X219434342Y-185528628D01*
X219505771Y-185457200D01*
X219648628Y-185385771D01*
X219934342Y-185385771D01*
X220077200Y-185457200D01*
X221362914Y-186385771D02*
X221362914Y-185600057D01*
X221291485Y-185457200D01*
X221148628Y-185385771D01*
X220862914Y-185385771D01*
X220720057Y-185457200D01*
X221362914Y-186314342D02*
X221220057Y-186385771D01*
X220862914Y-186385771D01*
X220720057Y-186314342D01*
X220648628Y-186171485D01*
X220648628Y-186028628D01*
X220720057Y-185885771D01*
X220862914Y-185814342D01*
X221220057Y-185814342D01*
X221362914Y-185742914D01*
X222720057Y-186385771D02*
X222720057Y-184885771D01*
X222720057Y-186314342D02*
X222577200Y-186385771D01*
X222291485Y-186385771D01*
X222148628Y-186314342D01*
X222077200Y-186242914D01*
X222005771Y-186100057D01*
X222005771Y-185671485D01*
X222077200Y-185528628D01*
X222148628Y-185457200D01*
X222291485Y-185385771D01*
X222577200Y-185385771D01*
X222720057Y-185457200D01*
X223077200Y-186528628D02*
X224220057Y-186528628D01*
X224577200Y-185385771D02*
X224577200Y-186885771D01*
X224577200Y-185457200D02*
X224720057Y-185385771D01*
X225005771Y-185385771D01*
X225148628Y-185457200D01*
X225220057Y-185528628D01*
X225291485Y-185671485D01*
X225291485Y-186100057D01*
X225220057Y-186242914D01*
X225148628Y-186314342D01*
X225005771Y-186385771D01*
X224720057Y-186385771D01*
X224577200Y-186314342D01*
X226577200Y-186314342D02*
X226434342Y-186385771D01*
X226148628Y-186385771D01*
X226005771Y-186314342D01*
X225934342Y-186242914D01*
X225862914Y-186100057D01*
X225862914Y-185671485D01*
X225934342Y-185528628D01*
X226005771Y-185457200D01*
X226148628Y-185385771D01*
X226434342Y-185385771D01*
X226577200Y-185457200D01*
X227220057Y-186385771D02*
X227220057Y-184885771D01*
X227220057Y-185457200D02*
X227362914Y-185385771D01*
X227648628Y-185385771D01*
X227791485Y-185457200D01*
X227862914Y-185528628D01*
X227934342Y-185671485D01*
X227934342Y-186100057D01*
X227862914Y-186242914D01*
X227791485Y-186314342D01*
X227648628Y-186385771D01*
X227362914Y-186385771D01*
X227220057Y-186314342D01*
D10*
D11*
X177002200Y-181507200D02*
X285002200Y-181507200D01*
D10*
D11*
X178362914Y-183614342D02*
X178577200Y-183685771D01*
X178934342Y-183685771D01*
X179077200Y-183614342D01*
X179148628Y-183542914D01*
X179220057Y-183400057D01*
X179220057Y-183257200D01*
X179148628Y-183114342D01*
X179077200Y-183042914D01*
X178934342Y-182971485D01*
X178648628Y-182900057D01*
X178505771Y-182828628D01*
X178434342Y-182757200D01*
X178362914Y-182614342D01*
X178362914Y-182471485D01*
X178434342Y-182328628D01*
X178505771Y-182257200D01*
X178648628Y-182185771D01*
X179005771Y-182185771D01*
X179220057Y-182257200D01*
X179862914Y-183685771D02*
X179862914Y-182185771D01*
X180505771Y-183685771D02*
X180505771Y-182900057D01*
X180434342Y-182757200D01*
X180291485Y-182685771D01*
X180077200Y-182685771D01*
X179934342Y-182757200D01*
X179862914Y-182828628D01*
X181791485Y-183614342D02*
X181648628Y-183685771D01*
X181362914Y-183685771D01*
X181220057Y-183614342D01*
X181148628Y-183471485D01*
X181148628Y-182900057D01*
X181220057Y-182757200D01*
X181362914Y-182685771D01*
X181648628Y-182685771D01*
X181791485Y-182757200D01*
X181862914Y-182900057D01*
X181862914Y-183042914D01*
X181148628Y-183185771D01*
X183077200Y-183614342D02*
X182934342Y-183685771D01*
X182648628Y-183685771D01*
X182505771Y-183614342D01*
X182434342Y-183471485D01*
X182434342Y-182900057D01*
X182505771Y-182757200D01*
X182648628Y-182685771D01*
X182934342Y-182685771D01*
X183077200Y-182757200D01*
X183148628Y-182900057D01*
X183148628Y-183042914D01*
X182434342Y-183185771D01*
X183577200Y-182685771D02*
X184148628Y-182685771D01*
X183791485Y-182185771D02*
X183791485Y-183471485D01*
X183862914Y-183614342D01*
X184005771Y-183685771D01*
X184148628Y-183685771D01*
X184648628Y-183542914D02*
X184720057Y-183614342D01*
X184648628Y-183685771D01*
X184577200Y-183614342D01*
X184648628Y-183542914D01*
X184648628Y-183685771D01*
X184648628Y-182757200D02*
X184720057Y-182828628D01*
X184648628Y-182900057D01*
X184577200Y-182828628D01*
X184648628Y-182757200D01*
X184648628Y-182900057D01*
D10*
D12*
X179268628Y-180685771D02*
X178554342Y-180685771D01*
X178554342Y-179185771D01*
X179982914Y-180685771D02*
X179840057Y-180614342D01*
X179768628Y-180542914D01*
X179697200Y-180400057D01*
X179697200Y-179971485D01*
X179768628Y-179828628D01*
X179840057Y-179757200D01*
X179982914Y-179685771D01*
X180197200Y-179685771D01*
X180340057Y-179757200D01*
X180411485Y-179828628D01*
X180482914Y-179971485D01*
X180482914Y-180400057D01*
X180411485Y-180542914D01*
X180340057Y-180614342D01*
X180197200Y-180685771D01*
X179982914Y-180685771D01*
X181768628Y-179685771D02*
X181768628Y-180900057D01*
X181697200Y-181042914D01*
X181625771Y-181114342D01*
X181482914Y-181185771D01*
X181268628Y-181185771D01*
X181125771Y-181114342D01*
X181768628Y-180614342D02*
X181625771Y-180685771D01*
X181340057Y-180685771D01*
X181197200Y-180614342D01*
X181125771Y-180542914D01*
X181054342Y-180400057D01*
X181054342Y-179971485D01*
X181125771Y-179828628D01*
X181197200Y-179757200D01*
X181340057Y-179685771D01*
X181625771Y-179685771D01*
X181768628Y-179757200D01*
X182482914Y-180685771D02*
X182482914Y-179685771D01*
X182482914Y-179185771D02*
X182411485Y-179257200D01*
X182482914Y-179328628D01*
X182554342Y-179257200D01*
X182482914Y-179185771D01*
X182482914Y-179328628D01*
X183840057Y-180614342D02*
X183697200Y-180685771D01*
X183411485Y-180685771D01*
X183268628Y-180614342D01*
X183197200Y-180542914D01*
X183125771Y-180400057D01*
X183125771Y-179971485D01*
X183197200Y-179828628D01*
X183268628Y-179757200D01*
X183411485Y-179685771D01*
X183697200Y-179685771D01*
X183840057Y-179757200D01*
X186125771Y-179900057D02*
X186340057Y-179971485D01*
X186411485Y-180042914D01*
X186482914Y-180185771D01*
X186482914Y-180400057D01*
X186411485Y-180542914D01*
X186340057Y-180614342D01*
X186197200Y-180685771D01*
X185625771Y-180685771D01*
X185625771Y-179185771D01*
X186125771Y-179185771D01*
X186268628Y-179257200D01*
X186340057Y-179328628D01*
X186411485Y-179471485D01*
X186411485Y-179614342D01*
X186340057Y-179757200D01*
X186268628Y-179828628D01*
X186125771Y-179900057D01*
X185625771Y-179900057D01*
X187340057Y-180685771D02*
X187197200Y-180614342D01*
X187125771Y-180542914D01*
X187054342Y-180400057D01*
X187054342Y-179971485D01*
X187125771Y-179828628D01*
X187197200Y-179757200D01*
X187340057Y-179685771D01*
X187554342Y-179685771D01*
X187697200Y-179757200D01*
X187768628Y-179828628D01*
X187840057Y-179971485D01*
X187840057Y-180400057D01*
X187768628Y-180542914D01*
X187697200Y-180614342D01*
X187554342Y-180685771D01*
X187340057Y-180685771D01*
X189125771Y-180685771D02*
X189125771Y-179900057D01*
X189054342Y-179757200D01*
X188911485Y-179685771D01*
X188625771Y-179685771D01*
X188482914Y-179757200D01*
X189125771Y-180614342D02*
X188982914Y-180685771D01*
X188625771Y-180685771D01*
X188482914Y-180614342D01*
X188411485Y-180471485D01*
X188411485Y-180328628D01*
X188482914Y-180185771D01*
X188625771Y-180114342D01*
X188982914Y-180114342D01*
X189125771Y-180042914D01*
X189840057Y-180685771D02*
X189840057Y-179685771D01*
X189840057Y-179971485D02*
X189911485Y-179828628D01*
X189982914Y-179757200D01*
X190125771Y-179685771D01*
X190268628Y-179685771D01*
X191411485Y-180685771D02*
X191411485Y-179185771D01*
X191411485Y-180614342D02*
X191268628Y-180685771D01*
X190982914Y-180685771D01*
X190840057Y-180614342D01*
X190768628Y-180542914D01*
X190697200Y-180400057D01*
X190697200Y-179971485D01*
X190768628Y-179828628D01*
X190840057Y-179757200D01*
X190982914Y-179685771D01*
X191268628Y-179685771D01*
X191411485Y-179757200D01*
X192054342Y-180614342D02*
X192197200Y-180685771D01*
X192482914Y-180685771D01*
X192625771Y-180614342D01*
X192697200Y-180471485D01*
X192697200Y-180400057D01*
X192625771Y-180257200D01*
X192482914Y-180185771D01*
X192268628Y-180185771D01*
X192125771Y-180114342D01*
X192054342Y-179971485D01*
X192054342Y-179900057D01*
X192125771Y-179757200D01*
X192268628Y-179685771D01*
X192482914Y-179685771D01*
X192625771Y-179757200D01*
D10*
D11*
X178291485Y-176685771D02*
X178577200Y-177685771D01*
X178862914Y-176971485D01*
X179148628Y-177685771D01*
X179434342Y-176685771D01*
X179862914Y-176685771D02*
X180148628Y-177685771D01*
X180434342Y-176971485D01*
X180720057Y-177685771D01*
X181005771Y-176685771D01*
X181434342Y-176685771D02*
X181720057Y-177685771D01*
X182005771Y-176971485D01*
X182291485Y-177685771D01*
X182577200Y-176685771D01*
X183148628Y-177542914D02*
X183220057Y-177614342D01*
X183148628Y-177685771D01*
X183077200Y-177614342D01*
X183148628Y-177542914D01*
X183148628Y-177685771D01*
X184077200Y-177685771D02*
X183934342Y-177614342D01*
X183862914Y-177471485D01*
X183862914Y-176185771D01*
X184862914Y-177685771D02*
X184720057Y-177614342D01*
X184648628Y-177542914D01*
X184577200Y-177400057D01*
X184577200Y-176971485D01*
X184648628Y-176828628D01*
X184720057Y-176757200D01*
X184862914Y-176685771D01*
X185077200Y-176685771D01*
X185220057Y-176757200D01*
X185291485Y-176828628D01*
X185362914Y-176971485D01*
X185362914Y-177400057D01*
X185291485Y-177542914D01*
X185220057Y-177614342D01*
X185077200Y-177685771D01*
X184862914Y-177685771D01*
X186648628Y-176685771D02*
X186648628Y-177900057D01*
X186577200Y-178042914D01*
X186505771Y-178114342D01*
X186362914Y-178185771D01*
X186148628Y-178185771D01*
X186005771Y-178114342D01*
X186648628Y-177614342D02*
X186505771Y-177685771D01*
X186220057Y-177685771D01*
X186077200Y-177614342D01*
X186005771Y-177542914D01*
X185934342Y-177400057D01*
X185934342Y-176971485D01*
X186005771Y-176828628D01*
X186077200Y-176757200D01*
X186220057Y-176685771D01*
X186505771Y-176685771D01*
X186648628Y-176757200D01*
X187362914Y-177685771D02*
X187362914Y-176685771D01*
X187362914Y-176185771D02*
X187291485Y-176257200D01*
X187362914Y-176328628D01*
X187434342Y-176257200D01*
X187362914Y-176185771D01*
X187362914Y-176328628D01*
X188720057Y-177614342D02*
X188577200Y-177685771D01*
X188291485Y-177685771D01*
X188148628Y-177614342D01*
X188077200Y-177542914D01*
X188005771Y-177400057D01*
X188005771Y-176971485D01*
X188077200Y-176828628D01*
X188148628Y-176757200D01*
X188291485Y-176685771D01*
X188577200Y-176685771D01*
X188720057Y-176757200D01*
X189362914Y-177685771D02*
X189362914Y-176185771D01*
X189362914Y-176757200D02*
X189505771Y-176685771D01*
X189791485Y-176685771D01*
X189934342Y-176757200D01*
X190005771Y-176828628D01*
X190077200Y-176971485D01*
X190077200Y-177400057D01*
X190005771Y-177542914D01*
X189934342Y-177614342D01*
X189791485Y-177685771D01*
X189505771Y-177685771D01*
X189362914Y-177614342D01*
X190934342Y-177685771D02*
X190791485Y-177614342D01*
X190720057Y-177542914D01*
X190648628Y-177400057D01*
X190648628Y-176971485D01*
X190720057Y-176828628D01*
X190791485Y-176757200D01*
X190934342Y-176685771D01*
X191148628Y-176685771D01*
X191291485Y-176757200D01*
X191362914Y-176828628D01*
X191434342Y-176971485D01*
X191434342Y-177400057D01*
X191362914Y-177542914D01*
X191291485Y-177614342D01*
X191148628Y-177685771D01*
X190934342Y-177685771D01*
X192720057Y-177685771D02*
X192720057Y-176900057D01*
X192648628Y-176757200D01*
X192505771Y-176685771D01*
X192220057Y-176685771D01*
X192077200Y-176757200D01*
X192720057Y-177614342D02*
X192577200Y-177685771D01*
X192220057Y-177685771D01*
X192077200Y-177614342D01*
X192005771Y-177471485D01*
X192005771Y-177328628D01*
X192077200Y-177185771D01*
X192220057Y-177114342D01*
X192577200Y-177114342D01*
X192720057Y-177042914D01*
X193434342Y-177685771D02*
X193434342Y-176685771D01*
X193434342Y-176971485D02*
X193505771Y-176828628D01*
X193577200Y-176757200D01*
X193720057Y-176685771D01*
X193862914Y-176685771D01*
X195005771Y-177685771D02*
X195005771Y-176185771D01*
X195005771Y-177614342D02*
X194862914Y-177685771D01*
X194577200Y-177685771D01*
X194434342Y-177614342D01*
X194362914Y-177542914D01*
X194291485Y-177400057D01*
X194291485Y-176971485D01*
X194362914Y-176828628D01*
X194434342Y-176757200D01*
X194577200Y-176685771D01*
X194862914Y-176685771D01*
X195005771Y-176757200D01*
X195648628Y-177614342D02*
X195791485Y-177685771D01*
X196077200Y-177685771D01*
X196220057Y-177614342D01*
X196291485Y-177471485D01*
X196291485Y-177400057D01*
X196220057Y-177257200D01*
X196077200Y-177185771D01*
X195862914Y-177185771D01*
X195720057Y-177114342D01*
X195648628Y-176971485D01*
X195648628Y-176900057D01*
X195720057Y-176757200D01*
X195862914Y-176685771D01*
X196077200Y-176685771D01*
X196220057Y-176757200D01*
X196934342Y-177542914D02*
X197005771Y-177614342D01*
X196934342Y-177685771D01*
X196862914Y-177614342D01*
X196934342Y-177542914D01*
X196934342Y-177685771D01*
X197862914Y-177685771D02*
X197720057Y-177614342D01*
X197648628Y-177542914D01*
X197577200Y-177400057D01*
X197577200Y-176971485D01*
X197648628Y-176828628D01*
X197720057Y-176757200D01*
X197862914Y-176685771D01*
X198077200Y-176685771D01*
X198220057Y-176757200D01*
X198291485Y-176828628D01*
X198362914Y-176971485D01*
X198362914Y-177400057D01*
X198291485Y-177542914D01*
X198220057Y-177614342D01*
X198077200Y-177685771D01*
X197862914Y-177685771D01*
X199005771Y-177685771D02*
X199005771Y-176685771D01*
X199005771Y-176971485D02*
X199077200Y-176828628D01*
X199148628Y-176757200D01*
X199291485Y-176685771D01*
X199434342Y-176685771D01*
X200577200Y-176685771D02*
X200577200Y-177900057D01*
X200505771Y-178042914D01*
X200434342Y-178114342D01*
X200291485Y-178185771D01*
X200077200Y-178185771D01*
X199934342Y-178114342D01*
X200577200Y-177614342D02*
X200434342Y-177685771D01*
X200148628Y-177685771D01*
X200005771Y-177614342D01*
X199934342Y-177542914D01*
X199862914Y-177400057D01*
X199862914Y-176971485D01*
X199934342Y-176828628D01*
X200005771Y-176757200D01*
X200148628Y-176685771D01*
X200434342Y-176685771D01*
X200577200Y-176757200D01*
D10*
D11*
X197002200Y-191507200D02*
X197002200Y-194507200D01*
D10*
D11*
X261002200Y-191507200D02*
X261002200Y-198007200D01*
D14*
X83641421Y-103000000D02*
G75*
G03*
X83641421Y-103000000I-141421J0D01*
G01*
D15*
%TO.C,G\u002A\u002A\u002A*%
G36*
X64167515Y-76295161D02*
G01*
X64218558Y-76190740D01*
X64306666Y-76115774D01*
X64434212Y-76068506D01*
X64603565Y-76047181D01*
X64671700Y-76045526D01*
X64861468Y-76055606D01*
X65012366Y-76088902D01*
X65131817Y-76147711D01*
X65205954Y-76210692D01*
X65248897Y-76263747D01*
X65272954Y-76321731D01*
X65284822Y-76403898D01*
X65287514Y-76445191D01*
X65286489Y-76560870D01*
X65270920Y-76646953D01*
X65262540Y-76667000D01*
X65223113Y-76711623D01*
X65174428Y-76732307D01*
X65131882Y-76727758D01*
X65110873Y-76696682D01*
X65111395Y-76679700D01*
X65130500Y-76543599D01*
X65137968Y-76446966D01*
X65133254Y-76379695D01*
X65115812Y-76331681D01*
X65090859Y-76298764D01*
X65024227Y-76249448D01*
X64954260Y-76221922D01*
X64880861Y-76205879D01*
X64825404Y-76191891D01*
X64799600Y-76188755D01*
X64803789Y-76207075D01*
X64840226Y-76254177D01*
X64847135Y-76262423D01*
X64888001Y-76317149D01*
X64907476Y-76368304D01*
X64910991Y-76436635D01*
X64907735Y-76493988D01*
X64893087Y-76598896D01*
X64863760Y-76670784D01*
X64837819Y-76704015D01*
X64737461Y-76776508D01*
X64617575Y-76810450D01*
X64502936Y-76807615D01*
X64502936Y-76656007D01*
X64600185Y-76650503D01*
X64687693Y-76614879D01*
X64750756Y-76550613D01*
X64761831Y-76528182D01*
X64782271Y-76445924D01*
X64764197Y-76376077D01*
X64716150Y-76313137D01*
X64632155Y-76253363D01*
X64533119Y-76228031D01*
X64435224Y-76238357D01*
X64354650Y-76285551D01*
X64354200Y-76286000D01*
X64317111Y-76353426D01*
X64304179Y-76442329D01*
X64316761Y-76528789D01*
X64338027Y-76570752D01*
X64410649Y-76629916D01*
X64502936Y-76656007D01*
X64502936Y-76807615D01*
X64489947Y-76807293D01*
X64366359Y-76768491D01*
X64258596Y-76695494D01*
X64199206Y-76625312D01*
X64162198Y-76532256D01*
X64151167Y-76430789D01*
X64167515Y-76295161D01*
G37*
X64167515Y-76295161D02*
X64218558Y-76190740D01*
X64306666Y-76115774D01*
X64434212Y-76068506D01*
X64603565Y-76047181D01*
X64671700Y-76045526D01*
X64861468Y-76055606D01*
X65012366Y-76088902D01*
X65131817Y-76147711D01*
X65205954Y-76210692D01*
X65248897Y-76263747D01*
X65272954Y-76321731D01*
X65284822Y-76403898D01*
X65287514Y-76445191D01*
X65286489Y-76560870D01*
X65270920Y-76646953D01*
X65262540Y-76667000D01*
X65223113Y-76711623D01*
X65174428Y-76732307D01*
X65131882Y-76727758D01*
X65110873Y-76696682D01*
X65111395Y-76679700D01*
X65130500Y-76543599D01*
X65137968Y-76446966D01*
X65133254Y-76379695D01*
X65115812Y-76331681D01*
X65090859Y-76298764D01*
X65024227Y-76249448D01*
X64954260Y-76221922D01*
X64880861Y-76205879D01*
X64825404Y-76191891D01*
X64799600Y-76188755D01*
X64803789Y-76207075D01*
X64840226Y-76254177D01*
X64847135Y-76262423D01*
X64888001Y-76317149D01*
X64907476Y-76368304D01*
X64910991Y-76436635D01*
X64907735Y-76493988D01*
X64893087Y-76598896D01*
X64863760Y-76670784D01*
X64837819Y-76704015D01*
X64737461Y-76776508D01*
X64617575Y-76810450D01*
X64502936Y-76807615D01*
X64502936Y-76656007D01*
X64600185Y-76650503D01*
X64687693Y-76614879D01*
X64750756Y-76550613D01*
X64761831Y-76528182D01*
X64782271Y-76445924D01*
X64764197Y-76376077D01*
X64716150Y-76313137D01*
X64632155Y-76253363D01*
X64533119Y-76228031D01*
X64435224Y-76238357D01*
X64354650Y-76285551D01*
X64354200Y-76286000D01*
X64317111Y-76353426D01*
X64304179Y-76442329D01*
X64316761Y-76528789D01*
X64338027Y-76570752D01*
X64410649Y-76629916D01*
X64502936Y-76656007D01*
X64502936Y-76807615D01*
X64489947Y-76807293D01*
X64366359Y-76768491D01*
X64258596Y-76695494D01*
X64199206Y-76625312D01*
X64162198Y-76532256D01*
X64151167Y-76430789D01*
X64167515Y-76295161D01*
G36*
X63882093Y-78360655D02*
G01*
X63886377Y-78358818D01*
X63924044Y-78353774D01*
X64003360Y-78349422D01*
X64115177Y-78346054D01*
X64250346Y-78343961D01*
X64370128Y-78343400D01*
X64813701Y-78343400D01*
X64799850Y-78254500D01*
X64785545Y-78162803D01*
X64771787Y-78074775D01*
X64772169Y-77994058D01*
X64796751Y-77935170D01*
X64839786Y-77911620D01*
X64841206Y-77911600D01*
X64868074Y-77934823D01*
X64895292Y-77995953D01*
X64920227Y-78082187D01*
X64940251Y-78180720D01*
X64952732Y-78278748D01*
X64955041Y-78363467D01*
X64945556Y-78419600D01*
X64915689Y-78465252D01*
X64902841Y-78476362D01*
X64869274Y-78482366D01*
X64794682Y-78487266D01*
X64688826Y-78491022D01*
X64561470Y-78493595D01*
X64422376Y-78494947D01*
X64281307Y-78495040D01*
X64148026Y-78493834D01*
X64032295Y-78491291D01*
X63943878Y-78487372D01*
X63892537Y-78482040D01*
X63886377Y-78480383D01*
X63852235Y-78445769D01*
X63850807Y-78397467D01*
X63882093Y-78360655D01*
G37*
X63882093Y-78360655D02*
X63886377Y-78358818D01*
X63924044Y-78353774D01*
X64003360Y-78349422D01*
X64115177Y-78346054D01*
X64250346Y-78343961D01*
X64370128Y-78343400D01*
X64813701Y-78343400D01*
X64799850Y-78254500D01*
X64785545Y-78162803D01*
X64771787Y-78074775D01*
X64772169Y-77994058D01*
X64796751Y-77935170D01*
X64839786Y-77911620D01*
X64841206Y-77911600D01*
X64868074Y-77934823D01*
X64895292Y-77995953D01*
X64920227Y-78082187D01*
X64940251Y-78180720D01*
X64952732Y-78278748D01*
X64955041Y-78363467D01*
X64945556Y-78419600D01*
X64915689Y-78465252D01*
X64902841Y-78476362D01*
X64869274Y-78482366D01*
X64794682Y-78487266D01*
X64688826Y-78491022D01*
X64561470Y-78493595D01*
X64422376Y-78494947D01*
X64281307Y-78495040D01*
X64148026Y-78493834D01*
X64032295Y-78491291D01*
X63943878Y-78487372D01*
X63892537Y-78482040D01*
X63886377Y-78480383D01*
X63852235Y-78445769D01*
X63850807Y-78397467D01*
X63882093Y-78360655D01*
G36*
X64158240Y-77302320D02*
G01*
X64195422Y-77178112D01*
X64266721Y-77074896D01*
X64303760Y-77042969D01*
X64408756Y-76994614D01*
X64534603Y-76979648D01*
X64663303Y-76998729D01*
X64735200Y-77027202D01*
X64830874Y-77099092D01*
X64907680Y-77198928D01*
X64954578Y-77309762D01*
X64963800Y-77378200D01*
X64952265Y-77439999D01*
X64923134Y-77520151D01*
X64906650Y-77555089D01*
X64827656Y-77659549D01*
X64723204Y-77728083D01*
X64603769Y-77760671D01*
X64557400Y-77759409D01*
X64557400Y-77594100D01*
X64641882Y-77589782D01*
X64696452Y-77571767D01*
X64741628Y-77532466D01*
X64750099Y-77522834D01*
X64799672Y-77431633D01*
X64808884Y-77330872D01*
X64776377Y-77238112D01*
X64772551Y-77232439D01*
X64712628Y-77182714D01*
X64624541Y-77148145D01*
X64530254Y-77135667D01*
X64482747Y-77140955D01*
X64387473Y-77185563D01*
X64325994Y-77259379D01*
X64301911Y-77350760D01*
X64318821Y-77448064D01*
X64364700Y-77522834D01*
X64410343Y-77566640D01*
X64461788Y-77587832D01*
X64539553Y-77594000D01*
X64557400Y-77594100D01*
X64557400Y-77759409D01*
X64479829Y-77757296D01*
X64361860Y-77717936D01*
X64260339Y-77642574D01*
X64198030Y-77556397D01*
X64158126Y-77433191D01*
X64158240Y-77302320D01*
G37*
X64158240Y-77302320D02*
X64195422Y-77178112D01*
X64266721Y-77074896D01*
X64303760Y-77042969D01*
X64408756Y-76994614D01*
X64534603Y-76979648D01*
X64663303Y-76998729D01*
X64735200Y-77027202D01*
X64830874Y-77099092D01*
X64907680Y-77198928D01*
X64954578Y-77309762D01*
X64963800Y-77378200D01*
X64952265Y-77439999D01*
X64923134Y-77520151D01*
X64906650Y-77555089D01*
X64827656Y-77659549D01*
X64723204Y-77728083D01*
X64603769Y-77760671D01*
X64557400Y-77759409D01*
X64557400Y-77594100D01*
X64641882Y-77589782D01*
X64696452Y-77571767D01*
X64741628Y-77532466D01*
X64750099Y-77522834D01*
X64799672Y-77431633D01*
X64808884Y-77330872D01*
X64776377Y-77238112D01*
X64772551Y-77232439D01*
X64712628Y-77182714D01*
X64624541Y-77148145D01*
X64530254Y-77135667D01*
X64482747Y-77140955D01*
X64387473Y-77185563D01*
X64325994Y-77259379D01*
X64301911Y-77350760D01*
X64318821Y-77448064D01*
X64364700Y-77522834D01*
X64410343Y-77566640D01*
X64461788Y-77587832D01*
X64539553Y-77594000D01*
X64557400Y-77594100D01*
X64557400Y-77759409D01*
X64479829Y-77757296D01*
X64361860Y-77717936D01*
X64260339Y-77642574D01*
X64198030Y-77556397D01*
X64158126Y-77433191D01*
X64158240Y-77302320D01*
G36*
X64159585Y-74950239D02*
G01*
X64184364Y-74868549D01*
X64224372Y-74814878D01*
X64266050Y-74800100D01*
X64292594Y-74804656D01*
X64306564Y-74825750D01*
X64310689Y-74874524D01*
X64307698Y-74962123D01*
X64307357Y-74968750D01*
X64306933Y-75064097D01*
X64314510Y-75145141D01*
X64326706Y-75189889D01*
X64381157Y-75242636D01*
X64465197Y-75272010D01*
X64563358Y-75278096D01*
X64660172Y-75260980D01*
X64740167Y-75220747D01*
X64772370Y-75187420D01*
X64805372Y-75101070D01*
X64806182Y-74995813D01*
X64774807Y-74892033D01*
X64772261Y-74886993D01*
X64747003Y-74815428D01*
X64761778Y-74774268D01*
X64812246Y-74762000D01*
X64862351Y-74785294D01*
X64904166Y-74847102D01*
X64933650Y-74935320D01*
X64946764Y-75037840D01*
X64939469Y-75142555D01*
X64939386Y-75143000D01*
X64892361Y-75268796D01*
X64807378Y-75364901D01*
X64690906Y-75426255D01*
X64549567Y-75447800D01*
X64442153Y-75428873D01*
X64333980Y-75379109D01*
X64243390Y-75309034D01*
X64195489Y-75244600D01*
X64163261Y-75150147D01*
X64151922Y-75048066D01*
X64159585Y-74950239D01*
G37*
X64159585Y-74950239D02*
X64184364Y-74868549D01*
X64224372Y-74814878D01*
X64266050Y-74800100D01*
X64292594Y-74804656D01*
X64306564Y-74825750D01*
X64310689Y-74874524D01*
X64307698Y-74962123D01*
X64307357Y-74968750D01*
X64306933Y-75064097D01*
X64314510Y-75145141D01*
X64326706Y-75189889D01*
X64381157Y-75242636D01*
X64465197Y-75272010D01*
X64563358Y-75278096D01*
X64660172Y-75260980D01*
X64740167Y-75220747D01*
X64772370Y-75187420D01*
X64805372Y-75101070D01*
X64806182Y-74995813D01*
X64774807Y-74892033D01*
X64772261Y-74886993D01*
X64747003Y-74815428D01*
X64761778Y-74774268D01*
X64812246Y-74762000D01*
X64862351Y-74785294D01*
X64904166Y-74847102D01*
X64933650Y-74935320D01*
X64946764Y-75037840D01*
X64939469Y-75142555D01*
X64939386Y-75143000D01*
X64892361Y-75268796D01*
X64807378Y-75364901D01*
X64690906Y-75426255D01*
X64549567Y-75447800D01*
X64442153Y-75428873D01*
X64333980Y-75379109D01*
X64243390Y-75309034D01*
X64195489Y-75244600D01*
X64163261Y-75150147D01*
X64151922Y-75048066D01*
X64159585Y-74950239D01*
G36*
X64163495Y-73106587D02*
G01*
X64194043Y-73010265D01*
X64270167Y-72913599D01*
X64372756Y-72851097D01*
X64491155Y-72822244D01*
X64614706Y-72826528D01*
X64732752Y-72863432D01*
X64834638Y-72932443D01*
X64909706Y-73033047D01*
X64915441Y-73045076D01*
X64954399Y-73163104D01*
X64954929Y-73274825D01*
X64937683Y-73348680D01*
X64881620Y-73456521D01*
X64793388Y-73535105D01*
X64683195Y-73583192D01*
X64573385Y-73597913D01*
X64573385Y-73440563D01*
X64682676Y-73415787D01*
X64708766Y-73403635D01*
X64763631Y-73367829D01*
X64794279Y-73334078D01*
X64794399Y-73333785D01*
X64808623Y-73252201D01*
X64800452Y-73157437D01*
X64783199Y-73102297D01*
X64724209Y-73032296D01*
X64626190Y-72992861D01*
X64529650Y-72984000D01*
X64422938Y-73004918D01*
X64347316Y-73064256D01*
X64307931Y-73156890D01*
X64303400Y-73209188D01*
X64325383Y-73306800D01*
X64384520Y-73381168D01*
X64470594Y-73427389D01*
X64573385Y-73440563D01*
X64573385Y-73597913D01*
X64561247Y-73599541D01*
X64437751Y-73582916D01*
X64322913Y-73532074D01*
X64226939Y-73445779D01*
X64219332Y-73435904D01*
X64176095Y-73343106D01*
X64157062Y-73226246D01*
X64163495Y-73106587D01*
G37*
X64163495Y-73106587D02*
X64194043Y-73010265D01*
X64270167Y-72913599D01*
X64372756Y-72851097D01*
X64491155Y-72822244D01*
X64614706Y-72826528D01*
X64732752Y-72863432D01*
X64834638Y-72932443D01*
X64909706Y-73033047D01*
X64915441Y-73045076D01*
X64954399Y-73163104D01*
X64954929Y-73274825D01*
X64937683Y-73348680D01*
X64881620Y-73456521D01*
X64793388Y-73535105D01*
X64683195Y-73583192D01*
X64573385Y-73597913D01*
X64573385Y-73440563D01*
X64682676Y-73415787D01*
X64708766Y-73403635D01*
X64763631Y-73367829D01*
X64794279Y-73334078D01*
X64794399Y-73333785D01*
X64808623Y-73252201D01*
X64800452Y-73157437D01*
X64783199Y-73102297D01*
X64724209Y-73032296D01*
X64626190Y-72992861D01*
X64529650Y-72984000D01*
X64422938Y-73004918D01*
X64347316Y-73064256D01*
X64307931Y-73156890D01*
X64303400Y-73209188D01*
X64325383Y-73306800D01*
X64384520Y-73381168D01*
X64470594Y-73427389D01*
X64573385Y-73440563D01*
X64573385Y-73597913D01*
X64561247Y-73599541D01*
X64437751Y-73582916D01*
X64322913Y-73532074D01*
X64226939Y-73445779D01*
X64219332Y-73435904D01*
X64176095Y-73343106D01*
X64157062Y-73226246D01*
X64163495Y-73106587D01*
G36*
X64164912Y-72181057D02*
G01*
X64196368Y-72122315D01*
X64250203Y-72049499D01*
X64198392Y-72035950D01*
X64158173Y-72006753D01*
X64155473Y-71976151D01*
X64188293Y-71939931D01*
X64270809Y-71914055D01*
X64402981Y-71898530D01*
X64534804Y-71893683D01*
X64688153Y-71897241D01*
X64808233Y-71911437D01*
X64891346Y-71934869D01*
X64933790Y-71966135D01*
X64931867Y-72003832D01*
X64902458Y-72033063D01*
X64873530Y-72061946D01*
X64878601Y-72095686D01*
X64895309Y-72124640D01*
X64943392Y-72246733D01*
X64941850Y-72376684D01*
X64939580Y-72387100D01*
X64893461Y-72506919D01*
X64817465Y-72589516D01*
X64707722Y-72637565D01*
X64560360Y-72653739D01*
X64553561Y-72653761D01*
X64498758Y-72646594D01*
X64498758Y-72497444D01*
X64600757Y-72494645D01*
X64694495Y-72471460D01*
X64760872Y-72430671D01*
X64765947Y-72424904D01*
X64806146Y-72338384D01*
X64806210Y-72241356D01*
X64767246Y-72152974D01*
X64749054Y-72131946D01*
X64666659Y-72081929D01*
X64563103Y-72062766D01*
X64457844Y-72074805D01*
X64370342Y-72118392D01*
X64362699Y-72125069D01*
X64305394Y-72206321D01*
X64287807Y-72297041D01*
X64308213Y-72383707D01*
X64364887Y-72452798D01*
X64407599Y-72477077D01*
X64498758Y-72497444D01*
X64498758Y-72646594D01*
X64402376Y-72633989D01*
X64277336Y-72576905D01*
X64193022Y-72496023D01*
X64151854Y-72401903D01*
X64142548Y-72289779D01*
X64164912Y-72181057D01*
G37*
X64164912Y-72181057D02*
X64196368Y-72122315D01*
X64250203Y-72049499D01*
X64198392Y-72035950D01*
X64158173Y-72006753D01*
X64155473Y-71976151D01*
X64188293Y-71939931D01*
X64270809Y-71914055D01*
X64402981Y-71898530D01*
X64534804Y-71893683D01*
X64688153Y-71897241D01*
X64808233Y-71911437D01*
X64891346Y-71934869D01*
X64933790Y-71966135D01*
X64931867Y-72003832D01*
X64902458Y-72033063D01*
X64873530Y-72061946D01*
X64878601Y-72095686D01*
X64895309Y-72124640D01*
X64943392Y-72246733D01*
X64941850Y-72376684D01*
X64939580Y-72387100D01*
X64893461Y-72506919D01*
X64817465Y-72589516D01*
X64707722Y-72637565D01*
X64560360Y-72653739D01*
X64553561Y-72653761D01*
X64498758Y-72646594D01*
X64498758Y-72497444D01*
X64600757Y-72494645D01*
X64694495Y-72471460D01*
X64760872Y-72430671D01*
X64765947Y-72424904D01*
X64806146Y-72338384D01*
X64806210Y-72241356D01*
X64767246Y-72152974D01*
X64749054Y-72131946D01*
X64666659Y-72081929D01*
X64563103Y-72062766D01*
X64457844Y-72074805D01*
X64370342Y-72118392D01*
X64362699Y-72125069D01*
X64305394Y-72206321D01*
X64287807Y-72297041D01*
X64308213Y-72383707D01*
X64364887Y-72452798D01*
X64407599Y-72477077D01*
X64498758Y-72497444D01*
X64498758Y-72646594D01*
X64402376Y-72633989D01*
X64277336Y-72576905D01*
X64193022Y-72496023D01*
X64151854Y-72401903D01*
X64142548Y-72289779D01*
X64164912Y-72181057D01*
G36*
X64252600Y-70298005D02*
G01*
X64432737Y-70294010D01*
X64581398Y-70287470D01*
X64693005Y-70278760D01*
X64761985Y-70268252D01*
X64777936Y-70262880D01*
X64845383Y-70246583D01*
X64899208Y-70264245D01*
X64928913Y-70305308D01*
X64923998Y-70359208D01*
X64903727Y-70389413D01*
X64878294Y-70434386D01*
X64889921Y-70461562D01*
X64919930Y-70517139D01*
X64939139Y-70600857D01*
X64943656Y-70690529D01*
X64938100Y-70736100D01*
X64890771Y-70866183D01*
X64811735Y-70957352D01*
X64699301Y-71010895D01*
X64568721Y-71026448D01*
X64568721Y-70873356D01*
X64677320Y-70841289D01*
X64683366Y-70838235D01*
X64738268Y-70803889D01*
X64768245Y-70762463D01*
X64781061Y-70697855D01*
X64783994Y-70629591D01*
X64777959Y-70550666D01*
X64751357Y-70501722D01*
X64729548Y-70483541D01*
X64651131Y-70452142D01*
X64552836Y-70444174D01*
X64452506Y-70457583D01*
X64367984Y-70490314D01*
X64322838Y-70530353D01*
X64310209Y-70573026D01*
X64303925Y-70640567D01*
X64303788Y-70650087D01*
X64324918Y-70748878D01*
X64382678Y-70822273D01*
X64467226Y-70865392D01*
X64568721Y-70873356D01*
X64568721Y-71026448D01*
X64554806Y-71028106D01*
X64408574Y-71007724D01*
X64292278Y-70946741D01*
X64206910Y-70845720D01*
X64195489Y-70824494D01*
X64165544Y-70736187D01*
X64152617Y-70636520D01*
X64157934Y-70546197D01*
X64176000Y-70494800D01*
X64181179Y-70475533D01*
X64161887Y-70462416D01*
X64109931Y-70453193D01*
X64017115Y-70445609D01*
X63991461Y-70444000D01*
X63889022Y-70437000D01*
X63827123Y-70428860D01*
X63795569Y-70415860D01*
X63784165Y-70394279D01*
X63782700Y-70367800D01*
X63782700Y-70304300D01*
X64252600Y-70298005D01*
G37*
X64252600Y-70298005D02*
X64432737Y-70294010D01*
X64581398Y-70287470D01*
X64693005Y-70278760D01*
X64761985Y-70268252D01*
X64777936Y-70262880D01*
X64845383Y-70246583D01*
X64899208Y-70264245D01*
X64928913Y-70305308D01*
X64923998Y-70359208D01*
X64903727Y-70389413D01*
X64878294Y-70434386D01*
X64889921Y-70461562D01*
X64919930Y-70517139D01*
X64939139Y-70600857D01*
X64943656Y-70690529D01*
X64938100Y-70736100D01*
X64890771Y-70866183D01*
X64811735Y-70957352D01*
X64699301Y-71010895D01*
X64568721Y-71026448D01*
X64568721Y-70873356D01*
X64677320Y-70841289D01*
X64683366Y-70838235D01*
X64738268Y-70803889D01*
X64768245Y-70762463D01*
X64781061Y-70697855D01*
X64783994Y-70629591D01*
X64777959Y-70550666D01*
X64751357Y-70501722D01*
X64729548Y-70483541D01*
X64651131Y-70452142D01*
X64552836Y-70444174D01*
X64452506Y-70457583D01*
X64367984Y-70490314D01*
X64322838Y-70530353D01*
X64310209Y-70573026D01*
X64303925Y-70640567D01*
X64303788Y-70650087D01*
X64324918Y-70748878D01*
X64382678Y-70822273D01*
X64467226Y-70865392D01*
X64568721Y-70873356D01*
X64568721Y-71026448D01*
X64554806Y-71028106D01*
X64408574Y-71007724D01*
X64292278Y-70946741D01*
X64206910Y-70845720D01*
X64195489Y-70824494D01*
X64165544Y-70736187D01*
X64152617Y-70636520D01*
X64157934Y-70546197D01*
X64176000Y-70494800D01*
X64181179Y-70475533D01*
X64161887Y-70462416D01*
X64109931Y-70453193D01*
X64017115Y-70445609D01*
X63991461Y-70444000D01*
X63889022Y-70437000D01*
X63827123Y-70428860D01*
X63795569Y-70415860D01*
X63784165Y-70394279D01*
X63782700Y-70367800D01*
X63782700Y-70304300D01*
X64252600Y-70298005D01*
G36*
X64132460Y-69682088D02*
G01*
X64152555Y-69586521D01*
X64188574Y-69517349D01*
X64236457Y-69484554D01*
X64258421Y-69483918D01*
X64300415Y-69502730D01*
X64309182Y-69525556D01*
X64302862Y-69567693D01*
X64293865Y-69641666D01*
X64287102Y-69703477D01*
X64281175Y-69793218D01*
X64288194Y-69847434D01*
X64310177Y-69880213D01*
X64312746Y-69882417D01*
X64362157Y-69905860D01*
X64404538Y-69885247D01*
X64442517Y-69818126D01*
X64469643Y-69735972D01*
X64522461Y-69598117D01*
X64589846Y-69506785D01*
X64670552Y-69462924D01*
X64763330Y-69467479D01*
X64803177Y-69482896D01*
X64878163Y-69544649D01*
X64931124Y-69640513D01*
X64959005Y-69757475D01*
X64958752Y-69882522D01*
X64927309Y-70002641D01*
X64925931Y-70005850D01*
X64888397Y-70066338D01*
X64839248Y-70087768D01*
X64825326Y-70088400D01*
X64781232Y-70084174D01*
X64764354Y-70064534D01*
X64772914Y-70019039D01*
X64801189Y-69946661D01*
X64826625Y-69844217D01*
X64824104Y-69740771D01*
X64794751Y-69656452D01*
X64784119Y-69641634D01*
X64736840Y-69610383D01*
X64689579Y-69628588D01*
X64643716Y-69694926D01*
X64600634Y-69808070D01*
X64596718Y-69821267D01*
X64545079Y-69946826D01*
X64478095Y-70027596D01*
X64399076Y-70062062D01*
X64311332Y-70048711D01*
X64224337Y-69991642D01*
X64170386Y-69931782D01*
X64142493Y-69862593D01*
X64132345Y-69794067D01*
X64132460Y-69682088D01*
G37*
X64132460Y-69682088D02*
X64152555Y-69586521D01*
X64188574Y-69517349D01*
X64236457Y-69484554D01*
X64258421Y-69483918D01*
X64300415Y-69502730D01*
X64309182Y-69525556D01*
X64302862Y-69567693D01*
X64293865Y-69641666D01*
X64287102Y-69703477D01*
X64281175Y-69793218D01*
X64288194Y-69847434D01*
X64310177Y-69880213D01*
X64312746Y-69882417D01*
X64362157Y-69905860D01*
X64404538Y-69885247D01*
X64442517Y-69818126D01*
X64469643Y-69735972D01*
X64522461Y-69598117D01*
X64589846Y-69506785D01*
X64670552Y-69462924D01*
X64763330Y-69467479D01*
X64803177Y-69482896D01*
X64878163Y-69544649D01*
X64931124Y-69640513D01*
X64959005Y-69757475D01*
X64958752Y-69882522D01*
X64927309Y-70002641D01*
X64925931Y-70005850D01*
X64888397Y-70066338D01*
X64839248Y-70087768D01*
X64825326Y-70088400D01*
X64781232Y-70084174D01*
X64764354Y-70064534D01*
X64772914Y-70019039D01*
X64801189Y-69946661D01*
X64826625Y-69844217D01*
X64824104Y-69740771D01*
X64794751Y-69656452D01*
X64784119Y-69641634D01*
X64736840Y-69610383D01*
X64689579Y-69628588D01*
X64643716Y-69694926D01*
X64600634Y-69808070D01*
X64596718Y-69821267D01*
X64545079Y-69946826D01*
X64478095Y-70027596D01*
X64399076Y-70062062D01*
X64311332Y-70048711D01*
X64224337Y-69991642D01*
X64170386Y-69931782D01*
X64142493Y-69862593D01*
X64132345Y-69794067D01*
X64132460Y-69682088D01*
G36*
X64140432Y-75718102D02*
G01*
X64151702Y-75701557D01*
X64175797Y-75690170D01*
X64220426Y-75683249D01*
X64293297Y-75680102D01*
X64402120Y-75680035D01*
X64540994Y-75682105D01*
X64689456Y-75685357D01*
X64794661Y-75689484D01*
X64864152Y-75695476D01*
X64905473Y-75704324D01*
X64926166Y-75717016D01*
X64933606Y-75733627D01*
X64920377Y-75779098D01*
X64895827Y-75797127D01*
X64848023Y-75806279D01*
X64764558Y-75812426D01*
X64656993Y-75815703D01*
X64536886Y-75816242D01*
X64415800Y-75814174D01*
X64305294Y-75809633D01*
X64216928Y-75802750D01*
X64162263Y-75793659D01*
X64151437Y-75788598D01*
X64135890Y-75744093D01*
X64140432Y-75718102D01*
G37*
X64140432Y-75718102D02*
X64151702Y-75701557D01*
X64175797Y-75690170D01*
X64220426Y-75683249D01*
X64293297Y-75680102D01*
X64402120Y-75680035D01*
X64540994Y-75682105D01*
X64689456Y-75685357D01*
X64794661Y-75689484D01*
X64864152Y-75695476D01*
X64905473Y-75704324D01*
X64926166Y-75717016D01*
X64933606Y-75733627D01*
X64920377Y-75779098D01*
X64895827Y-75797127D01*
X64848023Y-75806279D01*
X64764558Y-75812426D01*
X64656993Y-75815703D01*
X64536886Y-75816242D01*
X64415800Y-75814174D01*
X64305294Y-75809633D01*
X64216928Y-75802750D01*
X64162263Y-75793659D01*
X64151437Y-75788598D01*
X64135890Y-75744093D01*
X64140432Y-75718102D01*
G36*
X63787200Y-74429662D02*
G01*
X63796703Y-74417530D01*
X63822327Y-74396962D01*
X63864028Y-74385634D01*
X63932881Y-74382192D01*
X64039963Y-74385282D01*
X64054871Y-74385978D01*
X64154118Y-74388567D01*
X64230669Y-74386462D01*
X64273091Y-74380166D01*
X64278000Y-74376123D01*
X64258926Y-74355857D01*
X64255357Y-74355600D01*
X64231832Y-74333644D01*
X64203130Y-74278802D01*
X64175805Y-74207617D01*
X64156409Y-74136631D01*
X64151000Y-74092143D01*
X64171582Y-74012762D01*
X64225069Y-73927181D01*
X64299071Y-73852203D01*
X64354706Y-73815890D01*
X64485440Y-73775956D01*
X64619597Y-73779613D01*
X64744817Y-73823788D01*
X64848738Y-73905411D01*
X64880743Y-73946607D01*
X64921883Y-74043901D01*
X64938807Y-74162869D01*
X64930886Y-74282315D01*
X64897490Y-74381045D01*
X64893828Y-74387207D01*
X64853279Y-74441763D01*
X64803594Y-74482543D01*
X64737253Y-74511431D01*
X64646736Y-74530311D01*
X64617846Y-74532854D01*
X64617846Y-74378491D01*
X64670177Y-74363605D01*
X64722383Y-74321372D01*
X64733987Y-74309921D01*
X64793451Y-74233051D01*
X64809091Y-74155812D01*
X64786577Y-74065018D01*
X64736502Y-73997890D01*
X64654199Y-73950174D01*
X64556920Y-73929784D01*
X64500212Y-73933640D01*
X64400448Y-73972939D01*
X64339076Y-74045394D01*
X64317286Y-74149574D01*
X64317254Y-74154301D01*
X64336413Y-74255940D01*
X64394743Y-74326313D01*
X64493519Y-74366678D01*
X64540642Y-74374267D01*
X64617846Y-74378491D01*
X64617846Y-74532854D01*
X64524526Y-74541069D01*
X64363102Y-74545590D01*
X64259892Y-74546100D01*
X64102527Y-74545441D01*
X63988080Y-74542966D01*
X63908678Y-74537928D01*
X63856449Y-74529580D01*
X63823522Y-74517175D01*
X63804873Y-74502925D01*
X63776383Y-74464338D01*
X63787200Y-74429662D01*
G37*
X63787200Y-74429662D02*
X63796703Y-74417530D01*
X63822327Y-74396962D01*
X63864028Y-74385634D01*
X63932881Y-74382192D01*
X64039963Y-74385282D01*
X64054871Y-74385978D01*
X64154118Y-74388567D01*
X64230669Y-74386462D01*
X64273091Y-74380166D01*
X64278000Y-74376123D01*
X64258926Y-74355857D01*
X64255357Y-74355600D01*
X64231832Y-74333644D01*
X64203130Y-74278802D01*
X64175805Y-74207617D01*
X64156409Y-74136631D01*
X64151000Y-74092143D01*
X64171582Y-74012762D01*
X64225069Y-73927181D01*
X64299071Y-73852203D01*
X64354706Y-73815890D01*
X64485440Y-73775956D01*
X64619597Y-73779613D01*
X64744817Y-73823788D01*
X64848738Y-73905411D01*
X64880743Y-73946607D01*
X64921883Y-74043901D01*
X64938807Y-74162869D01*
X64930886Y-74282315D01*
X64897490Y-74381045D01*
X64893828Y-74387207D01*
X64853279Y-74441763D01*
X64803594Y-74482543D01*
X64737253Y-74511431D01*
X64646736Y-74530311D01*
X64617846Y-74532854D01*
X64617846Y-74378491D01*
X64670177Y-74363605D01*
X64722383Y-74321372D01*
X64733987Y-74309921D01*
X64793451Y-74233051D01*
X64809091Y-74155812D01*
X64786577Y-74065018D01*
X64736502Y-73997890D01*
X64654199Y-73950174D01*
X64556920Y-73929784D01*
X64500212Y-73933640D01*
X64400448Y-73972939D01*
X64339076Y-74045394D01*
X64317286Y-74149574D01*
X64317254Y-74154301D01*
X64336413Y-74255940D01*
X64394743Y-74326313D01*
X64493519Y-74366678D01*
X64540642Y-74374267D01*
X64617846Y-74378491D01*
X64617846Y-74532854D01*
X64524526Y-74541069D01*
X64363102Y-74545590D01*
X64259892Y-74546100D01*
X64102527Y-74545441D01*
X63988080Y-74542966D01*
X63908678Y-74537928D01*
X63856449Y-74529580D01*
X63823522Y-74517175D01*
X63804873Y-74502925D01*
X63776383Y-74464338D01*
X63787200Y-74429662D01*
G36*
X64138557Y-71528596D02*
G01*
X64177843Y-71494762D01*
X64196120Y-71489930D01*
X64253423Y-71481759D01*
X64202211Y-71416655D01*
X64164541Y-71341270D01*
X64151000Y-71264388D01*
X64155067Y-71206048D01*
X64175131Y-71184480D01*
X64218348Y-71185263D01*
X64263036Y-71198985D01*
X64293079Y-71235851D01*
X64319371Y-71309331D01*
X64319765Y-71310689D01*
X64346715Y-71386211D01*
X64375671Y-71442119D01*
X64387190Y-71455760D01*
X64425708Y-71468275D01*
X64502261Y-71479470D01*
X64604081Y-71487784D01*
X64673122Y-71490771D01*
X64788775Y-71494945D01*
X64863118Y-71500813D01*
X64905636Y-71510533D01*
X64925819Y-71526266D01*
X64933121Y-71549946D01*
X64931422Y-71600417D01*
X64922538Y-71619796D01*
X64890407Y-71627315D01*
X64818756Y-71632660D01*
X64718817Y-71635899D01*
X64601820Y-71637095D01*
X64478996Y-71636314D01*
X64361576Y-71633623D01*
X64260790Y-71629086D01*
X64187871Y-71622769D01*
X64154850Y-71615318D01*
X64128667Y-71575541D01*
X64138557Y-71528596D01*
G37*
X64138557Y-71528596D02*
X64177843Y-71494762D01*
X64196120Y-71489930D01*
X64253423Y-71481759D01*
X64202211Y-71416655D01*
X64164541Y-71341270D01*
X64151000Y-71264388D01*
X64155067Y-71206048D01*
X64175131Y-71184480D01*
X64218348Y-71185263D01*
X64263036Y-71198985D01*
X64293079Y-71235851D01*
X64319371Y-71309331D01*
X64319765Y-71310689D01*
X64346715Y-71386211D01*
X64375671Y-71442119D01*
X64387190Y-71455760D01*
X64425708Y-71468275D01*
X64502261Y-71479470D01*
X64604081Y-71487784D01*
X64673122Y-71490771D01*
X64788775Y-71494945D01*
X64863118Y-71500813D01*
X64905636Y-71510533D01*
X64925819Y-71526266D01*
X64933121Y-71549946D01*
X64931422Y-71600417D01*
X64922538Y-71619796D01*
X64890407Y-71627315D01*
X64818756Y-71632660D01*
X64718817Y-71635899D01*
X64601820Y-71637095D01*
X64478996Y-71636314D01*
X64361576Y-71633623D01*
X64260790Y-71629086D01*
X64187871Y-71622769D01*
X64154850Y-71615318D01*
X64128667Y-71575541D01*
X64138557Y-71528596D01*
G36*
X63878579Y-75688869D02*
G01*
X63899897Y-75668776D01*
X63959971Y-75653584D01*
X64006191Y-75680831D01*
X64024000Y-75739900D01*
X64009096Y-75796156D01*
X63982447Y-75820940D01*
X63923626Y-75821123D01*
X63875586Y-75786943D01*
X63858900Y-75739900D01*
X63878579Y-75688869D01*
G37*
X63878579Y-75688869D02*
X63899897Y-75668776D01*
X63959971Y-75653584D01*
X64006191Y-75680831D01*
X64024000Y-75739900D01*
X64009096Y-75796156D01*
X63982447Y-75820940D01*
X63923626Y-75821123D01*
X63875586Y-75786943D01*
X63858900Y-75739900D01*
X63878579Y-75688869D01*
G36*
X62979013Y-74761228D02*
G01*
X63066841Y-74742203D01*
X63183830Y-74736600D01*
X63308137Y-74743222D01*
X63394066Y-74762003D01*
X63438085Y-74791317D01*
X63436662Y-74829537D01*
X63422866Y-74846667D01*
X63388507Y-74856466D01*
X63318952Y-74862071D01*
X63228503Y-74863767D01*
X63131466Y-74861840D01*
X63042146Y-74856576D01*
X62974846Y-74848262D01*
X62943872Y-74837183D01*
X62943812Y-74837088D01*
X62937470Y-74793079D01*
X62979013Y-74761228D01*
G37*
X62979013Y-74761228D02*
X63066841Y-74742203D01*
X63183830Y-74736600D01*
X63308137Y-74743222D01*
X63394066Y-74762003D01*
X63438085Y-74791317D01*
X63436662Y-74829537D01*
X63422866Y-74846667D01*
X63388507Y-74856466D01*
X63318952Y-74862071D01*
X63228503Y-74863767D01*
X63131466Y-74861840D01*
X63042146Y-74856576D01*
X62974846Y-74848262D01*
X62943872Y-74837183D01*
X62943812Y-74837088D01*
X62937470Y-74793079D01*
X62979013Y-74761228D01*
G36*
X62955973Y-74429348D02*
G01*
X63016900Y-74414619D01*
X63122899Y-74410217D01*
X63198767Y-74411703D01*
X63321921Y-74419062D01*
X63398250Y-74432474D01*
X63431540Y-74453570D01*
X63425573Y-74483980D01*
X63409637Y-74502603D01*
X63364629Y-74521446D01*
X63286353Y-74532122D01*
X63190860Y-74534929D01*
X63094199Y-74530163D01*
X63012419Y-74518121D01*
X62961571Y-74499100D01*
X62956306Y-74494224D01*
X62936860Y-74455514D01*
X62955973Y-74429348D01*
G37*
X62955973Y-74429348D02*
X63016900Y-74414619D01*
X63122899Y-74410217D01*
X63198767Y-74411703D01*
X63321921Y-74419062D01*
X63398250Y-74432474D01*
X63431540Y-74453570D01*
X63425573Y-74483980D01*
X63409637Y-74502603D01*
X63364629Y-74521446D01*
X63286353Y-74532122D01*
X63190860Y-74534929D01*
X63094199Y-74530163D01*
X63012419Y-74518121D01*
X62961571Y-74499100D01*
X62956306Y-74494224D01*
X62936860Y-74455514D01*
X62955973Y-74429348D01*
G36*
X62979013Y-74100828D02*
G01*
X63066841Y-74081803D01*
X63183830Y-74076200D01*
X63308137Y-74082822D01*
X63394066Y-74101603D01*
X63438085Y-74130917D01*
X63436662Y-74169137D01*
X63422866Y-74186267D01*
X63388507Y-74196066D01*
X63318952Y-74201671D01*
X63228503Y-74203367D01*
X63131466Y-74201440D01*
X63042146Y-74196176D01*
X62974846Y-74187862D01*
X62943872Y-74176783D01*
X62943812Y-74176688D01*
X62937470Y-74132679D01*
X62979013Y-74100828D01*
G37*
X62979013Y-74100828D02*
X63066841Y-74081803D01*
X63183830Y-74076200D01*
X63308137Y-74082822D01*
X63394066Y-74101603D01*
X63438085Y-74130917D01*
X63436662Y-74169137D01*
X63422866Y-74186267D01*
X63388507Y-74196066D01*
X63318952Y-74201671D01*
X63228503Y-74203367D01*
X63131466Y-74201440D01*
X63042146Y-74196176D01*
X62974846Y-74187862D01*
X62943872Y-74176783D01*
X62943812Y-74176688D01*
X62937470Y-74132679D01*
X62979013Y-74100828D01*
G36*
X62955973Y-73768948D02*
G01*
X63016900Y-73754219D01*
X63122899Y-73749817D01*
X63198767Y-73751303D01*
X63321921Y-73758662D01*
X63398250Y-73772074D01*
X63431540Y-73793170D01*
X63425573Y-73823580D01*
X63409637Y-73842203D01*
X63364629Y-73861046D01*
X63286353Y-73871722D01*
X63190860Y-73874529D01*
X63094199Y-73869763D01*
X63012419Y-73857721D01*
X62961571Y-73838700D01*
X62956306Y-73833824D01*
X62936860Y-73795114D01*
X62955973Y-73768948D01*
G37*
X62955973Y-73768948D02*
X63016900Y-73754219D01*
X63122899Y-73749817D01*
X63198767Y-73751303D01*
X63321921Y-73758662D01*
X63398250Y-73772074D01*
X63431540Y-73793170D01*
X63425573Y-73823580D01*
X63409637Y-73842203D01*
X63364629Y-73861046D01*
X63286353Y-73871722D01*
X63190860Y-73874529D01*
X63094199Y-73869763D01*
X63012419Y-73857721D01*
X62961571Y-73838700D01*
X62956306Y-73833824D01*
X62936860Y-73795114D01*
X62955973Y-73768948D01*
G36*
X62979013Y-73415028D02*
G01*
X63066841Y-73396003D01*
X63183830Y-73390400D01*
X63308137Y-73397022D01*
X63394066Y-73415803D01*
X63438085Y-73445117D01*
X63436662Y-73483337D01*
X63422866Y-73500467D01*
X63388507Y-73510266D01*
X63318952Y-73515871D01*
X63228503Y-73517567D01*
X63131466Y-73515640D01*
X63042146Y-73510376D01*
X62974846Y-73502062D01*
X62943872Y-73490983D01*
X62943812Y-73490888D01*
X62937470Y-73446879D01*
X62979013Y-73415028D01*
G37*
X62979013Y-73415028D02*
X63066841Y-73396003D01*
X63183830Y-73390400D01*
X63308137Y-73397022D01*
X63394066Y-73415803D01*
X63438085Y-73445117D01*
X63436662Y-73483337D01*
X63422866Y-73500467D01*
X63388507Y-73510266D01*
X63318952Y-73515871D01*
X63228503Y-73517567D01*
X63131466Y-73515640D01*
X63042146Y-73510376D01*
X62974846Y-73502062D01*
X62943872Y-73490983D01*
X62943812Y-73490888D01*
X62937470Y-73446879D01*
X62979013Y-73415028D01*
G36*
X62955973Y-73083148D02*
G01*
X63016900Y-73068419D01*
X63122899Y-73064017D01*
X63198767Y-73065503D01*
X63321921Y-73072862D01*
X63398250Y-73086274D01*
X63431540Y-73107370D01*
X63425573Y-73137780D01*
X63409637Y-73156403D01*
X63364629Y-73175246D01*
X63286353Y-73185922D01*
X63190860Y-73188729D01*
X63094199Y-73183963D01*
X63012419Y-73171921D01*
X62961571Y-73152900D01*
X62956306Y-73148024D01*
X62936860Y-73109314D01*
X62955973Y-73083148D01*
G37*
X62955973Y-73083148D02*
X63016900Y-73068419D01*
X63122899Y-73064017D01*
X63198767Y-73065503D01*
X63321921Y-73072862D01*
X63398250Y-73086274D01*
X63431540Y-73107370D01*
X63425573Y-73137780D01*
X63409637Y-73156403D01*
X63364629Y-73175246D01*
X63286353Y-73185922D01*
X63190860Y-73188729D01*
X63094199Y-73183963D01*
X63012419Y-73171921D01*
X62961571Y-73152900D01*
X62956306Y-73148024D01*
X62936860Y-73109314D01*
X62955973Y-73083148D01*
G36*
X59896562Y-73689927D02*
G01*
X59896882Y-73464128D01*
X59897659Y-73279874D01*
X59899089Y-73132541D01*
X59901371Y-73017502D01*
X59904705Y-72930129D01*
X59909287Y-72865797D01*
X59915316Y-72819878D01*
X59922991Y-72787746D01*
X59932509Y-72764774D01*
X59944069Y-72746336D01*
X59948869Y-72739783D01*
X60009357Y-72671968D01*
X60071354Y-72617270D01*
X60089622Y-72604776D01*
X60111045Y-72594403D01*
X60140305Y-72585917D01*
X60182083Y-72579088D01*
X60241061Y-72573681D01*
X60321921Y-72569465D01*
X60429344Y-72566208D01*
X60568011Y-72563677D01*
X60742605Y-72561639D01*
X60957807Y-72559863D01*
X61218298Y-72558115D01*
X61269458Y-72557791D01*
X61538616Y-72556168D01*
X61761788Y-72555118D01*
X61943785Y-72554817D01*
X62089418Y-72555439D01*
X62203500Y-72557161D01*
X62290841Y-72560157D01*
X62356254Y-72564603D01*
X62404550Y-72570674D01*
X62440540Y-72578545D01*
X62469037Y-72588391D01*
X62494853Y-72600388D01*
X62499181Y-72602583D01*
X62602823Y-72682669D01*
X62652058Y-72754730D01*
X62664346Y-72780747D01*
X62674492Y-72809389D01*
X62682698Y-72845503D01*
X62689169Y-72893936D01*
X62694107Y-72959534D01*
X62697717Y-73047145D01*
X62700201Y-73161615D01*
X62701764Y-73307791D01*
X62702608Y-73490521D01*
X62702937Y-73714650D01*
X62702959Y-73967239D01*
X62702719Y-75079500D01*
X62639217Y-75185442D01*
X62612936Y-75227993D01*
X62586496Y-75263595D01*
X62555388Y-75292837D01*
X62515102Y-75316304D01*
X62461129Y-75334585D01*
X62388960Y-75348265D01*
X62294087Y-75357932D01*
X62171998Y-75364172D01*
X62018186Y-75367573D01*
X61828141Y-75368721D01*
X61597354Y-75368204D01*
X61321315Y-75366608D01*
X61250883Y-75366150D01*
X60984291Y-75364334D01*
X60763772Y-75362532D01*
X60595000Y-75360624D01*
X60595000Y-74609600D01*
X61915800Y-74609600D01*
X61915800Y-73314200D01*
X60595000Y-73314200D01*
X60595000Y-74609600D01*
X60595000Y-75360624D01*
X60584601Y-75360506D01*
X60442054Y-75358016D01*
X60363260Y-75355744D01*
X60363260Y-74910437D01*
X60423905Y-74898839D01*
X60468000Y-74863600D01*
X60509106Y-74813892D01*
X60512382Y-74771819D01*
X60478168Y-74717561D01*
X60470658Y-74708176D01*
X60428145Y-74667758D01*
X60382181Y-74664425D01*
X60350008Y-74674080D01*
X60290679Y-74717184D01*
X60267469Y-74781501D01*
X60284544Y-74849266D01*
X60303335Y-74873107D01*
X60363260Y-74910437D01*
X60363260Y-75355744D01*
X60331404Y-75354825D01*
X60247926Y-75350692D01*
X60186895Y-75345379D01*
X60143584Y-75338648D01*
X60113270Y-75330259D01*
X60091226Y-75319973D01*
X60072726Y-75307553D01*
X60071353Y-75306531D01*
X60003559Y-75246034D01*
X59948869Y-75184018D01*
X59936509Y-75166084D01*
X59926263Y-75145316D01*
X59917934Y-75117087D01*
X59911323Y-75076772D01*
X59906233Y-75019743D01*
X59902464Y-74941374D01*
X59899818Y-74837038D01*
X59898098Y-74702108D01*
X59897104Y-74531959D01*
X59896639Y-74321963D01*
X59896505Y-74067494D01*
X59896500Y-73961901D01*
X59896562Y-73689927D01*
G37*
X59896562Y-73689927D02*
X59896882Y-73464128D01*
X59897659Y-73279874D01*
X59899089Y-73132541D01*
X59901371Y-73017502D01*
X59904705Y-72930129D01*
X59909287Y-72865797D01*
X59915316Y-72819878D01*
X59922991Y-72787746D01*
X59932509Y-72764774D01*
X59944069Y-72746336D01*
X59948869Y-72739783D01*
X60009357Y-72671968D01*
X60071354Y-72617270D01*
X60089622Y-72604776D01*
X60111045Y-72594403D01*
X60140305Y-72585917D01*
X60182083Y-72579088D01*
X60241061Y-72573681D01*
X60321921Y-72569465D01*
X60429344Y-72566208D01*
X60568011Y-72563677D01*
X60742605Y-72561639D01*
X60957807Y-72559863D01*
X61218298Y-72558115D01*
X61269458Y-72557791D01*
X61538616Y-72556168D01*
X61761788Y-72555118D01*
X61943785Y-72554817D01*
X62089418Y-72555439D01*
X62203500Y-72557161D01*
X62290841Y-72560157D01*
X62356254Y-72564603D01*
X62404550Y-72570674D01*
X62440540Y-72578545D01*
X62469037Y-72588391D01*
X62494853Y-72600388D01*
X62499181Y-72602583D01*
X62602823Y-72682669D01*
X62652058Y-72754730D01*
X62664346Y-72780747D01*
X62674492Y-72809389D01*
X62682698Y-72845503D01*
X62689169Y-72893936D01*
X62694107Y-72959534D01*
X62697717Y-73047145D01*
X62700201Y-73161615D01*
X62701764Y-73307791D01*
X62702608Y-73490521D01*
X62702937Y-73714650D01*
X62702959Y-73967239D01*
X62702719Y-75079500D01*
X62639217Y-75185442D01*
X62612936Y-75227993D01*
X62586496Y-75263595D01*
X62555388Y-75292837D01*
X62515102Y-75316304D01*
X62461129Y-75334585D01*
X62388960Y-75348265D01*
X62294087Y-75357932D01*
X62171998Y-75364172D01*
X62018186Y-75367573D01*
X61828141Y-75368721D01*
X61597354Y-75368204D01*
X61321315Y-75366608D01*
X61250883Y-75366150D01*
X60984291Y-75364334D01*
X60763772Y-75362532D01*
X60595000Y-75360624D01*
X60595000Y-74609600D01*
X61915800Y-74609600D01*
X61915800Y-73314200D01*
X60595000Y-73314200D01*
X60595000Y-74609600D01*
X60595000Y-75360624D01*
X60584601Y-75360506D01*
X60442054Y-75358016D01*
X60363260Y-75355744D01*
X60363260Y-74910437D01*
X60423905Y-74898839D01*
X60468000Y-74863600D01*
X60509106Y-74813892D01*
X60512382Y-74771819D01*
X60478168Y-74717561D01*
X60470658Y-74708176D01*
X60428145Y-74667758D01*
X60382181Y-74664425D01*
X60350008Y-74674080D01*
X60290679Y-74717184D01*
X60267469Y-74781501D01*
X60284544Y-74849266D01*
X60303335Y-74873107D01*
X60363260Y-74910437D01*
X60363260Y-75355744D01*
X60331404Y-75354825D01*
X60247926Y-75350692D01*
X60186895Y-75345379D01*
X60143584Y-75338648D01*
X60113270Y-75330259D01*
X60091226Y-75319973D01*
X60072726Y-75307553D01*
X60071353Y-75306531D01*
X60003559Y-75246034D01*
X59948869Y-75184018D01*
X59936509Y-75166084D01*
X59926263Y-75145316D01*
X59917934Y-75117087D01*
X59911323Y-75076772D01*
X59906233Y-75019743D01*
X59902464Y-74941374D01*
X59899818Y-74837038D01*
X59898098Y-74702108D01*
X59897104Y-74531959D01*
X59896639Y-74321963D01*
X59896505Y-74067494D01*
X59896500Y-73961901D01*
X59896562Y-73689927D01*
G36*
X62070501Y-75738364D02*
G01*
X62078140Y-75664450D01*
X62092219Y-75626194D01*
X62103204Y-75617603D01*
X62144629Y-75615969D01*
X62172743Y-75651150D01*
X62189058Y-75727344D01*
X62195088Y-75848745D01*
X62195200Y-75872778D01*
X62192925Y-75984273D01*
X62185166Y-76053709D01*
X62170522Y-76089659D01*
X62158316Y-76098548D01*
X62118223Y-76104991D01*
X62091558Y-76083566D01*
X62075970Y-76027930D01*
X62069108Y-75931741D01*
X62068200Y-75855419D01*
X62070501Y-75738364D01*
G37*
X62070501Y-75738364D02*
X62078140Y-75664450D01*
X62092219Y-75626194D01*
X62103204Y-75617603D01*
X62144629Y-75615969D01*
X62172743Y-75651150D01*
X62189058Y-75727344D01*
X62195088Y-75848745D01*
X62195200Y-75872778D01*
X62192925Y-75984273D01*
X62185166Y-76053709D01*
X62170522Y-76089659D01*
X62158316Y-76098548D01*
X62118223Y-76104991D01*
X62091558Y-76083566D01*
X62075970Y-76027930D01*
X62069108Y-75931741D01*
X62068200Y-75855419D01*
X62070501Y-75738364D01*
G36*
X62070501Y-72029964D02*
G01*
X62078140Y-71956050D01*
X62092219Y-71917794D01*
X62103204Y-71909203D01*
X62144629Y-71907569D01*
X62172743Y-71942750D01*
X62189058Y-72018944D01*
X62195088Y-72140345D01*
X62195200Y-72164378D01*
X62192925Y-72275873D01*
X62185166Y-72345309D01*
X62170522Y-72381259D01*
X62158316Y-72390148D01*
X62118223Y-72396591D01*
X62091558Y-72375166D01*
X62075970Y-72319530D01*
X62069108Y-72223341D01*
X62068200Y-72147019D01*
X62070501Y-72029964D01*
G37*
X62070501Y-72029964D02*
X62078140Y-71956050D01*
X62092219Y-71917794D01*
X62103204Y-71909203D01*
X62144629Y-71907569D01*
X62172743Y-71942750D01*
X62189058Y-72018944D01*
X62195088Y-72140345D01*
X62195200Y-72164378D01*
X62192925Y-72275873D01*
X62185166Y-72345309D01*
X62170522Y-72381259D01*
X62158316Y-72390148D01*
X62118223Y-72396591D01*
X62091558Y-72375166D01*
X62075970Y-72319530D01*
X62069108Y-72223341D01*
X62068200Y-72147019D01*
X62070501Y-72029964D01*
G36*
X61718802Y-75841500D02*
G01*
X61723100Y-75740130D01*
X61730158Y-75678822D01*
X61743209Y-75646842D01*
X61765485Y-75633455D01*
X61782450Y-75630184D01*
X61809383Y-75628666D01*
X61826167Y-75639667D01*
X61835200Y-75672546D01*
X61838877Y-75736657D01*
X61839598Y-75841360D01*
X61839600Y-75853231D01*
X61838008Y-75966971D01*
X61832189Y-76039488D01*
X61820577Y-76080288D01*
X61801603Y-76098877D01*
X61798936Y-76099999D01*
X61759348Y-76101536D01*
X61733560Y-76067210D01*
X61720217Y-75992652D01*
X61717964Y-75873492D01*
X61718802Y-75841500D01*
G37*
X61718802Y-75841500D02*
X61723100Y-75740130D01*
X61730158Y-75678822D01*
X61743209Y-75646842D01*
X61765485Y-75633455D01*
X61782450Y-75630184D01*
X61809383Y-75628666D01*
X61826167Y-75639667D01*
X61835200Y-75672546D01*
X61838877Y-75736657D01*
X61839598Y-75841360D01*
X61839600Y-75853231D01*
X61838008Y-75966971D01*
X61832189Y-76039488D01*
X61820577Y-76080288D01*
X61801603Y-76098877D01*
X61798936Y-76099999D01*
X61759348Y-76101536D01*
X61733560Y-76067210D01*
X61720217Y-75992652D01*
X61717964Y-75873492D01*
X61718802Y-75841500D01*
G36*
X61716197Y-72029897D02*
G01*
X61727809Y-71956786D01*
X61748661Y-71918915D01*
X61749587Y-71918124D01*
X61788081Y-71897605D01*
X61814695Y-71913330D01*
X61831004Y-71969281D01*
X61838582Y-72069443D01*
X61839600Y-72145800D01*
X61836742Y-72253376D01*
X61828973Y-72335868D01*
X61817500Y-72382263D01*
X61813087Y-72387788D01*
X61769037Y-72394184D01*
X61737219Y-72352567D01*
X61718229Y-72264375D01*
X61712600Y-72145800D01*
X61716197Y-72029897D01*
G37*
X61716197Y-72029897D02*
X61727809Y-71956786D01*
X61748661Y-71918915D01*
X61749587Y-71918124D01*
X61788081Y-71897605D01*
X61814695Y-71913330D01*
X61831004Y-71969281D01*
X61838582Y-72069443D01*
X61839600Y-72145800D01*
X61836742Y-72253376D01*
X61828973Y-72335868D01*
X61817500Y-72382263D01*
X61813087Y-72387788D01*
X61769037Y-72394184D01*
X61737219Y-72352567D01*
X61718229Y-72264375D01*
X61712600Y-72145800D01*
X61716197Y-72029897D01*
G36*
X61410101Y-75738364D02*
G01*
X61417740Y-75664450D01*
X61431819Y-75626194D01*
X61442804Y-75617603D01*
X61484229Y-75615969D01*
X61512343Y-75651150D01*
X61528658Y-75727344D01*
X61534688Y-75848745D01*
X61534800Y-75872778D01*
X61532525Y-75984273D01*
X61524766Y-76053709D01*
X61510122Y-76089659D01*
X61497916Y-76098548D01*
X61457823Y-76104991D01*
X61431158Y-76083566D01*
X61415570Y-76027930D01*
X61408708Y-75931741D01*
X61407800Y-75855419D01*
X61410101Y-75738364D01*
G37*
X61410101Y-75738364D02*
X61417740Y-75664450D01*
X61431819Y-75626194D01*
X61442804Y-75617603D01*
X61484229Y-75615969D01*
X61512343Y-75651150D01*
X61528658Y-75727344D01*
X61534688Y-75848745D01*
X61534800Y-75872778D01*
X61532525Y-75984273D01*
X61524766Y-76053709D01*
X61510122Y-76089659D01*
X61497916Y-76098548D01*
X61457823Y-76104991D01*
X61431158Y-76083566D01*
X61415570Y-76027930D01*
X61408708Y-75931741D01*
X61407800Y-75855419D01*
X61410101Y-75738364D01*
G36*
X61410451Y-72026607D02*
G01*
X61420237Y-71950619D01*
X61439902Y-71911666D01*
X61472192Y-71902960D01*
X61503050Y-71910960D01*
X61520510Y-71941380D01*
X61531758Y-72008035D01*
X61536945Y-72096757D01*
X61536224Y-72193381D01*
X61529746Y-72283740D01*
X61517662Y-72353668D01*
X61500124Y-72389000D01*
X61497916Y-72390148D01*
X61457862Y-72396601D01*
X61431210Y-72375243D01*
X61415614Y-72319729D01*
X61408728Y-72223711D01*
X61407800Y-72146418D01*
X61410451Y-72026607D01*
G37*
X61410451Y-72026607D02*
X61420237Y-71950619D01*
X61439902Y-71911666D01*
X61472192Y-71902960D01*
X61503050Y-71910960D01*
X61520510Y-71941380D01*
X61531758Y-72008035D01*
X61536945Y-72096757D01*
X61536224Y-72193381D01*
X61529746Y-72283740D01*
X61517662Y-72353668D01*
X61500124Y-72389000D01*
X61497916Y-72390148D01*
X61457862Y-72396601D01*
X61431210Y-72375243D01*
X61415614Y-72319729D01*
X61408728Y-72223711D01*
X61407800Y-72146418D01*
X61410451Y-72026607D01*
G36*
X61078367Y-75754750D02*
G01*
X61081990Y-75683968D01*
X61090455Y-75645132D01*
X61105744Y-75628819D01*
X61128400Y-75625600D01*
X61152719Y-75629484D01*
X61167747Y-75647636D01*
X61175693Y-75689812D01*
X61178765Y-75765767D01*
X61179200Y-75849967D01*
X61177398Y-75952181D01*
X61172583Y-76034195D01*
X61165640Y-76083390D01*
X61162266Y-76091267D01*
X61123743Y-76107225D01*
X61111466Y-76108200D01*
X61094856Y-76095594D01*
X61084351Y-76052981D01*
X61078944Y-75973168D01*
X61077600Y-75866900D01*
X61078367Y-75754750D01*
G37*
X61078367Y-75754750D02*
X61081990Y-75683968D01*
X61090455Y-75645132D01*
X61105744Y-75628819D01*
X61128400Y-75625600D01*
X61152719Y-75629484D01*
X61167747Y-75647636D01*
X61175693Y-75689812D01*
X61178765Y-75765767D01*
X61179200Y-75849967D01*
X61177398Y-75952181D01*
X61172583Y-76034195D01*
X61165640Y-76083390D01*
X61162266Y-76091267D01*
X61123743Y-76107225D01*
X61111466Y-76108200D01*
X61094856Y-76095594D01*
X61084351Y-76052981D01*
X61078944Y-75973168D01*
X61077600Y-75866900D01*
X61078367Y-75754750D01*
G36*
X61082902Y-72130783D02*
G01*
X61088219Y-72019143D01*
X61096436Y-71949845D01*
X61109249Y-71914445D01*
X61128357Y-71904501D01*
X61128400Y-71904500D01*
X61147261Y-71914201D01*
X61159966Y-71948891D01*
X61168146Y-72016951D01*
X61173435Y-72126760D01*
X61173775Y-72137379D01*
X61174521Y-72267602D01*
X61167347Y-72351832D01*
X61152512Y-72387896D01*
X61118034Y-72394622D01*
X61095387Y-72362245D01*
X61083658Y-72287395D01*
X61081936Y-72166701D01*
X61082902Y-72130783D01*
G37*
X61082902Y-72130783D02*
X61088219Y-72019143D01*
X61096436Y-71949845D01*
X61109249Y-71914445D01*
X61128357Y-71904501D01*
X61128400Y-71904500D01*
X61147261Y-71914201D01*
X61159966Y-71948891D01*
X61168146Y-72016951D01*
X61173435Y-72126760D01*
X61173775Y-72137379D01*
X61174521Y-72267602D01*
X61167347Y-72351832D01*
X61152512Y-72387896D01*
X61118034Y-72394622D01*
X61095387Y-72362245D01*
X61083658Y-72287395D01*
X61081936Y-72166701D01*
X61082902Y-72130783D01*
G36*
X60722570Y-75744369D02*
G01*
X60725879Y-75676949D01*
X60734325Y-75641614D01*
X60750304Y-75629008D01*
X60776214Y-75629774D01*
X60779150Y-75630184D01*
X60807738Y-75638002D01*
X60825359Y-75658629D01*
X60835244Y-75702798D01*
X60840628Y-75781246D01*
X60842797Y-75841500D01*
X60843122Y-75941718D01*
X60838138Y-76024472D01*
X60828876Y-76074820D01*
X60826310Y-76080152D01*
X60786452Y-76102985D01*
X60762663Y-76099999D01*
X60742763Y-76083315D01*
X60730399Y-76045492D01*
X60724006Y-75977023D01*
X60722017Y-75868402D01*
X60722000Y-75853231D01*
X60722570Y-75744369D01*
G37*
X60722570Y-75744369D02*
X60725879Y-75676949D01*
X60734325Y-75641614D01*
X60750304Y-75629008D01*
X60776214Y-75629774D01*
X60779150Y-75630184D01*
X60807738Y-75638002D01*
X60825359Y-75658629D01*
X60835244Y-75702798D01*
X60840628Y-75781246D01*
X60842797Y-75841500D01*
X60843122Y-75941718D01*
X60838138Y-76024472D01*
X60828876Y-76074820D01*
X60826310Y-76080152D01*
X60786452Y-76102985D01*
X60762663Y-76099999D01*
X60742763Y-76083315D01*
X60730399Y-76045492D01*
X60724006Y-75977023D01*
X60722017Y-75868402D01*
X60722000Y-75853231D01*
X60722570Y-75744369D01*
G36*
X60725402Y-72019311D02*
G01*
X60736657Y-71939248D01*
X60757342Y-71901628D01*
X60789031Y-71902469D01*
X60812012Y-71918124D01*
X60833215Y-71954881D01*
X60845134Y-72026611D01*
X60848995Y-72140866D01*
X60849000Y-72145800D01*
X60845402Y-72261704D01*
X60833790Y-72334815D01*
X60812938Y-72372686D01*
X60812012Y-72373477D01*
X60773518Y-72393996D01*
X60746904Y-72378271D01*
X60730595Y-72322320D01*
X60723017Y-72222158D01*
X60722000Y-72145800D01*
X60725402Y-72019311D01*
G37*
X60725402Y-72019311D02*
X60736657Y-71939248D01*
X60757342Y-71901628D01*
X60789031Y-71902469D01*
X60812012Y-71918124D01*
X60833215Y-71954881D01*
X60845134Y-72026611D01*
X60848995Y-72140866D01*
X60849000Y-72145800D01*
X60845402Y-72261704D01*
X60833790Y-72334815D01*
X60812938Y-72372686D01*
X60812012Y-72373477D01*
X60773518Y-72393996D01*
X60746904Y-72378271D01*
X60730595Y-72322320D01*
X60723017Y-72222158D01*
X60722000Y-72145800D01*
X60725402Y-72019311D01*
G36*
X60371010Y-75741943D02*
G01*
X60385841Y-75659335D01*
X60412388Y-75618540D01*
X60452150Y-75615441D01*
X60458395Y-75617603D01*
X60477138Y-75648846D01*
X60489537Y-75716253D01*
X60495646Y-75805594D01*
X60495522Y-75902639D01*
X60489219Y-75993156D01*
X60476794Y-76062916D01*
X60458303Y-76097686D01*
X60456516Y-76098548D01*
X60415411Y-76104714D01*
X60388405Y-76081478D01*
X60373039Y-76022618D01*
X60366854Y-75921913D01*
X60366400Y-75870481D01*
X60371010Y-75741943D01*
G37*
X60371010Y-75741943D02*
X60385841Y-75659335D01*
X60412388Y-75618540D01*
X60452150Y-75615441D01*
X60458395Y-75617603D01*
X60477138Y-75648846D01*
X60489537Y-75716253D01*
X60495646Y-75805594D01*
X60495522Y-75902639D01*
X60489219Y-75993156D01*
X60476794Y-76062916D01*
X60458303Y-76097686D01*
X60456516Y-76098548D01*
X60415411Y-76104714D01*
X60388405Y-76081478D01*
X60373039Y-76022618D01*
X60366854Y-75921913D01*
X60366400Y-75870481D01*
X60371010Y-75741943D01*
G36*
X60371963Y-72020108D02*
G01*
X60388964Y-71942020D01*
X60419100Y-71906903D01*
X60458395Y-71909203D01*
X60478091Y-71940906D01*
X60490753Y-72008675D01*
X60496548Y-72098292D01*
X60495643Y-72195536D01*
X60488203Y-72286188D01*
X60474397Y-72356026D01*
X60454391Y-72390832D01*
X60452736Y-72391599D01*
X60413818Y-72393076D01*
X60387638Y-72359184D01*
X60372552Y-72285205D01*
X60366919Y-72166417D01*
X60366788Y-72144530D01*
X60371963Y-72020108D01*
G37*
X60371963Y-72020108D02*
X60388964Y-71942020D01*
X60419100Y-71906903D01*
X60458395Y-71909203D01*
X60478091Y-71940906D01*
X60490753Y-72008675D01*
X60496548Y-72098292D01*
X60495643Y-72195536D01*
X60488203Y-72286188D01*
X60474397Y-72356026D01*
X60454391Y-72390832D01*
X60452736Y-72391599D01*
X60413818Y-72393076D01*
X60387638Y-72359184D01*
X60372552Y-72285205D01*
X60366919Y-72166417D01*
X60366788Y-72144530D01*
X60371963Y-72020108D01*
G36*
X59263629Y-74758026D02*
G01*
X59337096Y-74742908D01*
X59455221Y-74737156D01*
X59480639Y-74736989D01*
X59603251Y-74742030D01*
X59680072Y-74758827D01*
X59715093Y-74789007D01*
X59713172Y-74831850D01*
X59686463Y-74848988D01*
X59618448Y-74859345D01*
X59504975Y-74863473D01*
X59474486Y-74863600D01*
X59361769Y-74861959D01*
X59290204Y-74855967D01*
X59250220Y-74844021D01*
X59232242Y-74824519D01*
X59231601Y-74822937D01*
X59230053Y-74784154D01*
X59263629Y-74758026D01*
G37*
X59263629Y-74758026D02*
X59337096Y-74742908D01*
X59455221Y-74737156D01*
X59480639Y-74736989D01*
X59603251Y-74742030D01*
X59680072Y-74758827D01*
X59715093Y-74789007D01*
X59713172Y-74831850D01*
X59686463Y-74848988D01*
X59618448Y-74859345D01*
X59504975Y-74863473D01*
X59474486Y-74863600D01*
X59361769Y-74861959D01*
X59290204Y-74855967D01*
X59250220Y-74844021D01*
X59232242Y-74824519D01*
X59231601Y-74822937D01*
X59230053Y-74784154D01*
X59263629Y-74758026D01*
G36*
X59240239Y-74445744D02*
G01*
X59259037Y-74430160D01*
X59302063Y-74420754D01*
X59378885Y-74415128D01*
X59467982Y-74411838D01*
X59582828Y-74409900D01*
X59656107Y-74413504D01*
X59696858Y-74423746D01*
X59714119Y-74441724D01*
X59714122Y-74441731D01*
X59709493Y-74487842D01*
X59694251Y-74507210D01*
X59649651Y-74521374D01*
X59563924Y-74528586D01*
X59448111Y-74528118D01*
X59344097Y-74523399D01*
X59280908Y-74516354D01*
X59248572Y-74504247D01*
X59237116Y-74484337D01*
X59236100Y-74469900D01*
X59240239Y-74445744D01*
G37*
X59240239Y-74445744D02*
X59259037Y-74430160D01*
X59302063Y-74420754D01*
X59378885Y-74415128D01*
X59467982Y-74411838D01*
X59582828Y-74409900D01*
X59656107Y-74413504D01*
X59696858Y-74423746D01*
X59714119Y-74441724D01*
X59714122Y-74441731D01*
X59709493Y-74487842D01*
X59694251Y-74507210D01*
X59649651Y-74521374D01*
X59563924Y-74528586D01*
X59448111Y-74528118D01*
X59344097Y-74523399D01*
X59280908Y-74516354D01*
X59248572Y-74504247D01*
X59237116Y-74484337D01*
X59236100Y-74469900D01*
X59240239Y-74445744D01*
G36*
X59263629Y-74097626D02*
G01*
X59337096Y-74082508D01*
X59455221Y-74076756D01*
X59480639Y-74076589D01*
X59603251Y-74081630D01*
X59680072Y-74098427D01*
X59715093Y-74128607D01*
X59713172Y-74171450D01*
X59686463Y-74188588D01*
X59618448Y-74198945D01*
X59504975Y-74203073D01*
X59474486Y-74203200D01*
X59361769Y-74201559D01*
X59290204Y-74195567D01*
X59250220Y-74183621D01*
X59232242Y-74164119D01*
X59231601Y-74162537D01*
X59230053Y-74123754D01*
X59263629Y-74097626D01*
G37*
X59263629Y-74097626D02*
X59337096Y-74082508D01*
X59455221Y-74076756D01*
X59480639Y-74076589D01*
X59603251Y-74081630D01*
X59680072Y-74098427D01*
X59715093Y-74128607D01*
X59713172Y-74171450D01*
X59686463Y-74188588D01*
X59618448Y-74198945D01*
X59504975Y-74203073D01*
X59474486Y-74203200D01*
X59361769Y-74201559D01*
X59290204Y-74195567D01*
X59250220Y-74183621D01*
X59232242Y-74164119D01*
X59231601Y-74162537D01*
X59230053Y-74123754D01*
X59263629Y-74097626D01*
G36*
X59240239Y-73785344D02*
G01*
X59259037Y-73769760D01*
X59302063Y-73760354D01*
X59378885Y-73754728D01*
X59467982Y-73751438D01*
X59582828Y-73749500D01*
X59656107Y-73753104D01*
X59696858Y-73763346D01*
X59714119Y-73781324D01*
X59714122Y-73781331D01*
X59709493Y-73827442D01*
X59694251Y-73846810D01*
X59649651Y-73860974D01*
X59563924Y-73868186D01*
X59448111Y-73867718D01*
X59344097Y-73862999D01*
X59280908Y-73855954D01*
X59248572Y-73843847D01*
X59237116Y-73823937D01*
X59236100Y-73809500D01*
X59240239Y-73785344D01*
G37*
X59240239Y-73785344D02*
X59259037Y-73769760D01*
X59302063Y-73760354D01*
X59378885Y-73754728D01*
X59467982Y-73751438D01*
X59582828Y-73749500D01*
X59656107Y-73753104D01*
X59696858Y-73763346D01*
X59714119Y-73781324D01*
X59714122Y-73781331D01*
X59709493Y-73827442D01*
X59694251Y-73846810D01*
X59649651Y-73860974D01*
X59563924Y-73868186D01*
X59448111Y-73867718D01*
X59344097Y-73862999D01*
X59280908Y-73855954D01*
X59248572Y-73843847D01*
X59237116Y-73823937D01*
X59236100Y-73809500D01*
X59240239Y-73785344D01*
G36*
X59240477Y-73429130D02*
G01*
X59260168Y-73413378D01*
X59305012Y-73404027D01*
X59384850Y-73398459D01*
X59454466Y-73395818D01*
X59588299Y-73396482D01*
X59674871Y-73409553D01*
X59716372Y-73435821D01*
X59714995Y-73476078D01*
X59708748Y-73487553D01*
X59679139Y-73504072D01*
X59612211Y-73512428D01*
X59502263Y-73513186D01*
X59462551Y-73512101D01*
X59354400Y-73507616D01*
X59287371Y-73501126D01*
X59251792Y-73490146D01*
X59237988Y-73472188D01*
X59236100Y-73453900D01*
X59240477Y-73429130D01*
G37*
X59240477Y-73429130D02*
X59260168Y-73413378D01*
X59305012Y-73404027D01*
X59384850Y-73398459D01*
X59454466Y-73395818D01*
X59588299Y-73396482D01*
X59674871Y-73409553D01*
X59716372Y-73435821D01*
X59714995Y-73476078D01*
X59708748Y-73487553D01*
X59679139Y-73504072D01*
X59612211Y-73512428D01*
X59502263Y-73513186D01*
X59462551Y-73512101D01*
X59354400Y-73507616D01*
X59287371Y-73501126D01*
X59251792Y-73490146D01*
X59237988Y-73472188D01*
X59236100Y-73453900D01*
X59240477Y-73429130D01*
G36*
X59231601Y-73100864D02*
G01*
X59263373Y-73080423D01*
X59331189Y-73066170D01*
X59420830Y-73058272D01*
X59518075Y-73056897D01*
X59608704Y-73062210D01*
X59678498Y-73074378D01*
X59713236Y-73093568D01*
X59713997Y-73095205D01*
X59710300Y-73142139D01*
X59698935Y-73158705D01*
X59660045Y-73172624D01*
X59586333Y-73181814D01*
X59493573Y-73186091D01*
X59397539Y-73185269D01*
X59314004Y-73179162D01*
X59258744Y-73167584D01*
X59251448Y-73163975D01*
X59228620Y-73124634D01*
X59231601Y-73100864D01*
G37*
X59231601Y-73100864D02*
X59263373Y-73080423D01*
X59331189Y-73066170D01*
X59420830Y-73058272D01*
X59518075Y-73056897D01*
X59608704Y-73062210D01*
X59678498Y-73074378D01*
X59713236Y-73093568D01*
X59713997Y-73095205D01*
X59710300Y-73142139D01*
X59698935Y-73158705D01*
X59660045Y-73172624D01*
X59586333Y-73181814D01*
X59493573Y-73186091D01*
X59397539Y-73185269D01*
X59314004Y-73179162D01*
X59258744Y-73167584D01*
X59251448Y-73163975D01*
X59228620Y-73124634D01*
X59231601Y-73100864D01*
D16*
%TO.C,C46*%
X68612836Y-86210000D02*
X68397164Y-86210000D01*
X68612836Y-85490000D02*
X68397164Y-85490000D01*
D17*
%TO.C,U8*%
X91680000Y-61670000D02*
X91680000Y-61670000D01*
X91580000Y-61670000D02*
X91580000Y-61670000D01*
X91680000Y-61670000D02*
X91680000Y-61670000D01*
X91580000Y-61670000D02*
G75*
G02*
X91680000Y-61670000I50000J0D01*
G01*
X91680000Y-61670000D02*
G75*
G02*
X91580000Y-61670000I-50000J0D01*
G01*
X91580000Y-61670000D02*
G75*
G02*
X91680000Y-61670000I50000J0D01*
G01*
D18*
%TO.C,U1*%
X84168600Y-103731400D02*
X96411400Y-103731400D01*
X84168600Y-91488600D02*
X84168600Y-103731400D01*
X96411400Y-91488600D02*
X84168600Y-91488600D01*
X96411400Y-103731400D02*
X96411400Y-91488600D01*
X96284400Y-93610008D02*
X96538400Y-93610008D01*
X84295600Y-93610008D02*
X84041600Y-93610008D01*
X96284400Y-96109876D02*
X96538400Y-96109876D01*
X84295600Y-96109876D02*
X84041600Y-96109876D01*
X96284400Y-98609998D02*
X96538400Y-98609998D01*
X84295600Y-98609998D02*
X84041600Y-98609998D01*
X96284400Y-101110120D02*
X96538400Y-101110120D01*
X84295600Y-101110120D02*
X84041600Y-101110120D01*
X94289992Y-91615600D02*
X94289992Y-91361600D01*
X94289992Y-103604400D02*
X94289992Y-103858400D01*
X91790124Y-91615600D02*
X91790124Y-91361600D01*
X91790124Y-103604400D02*
X91790124Y-103858400D01*
X89290002Y-91615600D02*
X89290002Y-91361600D01*
X89290002Y-103604400D02*
X89290002Y-103858400D01*
X86789880Y-91615600D02*
X86789880Y-91361600D01*
X86789880Y-103604400D02*
X86789880Y-103858400D01*
D17*
%TO.C,U2*%
X87655000Y-71740000D02*
G75*
G03*
X87655000Y-71740000I-100000J0D01*
G01*
X87555000Y-72490000D02*
X88305000Y-71740000D01*
X87555000Y-85240000D02*
X87555000Y-72490000D01*
X95065000Y-85240000D02*
X87555000Y-85240000D01*
X95065000Y-71740000D02*
X95065000Y-85240000D01*
X88305000Y-71740000D02*
X95065000Y-71740000D01*
D16*
%TO.C,R6*%
X99236359Y-102560000D02*
X99543641Y-102560000D01*
X99236359Y-103320000D02*
X99543641Y-103320000D01*
%TO.C,C77*%
X88892164Y-107460000D02*
X89107836Y-107460000D01*
X88892164Y-108180000D02*
X89107836Y-108180000D01*
%TO.C,X1*%
X87620000Y-105210000D02*
X90020000Y-105210000D01*
X90020000Y-105210000D02*
X90020000Y-106810000D01*
X90020000Y-106810000D02*
X87620000Y-106810000D01*
X87620000Y-106810000D02*
X87620000Y-105210000D01*
X87620000Y-105210000D02*
X87720000Y-105210000D01*
D17*
%TO.C,U4*%
X77110000Y-77425000D02*
G75*
G03*
X77110000Y-77425000I-100000J0D01*
G01*
%TO.C,U3*%
X77020000Y-93990000D02*
G75*
G03*
X77020000Y-93990000I-100000J0D01*
G01*
X76420000Y-93990000D02*
X76920000Y-94490000D01*
X69420000Y-93990000D02*
X76420000Y-93990000D01*
X69420000Y-102990000D02*
X69420000Y-93990000D01*
X76920000Y-102990000D02*
X69420000Y-102990000D01*
X76920000Y-94490000D02*
X76920000Y-102990000D01*
D16*
%TO.C,R46*%
X80300000Y-77116359D02*
X80300000Y-77423641D01*
X79540000Y-77116359D02*
X79540000Y-77423641D01*
%TO.C,R43*%
X79233641Y-99910000D02*
X78926359Y-99910000D01*
X79233641Y-99150000D02*
X78926359Y-99150000D01*
%TO.C,R40*%
X79253641Y-95590000D02*
X78946359Y-95590000D01*
X79253641Y-94830000D02*
X78946359Y-94830000D01*
%TO.C,R39*%
X79253641Y-94500000D02*
X78946359Y-94500000D01*
X79253641Y-93740000D02*
X78946359Y-93740000D01*
%TO.C,R38*%
X79243641Y-98840000D02*
X78936359Y-98840000D01*
X79243641Y-98080000D02*
X78936359Y-98080000D01*
%TO.C,R37*%
X79243641Y-97750000D02*
X78936359Y-97750000D01*
X79243641Y-96990000D02*
X78936359Y-96990000D01*
%TO.C,R36*%
X79253641Y-96670000D02*
X78946359Y-96670000D01*
X79253641Y-95910000D02*
X78946359Y-95910000D01*
%TO.C,R34*%
X96550000Y-78793641D02*
X96550000Y-78486359D01*
X97310000Y-78793641D02*
X97310000Y-78486359D01*
%TO.C,R27*%
X85253641Y-88960000D02*
X84946359Y-88960000D01*
X85253641Y-88200000D02*
X84946359Y-88200000D01*
%TO.C,R5*%
X80315000Y-75131359D02*
X80315000Y-75438641D01*
X79555000Y-75131359D02*
X79555000Y-75438641D01*
%TO.C,R4*%
X79240000Y-75131359D02*
X79240000Y-75438641D01*
X78480000Y-75131359D02*
X78480000Y-75438641D01*
%TO.C,R3*%
X99236359Y-103630000D02*
X99543641Y-103630000D01*
X99236359Y-104390000D02*
X99543641Y-104390000D01*
%TO.C,R1*%
X88003641Y-89560000D02*
X87696359Y-89560000D01*
X88003641Y-88800000D02*
X87696359Y-88800000D01*
D19*
%TO.C,L4*%
X73185000Y-85820000D02*
X73185000Y-86380000D01*
X75185000Y-85820000D02*
X75185000Y-86380000D01*
%TO.C,L3*%
X76910000Y-85820000D02*
X76910000Y-86380000D01*
X78910000Y-85820000D02*
X78910000Y-86380000D01*
%TO.C,L2*%
X72460000Y-74705000D02*
X72460000Y-74145000D01*
X70460000Y-74705000D02*
X70460000Y-74145000D01*
%TO.C,L1*%
X75830000Y-76025000D02*
X76390000Y-76025000D01*
X75830000Y-74025000D02*
X76390000Y-74025000D01*
D16*
%TO.C,C62*%
X79382164Y-79015000D02*
X79597836Y-79015000D01*
X79382164Y-79735000D02*
X79597836Y-79735000D01*
%TO.C,C61*%
X68612836Y-85160000D02*
X68397164Y-85160000D01*
X68612836Y-84440000D02*
X68397164Y-84440000D01*
%TO.C,C60*%
X68612836Y-84110000D02*
X68397164Y-84110000D01*
X68612836Y-83390000D02*
X68397164Y-83390000D01*
%TO.C,C59*%
X79382164Y-80190000D02*
X79597836Y-80190000D01*
X79382164Y-80910000D02*
X79597836Y-80910000D01*
%TO.C,C58*%
X68622836Y-79435000D02*
X68407164Y-79435000D01*
X68622836Y-78715000D02*
X68407164Y-78715000D01*
%TO.C,C57*%
X68612836Y-81860000D02*
X68397164Y-81860000D01*
X68612836Y-81140000D02*
X68397164Y-81140000D01*
%TO.C,C56*%
X71645000Y-85272164D02*
X71645000Y-85487836D01*
X70925000Y-85272164D02*
X70925000Y-85487836D01*
%TO.C,C55*%
X68622836Y-80460000D02*
X68407164Y-80460000D01*
X68622836Y-79740000D02*
X68407164Y-79740000D01*
%TO.C,C54*%
X68622836Y-78360000D02*
X68407164Y-78360000D01*
X68622836Y-77640000D02*
X68407164Y-77640000D01*
%TO.C,C53*%
X76420000Y-85272164D02*
X76420000Y-85487836D01*
X75700000Y-85272164D02*
X75700000Y-85487836D01*
%TO.C,C52*%
X72695000Y-85272164D02*
X72695000Y-85487836D01*
X71975000Y-85272164D02*
X71975000Y-85487836D01*
%TO.C,C51*%
X79382164Y-81390000D02*
X79597836Y-81390000D01*
X79382164Y-82110000D02*
X79597836Y-82110000D01*
%TO.C,C50*%
X71196252Y-88985000D02*
X69773748Y-88985000D01*
X71196252Y-87165000D02*
X69773748Y-87165000D01*
%TO.C,C49*%
X79625000Y-86186252D02*
X79625000Y-84763748D01*
X81445000Y-86186252D02*
X81445000Y-84763748D01*
%TO.C,C48*%
X68446252Y-74410000D02*
X67023748Y-74410000D01*
X68446252Y-72590000D02*
X67023748Y-72590000D01*
%TO.C,C47*%
X77196252Y-73260000D02*
X75773748Y-73260000D01*
X77196252Y-71440000D02*
X75773748Y-71440000D01*
%TO.C,C45*%
X68612836Y-83060000D02*
X68397164Y-83060000D01*
X68612836Y-82340000D02*
X68397164Y-82340000D01*
%TO.C,C44*%
X68622836Y-77160000D02*
X68407164Y-77160000D01*
X68622836Y-76440000D02*
X68407164Y-76440000D01*
%TO.C,C43*%
X73250000Y-74382836D02*
X73250000Y-74167164D01*
X73970000Y-74382836D02*
X73970000Y-74167164D01*
%TO.C,C41*%
X68000000Y-96572164D02*
X68000000Y-96787836D01*
X67280000Y-96572164D02*
X67280000Y-96787836D01*
%TO.C,C40*%
X79177836Y-100950000D02*
X78962164Y-100950000D01*
X79177836Y-100230000D02*
X78962164Y-100230000D01*
%TO.C,C39*%
X79207836Y-93410000D02*
X78992164Y-93410000D01*
X79207836Y-92690000D02*
X78992164Y-92690000D01*
%TO.C,C37*%
X85510000Y-77977836D02*
X85510000Y-77762164D01*
X86230000Y-77977836D02*
X86230000Y-77762164D01*
%TO.C,C36*%
X96580000Y-80777836D02*
X96580000Y-80562164D01*
X97300000Y-80777836D02*
X97300000Y-80562164D01*
%TO.C,C35*%
X86190000Y-72592164D02*
X86190000Y-72807836D01*
X85470000Y-72592164D02*
X85470000Y-72807836D01*
%TO.C,C34*%
X97720000Y-73267836D02*
X97720000Y-73052164D01*
X98440000Y-73267836D02*
X98440000Y-73052164D01*
%TO.C,C31*%
X101820000Y-74897836D02*
X101820000Y-74682164D01*
X102540000Y-74897836D02*
X102540000Y-74682164D01*
%TO.C,C30*%
X81600000Y-80322164D02*
X81600000Y-80537836D01*
X80880000Y-80322164D02*
X80880000Y-80537836D01*
%TO.C,C29*%
X85470000Y-82477836D02*
X85470000Y-82262164D01*
X86190000Y-82477836D02*
X86190000Y-82262164D01*
%TO.C,C28*%
X86190000Y-74592164D02*
X86190000Y-74807836D01*
X85470000Y-74592164D02*
X85470000Y-74807836D01*
%TO.C,C27*%
X85030000Y-72622164D02*
X85030000Y-72837836D01*
X84310000Y-72622164D02*
X84310000Y-72837836D01*
%TO.C,C26*%
X96570000Y-73267836D02*
X96570000Y-73052164D01*
X97290000Y-73267836D02*
X97290000Y-73052164D01*
%TO.C,C25*%
X96570000Y-76797836D02*
X96570000Y-76582164D01*
X97290000Y-76797836D02*
X97290000Y-76582164D01*
%TO.C,C24*%
X97310000Y-82542164D02*
X97310000Y-82757836D01*
X96590000Y-82542164D02*
X96590000Y-82757836D01*
%TO.C,C23*%
X97310000Y-84532164D02*
X97310000Y-84747836D01*
X96590000Y-84532164D02*
X96590000Y-84747836D01*
%TO.C,C8*%
X98112164Y-93270000D02*
X98327836Y-93270000D01*
X98112164Y-93990000D02*
X98327836Y-93990000D01*
%TD*%
M02*
