%TF.GenerationSoftware,KiCad,Pcbnew,5.1.10-88a1d61d58~88~ubuntu20.04.1*%
%TF.CreationDate,2021-06-28T11:18:36+05:30*%
%TF.ProjectId,LB1A_DCA7M4_R512MB_F4GB,4c423141-5f44-4434-9137-4d345f523531,1.0.0*%
%TF.SameCoordinates,Original*%
%TF.FileFunction,Legend,Bot*%
%TF.FilePolarity,Positive*%
%FSLAX46Y46*%
G04 Gerber Fmt 4.6, Leading zero omitted, Abs format (unit mm)*
G04 Created by KiCad (PCBNEW 5.1.10-88a1d61d58~88~ubuntu20.04.1) date 2021-06-28 11:18:36*
%MOMM*%
%LPD*%
G01*
G04 APERTURE LIST*
%ADD10C,0.100000*%
%ADD11C,0.150000*%
%ADD12C,0.300000*%
%ADD13C,0.400000*%
%ADD14C,0.304800*%
%ADD15C,0.120000*%
G04 APERTURE END LIST*
D10*
D11*
X177002200Y-166007200D02*
X177002200Y-198007200D01*
X285002200Y-198007200D01*
X285002200Y-166007200D01*
X177002200Y-166007200D01*
D10*
D11*
X10000000Y-10000000D02*
X10000000Y-200007200D01*
X287002200Y-200007200D01*
X287002200Y-10000000D01*
X10000000Y-10000000D01*
D10*
D11*
X12000000Y-12000000D02*
X12000000Y-198007200D01*
X285002200Y-198007200D01*
X285002200Y-12000000D01*
X12000000Y-12000000D01*
D10*
D11*
X60000000Y-12000000D02*
X60000000Y-10000000D01*
D10*
D11*
X110000000Y-12000000D02*
X110000000Y-10000000D01*
D10*
D11*
X160000000Y-12000000D02*
X160000000Y-10000000D01*
D10*
D11*
X210000000Y-12000000D02*
X210000000Y-10000000D01*
D10*
D11*
X260000000Y-12000000D02*
X260000000Y-10000000D01*
D10*
D11*
X36065476Y-11588095D02*
X35322619Y-11588095D01*
X35694047Y-11588095D02*
X35694047Y-10288095D01*
X35570238Y-10473809D01*
X35446428Y-10597619D01*
X35322619Y-10659523D01*
D10*
D11*
X85322619Y-10411904D02*
X85384523Y-10350000D01*
X85508333Y-10288095D01*
X85817857Y-10288095D01*
X85941666Y-10350000D01*
X86003571Y-10411904D01*
X86065476Y-10535714D01*
X86065476Y-10659523D01*
X86003571Y-10845238D01*
X85260714Y-11588095D01*
X86065476Y-11588095D01*
D10*
D11*
X135260714Y-10288095D02*
X136065476Y-10288095D01*
X135632142Y-10783333D01*
X135817857Y-10783333D01*
X135941666Y-10845238D01*
X136003571Y-10907142D01*
X136065476Y-11030952D01*
X136065476Y-11340476D01*
X136003571Y-11464285D01*
X135941666Y-11526190D01*
X135817857Y-11588095D01*
X135446428Y-11588095D01*
X135322619Y-11526190D01*
X135260714Y-11464285D01*
D10*
D11*
X185941666Y-10721428D02*
X185941666Y-11588095D01*
X185632142Y-10226190D02*
X185322619Y-11154761D01*
X186127380Y-11154761D01*
D10*
D11*
X236003571Y-10288095D02*
X235384523Y-10288095D01*
X235322619Y-10907142D01*
X235384523Y-10845238D01*
X235508333Y-10783333D01*
X235817857Y-10783333D01*
X235941666Y-10845238D01*
X236003571Y-10907142D01*
X236065476Y-11030952D01*
X236065476Y-11340476D01*
X236003571Y-11464285D01*
X235941666Y-11526190D01*
X235817857Y-11588095D01*
X235508333Y-11588095D01*
X235384523Y-11526190D01*
X235322619Y-11464285D01*
D10*
D11*
X285941666Y-10288095D02*
X285694047Y-10288095D01*
X285570238Y-10350000D01*
X285508333Y-10411904D01*
X285384523Y-10597619D01*
X285322619Y-10845238D01*
X285322619Y-11340476D01*
X285384523Y-11464285D01*
X285446428Y-11526190D01*
X285570238Y-11588095D01*
X285817857Y-11588095D01*
X285941666Y-11526190D01*
X286003571Y-11464285D01*
X286065476Y-11340476D01*
X286065476Y-11030952D01*
X286003571Y-10907142D01*
X285941666Y-10845238D01*
X285817857Y-10783333D01*
X285570238Y-10783333D01*
X285446428Y-10845238D01*
X285384523Y-10907142D01*
X285322619Y-11030952D01*
D10*
D11*
X60000000Y-198007200D02*
X60000000Y-200007200D01*
D10*
D11*
X110000000Y-198007200D02*
X110000000Y-200007200D01*
D10*
D11*
X160000000Y-198007200D02*
X160000000Y-200007200D01*
D10*
D11*
X210000000Y-198007200D02*
X210000000Y-200007200D01*
D10*
D11*
X260000000Y-198007200D02*
X260000000Y-200007200D01*
D10*
D11*
X36065476Y-199595295D02*
X35322619Y-199595295D01*
X35694047Y-199595295D02*
X35694047Y-198295295D01*
X35570238Y-198481009D01*
X35446428Y-198604819D01*
X35322619Y-198666723D01*
D10*
D11*
X85322619Y-198419104D02*
X85384523Y-198357200D01*
X85508333Y-198295295D01*
X85817857Y-198295295D01*
X85941666Y-198357200D01*
X86003571Y-198419104D01*
X86065476Y-198542914D01*
X86065476Y-198666723D01*
X86003571Y-198852438D01*
X85260714Y-199595295D01*
X86065476Y-199595295D01*
D10*
D11*
X135260714Y-198295295D02*
X136065476Y-198295295D01*
X135632142Y-198790533D01*
X135817857Y-198790533D01*
X135941666Y-198852438D01*
X136003571Y-198914342D01*
X136065476Y-199038152D01*
X136065476Y-199347676D01*
X136003571Y-199471485D01*
X135941666Y-199533390D01*
X135817857Y-199595295D01*
X135446428Y-199595295D01*
X135322619Y-199533390D01*
X135260714Y-199471485D01*
D10*
D11*
X185941666Y-198728628D02*
X185941666Y-199595295D01*
X185632142Y-198233390D02*
X185322619Y-199161961D01*
X186127380Y-199161961D01*
D10*
D11*
X236003571Y-198295295D02*
X235384523Y-198295295D01*
X235322619Y-198914342D01*
X235384523Y-198852438D01*
X235508333Y-198790533D01*
X235817857Y-198790533D01*
X235941666Y-198852438D01*
X236003571Y-198914342D01*
X236065476Y-199038152D01*
X236065476Y-199347676D01*
X236003571Y-199471485D01*
X235941666Y-199533390D01*
X235817857Y-199595295D01*
X235508333Y-199595295D01*
X235384523Y-199533390D01*
X235322619Y-199471485D01*
D10*
D11*
X285941666Y-198295295D02*
X285694047Y-198295295D01*
X285570238Y-198357200D01*
X285508333Y-198419104D01*
X285384523Y-198604819D01*
X285322619Y-198852438D01*
X285322619Y-199347676D01*
X285384523Y-199471485D01*
X285446428Y-199533390D01*
X285570238Y-199595295D01*
X285817857Y-199595295D01*
X285941666Y-199533390D01*
X286003571Y-199471485D01*
X286065476Y-199347676D01*
X286065476Y-199038152D01*
X286003571Y-198914342D01*
X285941666Y-198852438D01*
X285817857Y-198790533D01*
X285570238Y-198790533D01*
X285446428Y-198852438D01*
X285384523Y-198914342D01*
X285322619Y-199038152D01*
D10*
D11*
X10000000Y-60000000D02*
X12000000Y-60000000D01*
D10*
D11*
X10000000Y-110000000D02*
X12000000Y-110000000D01*
D10*
D11*
X10000000Y-160000000D02*
X12000000Y-160000000D01*
D10*
D11*
X10690476Y-35216666D02*
X11309523Y-35216666D01*
X10566666Y-35588095D02*
X11000000Y-34288095D01*
X11433333Y-35588095D01*
D10*
D11*
X11092857Y-84907142D02*
X11278571Y-84969047D01*
X11340476Y-85030952D01*
X11402380Y-85154761D01*
X11402380Y-85340476D01*
X11340476Y-85464285D01*
X11278571Y-85526190D01*
X11154761Y-85588095D01*
X10659523Y-85588095D01*
X10659523Y-84288095D01*
X11092857Y-84288095D01*
X11216666Y-84350000D01*
X11278571Y-84411904D01*
X11340476Y-84535714D01*
X11340476Y-84659523D01*
X11278571Y-84783333D01*
X11216666Y-84845238D01*
X11092857Y-84907142D01*
X10659523Y-84907142D01*
D10*
D11*
X11402380Y-135464285D02*
X11340476Y-135526190D01*
X11154761Y-135588095D01*
X11030952Y-135588095D01*
X10845238Y-135526190D01*
X10721428Y-135402380D01*
X10659523Y-135278571D01*
X10597619Y-135030952D01*
X10597619Y-134845238D01*
X10659523Y-134597619D01*
X10721428Y-134473809D01*
X10845238Y-134350000D01*
X11030952Y-134288095D01*
X11154761Y-134288095D01*
X11340476Y-134350000D01*
X11402380Y-134411904D01*
D10*
D11*
X10659523Y-185588095D02*
X10659523Y-184288095D01*
X10969047Y-184288095D01*
X11154761Y-184350000D01*
X11278571Y-184473809D01*
X11340476Y-184597619D01*
X11402380Y-184845238D01*
X11402380Y-185030952D01*
X11340476Y-185278571D01*
X11278571Y-185402380D01*
X11154761Y-185526190D01*
X10969047Y-185588095D01*
X10659523Y-185588095D01*
D10*
D11*
X287002200Y-60000000D02*
X285002200Y-60000000D01*
D10*
D11*
X287002200Y-110000000D02*
X285002200Y-110000000D01*
D10*
D11*
X287002200Y-160000000D02*
X285002200Y-160000000D01*
D10*
D11*
X285692676Y-35216666D02*
X286311723Y-35216666D01*
X285568866Y-35588095D02*
X286002200Y-34288095D01*
X286435533Y-35588095D01*
D10*
D11*
X286095057Y-84907142D02*
X286280771Y-84969047D01*
X286342676Y-85030952D01*
X286404580Y-85154761D01*
X286404580Y-85340476D01*
X286342676Y-85464285D01*
X286280771Y-85526190D01*
X286156961Y-85588095D01*
X285661723Y-85588095D01*
X285661723Y-84288095D01*
X286095057Y-84288095D01*
X286218866Y-84350000D01*
X286280771Y-84411904D01*
X286342676Y-84535714D01*
X286342676Y-84659523D01*
X286280771Y-84783333D01*
X286218866Y-84845238D01*
X286095057Y-84907142D01*
X285661723Y-84907142D01*
D10*
D11*
X286404580Y-135464285D02*
X286342676Y-135526190D01*
X286156961Y-135588095D01*
X286033152Y-135588095D01*
X285847438Y-135526190D01*
X285723628Y-135402380D01*
X285661723Y-135278571D01*
X285599819Y-135030952D01*
X285599819Y-134845238D01*
X285661723Y-134597619D01*
X285723628Y-134473809D01*
X285847438Y-134350000D01*
X286033152Y-134288095D01*
X286156961Y-134288095D01*
X286342676Y-134350000D01*
X286404580Y-134411904D01*
D10*
D11*
X285661723Y-185588095D02*
X285661723Y-184288095D01*
X285971247Y-184288095D01*
X286156961Y-184350000D01*
X286280771Y-184473809D01*
X286342676Y-184597619D01*
X286404580Y-184845238D01*
X286404580Y-185030952D01*
X286342676Y-185278571D01*
X286280771Y-185402380D01*
X286156961Y-185526190D01*
X285971247Y-185588095D01*
X285661723Y-185588095D01*
D10*
D11*
X200434342Y-193785771D02*
X200434342Y-192285771D01*
X200791485Y-192285771D01*
X201005771Y-192357200D01*
X201148628Y-192500057D01*
X201220057Y-192642914D01*
X201291485Y-192928628D01*
X201291485Y-193142914D01*
X201220057Y-193428628D01*
X201148628Y-193571485D01*
X201005771Y-193714342D01*
X200791485Y-193785771D01*
X200434342Y-193785771D01*
X202577200Y-193785771D02*
X202577200Y-193000057D01*
X202505771Y-192857200D01*
X202362914Y-192785771D01*
X202077200Y-192785771D01*
X201934342Y-192857200D01*
X202577200Y-193714342D02*
X202434342Y-193785771D01*
X202077200Y-193785771D01*
X201934342Y-193714342D01*
X201862914Y-193571485D01*
X201862914Y-193428628D01*
X201934342Y-193285771D01*
X202077200Y-193214342D01*
X202434342Y-193214342D01*
X202577200Y-193142914D01*
X203077200Y-192785771D02*
X203648628Y-192785771D01*
X203291485Y-192285771D02*
X203291485Y-193571485D01*
X203362914Y-193714342D01*
X203505771Y-193785771D01*
X203648628Y-193785771D01*
X204720057Y-193714342D02*
X204577200Y-193785771D01*
X204291485Y-193785771D01*
X204148628Y-193714342D01*
X204077200Y-193571485D01*
X204077200Y-193000057D01*
X204148628Y-192857200D01*
X204291485Y-192785771D01*
X204577200Y-192785771D01*
X204720057Y-192857200D01*
X204791485Y-193000057D01*
X204791485Y-193142914D01*
X204077200Y-193285771D01*
X205434342Y-193642914D02*
X205505771Y-193714342D01*
X205434342Y-193785771D01*
X205362914Y-193714342D01*
X205434342Y-193642914D01*
X205434342Y-193785771D01*
X205434342Y-192857200D02*
X205505771Y-192928628D01*
X205434342Y-193000057D01*
X205362914Y-192928628D01*
X205434342Y-192857200D01*
X205434342Y-193000057D01*
X207220057Y-192428628D02*
X207291485Y-192357200D01*
X207434342Y-192285771D01*
X207791485Y-192285771D01*
X207934342Y-192357200D01*
X208005771Y-192428628D01*
X208077200Y-192571485D01*
X208077200Y-192714342D01*
X208005771Y-192928628D01*
X207148628Y-193785771D01*
X208077200Y-193785771D01*
X209005771Y-192285771D02*
X209148628Y-192285771D01*
X209291485Y-192357200D01*
X209362914Y-192428628D01*
X209434342Y-192571485D01*
X209505771Y-192857200D01*
X209505771Y-193214342D01*
X209434342Y-193500057D01*
X209362914Y-193642914D01*
X209291485Y-193714342D01*
X209148628Y-193785771D01*
X209005771Y-193785771D01*
X208862914Y-193714342D01*
X208791485Y-193642914D01*
X208720057Y-193500057D01*
X208648628Y-193214342D01*
X208648628Y-192857200D01*
X208720057Y-192571485D01*
X208791485Y-192428628D01*
X208862914Y-192357200D01*
X209005771Y-192285771D01*
X210077200Y-192428628D02*
X210148628Y-192357200D01*
X210291485Y-192285771D01*
X210648628Y-192285771D01*
X210791485Y-192357200D01*
X210862914Y-192428628D01*
X210934342Y-192571485D01*
X210934342Y-192714342D01*
X210862914Y-192928628D01*
X210005771Y-193785771D01*
X210934342Y-193785771D01*
X212362914Y-193785771D02*
X211505771Y-193785771D01*
X211934342Y-193785771D02*
X211934342Y-192285771D01*
X211791485Y-192500057D01*
X211648628Y-192642914D01*
X211505771Y-192714342D01*
X213005771Y-193214342D02*
X214148628Y-193214342D01*
X215148628Y-192285771D02*
X215291485Y-192285771D01*
X215434342Y-192357200D01*
X215505771Y-192428628D01*
X215577200Y-192571485D01*
X215648628Y-192857200D01*
X215648628Y-193214342D01*
X215577200Y-193500057D01*
X215505771Y-193642914D01*
X215434342Y-193714342D01*
X215291485Y-193785771D01*
X215148628Y-193785771D01*
X215005771Y-193714342D01*
X214934342Y-193642914D01*
X214862914Y-193500057D01*
X214791485Y-193214342D01*
X214791485Y-192857200D01*
X214862914Y-192571485D01*
X214934342Y-192428628D01*
X215005771Y-192357200D01*
X215148628Y-192285771D01*
X216934342Y-192285771D02*
X216648628Y-192285771D01*
X216505771Y-192357200D01*
X216434342Y-192428628D01*
X216291485Y-192642914D01*
X216220057Y-192928628D01*
X216220057Y-193500057D01*
X216291485Y-193642914D01*
X216362914Y-193714342D01*
X216505771Y-193785771D01*
X216791485Y-193785771D01*
X216934342Y-193714342D01*
X217005771Y-193642914D01*
X217077200Y-193500057D01*
X217077200Y-193142914D01*
X217005771Y-193000057D01*
X216934342Y-192928628D01*
X216791485Y-192857200D01*
X216505771Y-192857200D01*
X216362914Y-192928628D01*
X216291485Y-193000057D01*
X216220057Y-193142914D01*
X217720057Y-193214342D02*
X218862914Y-193214342D01*
X219505771Y-192428628D02*
X219577200Y-192357200D01*
X219720057Y-192285771D01*
X220077200Y-192285771D01*
X220220057Y-192357200D01*
X220291485Y-192428628D01*
X220362914Y-192571485D01*
X220362914Y-192714342D01*
X220291485Y-192928628D01*
X219434342Y-193785771D01*
X220362914Y-193785771D01*
X221220057Y-192928628D02*
X221077200Y-192857200D01*
X221005771Y-192785771D01*
X220934342Y-192642914D01*
X220934342Y-192571485D01*
X221005771Y-192428628D01*
X221077200Y-192357200D01*
X221220057Y-192285771D01*
X221505771Y-192285771D01*
X221648628Y-192357200D01*
X221720057Y-192428628D01*
X221791485Y-192571485D01*
X221791485Y-192642914D01*
X221720057Y-192785771D01*
X221648628Y-192857200D01*
X221505771Y-192928628D01*
X221220057Y-192928628D01*
X221077200Y-193000057D01*
X221005771Y-193071485D01*
X220934342Y-193214342D01*
X220934342Y-193500057D01*
X221005771Y-193642914D01*
X221077200Y-193714342D01*
X221220057Y-193785771D01*
X221505771Y-193785771D01*
X221648628Y-193714342D01*
X221720057Y-193642914D01*
X221791485Y-193500057D01*
X221791485Y-193214342D01*
X221720057Y-193071485D01*
X221648628Y-193000057D01*
X221505771Y-192928628D01*
D10*
D11*
X177002200Y-194507200D02*
X285002200Y-194507200D01*
D10*
D11*
X178434342Y-196585771D02*
X178434342Y-195085771D01*
X179291485Y-196585771D02*
X178648628Y-195728628D01*
X179291485Y-195085771D02*
X178434342Y-195942914D01*
X179934342Y-196585771D02*
X179934342Y-195585771D01*
X179934342Y-195085771D02*
X179862914Y-195157200D01*
X179934342Y-195228628D01*
X180005771Y-195157200D01*
X179934342Y-195085771D01*
X179934342Y-195228628D01*
X181505771Y-196442914D02*
X181434342Y-196514342D01*
X181220057Y-196585771D01*
X181077200Y-196585771D01*
X180862914Y-196514342D01*
X180720057Y-196371485D01*
X180648628Y-196228628D01*
X180577200Y-195942914D01*
X180577200Y-195728628D01*
X180648628Y-195442914D01*
X180720057Y-195300057D01*
X180862914Y-195157200D01*
X181077200Y-195085771D01*
X181220057Y-195085771D01*
X181434342Y-195157200D01*
X181505771Y-195228628D01*
X182791485Y-196585771D02*
X182791485Y-195800057D01*
X182720057Y-195657200D01*
X182577200Y-195585771D01*
X182291485Y-195585771D01*
X182148628Y-195657200D01*
X182791485Y-196514342D02*
X182648628Y-196585771D01*
X182291485Y-196585771D01*
X182148628Y-196514342D01*
X182077200Y-196371485D01*
X182077200Y-196228628D01*
X182148628Y-196085771D01*
X182291485Y-196014342D01*
X182648628Y-196014342D01*
X182791485Y-195942914D01*
X184148628Y-196585771D02*
X184148628Y-195085771D01*
X184148628Y-196514342D02*
X184005771Y-196585771D01*
X183720057Y-196585771D01*
X183577200Y-196514342D01*
X183505771Y-196442914D01*
X183434342Y-196300057D01*
X183434342Y-195871485D01*
X183505771Y-195728628D01*
X183577200Y-195657200D01*
X183720057Y-195585771D01*
X184005771Y-195585771D01*
X184148628Y-195657200D01*
X186005771Y-195800057D02*
X186505771Y-195800057D01*
X186720057Y-196585771D02*
X186005771Y-196585771D01*
X186005771Y-195085771D01*
X186720057Y-195085771D01*
X187362914Y-196442914D02*
X187434342Y-196514342D01*
X187362914Y-196585771D01*
X187291485Y-196514342D01*
X187362914Y-196442914D01*
X187362914Y-196585771D01*
X188077200Y-196585771D02*
X188077200Y-195085771D01*
X188434342Y-195085771D01*
X188648628Y-195157200D01*
X188791485Y-195300057D01*
X188862914Y-195442914D01*
X188934342Y-195728628D01*
X188934342Y-195942914D01*
X188862914Y-196228628D01*
X188791485Y-196371485D01*
X188648628Y-196514342D01*
X188434342Y-196585771D01*
X188077200Y-196585771D01*
X189577200Y-196442914D02*
X189648628Y-196514342D01*
X189577200Y-196585771D01*
X189505771Y-196514342D01*
X189577200Y-196442914D01*
X189577200Y-196585771D01*
X190220057Y-196157200D02*
X190934342Y-196157200D01*
X190077200Y-196585771D02*
X190577200Y-195085771D01*
X191077200Y-196585771D01*
X191577200Y-196442914D02*
X191648628Y-196514342D01*
X191577200Y-196585771D01*
X191505771Y-196514342D01*
X191577200Y-196442914D01*
X191577200Y-196585771D01*
X194577200Y-196585771D02*
X194577200Y-195085771D01*
X194720057Y-196014342D02*
X195148628Y-196585771D01*
X195148628Y-195585771D02*
X194577200Y-196157200D01*
X195791485Y-196585771D02*
X195791485Y-195585771D01*
X195791485Y-195085771D02*
X195720057Y-195157200D01*
X195791485Y-195228628D01*
X195862914Y-195157200D01*
X195791485Y-195085771D01*
X195791485Y-195228628D01*
X197148628Y-196514342D02*
X197005771Y-196585771D01*
X196720057Y-196585771D01*
X196577200Y-196514342D01*
X196505771Y-196442914D01*
X196434342Y-196300057D01*
X196434342Y-195871485D01*
X196505771Y-195728628D01*
X196577200Y-195657200D01*
X196720057Y-195585771D01*
X197005771Y-195585771D01*
X197148628Y-195657200D01*
X198434342Y-196585771D02*
X198434342Y-195800057D01*
X198362914Y-195657200D01*
X198220057Y-195585771D01*
X197934342Y-195585771D01*
X197791485Y-195657200D01*
X198434342Y-196514342D02*
X198291485Y-196585771D01*
X197934342Y-196585771D01*
X197791485Y-196514342D01*
X197720057Y-196371485D01*
X197720057Y-196228628D01*
X197791485Y-196085771D01*
X197934342Y-196014342D01*
X198291485Y-196014342D01*
X198434342Y-195942914D01*
X199791485Y-196585771D02*
X199791485Y-195085771D01*
X199791485Y-196514342D02*
X199648628Y-196585771D01*
X199362914Y-196585771D01*
X199220057Y-196514342D01*
X199148628Y-196442914D01*
X199077200Y-196300057D01*
X199077200Y-195871485D01*
X199148628Y-195728628D01*
X199220057Y-195657200D01*
X199362914Y-195585771D01*
X199648628Y-195585771D01*
X199791485Y-195657200D01*
X202362914Y-195085771D02*
X201648628Y-195085771D01*
X201577200Y-195800057D01*
X201648628Y-195728628D01*
X201791485Y-195657200D01*
X202148628Y-195657200D01*
X202291485Y-195728628D01*
X202362914Y-195800057D01*
X202434342Y-195942914D01*
X202434342Y-196300057D01*
X202362914Y-196442914D01*
X202291485Y-196514342D01*
X202148628Y-196585771D01*
X201791485Y-196585771D01*
X201648628Y-196514342D01*
X201577200Y-196442914D01*
X203077200Y-196442914D02*
X203148628Y-196514342D01*
X203077200Y-196585771D01*
X203005771Y-196514342D01*
X203077200Y-196442914D01*
X203077200Y-196585771D01*
X204577200Y-196585771D02*
X203720057Y-196585771D01*
X204148628Y-196585771D02*
X204148628Y-195085771D01*
X204005771Y-195300057D01*
X203862914Y-195442914D01*
X203720057Y-195514342D01*
X205220057Y-196442914D02*
X205291485Y-196514342D01*
X205220057Y-196585771D01*
X205148628Y-196514342D01*
X205220057Y-196442914D01*
X205220057Y-196585771D01*
X206720057Y-196585771D02*
X205862914Y-196585771D01*
X206291485Y-196585771D02*
X206291485Y-195085771D01*
X206148628Y-195300057D01*
X206005771Y-195442914D01*
X205862914Y-195514342D01*
X207648628Y-195085771D02*
X207791485Y-195085771D01*
X207934342Y-195157200D01*
X208005771Y-195228628D01*
X208077200Y-195371485D01*
X208148628Y-195657200D01*
X208148628Y-196014342D01*
X208077200Y-196300057D01*
X208005771Y-196442914D01*
X207934342Y-196514342D01*
X207791485Y-196585771D01*
X207648628Y-196585771D01*
X207505771Y-196514342D01*
X207434342Y-196442914D01*
X207362914Y-196300057D01*
X207291485Y-196014342D01*
X207291485Y-195657200D01*
X207362914Y-195371485D01*
X207434342Y-195228628D01*
X207505771Y-195157200D01*
X207648628Y-195085771D01*
X208791485Y-196014342D02*
X209934342Y-196014342D01*
X210862914Y-195728628D02*
X210720057Y-195657200D01*
X210648628Y-195585771D01*
X210577200Y-195442914D01*
X210577200Y-195371485D01*
X210648628Y-195228628D01*
X210720057Y-195157200D01*
X210862914Y-195085771D01*
X211148628Y-195085771D01*
X211291485Y-195157200D01*
X211362914Y-195228628D01*
X211434342Y-195371485D01*
X211434342Y-195442914D01*
X211362914Y-195585771D01*
X211291485Y-195657200D01*
X211148628Y-195728628D01*
X210862914Y-195728628D01*
X210720057Y-195800057D01*
X210648628Y-195871485D01*
X210577200Y-196014342D01*
X210577200Y-196300057D01*
X210648628Y-196442914D01*
X210720057Y-196514342D01*
X210862914Y-196585771D01*
X211148628Y-196585771D01*
X211291485Y-196514342D01*
X211362914Y-196442914D01*
X211434342Y-196300057D01*
X211434342Y-196014342D01*
X211362914Y-195871485D01*
X211291485Y-195800057D01*
X211148628Y-195728628D01*
X212291485Y-195728628D02*
X212148628Y-195657200D01*
X212077200Y-195585771D01*
X212005771Y-195442914D01*
X212005771Y-195371485D01*
X212077200Y-195228628D01*
X212148628Y-195157200D01*
X212291485Y-195085771D01*
X212577200Y-195085771D01*
X212720057Y-195157200D01*
X212791485Y-195228628D01*
X212862914Y-195371485D01*
X212862914Y-195442914D01*
X212791485Y-195585771D01*
X212720057Y-195657200D01*
X212577200Y-195728628D01*
X212291485Y-195728628D01*
X212148628Y-195800057D01*
X212077200Y-195871485D01*
X212005771Y-196014342D01*
X212005771Y-196300057D01*
X212077200Y-196442914D01*
X212148628Y-196514342D01*
X212291485Y-196585771D01*
X212577200Y-196585771D01*
X212720057Y-196514342D01*
X212791485Y-196442914D01*
X212862914Y-196300057D01*
X212862914Y-196014342D01*
X212791485Y-195871485D01*
X212720057Y-195800057D01*
X212577200Y-195728628D01*
X214148628Y-196585771D02*
X214148628Y-195800057D01*
X214077200Y-195657200D01*
X213934342Y-195585771D01*
X213648628Y-195585771D01*
X213505771Y-195657200D01*
X214148628Y-196514342D02*
X214005771Y-196585771D01*
X213648628Y-196585771D01*
X213505771Y-196514342D01*
X213434342Y-196371485D01*
X213434342Y-196228628D01*
X213505771Y-196085771D01*
X213648628Y-196014342D01*
X214005771Y-196014342D01*
X214148628Y-195942914D01*
X215648628Y-196585771D02*
X214791485Y-196585771D01*
X215220057Y-196585771D02*
X215220057Y-195085771D01*
X215077200Y-195300057D01*
X214934342Y-195442914D01*
X214791485Y-195514342D01*
X216934342Y-196585771D02*
X216934342Y-195085771D01*
X216934342Y-196514342D02*
X216791485Y-196585771D01*
X216505771Y-196585771D01*
X216362914Y-196514342D01*
X216291485Y-196442914D01*
X216220057Y-196300057D01*
X216220057Y-195871485D01*
X216291485Y-195728628D01*
X216362914Y-195657200D01*
X216505771Y-195585771D01*
X216791485Y-195585771D01*
X216934342Y-195657200D01*
X218291485Y-195085771D02*
X218005771Y-195085771D01*
X217862914Y-195157200D01*
X217791485Y-195228628D01*
X217648628Y-195442914D01*
X217577200Y-195728628D01*
X217577200Y-196300057D01*
X217648628Y-196442914D01*
X217720057Y-196514342D01*
X217862914Y-196585771D01*
X218148628Y-196585771D01*
X218291485Y-196514342D01*
X218362914Y-196442914D01*
X218434342Y-196300057D01*
X218434342Y-195942914D01*
X218362914Y-195800057D01*
X218291485Y-195728628D01*
X218148628Y-195657200D01*
X217862914Y-195657200D01*
X217720057Y-195728628D01*
X217648628Y-195800057D01*
X217577200Y-195942914D01*
X219862914Y-196585771D02*
X219005771Y-196585771D01*
X219434342Y-196585771D02*
X219434342Y-195085771D01*
X219291485Y-195300057D01*
X219148628Y-195442914D01*
X219005771Y-195514342D01*
X221148628Y-196585771D02*
X221148628Y-195085771D01*
X221148628Y-196514342D02*
X221005771Y-196585771D01*
X220720057Y-196585771D01*
X220577200Y-196514342D01*
X220505771Y-196442914D01*
X220434342Y-196300057D01*
X220434342Y-195871485D01*
X220505771Y-195728628D01*
X220577200Y-195657200D01*
X220720057Y-195585771D01*
X221005771Y-195585771D01*
X221148628Y-195657200D01*
X222577200Y-195085771D02*
X221862914Y-195085771D01*
X221791485Y-195800057D01*
X221862914Y-195728628D01*
X222005771Y-195657200D01*
X222362914Y-195657200D01*
X222505771Y-195728628D01*
X222577200Y-195800057D01*
X222648628Y-195942914D01*
X222648628Y-196300057D01*
X222577200Y-196442914D01*
X222505771Y-196514342D01*
X222362914Y-196585771D01*
X222005771Y-196585771D01*
X221862914Y-196514342D01*
X221791485Y-196442914D01*
X223505771Y-195728628D02*
X223362914Y-195657200D01*
X223291485Y-195585771D01*
X223220057Y-195442914D01*
X223220057Y-195371485D01*
X223291485Y-195228628D01*
X223362914Y-195157200D01*
X223505771Y-195085771D01*
X223791485Y-195085771D01*
X223934342Y-195157200D01*
X224005771Y-195228628D01*
X224077200Y-195371485D01*
X224077200Y-195442914D01*
X224005771Y-195585771D01*
X223934342Y-195657200D01*
X223791485Y-195728628D01*
X223505771Y-195728628D01*
X223362914Y-195800057D01*
X223291485Y-195871485D01*
X223220057Y-196014342D01*
X223220057Y-196300057D01*
X223291485Y-196442914D01*
X223362914Y-196514342D01*
X223505771Y-196585771D01*
X223791485Y-196585771D01*
X223934342Y-196514342D01*
X224005771Y-196442914D01*
X224077200Y-196300057D01*
X224077200Y-196014342D01*
X224005771Y-195871485D01*
X223934342Y-195800057D01*
X223791485Y-195728628D01*
X224362914Y-194677200D02*
X225791485Y-194677200D01*
X224934342Y-195728628D02*
X224791485Y-195657200D01*
X224720057Y-195585771D01*
X224648628Y-195442914D01*
X224648628Y-195371485D01*
X224720057Y-195228628D01*
X224791485Y-195157200D01*
X224934342Y-195085771D01*
X225220057Y-195085771D01*
X225362914Y-195157200D01*
X225434342Y-195228628D01*
X225505771Y-195371485D01*
X225505771Y-195442914D01*
X225434342Y-195585771D01*
X225362914Y-195657200D01*
X225220057Y-195728628D01*
X224934342Y-195728628D01*
X224791485Y-195800057D01*
X224720057Y-195871485D01*
X224648628Y-196014342D01*
X224648628Y-196300057D01*
X224720057Y-196442914D01*
X224791485Y-196514342D01*
X224934342Y-196585771D01*
X225220057Y-196585771D01*
X225362914Y-196514342D01*
X225434342Y-196442914D01*
X225505771Y-196300057D01*
X225505771Y-196014342D01*
X225434342Y-195871485D01*
X225362914Y-195800057D01*
X225220057Y-195728628D01*
X225791485Y-194677200D02*
X227220057Y-194677200D01*
X226362914Y-195728628D02*
X226220057Y-195657200D01*
X226148628Y-195585771D01*
X226077199Y-195442914D01*
X226077199Y-195371485D01*
X226148628Y-195228628D01*
X226220057Y-195157200D01*
X226362914Y-195085771D01*
X226648628Y-195085771D01*
X226791485Y-195157200D01*
X226862914Y-195228628D01*
X226934342Y-195371485D01*
X226934342Y-195442914D01*
X226862914Y-195585771D01*
X226791485Y-195657200D01*
X226648628Y-195728628D01*
X226362914Y-195728628D01*
X226220057Y-195800057D01*
X226148628Y-195871485D01*
X226077199Y-196014342D01*
X226077199Y-196300057D01*
X226148628Y-196442914D01*
X226220057Y-196514342D01*
X226362914Y-196585771D01*
X226648628Y-196585771D01*
X226791485Y-196514342D01*
X226862914Y-196442914D01*
X226934342Y-196300057D01*
X226934342Y-196014342D01*
X226862914Y-195871485D01*
X226791485Y-195800057D01*
X226648628Y-195728628D01*
X228220057Y-195585771D02*
X228220057Y-196585771D01*
X227577199Y-195585771D02*
X227577199Y-196371485D01*
X227648628Y-196514342D01*
X227791485Y-196585771D01*
X228005771Y-196585771D01*
X228148628Y-196514342D01*
X228220057Y-196442914D01*
X228934342Y-196585771D02*
X228934342Y-195085771D01*
X228934342Y-195657200D02*
X229077199Y-195585771D01*
X229362914Y-195585771D01*
X229505771Y-195657200D01*
X229577199Y-195728628D01*
X229648628Y-195871485D01*
X229648628Y-196300057D01*
X229577199Y-196442914D01*
X229505771Y-196514342D01*
X229362914Y-196585771D01*
X229077199Y-196585771D01*
X228934342Y-196514342D01*
X230934342Y-195585771D02*
X230934342Y-196585771D01*
X230291485Y-195585771D02*
X230291485Y-196371485D01*
X230362914Y-196514342D01*
X230505771Y-196585771D01*
X230720057Y-196585771D01*
X230862914Y-196514342D01*
X230934342Y-196442914D01*
X231648628Y-195585771D02*
X231648628Y-196585771D01*
X231648628Y-195728628D02*
X231720057Y-195657200D01*
X231862914Y-195585771D01*
X232077199Y-195585771D01*
X232220057Y-195657200D01*
X232291485Y-195800057D01*
X232291485Y-196585771D01*
X232791485Y-195585771D02*
X233362914Y-195585771D01*
X233005771Y-195085771D02*
X233005771Y-196371485D01*
X233077199Y-196514342D01*
X233220057Y-196585771D01*
X233362914Y-196585771D01*
X234505771Y-195585771D02*
X234505771Y-196585771D01*
X233862914Y-195585771D02*
X233862914Y-196371485D01*
X233934342Y-196514342D01*
X234077200Y-196585771D01*
X234291485Y-196585771D01*
X234434342Y-196514342D01*
X234505771Y-196442914D01*
X235148628Y-195228628D02*
X235220057Y-195157200D01*
X235362914Y-195085771D01*
X235720057Y-195085771D01*
X235862914Y-195157200D01*
X235934342Y-195228628D01*
X236005771Y-195371485D01*
X236005771Y-195514342D01*
X235934342Y-195728628D01*
X235077200Y-196585771D01*
X236005771Y-196585771D01*
X236934342Y-195085771D02*
X237077199Y-195085771D01*
X237220057Y-195157200D01*
X237291485Y-195228628D01*
X237362914Y-195371485D01*
X237434342Y-195657200D01*
X237434342Y-196014342D01*
X237362914Y-196300057D01*
X237291485Y-196442914D01*
X237220057Y-196514342D01*
X237077199Y-196585771D01*
X236934342Y-196585771D01*
X236791485Y-196514342D01*
X236720057Y-196442914D01*
X236648628Y-196300057D01*
X236577199Y-196014342D01*
X236577199Y-195657200D01*
X236648628Y-195371485D01*
X236720057Y-195228628D01*
X236791485Y-195157200D01*
X236934342Y-195085771D01*
X238077199Y-196442914D02*
X238148628Y-196514342D01*
X238077199Y-196585771D01*
X238005771Y-196514342D01*
X238077199Y-196442914D01*
X238077199Y-196585771D01*
X239077199Y-195085771D02*
X239220057Y-195085771D01*
X239362914Y-195157200D01*
X239434342Y-195228628D01*
X239505771Y-195371485D01*
X239577199Y-195657200D01*
X239577199Y-196014342D01*
X239505771Y-196300057D01*
X239434342Y-196442914D01*
X239362914Y-196514342D01*
X239220057Y-196585771D01*
X239077199Y-196585771D01*
X238934342Y-196514342D01*
X238862914Y-196442914D01*
X238791485Y-196300057D01*
X238720057Y-196014342D01*
X238720057Y-195657200D01*
X238791485Y-195371485D01*
X238862914Y-195228628D01*
X238934342Y-195157200D01*
X239077199Y-195085771D01*
X240862914Y-195585771D02*
X240862914Y-196585771D01*
X240505771Y-195014342D02*
X240148628Y-196085771D01*
X241077199Y-196085771D01*
X241648628Y-196442914D02*
X241720057Y-196514342D01*
X241648628Y-196585771D01*
X241577199Y-196514342D01*
X241648628Y-196442914D01*
X241648628Y-196585771D01*
X243148628Y-196585771D02*
X242291485Y-196585771D01*
X242720057Y-196585771D02*
X242720057Y-195085771D01*
X242577199Y-195300057D01*
X242434342Y-195442914D01*
X242291485Y-195514342D01*
D10*
D11*
X177002200Y-191507200D02*
X285002200Y-191507200D01*
D10*
D12*
X264411485Y-193785771D02*
X263911485Y-193071485D01*
X263554342Y-193785771D02*
X263554342Y-192285771D01*
X264125771Y-192285771D01*
X264268628Y-192357200D01*
X264340057Y-192428628D01*
X264411485Y-192571485D01*
X264411485Y-192785771D01*
X264340057Y-192928628D01*
X264268628Y-193000057D01*
X264125771Y-193071485D01*
X263554342Y-193071485D01*
X265625771Y-193714342D02*
X265482914Y-193785771D01*
X265197200Y-193785771D01*
X265054342Y-193714342D01*
X264982914Y-193571485D01*
X264982914Y-193000057D01*
X265054342Y-192857200D01*
X265197200Y-192785771D01*
X265482914Y-192785771D01*
X265625771Y-192857200D01*
X265697200Y-193000057D01*
X265697200Y-193142914D01*
X264982914Y-193285771D01*
X266197200Y-192785771D02*
X266554342Y-193785771D01*
X266911485Y-192785771D01*
X267482914Y-193642914D02*
X267554342Y-193714342D01*
X267482914Y-193785771D01*
X267411485Y-193714342D01*
X267482914Y-193642914D01*
X267482914Y-193785771D01*
X267482914Y-192857200D02*
X267554342Y-192928628D01*
X267482914Y-193000057D01*
X267411485Y-192928628D01*
X267482914Y-192857200D01*
X267482914Y-193000057D01*
X270125771Y-193785771D02*
X269268628Y-193785771D01*
X269697200Y-193785771D02*
X269697200Y-192285771D01*
X269554342Y-192500057D01*
X269411485Y-192642914D01*
X269268628Y-192714342D01*
X270768628Y-193642914D02*
X270840057Y-193714342D01*
X270768628Y-193785771D01*
X270697200Y-193714342D01*
X270768628Y-193642914D01*
X270768628Y-193785771D01*
X271768628Y-192285771D02*
X271911485Y-192285771D01*
X272054342Y-192357200D01*
X272125771Y-192428628D01*
X272197200Y-192571485D01*
X272268628Y-192857200D01*
X272268628Y-193214342D01*
X272197200Y-193500057D01*
X272125771Y-193642914D01*
X272054342Y-193714342D01*
X271911485Y-193785771D01*
X271768628Y-193785771D01*
X271625771Y-193714342D01*
X271554342Y-193642914D01*
X271482914Y-193500057D01*
X271411485Y-193214342D01*
X271411485Y-192857200D01*
X271482914Y-192571485D01*
X271554342Y-192428628D01*
X271625771Y-192357200D01*
X271768628Y-192285771D01*
X272911485Y-193642914D02*
X272982914Y-193714342D01*
X272911485Y-193785771D01*
X272840057Y-193714342D01*
X272911485Y-193642914D01*
X272911485Y-193785771D01*
X273911485Y-192285771D02*
X274054342Y-192285771D01*
X274197200Y-192357200D01*
X274268628Y-192428628D01*
X274340057Y-192571485D01*
X274411485Y-192857200D01*
X274411485Y-193214342D01*
X274340057Y-193500057D01*
X274268628Y-193642914D01*
X274197200Y-193714342D01*
X274054342Y-193785771D01*
X273911485Y-193785771D01*
X273768628Y-193714342D01*
X273697200Y-193642914D01*
X273625771Y-193500057D01*
X273554342Y-193214342D01*
X273554342Y-192857200D01*
X273625771Y-192571485D01*
X273697200Y-192428628D01*
X273768628Y-192357200D01*
X273911485Y-192285771D01*
D10*
D11*
X178362914Y-193714342D02*
X178577200Y-193785771D01*
X178934342Y-193785771D01*
X179077200Y-193714342D01*
X179148628Y-193642914D01*
X179220057Y-193500057D01*
X179220057Y-193357200D01*
X179148628Y-193214342D01*
X179077200Y-193142914D01*
X178934342Y-193071485D01*
X178648628Y-193000057D01*
X178505771Y-192928628D01*
X178434342Y-192857200D01*
X178362914Y-192714342D01*
X178362914Y-192571485D01*
X178434342Y-192428628D01*
X178505771Y-192357200D01*
X178648628Y-192285771D01*
X179005771Y-192285771D01*
X179220057Y-192357200D01*
X179862914Y-193785771D02*
X179862914Y-192785771D01*
X179862914Y-192285771D02*
X179791485Y-192357200D01*
X179862914Y-192428628D01*
X179934342Y-192357200D01*
X179862914Y-192285771D01*
X179862914Y-192428628D01*
X180434342Y-192785771D02*
X181220057Y-192785771D01*
X180434342Y-193785771D01*
X181220057Y-193785771D01*
X182362914Y-193714342D02*
X182220057Y-193785771D01*
X181934342Y-193785771D01*
X181791485Y-193714342D01*
X181720057Y-193571485D01*
X181720057Y-193000057D01*
X181791485Y-192857200D01*
X181934342Y-192785771D01*
X182220057Y-192785771D01*
X182362914Y-192857200D01*
X182434342Y-193000057D01*
X182434342Y-193142914D01*
X181720057Y-193285771D01*
X183077200Y-193642914D02*
X183148628Y-193714342D01*
X183077200Y-193785771D01*
X183005771Y-193714342D01*
X183077200Y-193642914D01*
X183077200Y-193785771D01*
X183077200Y-192857200D02*
X183148628Y-192928628D01*
X183077200Y-193000057D01*
X183005771Y-192928628D01*
X183077200Y-192857200D01*
X183077200Y-193000057D01*
X184862914Y-193357200D02*
X185577200Y-193357200D01*
X184720057Y-193785771D02*
X185220057Y-192285771D01*
X185720057Y-193785771D01*
X186862914Y-192785771D02*
X186862914Y-193785771D01*
X186505771Y-192214342D02*
X186148628Y-193285771D01*
X187077200Y-193285771D01*
D10*
D11*
X263434342Y-196585771D02*
X263434342Y-195085771D01*
X264791485Y-196585771D02*
X264791485Y-195085771D01*
X264791485Y-196514342D02*
X264648628Y-196585771D01*
X264362914Y-196585771D01*
X264220057Y-196514342D01*
X264148628Y-196442914D01*
X264077200Y-196300057D01*
X264077200Y-195871485D01*
X264148628Y-195728628D01*
X264220057Y-195657200D01*
X264362914Y-195585771D01*
X264648628Y-195585771D01*
X264791485Y-195657200D01*
X265505771Y-196442914D02*
X265577200Y-196514342D01*
X265505771Y-196585771D01*
X265434342Y-196514342D01*
X265505771Y-196442914D01*
X265505771Y-196585771D01*
X265505771Y-195657200D02*
X265577200Y-195728628D01*
X265505771Y-195800057D01*
X265434342Y-195728628D01*
X265505771Y-195657200D01*
X265505771Y-195800057D01*
X268148628Y-196585771D02*
X267291485Y-196585771D01*
X267720057Y-196585771D02*
X267720057Y-195085771D01*
X267577200Y-195300057D01*
X267434342Y-195442914D01*
X267291485Y-195514342D01*
X269862914Y-195014342D02*
X268577200Y-196942914D01*
X271148628Y-196585771D02*
X270291485Y-196585771D01*
X270720057Y-196585771D02*
X270720057Y-195085771D01*
X270577200Y-195300057D01*
X270434342Y-195442914D01*
X270291485Y-195514342D01*
D10*
D11*
X177002200Y-187507200D02*
X285002200Y-187507200D01*
D10*
D13*
X178714580Y-188211961D02*
X179857438Y-188211961D01*
X179036009Y-190211961D02*
X179286009Y-188211961D01*
X180274104Y-190211961D02*
X180440771Y-188878628D01*
X180524104Y-188211961D02*
X180416961Y-188307200D01*
X180500295Y-188402438D01*
X180607438Y-188307200D01*
X180524104Y-188211961D01*
X180500295Y-188402438D01*
X181107438Y-188878628D02*
X181869342Y-188878628D01*
X181476485Y-188211961D02*
X181262200Y-189926247D01*
X181333628Y-190116723D01*
X181512200Y-190211961D01*
X181702676Y-190211961D01*
X182655057Y-190211961D02*
X182476485Y-190116723D01*
X182405057Y-189926247D01*
X182619342Y-188211961D01*
X184190771Y-190116723D02*
X183988390Y-190211961D01*
X183607438Y-190211961D01*
X183428866Y-190116723D01*
X183357438Y-189926247D01*
X183452676Y-189164342D01*
X183571723Y-188973866D01*
X183774104Y-188878628D01*
X184155057Y-188878628D01*
X184333628Y-188973866D01*
X184405057Y-189164342D01*
X184381247Y-189354819D01*
X183405057Y-189545295D01*
X185155057Y-190021485D02*
X185238390Y-190116723D01*
X185131247Y-190211961D01*
X185047914Y-190116723D01*
X185155057Y-190021485D01*
X185131247Y-190211961D01*
X185286009Y-188973866D02*
X185369342Y-189069104D01*
X185262200Y-189164342D01*
X185178866Y-189069104D01*
X185286009Y-188973866D01*
X185262200Y-189164342D01*
X188559819Y-190211961D02*
X187607438Y-190211961D01*
X187857438Y-188211961D01*
X189857438Y-188211961D02*
X190238390Y-188211961D01*
X190416961Y-188307200D01*
X190583628Y-188497676D01*
X190631247Y-188878628D01*
X190547914Y-189545295D01*
X190405057Y-189926247D01*
X190190771Y-190116723D01*
X189988390Y-190211961D01*
X189607438Y-190211961D01*
X189428866Y-190116723D01*
X189262200Y-189926247D01*
X189214580Y-189545295D01*
X189297914Y-188878628D01*
X189440771Y-188497676D01*
X189655057Y-188307200D01*
X189857438Y-188211961D01*
X192607438Y-188307200D02*
X192428866Y-188211961D01*
X192143152Y-188211961D01*
X191845533Y-188307200D01*
X191631247Y-188497676D01*
X191512200Y-188688152D01*
X191369342Y-189069104D01*
X191333628Y-189354819D01*
X191381247Y-189735771D01*
X191452676Y-189926247D01*
X191619342Y-190116723D01*
X191893152Y-190211961D01*
X192083628Y-190211961D01*
X192381247Y-190116723D01*
X192488390Y-190021485D01*
X192571723Y-189354819D01*
X192190771Y-189354819D01*
X193321723Y-190211961D02*
X193571723Y-188211961D01*
X195440771Y-190021485D02*
X195333628Y-190116723D01*
X195036009Y-190211961D01*
X194845533Y-190211961D01*
X194571723Y-190116723D01*
X194405057Y-189926247D01*
X194333628Y-189735771D01*
X194286009Y-189354819D01*
X194321723Y-189069104D01*
X194464580Y-188688152D01*
X194583628Y-188497676D01*
X194797914Y-188307200D01*
X195095533Y-188211961D01*
X195286009Y-188211961D01*
X195559819Y-188307200D01*
X195643152Y-188402438D01*
X198595533Y-189164342D02*
X198869342Y-189259580D01*
X198952676Y-189354819D01*
X199024104Y-189545295D01*
X198988390Y-189831009D01*
X198869342Y-190021485D01*
X198762200Y-190116723D01*
X198559819Y-190211961D01*
X197797914Y-190211961D01*
X198047914Y-188211961D01*
X198714580Y-188211961D01*
X198893152Y-188307200D01*
X198976485Y-188402438D01*
X199047914Y-188592914D01*
X199024104Y-188783390D01*
X198905057Y-188973866D01*
X198797914Y-189069104D01*
X198595533Y-189164342D01*
X197928866Y-189164342D01*
X200428866Y-188211961D02*
X200809819Y-188211961D01*
X200988390Y-188307200D01*
X201155057Y-188497676D01*
X201202676Y-188878628D01*
X201119342Y-189545295D01*
X200976485Y-189926247D01*
X200762200Y-190116723D01*
X200559819Y-190211961D01*
X200178866Y-190211961D01*
X200000295Y-190116723D01*
X199833628Y-189926247D01*
X199786009Y-189545295D01*
X199869342Y-188878628D01*
X200012200Y-188497676D01*
X200226485Y-188307200D01*
X200428866Y-188211961D01*
X201869342Y-189640533D02*
X202821723Y-189640533D01*
X201607438Y-190211961D02*
X202524104Y-188211961D01*
X202940771Y-190211961D01*
X204750295Y-190211961D02*
X204202676Y-189259580D01*
X203607438Y-190211961D02*
X203857438Y-188211961D01*
X204619342Y-188211961D01*
X204797914Y-188307200D01*
X204881247Y-188402438D01*
X204952676Y-188592914D01*
X204916961Y-188878628D01*
X204797914Y-189069104D01*
X204690771Y-189164342D01*
X204488390Y-189259580D01*
X203726485Y-189259580D01*
X205607438Y-190211961D02*
X205857438Y-188211961D01*
X206333628Y-188211961D01*
X206607438Y-188307200D01*
X206774104Y-188497676D01*
X206845533Y-188688152D01*
X206893152Y-189069104D01*
X206857438Y-189354819D01*
X206714580Y-189735771D01*
X206595533Y-189926247D01*
X206381247Y-190116723D01*
X206083628Y-190211961D01*
X205607438Y-190211961D01*
X210178866Y-190211961D02*
X209036009Y-190211961D01*
X209607438Y-190211961D02*
X209857438Y-188211961D01*
X209631247Y-188497676D01*
X209416961Y-188688152D01*
X209214580Y-188783390D01*
X211012200Y-189640533D02*
X211964580Y-189640533D01*
X210750295Y-190211961D02*
X211666961Y-188211961D01*
X212083628Y-190211961D01*
X214750295Y-190973866D02*
X214666961Y-190878628D01*
X214512200Y-190592914D01*
X214440771Y-190402438D01*
X214381247Y-190116723D01*
X214345533Y-189640533D01*
X214393152Y-189259580D01*
X214547914Y-188783390D01*
X214678866Y-188497676D01*
X214797914Y-188307200D01*
X215024104Y-188021485D01*
X215131247Y-187926247D01*
X216559819Y-190211961D02*
X215607438Y-190211961D01*
X215857438Y-188211961D01*
X218024104Y-189164342D02*
X218297914Y-189259580D01*
X218381247Y-189354819D01*
X218452676Y-189545295D01*
X218416961Y-189831009D01*
X218297914Y-190021485D01*
X218190771Y-190116723D01*
X217988390Y-190211961D01*
X217226485Y-190211961D01*
X217476485Y-188211961D01*
X218143152Y-188211961D01*
X218321723Y-188307200D01*
X218405057Y-188402438D01*
X218476485Y-188592914D01*
X218452676Y-188783390D01*
X218333628Y-188973866D01*
X218226485Y-189069104D01*
X218024104Y-189164342D01*
X217357438Y-189164342D01*
X220274104Y-190211961D02*
X219131247Y-190211961D01*
X219702676Y-190211961D02*
X219952676Y-188211961D01*
X219726485Y-188497676D01*
X219512200Y-188688152D01*
X219309819Y-188783390D01*
X221107438Y-189640533D02*
X222059819Y-189640533D01*
X220845533Y-190211961D02*
X221762200Y-188211961D01*
X222178866Y-190211961D01*
X222345533Y-190402438D02*
X223869342Y-190402438D01*
X224369342Y-190211961D02*
X224619342Y-188211961D01*
X225095533Y-188211961D01*
X225369342Y-188307200D01*
X225536009Y-188497676D01*
X225607438Y-188688152D01*
X225655057Y-189069104D01*
X225619342Y-189354819D01*
X225476485Y-189735771D01*
X225357438Y-189926247D01*
X225143152Y-190116723D01*
X224845533Y-190211961D01*
X224369342Y-190211961D01*
X227536009Y-190021485D02*
X227428866Y-190116723D01*
X227131247Y-190211961D01*
X226940771Y-190211961D01*
X226666961Y-190116723D01*
X226500295Y-189926247D01*
X226428866Y-189735771D01*
X226381247Y-189354819D01*
X226416961Y-189069104D01*
X226559819Y-188688152D01*
X226678866Y-188497676D01*
X226893152Y-188307200D01*
X227190771Y-188211961D01*
X227381247Y-188211961D01*
X227655057Y-188307200D01*
X227738390Y-188402438D01*
X228345533Y-189640533D02*
X229297914Y-189640533D01*
X228083628Y-190211961D02*
X229000295Y-188211961D01*
X229416961Y-190211961D01*
X230143152Y-188211961D02*
X231476485Y-188211961D01*
X230369342Y-190211961D01*
X231988390Y-190211961D02*
X232238390Y-188211961D01*
X232726485Y-189640533D01*
X233571723Y-188211961D01*
X233321723Y-190211961D01*
X235297914Y-188878628D02*
X235131247Y-190211961D01*
X234916961Y-188116723D02*
X234262200Y-189545295D01*
X235500295Y-189545295D01*
X235678866Y-190402438D02*
X237202676Y-190402438D01*
X238845533Y-190211961D02*
X238297914Y-189259580D01*
X237702676Y-190211961D02*
X237952676Y-188211961D01*
X238714580Y-188211961D01*
X238893152Y-188307200D01*
X238976485Y-188402438D01*
X239047914Y-188592914D01*
X239012200Y-188878628D01*
X238893152Y-189069104D01*
X238786009Y-189164342D01*
X238583628Y-189259580D01*
X237821723Y-189259580D01*
X240905057Y-188211961D02*
X239952676Y-188211961D01*
X239738390Y-189164342D01*
X239845533Y-189069104D01*
X240047914Y-188973866D01*
X240524104Y-188973866D01*
X240702676Y-189069104D01*
X240786009Y-189164342D01*
X240857438Y-189354819D01*
X240797914Y-189831009D01*
X240678866Y-190021485D01*
X240571723Y-190116723D01*
X240369342Y-190211961D01*
X239893152Y-190211961D01*
X239714580Y-190116723D01*
X239631247Y-190021485D01*
X242655057Y-190211961D02*
X241512200Y-190211961D01*
X242083628Y-190211961D02*
X242333628Y-188211961D01*
X242107438Y-188497676D01*
X241893152Y-188688152D01*
X241690771Y-188783390D01*
X243643152Y-188402438D02*
X243750295Y-188307200D01*
X243952676Y-188211961D01*
X244428866Y-188211961D01*
X244607438Y-188307200D01*
X244690771Y-188402438D01*
X244762200Y-188592914D01*
X244738390Y-188783390D01*
X244607438Y-189069104D01*
X243321723Y-190211961D01*
X244559819Y-190211961D01*
X245416961Y-190211961D02*
X245666961Y-188211961D01*
X246155057Y-189640533D01*
X247000295Y-188211961D01*
X246750295Y-190211961D01*
X248500295Y-189164342D02*
X248774104Y-189259580D01*
X248857438Y-189354819D01*
X248928866Y-189545295D01*
X248893152Y-189831009D01*
X248774104Y-190021485D01*
X248666961Y-190116723D01*
X248464580Y-190211961D01*
X247702676Y-190211961D01*
X247952676Y-188211961D01*
X248619342Y-188211961D01*
X248797914Y-188307200D01*
X248881247Y-188402438D01*
X248952676Y-188592914D01*
X248928866Y-188783390D01*
X248809819Y-188973866D01*
X248702676Y-189069104D01*
X248500295Y-189164342D01*
X247833628Y-189164342D01*
X249202676Y-190402438D02*
X250726485Y-190402438D01*
X252024104Y-189164342D02*
X251357438Y-189164342D01*
X251226485Y-190211961D02*
X251476485Y-188211961D01*
X252428866Y-188211961D01*
X253964580Y-188878628D02*
X253797914Y-190211961D01*
X253583628Y-188116723D02*
X252928866Y-189545295D01*
X254166961Y-189545295D01*
X256131247Y-188307200D02*
X255952676Y-188211961D01*
X255666961Y-188211961D01*
X255369342Y-188307200D01*
X255155057Y-188497676D01*
X255036009Y-188688152D01*
X254893152Y-189069104D01*
X254857438Y-189354819D01*
X254905057Y-189735771D01*
X254976485Y-189926247D01*
X255143152Y-190116723D01*
X255416961Y-190211961D01*
X255607438Y-190211961D01*
X255905057Y-190116723D01*
X256012200Y-190021485D01*
X256095533Y-189354819D01*
X255714580Y-189354819D01*
X257643152Y-189164342D02*
X257916961Y-189259580D01*
X258000295Y-189354819D01*
X258071723Y-189545295D01*
X258036009Y-189831009D01*
X257916961Y-190021485D01*
X257809819Y-190116723D01*
X257607438Y-190211961D01*
X256845533Y-190211961D01*
X257095533Y-188211961D01*
X257762200Y-188211961D01*
X257940771Y-188307200D01*
X258024104Y-188402438D01*
X258095533Y-188592914D01*
X258071723Y-188783390D01*
X257952676Y-188973866D01*
X257845533Y-189069104D01*
X257643152Y-189164342D01*
X256976485Y-189164342D01*
X258559819Y-190973866D02*
X258666961Y-190878628D01*
X258893152Y-190592914D01*
X259012200Y-190402438D01*
X259143152Y-190116723D01*
X259297914Y-189640533D01*
X259345533Y-189259580D01*
X259309819Y-188783390D01*
X259250295Y-188497676D01*
X259178866Y-188307200D01*
X259024104Y-188021485D01*
X258940771Y-187926247D01*
D10*
D11*
X178934342Y-185600057D02*
X178434342Y-185600057D01*
X178434342Y-186385771D02*
X178434342Y-184885771D01*
X179148628Y-184885771D01*
X179720057Y-186385771D02*
X179720057Y-185385771D01*
X179720057Y-184885771D02*
X179648628Y-184957200D01*
X179720057Y-185028628D01*
X179791485Y-184957200D01*
X179720057Y-184885771D01*
X179720057Y-185028628D01*
X180648628Y-186385771D02*
X180505771Y-186314342D01*
X180434342Y-186171485D01*
X180434342Y-184885771D01*
X181791485Y-186314342D02*
X181648628Y-186385771D01*
X181362914Y-186385771D01*
X181220057Y-186314342D01*
X181148628Y-186171485D01*
X181148628Y-185600057D01*
X181220057Y-185457200D01*
X181362914Y-185385771D01*
X181648628Y-185385771D01*
X181791485Y-185457200D01*
X181862914Y-185600057D01*
X181862914Y-185742914D01*
X181148628Y-185885771D01*
X182505771Y-186242914D02*
X182577200Y-186314342D01*
X182505771Y-186385771D01*
X182434342Y-186314342D01*
X182505771Y-186242914D01*
X182505771Y-186385771D01*
X182505771Y-185457200D02*
X182577200Y-185528628D01*
X182505771Y-185600057D01*
X182434342Y-185528628D01*
X182505771Y-185457200D01*
X182505771Y-185600057D01*
X185077200Y-186385771D02*
X184362914Y-186385771D01*
X184362914Y-184885771D01*
X186077200Y-185600057D02*
X186291485Y-185671485D01*
X186362914Y-185742914D01*
X186434342Y-185885771D01*
X186434342Y-186100057D01*
X186362914Y-186242914D01*
X186291485Y-186314342D01*
X186148628Y-186385771D01*
X185577200Y-186385771D01*
X185577200Y-184885771D01*
X186077200Y-184885771D01*
X186220057Y-184957200D01*
X186291485Y-185028628D01*
X186362914Y-185171485D01*
X186362914Y-185314342D01*
X186291485Y-185457200D01*
X186220057Y-185528628D01*
X186077200Y-185600057D01*
X185577200Y-185600057D01*
X187862914Y-186385771D02*
X187005771Y-186385771D01*
X187434342Y-186385771D02*
X187434342Y-184885771D01*
X187291485Y-185100057D01*
X187148628Y-185242914D01*
X187005771Y-185314342D01*
X188434342Y-185957200D02*
X189148628Y-185957200D01*
X188291485Y-186385771D02*
X188791485Y-184885771D01*
X189291485Y-186385771D01*
X189434342Y-186528628D02*
X190577200Y-186528628D01*
X190934342Y-186385771D02*
X190934342Y-184885771D01*
X191291485Y-184885771D01*
X191505771Y-184957200D01*
X191648628Y-185100057D01*
X191720057Y-185242914D01*
X191791485Y-185528628D01*
X191791485Y-185742914D01*
X191720057Y-186028628D01*
X191648628Y-186171485D01*
X191505771Y-186314342D01*
X191291485Y-186385771D01*
X190934342Y-186385771D01*
X193291485Y-186242914D02*
X193220057Y-186314342D01*
X193005771Y-186385771D01*
X192862914Y-186385771D01*
X192648628Y-186314342D01*
X192505771Y-186171485D01*
X192434342Y-186028628D01*
X192362914Y-185742914D01*
X192362914Y-185528628D01*
X192434342Y-185242914D01*
X192505771Y-185100057D01*
X192648628Y-184957200D01*
X192862914Y-184885771D01*
X193005771Y-184885771D01*
X193220057Y-184957200D01*
X193291485Y-185028628D01*
X193862914Y-185957200D02*
X194577200Y-185957200D01*
X193720057Y-186385771D02*
X194220057Y-184885771D01*
X194720057Y-186385771D01*
X195077200Y-184885771D02*
X196077200Y-184885771D01*
X195434342Y-186385771D01*
X196648628Y-186385771D02*
X196648628Y-184885771D01*
X197148628Y-185957200D01*
X197648628Y-184885771D01*
X197648628Y-186385771D01*
X199005771Y-185385771D02*
X199005771Y-186385771D01*
X198648628Y-184814342D02*
X198291485Y-185885771D01*
X199220057Y-185885771D01*
X199434342Y-186528628D02*
X200577200Y-186528628D01*
X201791485Y-186385771D02*
X201291485Y-185671485D01*
X200934342Y-186385771D02*
X200934342Y-184885771D01*
X201505771Y-184885771D01*
X201648628Y-184957200D01*
X201720057Y-185028628D01*
X201791485Y-185171485D01*
X201791485Y-185385771D01*
X201720057Y-185528628D01*
X201648628Y-185600057D01*
X201505771Y-185671485D01*
X200934342Y-185671485D01*
X203148628Y-184885771D02*
X202434342Y-184885771D01*
X202362914Y-185600057D01*
X202434342Y-185528628D01*
X202577200Y-185457200D01*
X202934342Y-185457200D01*
X203077200Y-185528628D01*
X203148628Y-185600057D01*
X203220057Y-185742914D01*
X203220057Y-186100057D01*
X203148628Y-186242914D01*
X203077200Y-186314342D01*
X202934342Y-186385771D01*
X202577200Y-186385771D01*
X202434342Y-186314342D01*
X202362914Y-186242914D01*
X204648628Y-186385771D02*
X203791485Y-186385771D01*
X204220057Y-186385771D02*
X204220057Y-184885771D01*
X204077200Y-185100057D01*
X203934342Y-185242914D01*
X203791485Y-185314342D01*
X205220057Y-185028628D02*
X205291485Y-184957200D01*
X205434342Y-184885771D01*
X205791485Y-184885771D01*
X205934342Y-184957200D01*
X206005771Y-185028628D01*
X206077200Y-185171485D01*
X206077200Y-185314342D01*
X206005771Y-185528628D01*
X205148628Y-186385771D01*
X206077200Y-186385771D01*
X206720057Y-186385771D02*
X206720057Y-184885771D01*
X207220057Y-185957200D01*
X207720057Y-184885771D01*
X207720057Y-186385771D01*
X208934342Y-185600057D02*
X209148628Y-185671485D01*
X209220057Y-185742914D01*
X209291485Y-185885771D01*
X209291485Y-186100057D01*
X209220057Y-186242914D01*
X209148628Y-186314342D01*
X209005771Y-186385771D01*
X208434342Y-186385771D01*
X208434342Y-184885771D01*
X208934342Y-184885771D01*
X209077200Y-184957200D01*
X209148628Y-185028628D01*
X209220057Y-185171485D01*
X209220057Y-185314342D01*
X209148628Y-185457200D01*
X209077200Y-185528628D01*
X208934342Y-185600057D01*
X208434342Y-185600057D01*
X209577200Y-186528628D02*
X210720057Y-186528628D01*
X211577200Y-185600057D02*
X211077200Y-185600057D01*
X211077200Y-186385771D02*
X211077200Y-184885771D01*
X211791485Y-184885771D01*
X213005771Y-185385771D02*
X213005771Y-186385771D01*
X212648628Y-184814342D02*
X212291485Y-185885771D01*
X213220057Y-185885771D01*
X214577200Y-184957200D02*
X214434342Y-184885771D01*
X214220057Y-184885771D01*
X214005771Y-184957200D01*
X213862914Y-185100057D01*
X213791485Y-185242914D01*
X213720057Y-185528628D01*
X213720057Y-185742914D01*
X213791485Y-186028628D01*
X213862914Y-186171485D01*
X214005771Y-186314342D01*
X214220057Y-186385771D01*
X214362914Y-186385771D01*
X214577200Y-186314342D01*
X214648628Y-186242914D01*
X214648628Y-185742914D01*
X214362914Y-185742914D01*
X215791485Y-185600057D02*
X216005771Y-185671485D01*
X216077200Y-185742914D01*
X216148628Y-185885771D01*
X216148628Y-186100057D01*
X216077200Y-186242914D01*
X216005771Y-186314342D01*
X215862914Y-186385771D01*
X215291485Y-186385771D01*
X215291485Y-184885771D01*
X215791485Y-184885771D01*
X215934342Y-184957200D01*
X216005771Y-185028628D01*
X216077200Y-185171485D01*
X216077200Y-185314342D01*
X216005771Y-185457200D01*
X215934342Y-185528628D01*
X215791485Y-185600057D01*
X215291485Y-185600057D01*
X216791485Y-186242914D02*
X216862914Y-186314342D01*
X216791485Y-186385771D01*
X216720057Y-186314342D01*
X216791485Y-186242914D01*
X216791485Y-186385771D01*
X217505771Y-186385771D02*
X217505771Y-184885771D01*
X217648628Y-185814342D02*
X218077200Y-186385771D01*
X218077200Y-185385771D02*
X217505771Y-185957200D01*
X218720057Y-186385771D02*
X218720057Y-185385771D01*
X218720057Y-184885771D02*
X218648628Y-184957200D01*
X218720057Y-185028628D01*
X218791485Y-184957200D01*
X218720057Y-184885771D01*
X218720057Y-185028628D01*
X220077200Y-186314342D02*
X219934342Y-186385771D01*
X219648628Y-186385771D01*
X219505771Y-186314342D01*
X219434342Y-186242914D01*
X219362914Y-186100057D01*
X219362914Y-185671485D01*
X219434342Y-185528628D01*
X219505771Y-185457200D01*
X219648628Y-185385771D01*
X219934342Y-185385771D01*
X220077200Y-185457200D01*
X221362914Y-186385771D02*
X221362914Y-185600057D01*
X221291485Y-185457200D01*
X221148628Y-185385771D01*
X220862914Y-185385771D01*
X220720057Y-185457200D01*
X221362914Y-186314342D02*
X221220057Y-186385771D01*
X220862914Y-186385771D01*
X220720057Y-186314342D01*
X220648628Y-186171485D01*
X220648628Y-186028628D01*
X220720057Y-185885771D01*
X220862914Y-185814342D01*
X221220057Y-185814342D01*
X221362914Y-185742914D01*
X222720057Y-186385771D02*
X222720057Y-184885771D01*
X222720057Y-186314342D02*
X222577200Y-186385771D01*
X222291485Y-186385771D01*
X222148628Y-186314342D01*
X222077200Y-186242914D01*
X222005771Y-186100057D01*
X222005771Y-185671485D01*
X222077200Y-185528628D01*
X222148628Y-185457200D01*
X222291485Y-185385771D01*
X222577200Y-185385771D01*
X222720057Y-185457200D01*
X223077200Y-186528628D02*
X224220057Y-186528628D01*
X224577200Y-185385771D02*
X224577200Y-186885771D01*
X224577200Y-185457200D02*
X224720057Y-185385771D01*
X225005771Y-185385771D01*
X225148628Y-185457200D01*
X225220057Y-185528628D01*
X225291485Y-185671485D01*
X225291485Y-186100057D01*
X225220057Y-186242914D01*
X225148628Y-186314342D01*
X225005771Y-186385771D01*
X224720057Y-186385771D01*
X224577200Y-186314342D01*
X226577200Y-186314342D02*
X226434342Y-186385771D01*
X226148628Y-186385771D01*
X226005771Y-186314342D01*
X225934342Y-186242914D01*
X225862914Y-186100057D01*
X225862914Y-185671485D01*
X225934342Y-185528628D01*
X226005771Y-185457200D01*
X226148628Y-185385771D01*
X226434342Y-185385771D01*
X226577200Y-185457200D01*
X227220057Y-186385771D02*
X227220057Y-184885771D01*
X227220057Y-185457200D02*
X227362914Y-185385771D01*
X227648628Y-185385771D01*
X227791485Y-185457200D01*
X227862914Y-185528628D01*
X227934342Y-185671485D01*
X227934342Y-186100057D01*
X227862914Y-186242914D01*
X227791485Y-186314342D01*
X227648628Y-186385771D01*
X227362914Y-186385771D01*
X227220057Y-186314342D01*
D10*
D11*
X177002200Y-181507200D02*
X285002200Y-181507200D01*
D10*
D11*
X178362914Y-183614342D02*
X178577200Y-183685771D01*
X178934342Y-183685771D01*
X179077200Y-183614342D01*
X179148628Y-183542914D01*
X179220057Y-183400057D01*
X179220057Y-183257200D01*
X179148628Y-183114342D01*
X179077200Y-183042914D01*
X178934342Y-182971485D01*
X178648628Y-182900057D01*
X178505771Y-182828628D01*
X178434342Y-182757200D01*
X178362914Y-182614342D01*
X178362914Y-182471485D01*
X178434342Y-182328628D01*
X178505771Y-182257200D01*
X178648628Y-182185771D01*
X179005771Y-182185771D01*
X179220057Y-182257200D01*
X179862914Y-183685771D02*
X179862914Y-182185771D01*
X180505771Y-183685771D02*
X180505771Y-182900057D01*
X180434342Y-182757200D01*
X180291485Y-182685771D01*
X180077200Y-182685771D01*
X179934342Y-182757200D01*
X179862914Y-182828628D01*
X181791485Y-183614342D02*
X181648628Y-183685771D01*
X181362914Y-183685771D01*
X181220057Y-183614342D01*
X181148628Y-183471485D01*
X181148628Y-182900057D01*
X181220057Y-182757200D01*
X181362914Y-182685771D01*
X181648628Y-182685771D01*
X181791485Y-182757200D01*
X181862914Y-182900057D01*
X181862914Y-183042914D01*
X181148628Y-183185771D01*
X183077200Y-183614342D02*
X182934342Y-183685771D01*
X182648628Y-183685771D01*
X182505771Y-183614342D01*
X182434342Y-183471485D01*
X182434342Y-182900057D01*
X182505771Y-182757200D01*
X182648628Y-182685771D01*
X182934342Y-182685771D01*
X183077200Y-182757200D01*
X183148628Y-182900057D01*
X183148628Y-183042914D01*
X182434342Y-183185771D01*
X183577200Y-182685771D02*
X184148628Y-182685771D01*
X183791485Y-182185771D02*
X183791485Y-183471485D01*
X183862914Y-183614342D01*
X184005771Y-183685771D01*
X184148628Y-183685771D01*
X184648628Y-183542914D02*
X184720057Y-183614342D01*
X184648628Y-183685771D01*
X184577200Y-183614342D01*
X184648628Y-183542914D01*
X184648628Y-183685771D01*
X184648628Y-182757200D02*
X184720057Y-182828628D01*
X184648628Y-182900057D01*
X184577200Y-182828628D01*
X184648628Y-182757200D01*
X184648628Y-182900057D01*
D10*
D12*
X179268628Y-180685771D02*
X178554342Y-180685771D01*
X178554342Y-179185771D01*
X179982914Y-180685771D02*
X179840057Y-180614342D01*
X179768628Y-180542914D01*
X179697200Y-180400057D01*
X179697200Y-179971485D01*
X179768628Y-179828628D01*
X179840057Y-179757200D01*
X179982914Y-179685771D01*
X180197200Y-179685771D01*
X180340057Y-179757200D01*
X180411485Y-179828628D01*
X180482914Y-179971485D01*
X180482914Y-180400057D01*
X180411485Y-180542914D01*
X180340057Y-180614342D01*
X180197200Y-180685771D01*
X179982914Y-180685771D01*
X181768628Y-179685771D02*
X181768628Y-180900057D01*
X181697200Y-181042914D01*
X181625771Y-181114342D01*
X181482914Y-181185771D01*
X181268628Y-181185771D01*
X181125771Y-181114342D01*
X181768628Y-180614342D02*
X181625771Y-180685771D01*
X181340057Y-180685771D01*
X181197200Y-180614342D01*
X181125771Y-180542914D01*
X181054342Y-180400057D01*
X181054342Y-179971485D01*
X181125771Y-179828628D01*
X181197200Y-179757200D01*
X181340057Y-179685771D01*
X181625771Y-179685771D01*
X181768628Y-179757200D01*
X182482914Y-180685771D02*
X182482914Y-179685771D01*
X182482914Y-179185771D02*
X182411485Y-179257200D01*
X182482914Y-179328628D01*
X182554342Y-179257200D01*
X182482914Y-179185771D01*
X182482914Y-179328628D01*
X183840057Y-180614342D02*
X183697200Y-180685771D01*
X183411485Y-180685771D01*
X183268628Y-180614342D01*
X183197200Y-180542914D01*
X183125771Y-180400057D01*
X183125771Y-179971485D01*
X183197200Y-179828628D01*
X183268628Y-179757200D01*
X183411485Y-179685771D01*
X183697200Y-179685771D01*
X183840057Y-179757200D01*
X186125771Y-179900057D02*
X186340057Y-179971485D01*
X186411485Y-180042914D01*
X186482914Y-180185771D01*
X186482914Y-180400057D01*
X186411485Y-180542914D01*
X186340057Y-180614342D01*
X186197200Y-180685771D01*
X185625771Y-180685771D01*
X185625771Y-179185771D01*
X186125771Y-179185771D01*
X186268628Y-179257200D01*
X186340057Y-179328628D01*
X186411485Y-179471485D01*
X186411485Y-179614342D01*
X186340057Y-179757200D01*
X186268628Y-179828628D01*
X186125771Y-179900057D01*
X185625771Y-179900057D01*
X187340057Y-180685771D02*
X187197200Y-180614342D01*
X187125771Y-180542914D01*
X187054342Y-180400057D01*
X187054342Y-179971485D01*
X187125771Y-179828628D01*
X187197200Y-179757200D01*
X187340057Y-179685771D01*
X187554342Y-179685771D01*
X187697200Y-179757200D01*
X187768628Y-179828628D01*
X187840057Y-179971485D01*
X187840057Y-180400057D01*
X187768628Y-180542914D01*
X187697200Y-180614342D01*
X187554342Y-180685771D01*
X187340057Y-180685771D01*
X189125771Y-180685771D02*
X189125771Y-179900057D01*
X189054342Y-179757200D01*
X188911485Y-179685771D01*
X188625771Y-179685771D01*
X188482914Y-179757200D01*
X189125771Y-180614342D02*
X188982914Y-180685771D01*
X188625771Y-180685771D01*
X188482914Y-180614342D01*
X188411485Y-180471485D01*
X188411485Y-180328628D01*
X188482914Y-180185771D01*
X188625771Y-180114342D01*
X188982914Y-180114342D01*
X189125771Y-180042914D01*
X189840057Y-180685771D02*
X189840057Y-179685771D01*
X189840057Y-179971485D02*
X189911485Y-179828628D01*
X189982914Y-179757200D01*
X190125771Y-179685771D01*
X190268628Y-179685771D01*
X191411485Y-180685771D02*
X191411485Y-179185771D01*
X191411485Y-180614342D02*
X191268628Y-180685771D01*
X190982914Y-180685771D01*
X190840057Y-180614342D01*
X190768628Y-180542914D01*
X190697200Y-180400057D01*
X190697200Y-179971485D01*
X190768628Y-179828628D01*
X190840057Y-179757200D01*
X190982914Y-179685771D01*
X191268628Y-179685771D01*
X191411485Y-179757200D01*
X192054342Y-180614342D02*
X192197200Y-180685771D01*
X192482914Y-180685771D01*
X192625771Y-180614342D01*
X192697200Y-180471485D01*
X192697200Y-180400057D01*
X192625771Y-180257200D01*
X192482914Y-180185771D01*
X192268628Y-180185771D01*
X192125771Y-180114342D01*
X192054342Y-179971485D01*
X192054342Y-179900057D01*
X192125771Y-179757200D01*
X192268628Y-179685771D01*
X192482914Y-179685771D01*
X192625771Y-179757200D01*
D10*
D11*
X178291485Y-176685771D02*
X178577200Y-177685771D01*
X178862914Y-176971485D01*
X179148628Y-177685771D01*
X179434342Y-176685771D01*
X179862914Y-176685771D02*
X180148628Y-177685771D01*
X180434342Y-176971485D01*
X180720057Y-177685771D01*
X181005771Y-176685771D01*
X181434342Y-176685771D02*
X181720057Y-177685771D01*
X182005771Y-176971485D01*
X182291485Y-177685771D01*
X182577200Y-176685771D01*
X183148628Y-177542914D02*
X183220057Y-177614342D01*
X183148628Y-177685771D01*
X183077200Y-177614342D01*
X183148628Y-177542914D01*
X183148628Y-177685771D01*
X184077200Y-177685771D02*
X183934342Y-177614342D01*
X183862914Y-177471485D01*
X183862914Y-176185771D01*
X184862914Y-177685771D02*
X184720057Y-177614342D01*
X184648628Y-177542914D01*
X184577200Y-177400057D01*
X184577200Y-176971485D01*
X184648628Y-176828628D01*
X184720057Y-176757200D01*
X184862914Y-176685771D01*
X185077200Y-176685771D01*
X185220057Y-176757200D01*
X185291485Y-176828628D01*
X185362914Y-176971485D01*
X185362914Y-177400057D01*
X185291485Y-177542914D01*
X185220057Y-177614342D01*
X185077200Y-177685771D01*
X184862914Y-177685771D01*
X186648628Y-176685771D02*
X186648628Y-177900057D01*
X186577200Y-178042914D01*
X186505771Y-178114342D01*
X186362914Y-178185771D01*
X186148628Y-178185771D01*
X186005771Y-178114342D01*
X186648628Y-177614342D02*
X186505771Y-177685771D01*
X186220057Y-177685771D01*
X186077200Y-177614342D01*
X186005771Y-177542914D01*
X185934342Y-177400057D01*
X185934342Y-176971485D01*
X186005771Y-176828628D01*
X186077200Y-176757200D01*
X186220057Y-176685771D01*
X186505771Y-176685771D01*
X186648628Y-176757200D01*
X187362914Y-177685771D02*
X187362914Y-176685771D01*
X187362914Y-176185771D02*
X187291485Y-176257200D01*
X187362914Y-176328628D01*
X187434342Y-176257200D01*
X187362914Y-176185771D01*
X187362914Y-176328628D01*
X188720057Y-177614342D02*
X188577200Y-177685771D01*
X188291485Y-177685771D01*
X188148628Y-177614342D01*
X188077200Y-177542914D01*
X188005771Y-177400057D01*
X188005771Y-176971485D01*
X188077200Y-176828628D01*
X188148628Y-176757200D01*
X188291485Y-176685771D01*
X188577200Y-176685771D01*
X188720057Y-176757200D01*
X189362914Y-177685771D02*
X189362914Y-176185771D01*
X189362914Y-176757200D02*
X189505771Y-176685771D01*
X189791485Y-176685771D01*
X189934342Y-176757200D01*
X190005771Y-176828628D01*
X190077200Y-176971485D01*
X190077200Y-177400057D01*
X190005771Y-177542914D01*
X189934342Y-177614342D01*
X189791485Y-177685771D01*
X189505771Y-177685771D01*
X189362914Y-177614342D01*
X190934342Y-177685771D02*
X190791485Y-177614342D01*
X190720057Y-177542914D01*
X190648628Y-177400057D01*
X190648628Y-176971485D01*
X190720057Y-176828628D01*
X190791485Y-176757200D01*
X190934342Y-176685771D01*
X191148628Y-176685771D01*
X191291485Y-176757200D01*
X191362914Y-176828628D01*
X191434342Y-176971485D01*
X191434342Y-177400057D01*
X191362914Y-177542914D01*
X191291485Y-177614342D01*
X191148628Y-177685771D01*
X190934342Y-177685771D01*
X192720057Y-177685771D02*
X192720057Y-176900057D01*
X192648628Y-176757200D01*
X192505771Y-176685771D01*
X192220057Y-176685771D01*
X192077200Y-176757200D01*
X192720057Y-177614342D02*
X192577200Y-177685771D01*
X192220057Y-177685771D01*
X192077200Y-177614342D01*
X192005771Y-177471485D01*
X192005771Y-177328628D01*
X192077200Y-177185771D01*
X192220057Y-177114342D01*
X192577200Y-177114342D01*
X192720057Y-177042914D01*
X193434342Y-177685771D02*
X193434342Y-176685771D01*
X193434342Y-176971485D02*
X193505771Y-176828628D01*
X193577200Y-176757200D01*
X193720057Y-176685771D01*
X193862914Y-176685771D01*
X195005771Y-177685771D02*
X195005771Y-176185771D01*
X195005771Y-177614342D02*
X194862914Y-177685771D01*
X194577200Y-177685771D01*
X194434342Y-177614342D01*
X194362914Y-177542914D01*
X194291485Y-177400057D01*
X194291485Y-176971485D01*
X194362914Y-176828628D01*
X194434342Y-176757200D01*
X194577200Y-176685771D01*
X194862914Y-176685771D01*
X195005771Y-176757200D01*
X195648628Y-177614342D02*
X195791485Y-177685771D01*
X196077200Y-177685771D01*
X196220057Y-177614342D01*
X196291485Y-177471485D01*
X196291485Y-177400057D01*
X196220057Y-177257200D01*
X196077200Y-177185771D01*
X195862914Y-177185771D01*
X195720057Y-177114342D01*
X195648628Y-176971485D01*
X195648628Y-176900057D01*
X195720057Y-176757200D01*
X195862914Y-176685771D01*
X196077200Y-176685771D01*
X196220057Y-176757200D01*
X196934342Y-177542914D02*
X197005771Y-177614342D01*
X196934342Y-177685771D01*
X196862914Y-177614342D01*
X196934342Y-177542914D01*
X196934342Y-177685771D01*
X197862914Y-177685771D02*
X197720057Y-177614342D01*
X197648628Y-177542914D01*
X197577200Y-177400057D01*
X197577200Y-176971485D01*
X197648628Y-176828628D01*
X197720057Y-176757200D01*
X197862914Y-176685771D01*
X198077200Y-176685771D01*
X198220057Y-176757200D01*
X198291485Y-176828628D01*
X198362914Y-176971485D01*
X198362914Y-177400057D01*
X198291485Y-177542914D01*
X198220057Y-177614342D01*
X198077200Y-177685771D01*
X197862914Y-177685771D01*
X199005771Y-177685771D02*
X199005771Y-176685771D01*
X199005771Y-176971485D02*
X199077200Y-176828628D01*
X199148628Y-176757200D01*
X199291485Y-176685771D01*
X199434342Y-176685771D01*
X200577200Y-176685771D02*
X200577200Y-177900057D01*
X200505771Y-178042914D01*
X200434342Y-178114342D01*
X200291485Y-178185771D01*
X200077200Y-178185771D01*
X199934342Y-178114342D01*
X200577200Y-177614342D02*
X200434342Y-177685771D01*
X200148628Y-177685771D01*
X200005771Y-177614342D01*
X199934342Y-177542914D01*
X199862914Y-177400057D01*
X199862914Y-176971485D01*
X199934342Y-176828628D01*
X200005771Y-176757200D01*
X200148628Y-176685771D01*
X200434342Y-176685771D01*
X200577200Y-176757200D01*
D10*
D11*
X197002200Y-191507200D02*
X197002200Y-194507200D01*
D10*
D11*
X261002200Y-191507200D02*
X261002200Y-198007200D01*
X75666666Y-105802380D02*
X76142857Y-105802380D01*
X76142857Y-104802380D01*
X75190476Y-105802380D02*
X75285714Y-105754761D01*
X75333333Y-105707142D01*
X75380952Y-105611904D01*
X75380952Y-105326190D01*
X75333333Y-105230952D01*
X75285714Y-105183333D01*
X75190476Y-105135714D01*
X75047619Y-105135714D01*
X74952380Y-105183333D01*
X74904761Y-105230952D01*
X74857142Y-105326190D01*
X74857142Y-105611904D01*
X74904761Y-105707142D01*
X74952380Y-105754761D01*
X75047619Y-105802380D01*
X75190476Y-105802380D01*
X74000000Y-105135714D02*
X74000000Y-105945238D01*
X74047619Y-106040476D01*
X74095238Y-106088095D01*
X74190476Y-106135714D01*
X74333333Y-106135714D01*
X74428571Y-106088095D01*
X74000000Y-105754761D02*
X74095238Y-105802380D01*
X74285714Y-105802380D01*
X74380952Y-105754761D01*
X74428571Y-105707142D01*
X74476190Y-105611904D01*
X74476190Y-105326190D01*
X74428571Y-105230952D01*
X74380952Y-105183333D01*
X74285714Y-105135714D01*
X74095238Y-105135714D01*
X74000000Y-105183333D01*
X73523809Y-105802380D02*
X73523809Y-105135714D01*
X73523809Y-104802380D02*
X73571428Y-104850000D01*
X73523809Y-104897619D01*
X73476190Y-104850000D01*
X73523809Y-104802380D01*
X73523809Y-104897619D01*
X72619047Y-105754761D02*
X72714285Y-105802380D01*
X72904761Y-105802380D01*
X73000000Y-105754761D01*
X73047619Y-105707142D01*
X73095238Y-105611904D01*
X73095238Y-105326190D01*
X73047619Y-105230952D01*
X73000000Y-105183333D01*
X72904761Y-105135714D01*
X72714285Y-105135714D01*
X72619047Y-105183333D01*
X72190476Y-105802380D02*
X72190476Y-104802380D01*
X72190476Y-105183333D02*
X72095238Y-105135714D01*
X71904761Y-105135714D01*
X71809523Y-105183333D01*
X71761904Y-105230952D01*
X71714285Y-105326190D01*
X71714285Y-105611904D01*
X71761904Y-105707142D01*
X71809523Y-105754761D01*
X71904761Y-105802380D01*
X72095238Y-105802380D01*
X72190476Y-105754761D01*
X71142857Y-105802380D02*
X71238095Y-105754761D01*
X71285714Y-105707142D01*
X71333333Y-105611904D01*
X71333333Y-105326190D01*
X71285714Y-105230952D01*
X71238095Y-105183333D01*
X71142857Y-105135714D01*
X71000000Y-105135714D01*
X70904761Y-105183333D01*
X70857142Y-105230952D01*
X70809523Y-105326190D01*
X70809523Y-105611904D01*
X70857142Y-105707142D01*
X70904761Y-105754761D01*
X71000000Y-105802380D01*
X71142857Y-105802380D01*
X69952380Y-105802380D02*
X69952380Y-105278571D01*
X70000000Y-105183333D01*
X70095238Y-105135714D01*
X70285714Y-105135714D01*
X70380952Y-105183333D01*
X69952380Y-105754761D02*
X70047619Y-105802380D01*
X70285714Y-105802380D01*
X70380952Y-105754761D01*
X70428571Y-105659523D01*
X70428571Y-105564285D01*
X70380952Y-105469047D01*
X70285714Y-105421428D01*
X70047619Y-105421428D01*
X69952380Y-105373809D01*
X69476190Y-105802380D02*
X69476190Y-105135714D01*
X69476190Y-105326190D02*
X69428571Y-105230952D01*
X69380952Y-105183333D01*
X69285714Y-105135714D01*
X69190476Y-105135714D01*
X68428571Y-105802380D02*
X68428571Y-104802380D01*
X68428571Y-105754761D02*
X68523809Y-105802380D01*
X68714285Y-105802380D01*
X68809523Y-105754761D01*
X68857142Y-105707142D01*
X68904761Y-105611904D01*
X68904761Y-105326190D01*
X68857142Y-105230952D01*
X68809523Y-105183333D01*
X68714285Y-105135714D01*
X68523809Y-105135714D01*
X68428571Y-105183333D01*
X66666666Y-105802380D02*
X67238095Y-105802380D01*
X66952380Y-105802380D02*
X66952380Y-104802380D01*
X67047619Y-104945238D01*
X67142857Y-105040476D01*
X67238095Y-105088095D01*
X66285714Y-105516666D02*
X65809523Y-105516666D01*
X66380952Y-105802380D02*
X66047619Y-104802380D01*
X65714285Y-105802380D01*
X73785714Y-107452380D02*
X74119047Y-106976190D01*
X74357142Y-107452380D02*
X74357142Y-106452380D01*
X73976190Y-106452380D01*
X73880952Y-106500000D01*
X73833333Y-106547619D01*
X73785714Y-106642857D01*
X73785714Y-106785714D01*
X73833333Y-106880952D01*
X73880952Y-106928571D01*
X73976190Y-106976190D01*
X74357142Y-106976190D01*
X72976190Y-107404761D02*
X73071428Y-107452380D01*
X73261904Y-107452380D01*
X73357142Y-107404761D01*
X73404761Y-107309523D01*
X73404761Y-106928571D01*
X73357142Y-106833333D01*
X73261904Y-106785714D01*
X73071428Y-106785714D01*
X72976190Y-106833333D01*
X72928571Y-106928571D01*
X72928571Y-107023809D01*
X73404761Y-107119047D01*
X72595238Y-106785714D02*
X72357142Y-107452380D01*
X72119047Y-106785714D01*
X70452380Y-107452380D02*
X71023809Y-107452380D01*
X70738095Y-107452380D02*
X70738095Y-106452380D01*
X70833333Y-106595238D01*
X70928571Y-106690476D01*
X71023809Y-106738095D01*
X70023809Y-107357142D02*
X69976190Y-107404761D01*
X70023809Y-107452380D01*
X70071428Y-107404761D01*
X70023809Y-107357142D01*
X70023809Y-107452380D01*
X69357142Y-106452380D02*
X69261904Y-106452380D01*
X69166666Y-106500000D01*
X69119047Y-106547619D01*
X69071428Y-106642857D01*
X69023809Y-106833333D01*
X69023809Y-107071428D01*
X69071428Y-107261904D01*
X69119047Y-107357142D01*
X69166666Y-107404761D01*
X69261904Y-107452380D01*
X69357142Y-107452380D01*
X69452380Y-107404761D01*
X69500000Y-107357142D01*
X69547619Y-107261904D01*
X69595238Y-107071428D01*
X69595238Y-106833333D01*
X69547619Y-106642857D01*
X69500000Y-106547619D01*
X69452380Y-106500000D01*
X69357142Y-106452380D01*
X68595238Y-107357142D02*
X68547619Y-107404761D01*
X68595238Y-107452380D01*
X68642857Y-107404761D01*
X68595238Y-107357142D01*
X68595238Y-107452380D01*
X67928571Y-106452380D02*
X67833333Y-106452380D01*
X67738095Y-106500000D01*
X67690476Y-106547619D01*
X67642857Y-106642857D01*
X67595238Y-106833333D01*
X67595238Y-107071428D01*
X67642857Y-107261904D01*
X67690476Y-107357142D01*
X67738095Y-107404761D01*
X67833333Y-107452380D01*
X67928571Y-107452380D01*
X68023809Y-107404761D01*
X68071428Y-107357142D01*
X68119047Y-107261904D01*
X68166666Y-107071428D01*
X68166666Y-106833333D01*
X68119047Y-106642857D01*
X68071428Y-106547619D01*
X68023809Y-106500000D01*
X67928571Y-106452380D01*
X78476190Y-108435714D02*
X78285714Y-109102380D01*
X78095238Y-108626190D01*
X77904761Y-109102380D01*
X77714285Y-108435714D01*
X77428571Y-108435714D02*
X77238095Y-109102380D01*
X77047619Y-108626190D01*
X76857142Y-109102380D01*
X76666666Y-108435714D01*
X76380952Y-108435714D02*
X76190476Y-109102380D01*
X76000000Y-108626190D01*
X75809523Y-109102380D01*
X75619047Y-108435714D01*
X75238095Y-109007142D02*
X75190476Y-109054761D01*
X75238095Y-109102380D01*
X75285714Y-109054761D01*
X75238095Y-109007142D01*
X75238095Y-109102380D01*
X74619047Y-109102380D02*
X74714285Y-109054761D01*
X74761904Y-108959523D01*
X74761904Y-108102380D01*
X74095238Y-109102380D02*
X74190476Y-109054761D01*
X74238095Y-109007142D01*
X74285714Y-108911904D01*
X74285714Y-108626190D01*
X74238095Y-108530952D01*
X74190476Y-108483333D01*
X74095238Y-108435714D01*
X73952380Y-108435714D01*
X73857142Y-108483333D01*
X73809523Y-108530952D01*
X73761904Y-108626190D01*
X73761904Y-108911904D01*
X73809523Y-109007142D01*
X73857142Y-109054761D01*
X73952380Y-109102380D01*
X74095238Y-109102380D01*
X72904761Y-108435714D02*
X72904761Y-109245238D01*
X72952380Y-109340476D01*
X73000000Y-109388095D01*
X73095238Y-109435714D01*
X73238095Y-109435714D01*
X73333333Y-109388095D01*
X72904761Y-109054761D02*
X73000000Y-109102380D01*
X73190476Y-109102380D01*
X73285714Y-109054761D01*
X73333333Y-109007142D01*
X73380952Y-108911904D01*
X73380952Y-108626190D01*
X73333333Y-108530952D01*
X73285714Y-108483333D01*
X73190476Y-108435714D01*
X73000000Y-108435714D01*
X72904761Y-108483333D01*
X72428571Y-109102380D02*
X72428571Y-108435714D01*
X72428571Y-108102380D02*
X72476190Y-108150000D01*
X72428571Y-108197619D01*
X72380952Y-108150000D01*
X72428571Y-108102380D01*
X72428571Y-108197619D01*
X71523809Y-109054761D02*
X71619047Y-109102380D01*
X71809523Y-109102380D01*
X71904761Y-109054761D01*
X71952380Y-109007142D01*
X72000000Y-108911904D01*
X72000000Y-108626190D01*
X71952380Y-108530952D01*
X71904761Y-108483333D01*
X71809523Y-108435714D01*
X71619047Y-108435714D01*
X71523809Y-108483333D01*
X71095238Y-109102380D02*
X71095238Y-108102380D01*
X71095238Y-108483333D02*
X71000000Y-108435714D01*
X70809523Y-108435714D01*
X70714285Y-108483333D01*
X70666666Y-108530952D01*
X70619047Y-108626190D01*
X70619047Y-108911904D01*
X70666666Y-109007142D01*
X70714285Y-109054761D01*
X70809523Y-109102380D01*
X71000000Y-109102380D01*
X71095238Y-109054761D01*
X70047619Y-109102380D02*
X70142857Y-109054761D01*
X70190476Y-109007142D01*
X70238095Y-108911904D01*
X70238095Y-108626190D01*
X70190476Y-108530952D01*
X70142857Y-108483333D01*
X70047619Y-108435714D01*
X69904761Y-108435714D01*
X69809523Y-108483333D01*
X69761904Y-108530952D01*
X69714285Y-108626190D01*
X69714285Y-108911904D01*
X69761904Y-109007142D01*
X69809523Y-109054761D01*
X69904761Y-109102380D01*
X70047619Y-109102380D01*
X68857142Y-109102380D02*
X68857142Y-108578571D01*
X68904761Y-108483333D01*
X69000000Y-108435714D01*
X69190476Y-108435714D01*
X69285714Y-108483333D01*
X68857142Y-109054761D02*
X68952380Y-109102380D01*
X69190476Y-109102380D01*
X69285714Y-109054761D01*
X69333333Y-108959523D01*
X69333333Y-108864285D01*
X69285714Y-108769047D01*
X69190476Y-108721428D01*
X68952380Y-108721428D01*
X68857142Y-108673809D01*
X68380952Y-109102380D02*
X68380952Y-108435714D01*
X68380952Y-108626190D02*
X68333333Y-108530952D01*
X68285714Y-108483333D01*
X68190476Y-108435714D01*
X68095238Y-108435714D01*
X67333333Y-109102380D02*
X67333333Y-108102380D01*
X67333333Y-109054761D02*
X67428571Y-109102380D01*
X67619047Y-109102380D01*
X67714285Y-109054761D01*
X67761904Y-109007142D01*
X67809523Y-108911904D01*
X67809523Y-108626190D01*
X67761904Y-108530952D01*
X67714285Y-108483333D01*
X67619047Y-108435714D01*
X67428571Y-108435714D01*
X67333333Y-108483333D01*
X66904761Y-109054761D02*
X66809523Y-109102380D01*
X66619047Y-109102380D01*
X66523809Y-109054761D01*
X66476190Y-108959523D01*
X66476190Y-108911904D01*
X66523809Y-108816666D01*
X66619047Y-108769047D01*
X66761904Y-108769047D01*
X66857142Y-108721428D01*
X66904761Y-108626190D01*
X66904761Y-108578571D01*
X66857142Y-108483333D01*
X66761904Y-108435714D01*
X66619047Y-108435714D01*
X66523809Y-108483333D01*
X66047619Y-109007142D02*
X66000000Y-109054761D01*
X66047619Y-109102380D01*
X66095238Y-109054761D01*
X66047619Y-109007142D01*
X66047619Y-109102380D01*
X65428571Y-109102380D02*
X65523809Y-109054761D01*
X65571428Y-109007142D01*
X65619047Y-108911904D01*
X65619047Y-108626190D01*
X65571428Y-108530952D01*
X65523809Y-108483333D01*
X65428571Y-108435714D01*
X65285714Y-108435714D01*
X65190476Y-108483333D01*
X65142857Y-108530952D01*
X65095238Y-108626190D01*
X65095238Y-108911904D01*
X65142857Y-109007142D01*
X65190476Y-109054761D01*
X65285714Y-109102380D01*
X65428571Y-109102380D01*
X64666666Y-109102380D02*
X64666666Y-108435714D01*
X64666666Y-108626190D02*
X64619047Y-108530952D01*
X64571428Y-108483333D01*
X64476190Y-108435714D01*
X64380952Y-108435714D01*
X63619047Y-108435714D02*
X63619047Y-109245238D01*
X63666666Y-109340476D01*
X63714285Y-109388095D01*
X63809523Y-109435714D01*
X63952380Y-109435714D01*
X64047619Y-109388095D01*
X63619047Y-109054761D02*
X63714285Y-109102380D01*
X63904761Y-109102380D01*
X64000000Y-109054761D01*
X64047619Y-109007142D01*
X64095238Y-108911904D01*
X64095238Y-108626190D01*
X64047619Y-108530952D01*
X64000000Y-108483333D01*
X63904761Y-108435714D01*
X63714285Y-108435714D01*
X63619047Y-108483333D01*
D14*
X65641421Y-63500000D02*
G75*
G03*
X65641421Y-63500000I-141421J0D01*
G01*
X102141421Y-94000000D02*
G75*
G03*
X102141421Y-94000000I-141421J0D01*
G01*
X59641421Y-94000000D02*
G75*
G03*
X59641421Y-94000000I-141421J0D01*
G01*
D15*
%TO.C,C86*%
X85657836Y-65910000D02*
X85442164Y-65910000D01*
X85657836Y-66630000D02*
X85442164Y-66630000D01*
%TO.C,C85*%
X85442164Y-67630000D02*
X85657836Y-67630000D01*
X85442164Y-66910000D02*
X85657836Y-66910000D01*
%TO.C,C79*%
X85002164Y-62180000D02*
X85217836Y-62180000D01*
X85002164Y-61460000D02*
X85217836Y-61460000D01*
%TO.C,C32*%
X89482164Y-62180000D02*
X89697836Y-62180000D01*
X89482164Y-61460000D02*
X89697836Y-61460000D01*
D10*
%TO.C,U7*%
X103640000Y-78740000D02*
X105240000Y-78780000D01*
X103640000Y-94300000D02*
X105240000Y-94300000D01*
%TO.C,U6*%
X80930000Y-65110000D02*
X80890000Y-66710000D01*
X65370000Y-65110000D02*
X65370000Y-66710000D01*
D15*
%TO.C,C4*%
X98092164Y-96860000D02*
X98307836Y-96860000D01*
X98092164Y-96140000D02*
X98307836Y-96140000D01*
%TO.C,C76*%
X94940000Y-108317836D02*
X94940000Y-108102164D01*
X94220000Y-108317836D02*
X94220000Y-108102164D01*
%TO.C,C75*%
X89680000Y-106747836D02*
X89680000Y-106532164D01*
X88960000Y-106747836D02*
X88960000Y-106532164D01*
%TO.C,C74*%
X92597836Y-95630000D02*
X92382164Y-95630000D01*
X92597836Y-96350000D02*
X92382164Y-96350000D01*
%TO.C,C73*%
X90497836Y-95640000D02*
X90282164Y-95640000D01*
X90497836Y-96360000D02*
X90282164Y-96360000D01*
%TO.C,C72*%
X88417836Y-95640000D02*
X88202164Y-95640000D01*
X88417836Y-96360000D02*
X88202164Y-96360000D01*
%TO.C,C70*%
X93572164Y-101010000D02*
X93787836Y-101010000D01*
X93572164Y-100290000D02*
X93787836Y-100290000D01*
%TO.C,C69*%
X93572164Y-99930000D02*
X93787836Y-99930000D01*
X93572164Y-99210000D02*
X93787836Y-99210000D01*
%TO.C,C68*%
X93592164Y-98860000D02*
X93807836Y-98860000D01*
X93592164Y-98140000D02*
X93807836Y-98140000D01*
%TO.C,C67*%
X93612164Y-97790000D02*
X93827836Y-97790000D01*
X93612164Y-97070000D02*
X93827836Y-97070000D01*
%TO.C,C66*%
X89340000Y-101002164D02*
X89340000Y-101217836D01*
X90060000Y-101002164D02*
X90060000Y-101217836D01*
%TO.C,C65*%
X88240000Y-101002164D02*
X88240000Y-101217836D01*
X88960000Y-101002164D02*
X88960000Y-101217836D01*
%TO.C,C64*%
X86807836Y-99050000D02*
X86592164Y-99050000D01*
X86807836Y-99770000D02*
X86592164Y-99770000D01*
%TO.C,C63*%
X86797836Y-97890000D02*
X86582164Y-97890000D01*
X86797836Y-98610000D02*
X86582164Y-98610000D01*
%TO.C,X2*%
X93840000Y-105340000D02*
X90140000Y-105340000D01*
X90140000Y-105340000D02*
X90140000Y-108340000D01*
X90140000Y-108340000D02*
X93790000Y-108340000D01*
X93790000Y-108340000D02*
X93940000Y-108340000D01*
X93940000Y-108340000D02*
X93990000Y-108340000D01*
X93990000Y-108340000D02*
X93990000Y-105340000D01*
X93990000Y-105340000D02*
X93840000Y-105340000D01*
D10*
%TO.C,U5*%
X60870000Y-78740000D02*
X62470000Y-78780000D01*
X60870000Y-94300000D02*
X62470000Y-94300000D01*
D15*
%TO.C,R45*%
X70500000Y-91646359D02*
X70500000Y-91953641D01*
X71260000Y-91646359D02*
X71260000Y-91953641D01*
%TO.C,R44*%
X69440000Y-91666359D02*
X69440000Y-91973641D01*
X70200000Y-91666359D02*
X70200000Y-91973641D01*
%TO.C,R42*%
X73040000Y-91686359D02*
X73040000Y-91993641D01*
X73800000Y-91686359D02*
X73800000Y-91993641D01*
%TO.C,R41*%
X74100000Y-91696359D02*
X74100000Y-92003641D01*
X74860000Y-91696359D02*
X74860000Y-92003641D01*
%TO.C,R35*%
X97270000Y-79923641D02*
X97270000Y-79616359D01*
X96510000Y-79923641D02*
X96510000Y-79616359D01*
%TO.C,R33*%
X89780000Y-71076359D02*
X89780000Y-71383641D01*
X90540000Y-71076359D02*
X90540000Y-71383641D01*
%TO.C,R32*%
X89490000Y-71383641D02*
X89490000Y-71076359D01*
X88730000Y-71383641D02*
X88730000Y-71076359D01*
%TO.C,R31*%
X85096359Y-74700000D02*
X85403641Y-74700000D01*
X85096359Y-73940000D02*
X85403641Y-73940000D01*
%TO.C,R30*%
X88420000Y-71373641D02*
X88420000Y-71066359D01*
X87660000Y-71373641D02*
X87660000Y-71066359D01*
%TO.C,R29*%
X90860000Y-71076359D02*
X90860000Y-71383641D01*
X91620000Y-71076359D02*
X91620000Y-71383641D01*
%TO.C,R28*%
X98366359Y-79620000D02*
X98673641Y-79620000D01*
X98366359Y-78860000D02*
X98673641Y-78860000D01*
%TO.C,R26*%
X92766359Y-76530000D02*
X93073641Y-76530000D01*
X92766359Y-75770000D02*
X93073641Y-75770000D01*
%TO.C,R25*%
X85096359Y-75820000D02*
X85403641Y-75820000D01*
X85096359Y-75060000D02*
X85403641Y-75060000D01*
%TO.C,R24*%
X98653641Y-80390000D02*
X98346359Y-80390000D01*
X98653641Y-81150000D02*
X98346359Y-81150000D01*
%TO.C,R23*%
X85106359Y-76900000D02*
X85413641Y-76900000D01*
X85106359Y-76140000D02*
X85413641Y-76140000D01*
%TO.C,R22*%
X98683641Y-77770000D02*
X98376359Y-77770000D01*
X98683641Y-78530000D02*
X98376359Y-78530000D01*
%TO.C,R21*%
X85116359Y-83410000D02*
X85423641Y-83410000D01*
X85116359Y-82650000D02*
X85423641Y-82650000D01*
%TO.C,R20*%
X98693641Y-73430000D02*
X98386359Y-73430000D01*
X98693641Y-74190000D02*
X98386359Y-74190000D01*
%TO.C,R19*%
X98693641Y-76700000D02*
X98386359Y-76700000D01*
X98693641Y-77460000D02*
X98386359Y-77460000D01*
%TO.C,R18*%
X98683641Y-75610000D02*
X98376359Y-75610000D01*
X98683641Y-76370000D02*
X98376359Y-76370000D01*
%TO.C,R17*%
X85106359Y-82330000D02*
X85413641Y-82330000D01*
X85106359Y-81570000D02*
X85413641Y-81570000D01*
%TO.C,R16*%
X98623641Y-83630000D02*
X98316359Y-83630000D01*
X98623641Y-84390000D02*
X98316359Y-84390000D01*
%TO.C,R15*%
X85136359Y-84480000D02*
X85443641Y-84480000D01*
X85136359Y-83720000D02*
X85443641Y-83720000D01*
%TO.C,R14*%
X98633641Y-82540000D02*
X98326359Y-82540000D01*
X98633641Y-83300000D02*
X98326359Y-83300000D01*
%TO.C,R13*%
X85106359Y-81240000D02*
X85413641Y-81240000D01*
X85106359Y-80480000D02*
X85413641Y-80480000D01*
%TO.C,R12*%
X98643641Y-81470000D02*
X98336359Y-81470000D01*
X98643641Y-82230000D02*
X98336359Y-82230000D01*
%TO.C,R11*%
X85116359Y-79100000D02*
X85423641Y-79100000D01*
X85116359Y-78340000D02*
X85423641Y-78340000D01*
%TO.C,R10*%
X85116359Y-80160000D02*
X85423641Y-80160000D01*
X85116359Y-79400000D02*
X85423641Y-79400000D01*
%TO.C,R9*%
X98693641Y-74540000D02*
X98386359Y-74540000D01*
X98693641Y-75300000D02*
X98386359Y-75300000D01*
%TO.C,R8*%
X85106359Y-77970000D02*
X85413641Y-77970000D01*
X85106359Y-77210000D02*
X85413641Y-77210000D01*
%TO.C,R7*%
X98036359Y-94740000D02*
X98343641Y-94740000D01*
X98036359Y-93980000D02*
X98343641Y-93980000D01*
%TO.C,R2*%
X100266359Y-95200000D02*
X100573641Y-95200000D01*
X100266359Y-94440000D02*
X100573641Y-94440000D01*
%TO.C,C42*%
X75870000Y-91967836D02*
X75870000Y-91752164D01*
X75150000Y-91967836D02*
X75150000Y-91752164D01*
%TO.C,C38*%
X68420000Y-91692164D02*
X68420000Y-91907836D01*
X69140000Y-91692164D02*
X69140000Y-91907836D01*
%TO.C,C22*%
X83247836Y-72420000D02*
X83032164Y-72420000D01*
X83247836Y-73140000D02*
X83032164Y-73140000D01*
%TO.C,C21*%
X98102164Y-72370000D02*
X98317836Y-72370000D01*
X98102164Y-71650000D02*
X98317836Y-71650000D01*
%TO.C,C20*%
X100402164Y-84370000D02*
X100617836Y-84370000D01*
X100402164Y-83650000D02*
X100617836Y-83650000D01*
%TO.C,C19*%
X100432164Y-81630000D02*
X100647836Y-81630000D01*
X100432164Y-80910000D02*
X100647836Y-80910000D01*
%TO.C,C18*%
X100442164Y-78970000D02*
X100657836Y-78970000D01*
X100442164Y-78250000D02*
X100657836Y-78250000D01*
%TO.C,C17*%
X100462164Y-76810000D02*
X100677836Y-76810000D01*
X100462164Y-76090000D02*
X100677836Y-76090000D01*
%TO.C,C16*%
X100462164Y-74680000D02*
X100677836Y-74680000D01*
X100462164Y-73960000D02*
X100677836Y-73960000D01*
%TO.C,C15*%
X83247836Y-71330000D02*
X83032164Y-71330000D01*
X83247836Y-72050000D02*
X83032164Y-72050000D01*
%TO.C,C14*%
X83337836Y-74500000D02*
X83122164Y-74500000D01*
X83337836Y-75220000D02*
X83122164Y-75220000D01*
%TO.C,C13*%
X83337836Y-76660000D02*
X83122164Y-76660000D01*
X83337836Y-77380000D02*
X83122164Y-77380000D01*
%TO.C,C12*%
X83347836Y-78900000D02*
X83132164Y-78900000D01*
X83347836Y-79620000D02*
X83132164Y-79620000D01*
%TO.C,C11*%
X83347836Y-81140000D02*
X83132164Y-81140000D01*
X83347836Y-81860000D02*
X83132164Y-81860000D01*
%TO.C,C10*%
X83367836Y-83210000D02*
X83152164Y-83210000D01*
X83367836Y-83930000D02*
X83152164Y-83930000D01*
%TO.C,C9*%
X98102164Y-71150000D02*
X98317836Y-71150000D01*
X98102164Y-70430000D02*
X98317836Y-70430000D01*
%TO.C,C7*%
X91402164Y-102280000D02*
X91617836Y-102280000D01*
X91402164Y-101560000D02*
X91617836Y-101560000D01*
%TO.C,C6*%
X98102164Y-95800000D02*
X98317836Y-95800000D01*
X98102164Y-95080000D02*
X98317836Y-95080000D01*
%TO.C,C5*%
X81602164Y-94040000D02*
X81817836Y-94040000D01*
X81602164Y-93320000D02*
X81817836Y-93320000D01*
%TO.C,C3*%
X94500000Y-95532164D02*
X94500000Y-95747836D01*
X95220000Y-95532164D02*
X95220000Y-95747836D01*
%TO.C,C2*%
X81817836Y-94350000D02*
X81602164Y-94350000D01*
X81817836Y-95070000D02*
X81602164Y-95070000D01*
%TO.C,C1*%
X98092164Y-97870000D02*
X98307836Y-97870000D01*
X98092164Y-97150000D02*
X98307836Y-97150000D01*
%TD*%
M02*
