%TF.GenerationSoftware,KiCad,Pcbnew,5.1.10-88a1d61d58~88~ubuntu20.04.1*%
%TF.CreationDate,2021-06-28T11:18:36+05:30*%
%TF.ProjectId,LB1A_DCA7M4_R512MB_F4GB,4c423141-5f44-4434-9137-4d345f523531,1.0.0*%
%TF.SameCoordinates,Original*%
%TF.FileFunction,Soldermask,Top*%
%TF.FilePolarity,Negative*%
%FSLAX46Y46*%
G04 Gerber Fmt 4.6, Leading zero omitted, Abs format (unit mm)*
G04 Created by KiCad (PCBNEW 5.1.10-88a1d61d58~88~ubuntu20.04.1) date 2021-06-28 11:18:36*
%MOMM*%
%LPD*%
G01*
G04 APERTURE LIST*
%ADD10C,0.100000*%
%ADD11C,0.150000*%
%ADD12C,0.300000*%
%ADD13C,0.400000*%
%ADD14R,0.250000X0.550000*%
%ADD15R,0.550000X0.250000*%
%ADD16C,3.800000*%
%ADD17C,0.240000*%
%ADD18C,0.410000*%
%ADD19C,1.500000*%
%ADD20R,0.200000X0.500000*%
%ADD21R,0.700000X1.400000*%
%ADD22R,0.200000X0.850000*%
%ADD23R,0.850000X0.200000*%
%ADD24R,4.600000X3.600000*%
%ADD25C,0.290000*%
%ADD26R,2.000000X0.800000*%
%ADD27R,0.800000X2.000000*%
G04 APERTURE END LIST*
D10*
D11*
X177002200Y-166007200D02*
X177002200Y-198007200D01*
X285002200Y-198007200D01*
X285002200Y-166007200D01*
X177002200Y-166007200D01*
D10*
D11*
X10000000Y-10000000D02*
X10000000Y-200007200D01*
X287002200Y-200007200D01*
X287002200Y-10000000D01*
X10000000Y-10000000D01*
D10*
D11*
X12000000Y-12000000D02*
X12000000Y-198007200D01*
X285002200Y-198007200D01*
X285002200Y-12000000D01*
X12000000Y-12000000D01*
D10*
D11*
X60000000Y-12000000D02*
X60000000Y-10000000D01*
D10*
D11*
X110000000Y-12000000D02*
X110000000Y-10000000D01*
D10*
D11*
X160000000Y-12000000D02*
X160000000Y-10000000D01*
D10*
D11*
X210000000Y-12000000D02*
X210000000Y-10000000D01*
D10*
D11*
X260000000Y-12000000D02*
X260000000Y-10000000D01*
D10*
D11*
X36065476Y-11588095D02*
X35322619Y-11588095D01*
X35694047Y-11588095D02*
X35694047Y-10288095D01*
X35570238Y-10473809D01*
X35446428Y-10597619D01*
X35322619Y-10659523D01*
D10*
D11*
X85322619Y-10411904D02*
X85384523Y-10350000D01*
X85508333Y-10288095D01*
X85817857Y-10288095D01*
X85941666Y-10350000D01*
X86003571Y-10411904D01*
X86065476Y-10535714D01*
X86065476Y-10659523D01*
X86003571Y-10845238D01*
X85260714Y-11588095D01*
X86065476Y-11588095D01*
D10*
D11*
X135260714Y-10288095D02*
X136065476Y-10288095D01*
X135632142Y-10783333D01*
X135817857Y-10783333D01*
X135941666Y-10845238D01*
X136003571Y-10907142D01*
X136065476Y-11030952D01*
X136065476Y-11340476D01*
X136003571Y-11464285D01*
X135941666Y-11526190D01*
X135817857Y-11588095D01*
X135446428Y-11588095D01*
X135322619Y-11526190D01*
X135260714Y-11464285D01*
D10*
D11*
X185941666Y-10721428D02*
X185941666Y-11588095D01*
X185632142Y-10226190D02*
X185322619Y-11154761D01*
X186127380Y-11154761D01*
D10*
D11*
X236003571Y-10288095D02*
X235384523Y-10288095D01*
X235322619Y-10907142D01*
X235384523Y-10845238D01*
X235508333Y-10783333D01*
X235817857Y-10783333D01*
X235941666Y-10845238D01*
X236003571Y-10907142D01*
X236065476Y-11030952D01*
X236065476Y-11340476D01*
X236003571Y-11464285D01*
X235941666Y-11526190D01*
X235817857Y-11588095D01*
X235508333Y-11588095D01*
X235384523Y-11526190D01*
X235322619Y-11464285D01*
D10*
D11*
X285941666Y-10288095D02*
X285694047Y-10288095D01*
X285570238Y-10350000D01*
X285508333Y-10411904D01*
X285384523Y-10597619D01*
X285322619Y-10845238D01*
X285322619Y-11340476D01*
X285384523Y-11464285D01*
X285446428Y-11526190D01*
X285570238Y-11588095D01*
X285817857Y-11588095D01*
X285941666Y-11526190D01*
X286003571Y-11464285D01*
X286065476Y-11340476D01*
X286065476Y-11030952D01*
X286003571Y-10907142D01*
X285941666Y-10845238D01*
X285817857Y-10783333D01*
X285570238Y-10783333D01*
X285446428Y-10845238D01*
X285384523Y-10907142D01*
X285322619Y-11030952D01*
D10*
D11*
X60000000Y-198007200D02*
X60000000Y-200007200D01*
D10*
D11*
X110000000Y-198007200D02*
X110000000Y-200007200D01*
D10*
D11*
X160000000Y-198007200D02*
X160000000Y-200007200D01*
D10*
D11*
X210000000Y-198007200D02*
X210000000Y-200007200D01*
D10*
D11*
X260000000Y-198007200D02*
X260000000Y-200007200D01*
D10*
D11*
X36065476Y-199595295D02*
X35322619Y-199595295D01*
X35694047Y-199595295D02*
X35694047Y-198295295D01*
X35570238Y-198481009D01*
X35446428Y-198604819D01*
X35322619Y-198666723D01*
D10*
D11*
X85322619Y-198419104D02*
X85384523Y-198357200D01*
X85508333Y-198295295D01*
X85817857Y-198295295D01*
X85941666Y-198357200D01*
X86003571Y-198419104D01*
X86065476Y-198542914D01*
X86065476Y-198666723D01*
X86003571Y-198852438D01*
X85260714Y-199595295D01*
X86065476Y-199595295D01*
D10*
D11*
X135260714Y-198295295D02*
X136065476Y-198295295D01*
X135632142Y-198790533D01*
X135817857Y-198790533D01*
X135941666Y-198852438D01*
X136003571Y-198914342D01*
X136065476Y-199038152D01*
X136065476Y-199347676D01*
X136003571Y-199471485D01*
X135941666Y-199533390D01*
X135817857Y-199595295D01*
X135446428Y-199595295D01*
X135322619Y-199533390D01*
X135260714Y-199471485D01*
D10*
D11*
X185941666Y-198728628D02*
X185941666Y-199595295D01*
X185632142Y-198233390D02*
X185322619Y-199161961D01*
X186127380Y-199161961D01*
D10*
D11*
X236003571Y-198295295D02*
X235384523Y-198295295D01*
X235322619Y-198914342D01*
X235384523Y-198852438D01*
X235508333Y-198790533D01*
X235817857Y-198790533D01*
X235941666Y-198852438D01*
X236003571Y-198914342D01*
X236065476Y-199038152D01*
X236065476Y-199347676D01*
X236003571Y-199471485D01*
X235941666Y-199533390D01*
X235817857Y-199595295D01*
X235508333Y-199595295D01*
X235384523Y-199533390D01*
X235322619Y-199471485D01*
D10*
D11*
X285941666Y-198295295D02*
X285694047Y-198295295D01*
X285570238Y-198357200D01*
X285508333Y-198419104D01*
X285384523Y-198604819D01*
X285322619Y-198852438D01*
X285322619Y-199347676D01*
X285384523Y-199471485D01*
X285446428Y-199533390D01*
X285570238Y-199595295D01*
X285817857Y-199595295D01*
X285941666Y-199533390D01*
X286003571Y-199471485D01*
X286065476Y-199347676D01*
X286065476Y-199038152D01*
X286003571Y-198914342D01*
X285941666Y-198852438D01*
X285817857Y-198790533D01*
X285570238Y-198790533D01*
X285446428Y-198852438D01*
X285384523Y-198914342D01*
X285322619Y-199038152D01*
D10*
D11*
X10000000Y-60000000D02*
X12000000Y-60000000D01*
D10*
D11*
X10000000Y-110000000D02*
X12000000Y-110000000D01*
D10*
D11*
X10000000Y-160000000D02*
X12000000Y-160000000D01*
D10*
D11*
X10690476Y-35216666D02*
X11309523Y-35216666D01*
X10566666Y-35588095D02*
X11000000Y-34288095D01*
X11433333Y-35588095D01*
D10*
D11*
X11092857Y-84907142D02*
X11278571Y-84969047D01*
X11340476Y-85030952D01*
X11402380Y-85154761D01*
X11402380Y-85340476D01*
X11340476Y-85464285D01*
X11278571Y-85526190D01*
X11154761Y-85588095D01*
X10659523Y-85588095D01*
X10659523Y-84288095D01*
X11092857Y-84288095D01*
X11216666Y-84350000D01*
X11278571Y-84411904D01*
X11340476Y-84535714D01*
X11340476Y-84659523D01*
X11278571Y-84783333D01*
X11216666Y-84845238D01*
X11092857Y-84907142D01*
X10659523Y-84907142D01*
D10*
D11*
X11402380Y-135464285D02*
X11340476Y-135526190D01*
X11154761Y-135588095D01*
X11030952Y-135588095D01*
X10845238Y-135526190D01*
X10721428Y-135402380D01*
X10659523Y-135278571D01*
X10597619Y-135030952D01*
X10597619Y-134845238D01*
X10659523Y-134597619D01*
X10721428Y-134473809D01*
X10845238Y-134350000D01*
X11030952Y-134288095D01*
X11154761Y-134288095D01*
X11340476Y-134350000D01*
X11402380Y-134411904D01*
D10*
D11*
X10659523Y-185588095D02*
X10659523Y-184288095D01*
X10969047Y-184288095D01*
X11154761Y-184350000D01*
X11278571Y-184473809D01*
X11340476Y-184597619D01*
X11402380Y-184845238D01*
X11402380Y-185030952D01*
X11340476Y-185278571D01*
X11278571Y-185402380D01*
X11154761Y-185526190D01*
X10969047Y-185588095D01*
X10659523Y-185588095D01*
D10*
D11*
X287002200Y-60000000D02*
X285002200Y-60000000D01*
D10*
D11*
X287002200Y-110000000D02*
X285002200Y-110000000D01*
D10*
D11*
X287002200Y-160000000D02*
X285002200Y-160000000D01*
D10*
D11*
X285692676Y-35216666D02*
X286311723Y-35216666D01*
X285568866Y-35588095D02*
X286002200Y-34288095D01*
X286435533Y-35588095D01*
D10*
D11*
X286095057Y-84907142D02*
X286280771Y-84969047D01*
X286342676Y-85030952D01*
X286404580Y-85154761D01*
X286404580Y-85340476D01*
X286342676Y-85464285D01*
X286280771Y-85526190D01*
X286156961Y-85588095D01*
X285661723Y-85588095D01*
X285661723Y-84288095D01*
X286095057Y-84288095D01*
X286218866Y-84350000D01*
X286280771Y-84411904D01*
X286342676Y-84535714D01*
X286342676Y-84659523D01*
X286280771Y-84783333D01*
X286218866Y-84845238D01*
X286095057Y-84907142D01*
X285661723Y-84907142D01*
D10*
D11*
X286404580Y-135464285D02*
X286342676Y-135526190D01*
X286156961Y-135588095D01*
X286033152Y-135588095D01*
X285847438Y-135526190D01*
X285723628Y-135402380D01*
X285661723Y-135278571D01*
X285599819Y-135030952D01*
X285599819Y-134845238D01*
X285661723Y-134597619D01*
X285723628Y-134473809D01*
X285847438Y-134350000D01*
X286033152Y-134288095D01*
X286156961Y-134288095D01*
X286342676Y-134350000D01*
X286404580Y-134411904D01*
D10*
D11*
X285661723Y-185588095D02*
X285661723Y-184288095D01*
X285971247Y-184288095D01*
X286156961Y-184350000D01*
X286280771Y-184473809D01*
X286342676Y-184597619D01*
X286404580Y-184845238D01*
X286404580Y-185030952D01*
X286342676Y-185278571D01*
X286280771Y-185402380D01*
X286156961Y-185526190D01*
X285971247Y-185588095D01*
X285661723Y-185588095D01*
D10*
D11*
X200434342Y-193785771D02*
X200434342Y-192285771D01*
X200791485Y-192285771D01*
X201005771Y-192357200D01*
X201148628Y-192500057D01*
X201220057Y-192642914D01*
X201291485Y-192928628D01*
X201291485Y-193142914D01*
X201220057Y-193428628D01*
X201148628Y-193571485D01*
X201005771Y-193714342D01*
X200791485Y-193785771D01*
X200434342Y-193785771D01*
X202577200Y-193785771D02*
X202577200Y-193000057D01*
X202505771Y-192857200D01*
X202362914Y-192785771D01*
X202077200Y-192785771D01*
X201934342Y-192857200D01*
X202577200Y-193714342D02*
X202434342Y-193785771D01*
X202077200Y-193785771D01*
X201934342Y-193714342D01*
X201862914Y-193571485D01*
X201862914Y-193428628D01*
X201934342Y-193285771D01*
X202077200Y-193214342D01*
X202434342Y-193214342D01*
X202577200Y-193142914D01*
X203077200Y-192785771D02*
X203648628Y-192785771D01*
X203291485Y-192285771D02*
X203291485Y-193571485D01*
X203362914Y-193714342D01*
X203505771Y-193785771D01*
X203648628Y-193785771D01*
X204720057Y-193714342D02*
X204577200Y-193785771D01*
X204291485Y-193785771D01*
X204148628Y-193714342D01*
X204077200Y-193571485D01*
X204077200Y-193000057D01*
X204148628Y-192857200D01*
X204291485Y-192785771D01*
X204577200Y-192785771D01*
X204720057Y-192857200D01*
X204791485Y-193000057D01*
X204791485Y-193142914D01*
X204077200Y-193285771D01*
X205434342Y-193642914D02*
X205505771Y-193714342D01*
X205434342Y-193785771D01*
X205362914Y-193714342D01*
X205434342Y-193642914D01*
X205434342Y-193785771D01*
X205434342Y-192857200D02*
X205505771Y-192928628D01*
X205434342Y-193000057D01*
X205362914Y-192928628D01*
X205434342Y-192857200D01*
X205434342Y-193000057D01*
X207220057Y-192428628D02*
X207291485Y-192357200D01*
X207434342Y-192285771D01*
X207791485Y-192285771D01*
X207934342Y-192357200D01*
X208005771Y-192428628D01*
X208077200Y-192571485D01*
X208077200Y-192714342D01*
X208005771Y-192928628D01*
X207148628Y-193785771D01*
X208077200Y-193785771D01*
X209005771Y-192285771D02*
X209148628Y-192285771D01*
X209291485Y-192357200D01*
X209362914Y-192428628D01*
X209434342Y-192571485D01*
X209505771Y-192857200D01*
X209505771Y-193214342D01*
X209434342Y-193500057D01*
X209362914Y-193642914D01*
X209291485Y-193714342D01*
X209148628Y-193785771D01*
X209005771Y-193785771D01*
X208862914Y-193714342D01*
X208791485Y-193642914D01*
X208720057Y-193500057D01*
X208648628Y-193214342D01*
X208648628Y-192857200D01*
X208720057Y-192571485D01*
X208791485Y-192428628D01*
X208862914Y-192357200D01*
X209005771Y-192285771D01*
X210077200Y-192428628D02*
X210148628Y-192357200D01*
X210291485Y-192285771D01*
X210648628Y-192285771D01*
X210791485Y-192357200D01*
X210862914Y-192428628D01*
X210934342Y-192571485D01*
X210934342Y-192714342D01*
X210862914Y-192928628D01*
X210005771Y-193785771D01*
X210934342Y-193785771D01*
X212362914Y-193785771D02*
X211505771Y-193785771D01*
X211934342Y-193785771D02*
X211934342Y-192285771D01*
X211791485Y-192500057D01*
X211648628Y-192642914D01*
X211505771Y-192714342D01*
X213005771Y-193214342D02*
X214148628Y-193214342D01*
X215148628Y-192285771D02*
X215291485Y-192285771D01*
X215434342Y-192357200D01*
X215505771Y-192428628D01*
X215577200Y-192571485D01*
X215648628Y-192857200D01*
X215648628Y-193214342D01*
X215577200Y-193500057D01*
X215505771Y-193642914D01*
X215434342Y-193714342D01*
X215291485Y-193785771D01*
X215148628Y-193785771D01*
X215005771Y-193714342D01*
X214934342Y-193642914D01*
X214862914Y-193500057D01*
X214791485Y-193214342D01*
X214791485Y-192857200D01*
X214862914Y-192571485D01*
X214934342Y-192428628D01*
X215005771Y-192357200D01*
X215148628Y-192285771D01*
X216934342Y-192285771D02*
X216648628Y-192285771D01*
X216505771Y-192357200D01*
X216434342Y-192428628D01*
X216291485Y-192642914D01*
X216220057Y-192928628D01*
X216220057Y-193500057D01*
X216291485Y-193642914D01*
X216362914Y-193714342D01*
X216505771Y-193785771D01*
X216791485Y-193785771D01*
X216934342Y-193714342D01*
X217005771Y-193642914D01*
X217077200Y-193500057D01*
X217077200Y-193142914D01*
X217005771Y-193000057D01*
X216934342Y-192928628D01*
X216791485Y-192857200D01*
X216505771Y-192857200D01*
X216362914Y-192928628D01*
X216291485Y-193000057D01*
X216220057Y-193142914D01*
X217720057Y-193214342D02*
X218862914Y-193214342D01*
X219505771Y-192428628D02*
X219577200Y-192357200D01*
X219720057Y-192285771D01*
X220077200Y-192285771D01*
X220220057Y-192357200D01*
X220291485Y-192428628D01*
X220362914Y-192571485D01*
X220362914Y-192714342D01*
X220291485Y-192928628D01*
X219434342Y-193785771D01*
X220362914Y-193785771D01*
X221220057Y-192928628D02*
X221077200Y-192857200D01*
X221005771Y-192785771D01*
X220934342Y-192642914D01*
X220934342Y-192571485D01*
X221005771Y-192428628D01*
X221077200Y-192357200D01*
X221220057Y-192285771D01*
X221505771Y-192285771D01*
X221648628Y-192357200D01*
X221720057Y-192428628D01*
X221791485Y-192571485D01*
X221791485Y-192642914D01*
X221720057Y-192785771D01*
X221648628Y-192857200D01*
X221505771Y-192928628D01*
X221220057Y-192928628D01*
X221077200Y-193000057D01*
X221005771Y-193071485D01*
X220934342Y-193214342D01*
X220934342Y-193500057D01*
X221005771Y-193642914D01*
X221077200Y-193714342D01*
X221220057Y-193785771D01*
X221505771Y-193785771D01*
X221648628Y-193714342D01*
X221720057Y-193642914D01*
X221791485Y-193500057D01*
X221791485Y-193214342D01*
X221720057Y-193071485D01*
X221648628Y-193000057D01*
X221505771Y-192928628D01*
D10*
D11*
X177002200Y-194507200D02*
X285002200Y-194507200D01*
D10*
D11*
X178434342Y-196585771D02*
X178434342Y-195085771D01*
X179291485Y-196585771D02*
X178648628Y-195728628D01*
X179291485Y-195085771D02*
X178434342Y-195942914D01*
X179934342Y-196585771D02*
X179934342Y-195585771D01*
X179934342Y-195085771D02*
X179862914Y-195157200D01*
X179934342Y-195228628D01*
X180005771Y-195157200D01*
X179934342Y-195085771D01*
X179934342Y-195228628D01*
X181505771Y-196442914D02*
X181434342Y-196514342D01*
X181220057Y-196585771D01*
X181077200Y-196585771D01*
X180862914Y-196514342D01*
X180720057Y-196371485D01*
X180648628Y-196228628D01*
X180577200Y-195942914D01*
X180577200Y-195728628D01*
X180648628Y-195442914D01*
X180720057Y-195300057D01*
X180862914Y-195157200D01*
X181077200Y-195085771D01*
X181220057Y-195085771D01*
X181434342Y-195157200D01*
X181505771Y-195228628D01*
X182791485Y-196585771D02*
X182791485Y-195800057D01*
X182720057Y-195657200D01*
X182577200Y-195585771D01*
X182291485Y-195585771D01*
X182148628Y-195657200D01*
X182791485Y-196514342D02*
X182648628Y-196585771D01*
X182291485Y-196585771D01*
X182148628Y-196514342D01*
X182077200Y-196371485D01*
X182077200Y-196228628D01*
X182148628Y-196085771D01*
X182291485Y-196014342D01*
X182648628Y-196014342D01*
X182791485Y-195942914D01*
X184148628Y-196585771D02*
X184148628Y-195085771D01*
X184148628Y-196514342D02*
X184005771Y-196585771D01*
X183720057Y-196585771D01*
X183577200Y-196514342D01*
X183505771Y-196442914D01*
X183434342Y-196300057D01*
X183434342Y-195871485D01*
X183505771Y-195728628D01*
X183577200Y-195657200D01*
X183720057Y-195585771D01*
X184005771Y-195585771D01*
X184148628Y-195657200D01*
X186005771Y-195800057D02*
X186505771Y-195800057D01*
X186720057Y-196585771D02*
X186005771Y-196585771D01*
X186005771Y-195085771D01*
X186720057Y-195085771D01*
X187362914Y-196442914D02*
X187434342Y-196514342D01*
X187362914Y-196585771D01*
X187291485Y-196514342D01*
X187362914Y-196442914D01*
X187362914Y-196585771D01*
X188077200Y-196585771D02*
X188077200Y-195085771D01*
X188434342Y-195085771D01*
X188648628Y-195157200D01*
X188791485Y-195300057D01*
X188862914Y-195442914D01*
X188934342Y-195728628D01*
X188934342Y-195942914D01*
X188862914Y-196228628D01*
X188791485Y-196371485D01*
X188648628Y-196514342D01*
X188434342Y-196585771D01*
X188077200Y-196585771D01*
X189577200Y-196442914D02*
X189648628Y-196514342D01*
X189577200Y-196585771D01*
X189505771Y-196514342D01*
X189577200Y-196442914D01*
X189577200Y-196585771D01*
X190220057Y-196157200D02*
X190934342Y-196157200D01*
X190077200Y-196585771D02*
X190577200Y-195085771D01*
X191077200Y-196585771D01*
X191577200Y-196442914D02*
X191648628Y-196514342D01*
X191577200Y-196585771D01*
X191505771Y-196514342D01*
X191577200Y-196442914D01*
X191577200Y-196585771D01*
X194577200Y-196585771D02*
X194577200Y-195085771D01*
X194720057Y-196014342D02*
X195148628Y-196585771D01*
X195148628Y-195585771D02*
X194577200Y-196157200D01*
X195791485Y-196585771D02*
X195791485Y-195585771D01*
X195791485Y-195085771D02*
X195720057Y-195157200D01*
X195791485Y-195228628D01*
X195862914Y-195157200D01*
X195791485Y-195085771D01*
X195791485Y-195228628D01*
X197148628Y-196514342D02*
X197005771Y-196585771D01*
X196720057Y-196585771D01*
X196577200Y-196514342D01*
X196505771Y-196442914D01*
X196434342Y-196300057D01*
X196434342Y-195871485D01*
X196505771Y-195728628D01*
X196577200Y-195657200D01*
X196720057Y-195585771D01*
X197005771Y-195585771D01*
X197148628Y-195657200D01*
X198434342Y-196585771D02*
X198434342Y-195800057D01*
X198362914Y-195657200D01*
X198220057Y-195585771D01*
X197934342Y-195585771D01*
X197791485Y-195657200D01*
X198434342Y-196514342D02*
X198291485Y-196585771D01*
X197934342Y-196585771D01*
X197791485Y-196514342D01*
X197720057Y-196371485D01*
X197720057Y-196228628D01*
X197791485Y-196085771D01*
X197934342Y-196014342D01*
X198291485Y-196014342D01*
X198434342Y-195942914D01*
X199791485Y-196585771D02*
X199791485Y-195085771D01*
X199791485Y-196514342D02*
X199648628Y-196585771D01*
X199362914Y-196585771D01*
X199220057Y-196514342D01*
X199148628Y-196442914D01*
X199077200Y-196300057D01*
X199077200Y-195871485D01*
X199148628Y-195728628D01*
X199220057Y-195657200D01*
X199362914Y-195585771D01*
X199648628Y-195585771D01*
X199791485Y-195657200D01*
X202362914Y-195085771D02*
X201648628Y-195085771D01*
X201577200Y-195800057D01*
X201648628Y-195728628D01*
X201791485Y-195657200D01*
X202148628Y-195657200D01*
X202291485Y-195728628D01*
X202362914Y-195800057D01*
X202434342Y-195942914D01*
X202434342Y-196300057D01*
X202362914Y-196442914D01*
X202291485Y-196514342D01*
X202148628Y-196585771D01*
X201791485Y-196585771D01*
X201648628Y-196514342D01*
X201577200Y-196442914D01*
X203077200Y-196442914D02*
X203148628Y-196514342D01*
X203077200Y-196585771D01*
X203005771Y-196514342D01*
X203077200Y-196442914D01*
X203077200Y-196585771D01*
X204577200Y-196585771D02*
X203720057Y-196585771D01*
X204148628Y-196585771D02*
X204148628Y-195085771D01*
X204005771Y-195300057D01*
X203862914Y-195442914D01*
X203720057Y-195514342D01*
X205220057Y-196442914D02*
X205291485Y-196514342D01*
X205220057Y-196585771D01*
X205148628Y-196514342D01*
X205220057Y-196442914D01*
X205220057Y-196585771D01*
X206720057Y-196585771D02*
X205862914Y-196585771D01*
X206291485Y-196585771D02*
X206291485Y-195085771D01*
X206148628Y-195300057D01*
X206005771Y-195442914D01*
X205862914Y-195514342D01*
X207648628Y-195085771D02*
X207791485Y-195085771D01*
X207934342Y-195157200D01*
X208005771Y-195228628D01*
X208077200Y-195371485D01*
X208148628Y-195657200D01*
X208148628Y-196014342D01*
X208077200Y-196300057D01*
X208005771Y-196442914D01*
X207934342Y-196514342D01*
X207791485Y-196585771D01*
X207648628Y-196585771D01*
X207505771Y-196514342D01*
X207434342Y-196442914D01*
X207362914Y-196300057D01*
X207291485Y-196014342D01*
X207291485Y-195657200D01*
X207362914Y-195371485D01*
X207434342Y-195228628D01*
X207505771Y-195157200D01*
X207648628Y-195085771D01*
X208791485Y-196014342D02*
X209934342Y-196014342D01*
X210862914Y-195728628D02*
X210720057Y-195657200D01*
X210648628Y-195585771D01*
X210577200Y-195442914D01*
X210577200Y-195371485D01*
X210648628Y-195228628D01*
X210720057Y-195157200D01*
X210862914Y-195085771D01*
X211148628Y-195085771D01*
X211291485Y-195157200D01*
X211362914Y-195228628D01*
X211434342Y-195371485D01*
X211434342Y-195442914D01*
X211362914Y-195585771D01*
X211291485Y-195657200D01*
X211148628Y-195728628D01*
X210862914Y-195728628D01*
X210720057Y-195800057D01*
X210648628Y-195871485D01*
X210577200Y-196014342D01*
X210577200Y-196300057D01*
X210648628Y-196442914D01*
X210720057Y-196514342D01*
X210862914Y-196585771D01*
X211148628Y-196585771D01*
X211291485Y-196514342D01*
X211362914Y-196442914D01*
X211434342Y-196300057D01*
X211434342Y-196014342D01*
X211362914Y-195871485D01*
X211291485Y-195800057D01*
X211148628Y-195728628D01*
X212291485Y-195728628D02*
X212148628Y-195657200D01*
X212077200Y-195585771D01*
X212005771Y-195442914D01*
X212005771Y-195371485D01*
X212077200Y-195228628D01*
X212148628Y-195157200D01*
X212291485Y-195085771D01*
X212577200Y-195085771D01*
X212720057Y-195157200D01*
X212791485Y-195228628D01*
X212862914Y-195371485D01*
X212862914Y-195442914D01*
X212791485Y-195585771D01*
X212720057Y-195657200D01*
X212577200Y-195728628D01*
X212291485Y-195728628D01*
X212148628Y-195800057D01*
X212077200Y-195871485D01*
X212005771Y-196014342D01*
X212005771Y-196300057D01*
X212077200Y-196442914D01*
X212148628Y-196514342D01*
X212291485Y-196585771D01*
X212577200Y-196585771D01*
X212720057Y-196514342D01*
X212791485Y-196442914D01*
X212862914Y-196300057D01*
X212862914Y-196014342D01*
X212791485Y-195871485D01*
X212720057Y-195800057D01*
X212577200Y-195728628D01*
X214148628Y-196585771D02*
X214148628Y-195800057D01*
X214077200Y-195657200D01*
X213934342Y-195585771D01*
X213648628Y-195585771D01*
X213505771Y-195657200D01*
X214148628Y-196514342D02*
X214005771Y-196585771D01*
X213648628Y-196585771D01*
X213505771Y-196514342D01*
X213434342Y-196371485D01*
X213434342Y-196228628D01*
X213505771Y-196085771D01*
X213648628Y-196014342D01*
X214005771Y-196014342D01*
X214148628Y-195942914D01*
X215648628Y-196585771D02*
X214791485Y-196585771D01*
X215220057Y-196585771D02*
X215220057Y-195085771D01*
X215077200Y-195300057D01*
X214934342Y-195442914D01*
X214791485Y-195514342D01*
X216934342Y-196585771D02*
X216934342Y-195085771D01*
X216934342Y-196514342D02*
X216791485Y-196585771D01*
X216505771Y-196585771D01*
X216362914Y-196514342D01*
X216291485Y-196442914D01*
X216220057Y-196300057D01*
X216220057Y-195871485D01*
X216291485Y-195728628D01*
X216362914Y-195657200D01*
X216505771Y-195585771D01*
X216791485Y-195585771D01*
X216934342Y-195657200D01*
X218291485Y-195085771D02*
X218005771Y-195085771D01*
X217862914Y-195157200D01*
X217791485Y-195228628D01*
X217648628Y-195442914D01*
X217577200Y-195728628D01*
X217577200Y-196300057D01*
X217648628Y-196442914D01*
X217720057Y-196514342D01*
X217862914Y-196585771D01*
X218148628Y-196585771D01*
X218291485Y-196514342D01*
X218362914Y-196442914D01*
X218434342Y-196300057D01*
X218434342Y-195942914D01*
X218362914Y-195800057D01*
X218291485Y-195728628D01*
X218148628Y-195657200D01*
X217862914Y-195657200D01*
X217720057Y-195728628D01*
X217648628Y-195800057D01*
X217577200Y-195942914D01*
X219862914Y-196585771D02*
X219005771Y-196585771D01*
X219434342Y-196585771D02*
X219434342Y-195085771D01*
X219291485Y-195300057D01*
X219148628Y-195442914D01*
X219005771Y-195514342D01*
X221148628Y-196585771D02*
X221148628Y-195085771D01*
X221148628Y-196514342D02*
X221005771Y-196585771D01*
X220720057Y-196585771D01*
X220577200Y-196514342D01*
X220505771Y-196442914D01*
X220434342Y-196300057D01*
X220434342Y-195871485D01*
X220505771Y-195728628D01*
X220577200Y-195657200D01*
X220720057Y-195585771D01*
X221005771Y-195585771D01*
X221148628Y-195657200D01*
X222577200Y-195085771D02*
X221862914Y-195085771D01*
X221791485Y-195800057D01*
X221862914Y-195728628D01*
X222005771Y-195657200D01*
X222362914Y-195657200D01*
X222505771Y-195728628D01*
X222577200Y-195800057D01*
X222648628Y-195942914D01*
X222648628Y-196300057D01*
X222577200Y-196442914D01*
X222505771Y-196514342D01*
X222362914Y-196585771D01*
X222005771Y-196585771D01*
X221862914Y-196514342D01*
X221791485Y-196442914D01*
X223505771Y-195728628D02*
X223362914Y-195657200D01*
X223291485Y-195585771D01*
X223220057Y-195442914D01*
X223220057Y-195371485D01*
X223291485Y-195228628D01*
X223362914Y-195157200D01*
X223505771Y-195085771D01*
X223791485Y-195085771D01*
X223934342Y-195157200D01*
X224005771Y-195228628D01*
X224077200Y-195371485D01*
X224077200Y-195442914D01*
X224005771Y-195585771D01*
X223934342Y-195657200D01*
X223791485Y-195728628D01*
X223505771Y-195728628D01*
X223362914Y-195800057D01*
X223291485Y-195871485D01*
X223220057Y-196014342D01*
X223220057Y-196300057D01*
X223291485Y-196442914D01*
X223362914Y-196514342D01*
X223505771Y-196585771D01*
X223791485Y-196585771D01*
X223934342Y-196514342D01*
X224005771Y-196442914D01*
X224077200Y-196300057D01*
X224077200Y-196014342D01*
X224005771Y-195871485D01*
X223934342Y-195800057D01*
X223791485Y-195728628D01*
X224362914Y-194677200D02*
X225791485Y-194677200D01*
X224934342Y-195728628D02*
X224791485Y-195657200D01*
X224720057Y-195585771D01*
X224648628Y-195442914D01*
X224648628Y-195371485D01*
X224720057Y-195228628D01*
X224791485Y-195157200D01*
X224934342Y-195085771D01*
X225220057Y-195085771D01*
X225362914Y-195157200D01*
X225434342Y-195228628D01*
X225505771Y-195371485D01*
X225505771Y-195442914D01*
X225434342Y-195585771D01*
X225362914Y-195657200D01*
X225220057Y-195728628D01*
X224934342Y-195728628D01*
X224791485Y-195800057D01*
X224720057Y-195871485D01*
X224648628Y-196014342D01*
X224648628Y-196300057D01*
X224720057Y-196442914D01*
X224791485Y-196514342D01*
X224934342Y-196585771D01*
X225220057Y-196585771D01*
X225362914Y-196514342D01*
X225434342Y-196442914D01*
X225505771Y-196300057D01*
X225505771Y-196014342D01*
X225434342Y-195871485D01*
X225362914Y-195800057D01*
X225220057Y-195728628D01*
X225791485Y-194677200D02*
X227220057Y-194677200D01*
X226362914Y-195728628D02*
X226220057Y-195657200D01*
X226148628Y-195585771D01*
X226077199Y-195442914D01*
X226077199Y-195371485D01*
X226148628Y-195228628D01*
X226220057Y-195157200D01*
X226362914Y-195085771D01*
X226648628Y-195085771D01*
X226791485Y-195157200D01*
X226862914Y-195228628D01*
X226934342Y-195371485D01*
X226934342Y-195442914D01*
X226862914Y-195585771D01*
X226791485Y-195657200D01*
X226648628Y-195728628D01*
X226362914Y-195728628D01*
X226220057Y-195800057D01*
X226148628Y-195871485D01*
X226077199Y-196014342D01*
X226077199Y-196300057D01*
X226148628Y-196442914D01*
X226220057Y-196514342D01*
X226362914Y-196585771D01*
X226648628Y-196585771D01*
X226791485Y-196514342D01*
X226862914Y-196442914D01*
X226934342Y-196300057D01*
X226934342Y-196014342D01*
X226862914Y-195871485D01*
X226791485Y-195800057D01*
X226648628Y-195728628D01*
X228220057Y-195585771D02*
X228220057Y-196585771D01*
X227577199Y-195585771D02*
X227577199Y-196371485D01*
X227648628Y-196514342D01*
X227791485Y-196585771D01*
X228005771Y-196585771D01*
X228148628Y-196514342D01*
X228220057Y-196442914D01*
X228934342Y-196585771D02*
X228934342Y-195085771D01*
X228934342Y-195657200D02*
X229077199Y-195585771D01*
X229362914Y-195585771D01*
X229505771Y-195657200D01*
X229577199Y-195728628D01*
X229648628Y-195871485D01*
X229648628Y-196300057D01*
X229577199Y-196442914D01*
X229505771Y-196514342D01*
X229362914Y-196585771D01*
X229077199Y-196585771D01*
X228934342Y-196514342D01*
X230934342Y-195585771D02*
X230934342Y-196585771D01*
X230291485Y-195585771D02*
X230291485Y-196371485D01*
X230362914Y-196514342D01*
X230505771Y-196585771D01*
X230720057Y-196585771D01*
X230862914Y-196514342D01*
X230934342Y-196442914D01*
X231648628Y-195585771D02*
X231648628Y-196585771D01*
X231648628Y-195728628D02*
X231720057Y-195657200D01*
X231862914Y-195585771D01*
X232077199Y-195585771D01*
X232220057Y-195657200D01*
X232291485Y-195800057D01*
X232291485Y-196585771D01*
X232791485Y-195585771D02*
X233362914Y-195585771D01*
X233005771Y-195085771D02*
X233005771Y-196371485D01*
X233077199Y-196514342D01*
X233220057Y-196585771D01*
X233362914Y-196585771D01*
X234505771Y-195585771D02*
X234505771Y-196585771D01*
X233862914Y-195585771D02*
X233862914Y-196371485D01*
X233934342Y-196514342D01*
X234077200Y-196585771D01*
X234291485Y-196585771D01*
X234434342Y-196514342D01*
X234505771Y-196442914D01*
X235148628Y-195228628D02*
X235220057Y-195157200D01*
X235362914Y-195085771D01*
X235720057Y-195085771D01*
X235862914Y-195157200D01*
X235934342Y-195228628D01*
X236005771Y-195371485D01*
X236005771Y-195514342D01*
X235934342Y-195728628D01*
X235077200Y-196585771D01*
X236005771Y-196585771D01*
X236934342Y-195085771D02*
X237077199Y-195085771D01*
X237220057Y-195157200D01*
X237291485Y-195228628D01*
X237362914Y-195371485D01*
X237434342Y-195657200D01*
X237434342Y-196014342D01*
X237362914Y-196300057D01*
X237291485Y-196442914D01*
X237220057Y-196514342D01*
X237077199Y-196585771D01*
X236934342Y-196585771D01*
X236791485Y-196514342D01*
X236720057Y-196442914D01*
X236648628Y-196300057D01*
X236577199Y-196014342D01*
X236577199Y-195657200D01*
X236648628Y-195371485D01*
X236720057Y-195228628D01*
X236791485Y-195157200D01*
X236934342Y-195085771D01*
X238077199Y-196442914D02*
X238148628Y-196514342D01*
X238077199Y-196585771D01*
X238005771Y-196514342D01*
X238077199Y-196442914D01*
X238077199Y-196585771D01*
X239077199Y-195085771D02*
X239220057Y-195085771D01*
X239362914Y-195157200D01*
X239434342Y-195228628D01*
X239505771Y-195371485D01*
X239577199Y-195657200D01*
X239577199Y-196014342D01*
X239505771Y-196300057D01*
X239434342Y-196442914D01*
X239362914Y-196514342D01*
X239220057Y-196585771D01*
X239077199Y-196585771D01*
X238934342Y-196514342D01*
X238862914Y-196442914D01*
X238791485Y-196300057D01*
X238720057Y-196014342D01*
X238720057Y-195657200D01*
X238791485Y-195371485D01*
X238862914Y-195228628D01*
X238934342Y-195157200D01*
X239077199Y-195085771D01*
X240862914Y-195585771D02*
X240862914Y-196585771D01*
X240505771Y-195014342D02*
X240148628Y-196085771D01*
X241077199Y-196085771D01*
X241648628Y-196442914D02*
X241720057Y-196514342D01*
X241648628Y-196585771D01*
X241577199Y-196514342D01*
X241648628Y-196442914D01*
X241648628Y-196585771D01*
X243148628Y-196585771D02*
X242291485Y-196585771D01*
X242720057Y-196585771D02*
X242720057Y-195085771D01*
X242577199Y-195300057D01*
X242434342Y-195442914D01*
X242291485Y-195514342D01*
D10*
D11*
X177002200Y-191507200D02*
X285002200Y-191507200D01*
D10*
D12*
X264411485Y-193785771D02*
X263911485Y-193071485D01*
X263554342Y-193785771D02*
X263554342Y-192285771D01*
X264125771Y-192285771D01*
X264268628Y-192357200D01*
X264340057Y-192428628D01*
X264411485Y-192571485D01*
X264411485Y-192785771D01*
X264340057Y-192928628D01*
X264268628Y-193000057D01*
X264125771Y-193071485D01*
X263554342Y-193071485D01*
X265625771Y-193714342D02*
X265482914Y-193785771D01*
X265197200Y-193785771D01*
X265054342Y-193714342D01*
X264982914Y-193571485D01*
X264982914Y-193000057D01*
X265054342Y-192857200D01*
X265197200Y-192785771D01*
X265482914Y-192785771D01*
X265625771Y-192857200D01*
X265697200Y-193000057D01*
X265697200Y-193142914D01*
X264982914Y-193285771D01*
X266197200Y-192785771D02*
X266554342Y-193785771D01*
X266911485Y-192785771D01*
X267482914Y-193642914D02*
X267554342Y-193714342D01*
X267482914Y-193785771D01*
X267411485Y-193714342D01*
X267482914Y-193642914D01*
X267482914Y-193785771D01*
X267482914Y-192857200D02*
X267554342Y-192928628D01*
X267482914Y-193000057D01*
X267411485Y-192928628D01*
X267482914Y-192857200D01*
X267482914Y-193000057D01*
X270125771Y-193785771D02*
X269268628Y-193785771D01*
X269697200Y-193785771D02*
X269697200Y-192285771D01*
X269554342Y-192500057D01*
X269411485Y-192642914D01*
X269268628Y-192714342D01*
X270768628Y-193642914D02*
X270840057Y-193714342D01*
X270768628Y-193785771D01*
X270697200Y-193714342D01*
X270768628Y-193642914D01*
X270768628Y-193785771D01*
X271768628Y-192285771D02*
X271911485Y-192285771D01*
X272054342Y-192357200D01*
X272125771Y-192428628D01*
X272197200Y-192571485D01*
X272268628Y-192857200D01*
X272268628Y-193214342D01*
X272197200Y-193500057D01*
X272125771Y-193642914D01*
X272054342Y-193714342D01*
X271911485Y-193785771D01*
X271768628Y-193785771D01*
X271625771Y-193714342D01*
X271554342Y-193642914D01*
X271482914Y-193500057D01*
X271411485Y-193214342D01*
X271411485Y-192857200D01*
X271482914Y-192571485D01*
X271554342Y-192428628D01*
X271625771Y-192357200D01*
X271768628Y-192285771D01*
X272911485Y-193642914D02*
X272982914Y-193714342D01*
X272911485Y-193785771D01*
X272840057Y-193714342D01*
X272911485Y-193642914D01*
X272911485Y-193785771D01*
X273911485Y-192285771D02*
X274054342Y-192285771D01*
X274197200Y-192357200D01*
X274268628Y-192428628D01*
X274340057Y-192571485D01*
X274411485Y-192857200D01*
X274411485Y-193214342D01*
X274340057Y-193500057D01*
X274268628Y-193642914D01*
X274197200Y-193714342D01*
X274054342Y-193785771D01*
X273911485Y-193785771D01*
X273768628Y-193714342D01*
X273697200Y-193642914D01*
X273625771Y-193500057D01*
X273554342Y-193214342D01*
X273554342Y-192857200D01*
X273625771Y-192571485D01*
X273697200Y-192428628D01*
X273768628Y-192357200D01*
X273911485Y-192285771D01*
D10*
D11*
X178362914Y-193714342D02*
X178577200Y-193785771D01*
X178934342Y-193785771D01*
X179077200Y-193714342D01*
X179148628Y-193642914D01*
X179220057Y-193500057D01*
X179220057Y-193357200D01*
X179148628Y-193214342D01*
X179077200Y-193142914D01*
X178934342Y-193071485D01*
X178648628Y-193000057D01*
X178505771Y-192928628D01*
X178434342Y-192857200D01*
X178362914Y-192714342D01*
X178362914Y-192571485D01*
X178434342Y-192428628D01*
X178505771Y-192357200D01*
X178648628Y-192285771D01*
X179005771Y-192285771D01*
X179220057Y-192357200D01*
X179862914Y-193785771D02*
X179862914Y-192785771D01*
X179862914Y-192285771D02*
X179791485Y-192357200D01*
X179862914Y-192428628D01*
X179934342Y-192357200D01*
X179862914Y-192285771D01*
X179862914Y-192428628D01*
X180434342Y-192785771D02*
X181220057Y-192785771D01*
X180434342Y-193785771D01*
X181220057Y-193785771D01*
X182362914Y-193714342D02*
X182220057Y-193785771D01*
X181934342Y-193785771D01*
X181791485Y-193714342D01*
X181720057Y-193571485D01*
X181720057Y-193000057D01*
X181791485Y-192857200D01*
X181934342Y-192785771D01*
X182220057Y-192785771D01*
X182362914Y-192857200D01*
X182434342Y-193000057D01*
X182434342Y-193142914D01*
X181720057Y-193285771D01*
X183077200Y-193642914D02*
X183148628Y-193714342D01*
X183077200Y-193785771D01*
X183005771Y-193714342D01*
X183077200Y-193642914D01*
X183077200Y-193785771D01*
X183077200Y-192857200D02*
X183148628Y-192928628D01*
X183077200Y-193000057D01*
X183005771Y-192928628D01*
X183077200Y-192857200D01*
X183077200Y-193000057D01*
X184862914Y-193357200D02*
X185577200Y-193357200D01*
X184720057Y-193785771D02*
X185220057Y-192285771D01*
X185720057Y-193785771D01*
X186862914Y-192785771D02*
X186862914Y-193785771D01*
X186505771Y-192214342D02*
X186148628Y-193285771D01*
X187077200Y-193285771D01*
D10*
D11*
X263434342Y-196585771D02*
X263434342Y-195085771D01*
X264791485Y-196585771D02*
X264791485Y-195085771D01*
X264791485Y-196514342D02*
X264648628Y-196585771D01*
X264362914Y-196585771D01*
X264220057Y-196514342D01*
X264148628Y-196442914D01*
X264077200Y-196300057D01*
X264077200Y-195871485D01*
X264148628Y-195728628D01*
X264220057Y-195657200D01*
X264362914Y-195585771D01*
X264648628Y-195585771D01*
X264791485Y-195657200D01*
X265505771Y-196442914D02*
X265577200Y-196514342D01*
X265505771Y-196585771D01*
X265434342Y-196514342D01*
X265505771Y-196442914D01*
X265505771Y-196585771D01*
X265505771Y-195657200D02*
X265577200Y-195728628D01*
X265505771Y-195800057D01*
X265434342Y-195728628D01*
X265505771Y-195657200D01*
X265505771Y-195800057D01*
X268148628Y-196585771D02*
X267291485Y-196585771D01*
X267720057Y-196585771D02*
X267720057Y-195085771D01*
X267577200Y-195300057D01*
X267434342Y-195442914D01*
X267291485Y-195514342D01*
X269862914Y-195014342D02*
X268577200Y-196942914D01*
X271148628Y-196585771D02*
X270291485Y-196585771D01*
X270720057Y-196585771D02*
X270720057Y-195085771D01*
X270577200Y-195300057D01*
X270434342Y-195442914D01*
X270291485Y-195514342D01*
D10*
D11*
X177002200Y-187507200D02*
X285002200Y-187507200D01*
D10*
D13*
X178714580Y-188211961D02*
X179857438Y-188211961D01*
X179036009Y-190211961D02*
X179286009Y-188211961D01*
X180274104Y-190211961D02*
X180440771Y-188878628D01*
X180524104Y-188211961D02*
X180416961Y-188307200D01*
X180500295Y-188402438D01*
X180607438Y-188307200D01*
X180524104Y-188211961D01*
X180500295Y-188402438D01*
X181107438Y-188878628D02*
X181869342Y-188878628D01*
X181476485Y-188211961D02*
X181262200Y-189926247D01*
X181333628Y-190116723D01*
X181512200Y-190211961D01*
X181702676Y-190211961D01*
X182655057Y-190211961D02*
X182476485Y-190116723D01*
X182405057Y-189926247D01*
X182619342Y-188211961D01*
X184190771Y-190116723D02*
X183988390Y-190211961D01*
X183607438Y-190211961D01*
X183428866Y-190116723D01*
X183357438Y-189926247D01*
X183452676Y-189164342D01*
X183571723Y-188973866D01*
X183774104Y-188878628D01*
X184155057Y-188878628D01*
X184333628Y-188973866D01*
X184405057Y-189164342D01*
X184381247Y-189354819D01*
X183405057Y-189545295D01*
X185155057Y-190021485D02*
X185238390Y-190116723D01*
X185131247Y-190211961D01*
X185047914Y-190116723D01*
X185155057Y-190021485D01*
X185131247Y-190211961D01*
X185286009Y-188973866D02*
X185369342Y-189069104D01*
X185262200Y-189164342D01*
X185178866Y-189069104D01*
X185286009Y-188973866D01*
X185262200Y-189164342D01*
X188559819Y-190211961D02*
X187607438Y-190211961D01*
X187857438Y-188211961D01*
X189857438Y-188211961D02*
X190238390Y-188211961D01*
X190416961Y-188307200D01*
X190583628Y-188497676D01*
X190631247Y-188878628D01*
X190547914Y-189545295D01*
X190405057Y-189926247D01*
X190190771Y-190116723D01*
X189988390Y-190211961D01*
X189607438Y-190211961D01*
X189428866Y-190116723D01*
X189262200Y-189926247D01*
X189214580Y-189545295D01*
X189297914Y-188878628D01*
X189440771Y-188497676D01*
X189655057Y-188307200D01*
X189857438Y-188211961D01*
X192607438Y-188307200D02*
X192428866Y-188211961D01*
X192143152Y-188211961D01*
X191845533Y-188307200D01*
X191631247Y-188497676D01*
X191512200Y-188688152D01*
X191369342Y-189069104D01*
X191333628Y-189354819D01*
X191381247Y-189735771D01*
X191452676Y-189926247D01*
X191619342Y-190116723D01*
X191893152Y-190211961D01*
X192083628Y-190211961D01*
X192381247Y-190116723D01*
X192488390Y-190021485D01*
X192571723Y-189354819D01*
X192190771Y-189354819D01*
X193321723Y-190211961D02*
X193571723Y-188211961D01*
X195440771Y-190021485D02*
X195333628Y-190116723D01*
X195036009Y-190211961D01*
X194845533Y-190211961D01*
X194571723Y-190116723D01*
X194405057Y-189926247D01*
X194333628Y-189735771D01*
X194286009Y-189354819D01*
X194321723Y-189069104D01*
X194464580Y-188688152D01*
X194583628Y-188497676D01*
X194797914Y-188307200D01*
X195095533Y-188211961D01*
X195286009Y-188211961D01*
X195559819Y-188307200D01*
X195643152Y-188402438D01*
X198595533Y-189164342D02*
X198869342Y-189259580D01*
X198952676Y-189354819D01*
X199024104Y-189545295D01*
X198988390Y-189831009D01*
X198869342Y-190021485D01*
X198762200Y-190116723D01*
X198559819Y-190211961D01*
X197797914Y-190211961D01*
X198047914Y-188211961D01*
X198714580Y-188211961D01*
X198893152Y-188307200D01*
X198976485Y-188402438D01*
X199047914Y-188592914D01*
X199024104Y-188783390D01*
X198905057Y-188973866D01*
X198797914Y-189069104D01*
X198595533Y-189164342D01*
X197928866Y-189164342D01*
X200428866Y-188211961D02*
X200809819Y-188211961D01*
X200988390Y-188307200D01*
X201155057Y-188497676D01*
X201202676Y-188878628D01*
X201119342Y-189545295D01*
X200976485Y-189926247D01*
X200762200Y-190116723D01*
X200559819Y-190211961D01*
X200178866Y-190211961D01*
X200000295Y-190116723D01*
X199833628Y-189926247D01*
X199786009Y-189545295D01*
X199869342Y-188878628D01*
X200012200Y-188497676D01*
X200226485Y-188307200D01*
X200428866Y-188211961D01*
X201869342Y-189640533D02*
X202821723Y-189640533D01*
X201607438Y-190211961D02*
X202524104Y-188211961D01*
X202940771Y-190211961D01*
X204750295Y-190211961D02*
X204202676Y-189259580D01*
X203607438Y-190211961D02*
X203857438Y-188211961D01*
X204619342Y-188211961D01*
X204797914Y-188307200D01*
X204881247Y-188402438D01*
X204952676Y-188592914D01*
X204916961Y-188878628D01*
X204797914Y-189069104D01*
X204690771Y-189164342D01*
X204488390Y-189259580D01*
X203726485Y-189259580D01*
X205607438Y-190211961D02*
X205857438Y-188211961D01*
X206333628Y-188211961D01*
X206607438Y-188307200D01*
X206774104Y-188497676D01*
X206845533Y-188688152D01*
X206893152Y-189069104D01*
X206857438Y-189354819D01*
X206714580Y-189735771D01*
X206595533Y-189926247D01*
X206381247Y-190116723D01*
X206083628Y-190211961D01*
X205607438Y-190211961D01*
X210178866Y-190211961D02*
X209036009Y-190211961D01*
X209607438Y-190211961D02*
X209857438Y-188211961D01*
X209631247Y-188497676D01*
X209416961Y-188688152D01*
X209214580Y-188783390D01*
X211012200Y-189640533D02*
X211964580Y-189640533D01*
X210750295Y-190211961D02*
X211666961Y-188211961D01*
X212083628Y-190211961D01*
X214750295Y-190973866D02*
X214666961Y-190878628D01*
X214512200Y-190592914D01*
X214440771Y-190402438D01*
X214381247Y-190116723D01*
X214345533Y-189640533D01*
X214393152Y-189259580D01*
X214547914Y-188783390D01*
X214678866Y-188497676D01*
X214797914Y-188307200D01*
X215024104Y-188021485D01*
X215131247Y-187926247D01*
X216559819Y-190211961D02*
X215607438Y-190211961D01*
X215857438Y-188211961D01*
X218024104Y-189164342D02*
X218297914Y-189259580D01*
X218381247Y-189354819D01*
X218452676Y-189545295D01*
X218416961Y-189831009D01*
X218297914Y-190021485D01*
X218190771Y-190116723D01*
X217988390Y-190211961D01*
X217226485Y-190211961D01*
X217476485Y-188211961D01*
X218143152Y-188211961D01*
X218321723Y-188307200D01*
X218405057Y-188402438D01*
X218476485Y-188592914D01*
X218452676Y-188783390D01*
X218333628Y-188973866D01*
X218226485Y-189069104D01*
X218024104Y-189164342D01*
X217357438Y-189164342D01*
X220274104Y-190211961D02*
X219131247Y-190211961D01*
X219702676Y-190211961D02*
X219952676Y-188211961D01*
X219726485Y-188497676D01*
X219512200Y-188688152D01*
X219309819Y-188783390D01*
X221107438Y-189640533D02*
X222059819Y-189640533D01*
X220845533Y-190211961D02*
X221762200Y-188211961D01*
X222178866Y-190211961D01*
X222345533Y-190402438D02*
X223869342Y-190402438D01*
X224369342Y-190211961D02*
X224619342Y-188211961D01*
X225095533Y-188211961D01*
X225369342Y-188307200D01*
X225536009Y-188497676D01*
X225607438Y-188688152D01*
X225655057Y-189069104D01*
X225619342Y-189354819D01*
X225476485Y-189735771D01*
X225357438Y-189926247D01*
X225143152Y-190116723D01*
X224845533Y-190211961D01*
X224369342Y-190211961D01*
X227536009Y-190021485D02*
X227428866Y-190116723D01*
X227131247Y-190211961D01*
X226940771Y-190211961D01*
X226666961Y-190116723D01*
X226500295Y-189926247D01*
X226428866Y-189735771D01*
X226381247Y-189354819D01*
X226416961Y-189069104D01*
X226559819Y-188688152D01*
X226678866Y-188497676D01*
X226893152Y-188307200D01*
X227190771Y-188211961D01*
X227381247Y-188211961D01*
X227655057Y-188307200D01*
X227738390Y-188402438D01*
X228345533Y-189640533D02*
X229297914Y-189640533D01*
X228083628Y-190211961D02*
X229000295Y-188211961D01*
X229416961Y-190211961D01*
X230143152Y-188211961D02*
X231476485Y-188211961D01*
X230369342Y-190211961D01*
X231988390Y-190211961D02*
X232238390Y-188211961D01*
X232726485Y-189640533D01*
X233571723Y-188211961D01*
X233321723Y-190211961D01*
X235297914Y-188878628D02*
X235131247Y-190211961D01*
X234916961Y-188116723D02*
X234262200Y-189545295D01*
X235500295Y-189545295D01*
X235678866Y-190402438D02*
X237202676Y-190402438D01*
X238845533Y-190211961D02*
X238297914Y-189259580D01*
X237702676Y-190211961D02*
X237952676Y-188211961D01*
X238714580Y-188211961D01*
X238893152Y-188307200D01*
X238976485Y-188402438D01*
X239047914Y-188592914D01*
X239012200Y-188878628D01*
X238893152Y-189069104D01*
X238786009Y-189164342D01*
X238583628Y-189259580D01*
X237821723Y-189259580D01*
X240905057Y-188211961D02*
X239952676Y-188211961D01*
X239738390Y-189164342D01*
X239845533Y-189069104D01*
X240047914Y-188973866D01*
X240524104Y-188973866D01*
X240702676Y-189069104D01*
X240786009Y-189164342D01*
X240857438Y-189354819D01*
X240797914Y-189831009D01*
X240678866Y-190021485D01*
X240571723Y-190116723D01*
X240369342Y-190211961D01*
X239893152Y-190211961D01*
X239714580Y-190116723D01*
X239631247Y-190021485D01*
X242655057Y-190211961D02*
X241512200Y-190211961D01*
X242083628Y-190211961D02*
X242333628Y-188211961D01*
X242107438Y-188497676D01*
X241893152Y-188688152D01*
X241690771Y-188783390D01*
X243643152Y-188402438D02*
X243750295Y-188307200D01*
X243952676Y-188211961D01*
X244428866Y-188211961D01*
X244607438Y-188307200D01*
X244690771Y-188402438D01*
X244762200Y-188592914D01*
X244738390Y-188783390D01*
X244607438Y-189069104D01*
X243321723Y-190211961D01*
X244559819Y-190211961D01*
X245416961Y-190211961D02*
X245666961Y-188211961D01*
X246155057Y-189640533D01*
X247000295Y-188211961D01*
X246750295Y-190211961D01*
X248500295Y-189164342D02*
X248774104Y-189259580D01*
X248857438Y-189354819D01*
X248928866Y-189545295D01*
X248893152Y-189831009D01*
X248774104Y-190021485D01*
X248666961Y-190116723D01*
X248464580Y-190211961D01*
X247702676Y-190211961D01*
X247952676Y-188211961D01*
X248619342Y-188211961D01*
X248797914Y-188307200D01*
X248881247Y-188402438D01*
X248952676Y-188592914D01*
X248928866Y-188783390D01*
X248809819Y-188973866D01*
X248702676Y-189069104D01*
X248500295Y-189164342D01*
X247833628Y-189164342D01*
X249202676Y-190402438D02*
X250726485Y-190402438D01*
X252024104Y-189164342D02*
X251357438Y-189164342D01*
X251226485Y-190211961D02*
X251476485Y-188211961D01*
X252428866Y-188211961D01*
X253964580Y-188878628D02*
X253797914Y-190211961D01*
X253583628Y-188116723D02*
X252928866Y-189545295D01*
X254166961Y-189545295D01*
X256131247Y-188307200D02*
X255952676Y-188211961D01*
X255666961Y-188211961D01*
X255369342Y-188307200D01*
X255155057Y-188497676D01*
X255036009Y-188688152D01*
X254893152Y-189069104D01*
X254857438Y-189354819D01*
X254905057Y-189735771D01*
X254976485Y-189926247D01*
X255143152Y-190116723D01*
X255416961Y-190211961D01*
X255607438Y-190211961D01*
X255905057Y-190116723D01*
X256012200Y-190021485D01*
X256095533Y-189354819D01*
X255714580Y-189354819D01*
X257643152Y-189164342D02*
X257916961Y-189259580D01*
X258000295Y-189354819D01*
X258071723Y-189545295D01*
X258036009Y-189831009D01*
X257916961Y-190021485D01*
X257809819Y-190116723D01*
X257607438Y-190211961D01*
X256845533Y-190211961D01*
X257095533Y-188211961D01*
X257762200Y-188211961D01*
X257940771Y-188307200D01*
X258024104Y-188402438D01*
X258095533Y-188592914D01*
X258071723Y-188783390D01*
X257952676Y-188973866D01*
X257845533Y-189069104D01*
X257643152Y-189164342D01*
X256976485Y-189164342D01*
X258559819Y-190973866D02*
X258666961Y-190878628D01*
X258893152Y-190592914D01*
X259012200Y-190402438D01*
X259143152Y-190116723D01*
X259297914Y-189640533D01*
X259345533Y-189259580D01*
X259309819Y-188783390D01*
X259250295Y-188497676D01*
X259178866Y-188307200D01*
X259024104Y-188021485D01*
X258940771Y-187926247D01*
D10*
D11*
X178934342Y-185600057D02*
X178434342Y-185600057D01*
X178434342Y-186385771D02*
X178434342Y-184885771D01*
X179148628Y-184885771D01*
X179720057Y-186385771D02*
X179720057Y-185385771D01*
X179720057Y-184885771D02*
X179648628Y-184957200D01*
X179720057Y-185028628D01*
X179791485Y-184957200D01*
X179720057Y-184885771D01*
X179720057Y-185028628D01*
X180648628Y-186385771D02*
X180505771Y-186314342D01*
X180434342Y-186171485D01*
X180434342Y-184885771D01*
X181791485Y-186314342D02*
X181648628Y-186385771D01*
X181362914Y-186385771D01*
X181220057Y-186314342D01*
X181148628Y-186171485D01*
X181148628Y-185600057D01*
X181220057Y-185457200D01*
X181362914Y-185385771D01*
X181648628Y-185385771D01*
X181791485Y-185457200D01*
X181862914Y-185600057D01*
X181862914Y-185742914D01*
X181148628Y-185885771D01*
X182505771Y-186242914D02*
X182577200Y-186314342D01*
X182505771Y-186385771D01*
X182434342Y-186314342D01*
X182505771Y-186242914D01*
X182505771Y-186385771D01*
X182505771Y-185457200D02*
X182577200Y-185528628D01*
X182505771Y-185600057D01*
X182434342Y-185528628D01*
X182505771Y-185457200D01*
X182505771Y-185600057D01*
X185077200Y-186385771D02*
X184362914Y-186385771D01*
X184362914Y-184885771D01*
X186077200Y-185600057D02*
X186291485Y-185671485D01*
X186362914Y-185742914D01*
X186434342Y-185885771D01*
X186434342Y-186100057D01*
X186362914Y-186242914D01*
X186291485Y-186314342D01*
X186148628Y-186385771D01*
X185577200Y-186385771D01*
X185577200Y-184885771D01*
X186077200Y-184885771D01*
X186220057Y-184957200D01*
X186291485Y-185028628D01*
X186362914Y-185171485D01*
X186362914Y-185314342D01*
X186291485Y-185457200D01*
X186220057Y-185528628D01*
X186077200Y-185600057D01*
X185577200Y-185600057D01*
X187862914Y-186385771D02*
X187005771Y-186385771D01*
X187434342Y-186385771D02*
X187434342Y-184885771D01*
X187291485Y-185100057D01*
X187148628Y-185242914D01*
X187005771Y-185314342D01*
X188434342Y-185957200D02*
X189148628Y-185957200D01*
X188291485Y-186385771D02*
X188791485Y-184885771D01*
X189291485Y-186385771D01*
X189434342Y-186528628D02*
X190577200Y-186528628D01*
X190934342Y-186385771D02*
X190934342Y-184885771D01*
X191291485Y-184885771D01*
X191505771Y-184957200D01*
X191648628Y-185100057D01*
X191720057Y-185242914D01*
X191791485Y-185528628D01*
X191791485Y-185742914D01*
X191720057Y-186028628D01*
X191648628Y-186171485D01*
X191505771Y-186314342D01*
X191291485Y-186385771D01*
X190934342Y-186385771D01*
X193291485Y-186242914D02*
X193220057Y-186314342D01*
X193005771Y-186385771D01*
X192862914Y-186385771D01*
X192648628Y-186314342D01*
X192505771Y-186171485D01*
X192434342Y-186028628D01*
X192362914Y-185742914D01*
X192362914Y-185528628D01*
X192434342Y-185242914D01*
X192505771Y-185100057D01*
X192648628Y-184957200D01*
X192862914Y-184885771D01*
X193005771Y-184885771D01*
X193220057Y-184957200D01*
X193291485Y-185028628D01*
X193862914Y-185957200D02*
X194577200Y-185957200D01*
X193720057Y-186385771D02*
X194220057Y-184885771D01*
X194720057Y-186385771D01*
X195077200Y-184885771D02*
X196077200Y-184885771D01*
X195434342Y-186385771D01*
X196648628Y-186385771D02*
X196648628Y-184885771D01*
X197148628Y-185957200D01*
X197648628Y-184885771D01*
X197648628Y-186385771D01*
X199005771Y-185385771D02*
X199005771Y-186385771D01*
X198648628Y-184814342D02*
X198291485Y-185885771D01*
X199220057Y-185885771D01*
X199434342Y-186528628D02*
X200577200Y-186528628D01*
X201791485Y-186385771D02*
X201291485Y-185671485D01*
X200934342Y-186385771D02*
X200934342Y-184885771D01*
X201505771Y-184885771D01*
X201648628Y-184957200D01*
X201720057Y-185028628D01*
X201791485Y-185171485D01*
X201791485Y-185385771D01*
X201720057Y-185528628D01*
X201648628Y-185600057D01*
X201505771Y-185671485D01*
X200934342Y-185671485D01*
X203148628Y-184885771D02*
X202434342Y-184885771D01*
X202362914Y-185600057D01*
X202434342Y-185528628D01*
X202577200Y-185457200D01*
X202934342Y-185457200D01*
X203077200Y-185528628D01*
X203148628Y-185600057D01*
X203220057Y-185742914D01*
X203220057Y-186100057D01*
X203148628Y-186242914D01*
X203077200Y-186314342D01*
X202934342Y-186385771D01*
X202577200Y-186385771D01*
X202434342Y-186314342D01*
X202362914Y-186242914D01*
X204648628Y-186385771D02*
X203791485Y-186385771D01*
X204220057Y-186385771D02*
X204220057Y-184885771D01*
X204077200Y-185100057D01*
X203934342Y-185242914D01*
X203791485Y-185314342D01*
X205220057Y-185028628D02*
X205291485Y-184957200D01*
X205434342Y-184885771D01*
X205791485Y-184885771D01*
X205934342Y-184957200D01*
X206005771Y-185028628D01*
X206077200Y-185171485D01*
X206077200Y-185314342D01*
X206005771Y-185528628D01*
X205148628Y-186385771D01*
X206077200Y-186385771D01*
X206720057Y-186385771D02*
X206720057Y-184885771D01*
X207220057Y-185957200D01*
X207720057Y-184885771D01*
X207720057Y-186385771D01*
X208934342Y-185600057D02*
X209148628Y-185671485D01*
X209220057Y-185742914D01*
X209291485Y-185885771D01*
X209291485Y-186100057D01*
X209220057Y-186242914D01*
X209148628Y-186314342D01*
X209005771Y-186385771D01*
X208434342Y-186385771D01*
X208434342Y-184885771D01*
X208934342Y-184885771D01*
X209077200Y-184957200D01*
X209148628Y-185028628D01*
X209220057Y-185171485D01*
X209220057Y-185314342D01*
X209148628Y-185457200D01*
X209077200Y-185528628D01*
X208934342Y-185600057D01*
X208434342Y-185600057D01*
X209577200Y-186528628D02*
X210720057Y-186528628D01*
X211577200Y-185600057D02*
X211077200Y-185600057D01*
X211077200Y-186385771D02*
X211077200Y-184885771D01*
X211791485Y-184885771D01*
X213005771Y-185385771D02*
X213005771Y-186385771D01*
X212648628Y-184814342D02*
X212291485Y-185885771D01*
X213220057Y-185885771D01*
X214577200Y-184957200D02*
X214434342Y-184885771D01*
X214220057Y-184885771D01*
X214005771Y-184957200D01*
X213862914Y-185100057D01*
X213791485Y-185242914D01*
X213720057Y-185528628D01*
X213720057Y-185742914D01*
X213791485Y-186028628D01*
X213862914Y-186171485D01*
X214005771Y-186314342D01*
X214220057Y-186385771D01*
X214362914Y-186385771D01*
X214577200Y-186314342D01*
X214648628Y-186242914D01*
X214648628Y-185742914D01*
X214362914Y-185742914D01*
X215791485Y-185600057D02*
X216005771Y-185671485D01*
X216077200Y-185742914D01*
X216148628Y-185885771D01*
X216148628Y-186100057D01*
X216077200Y-186242914D01*
X216005771Y-186314342D01*
X215862914Y-186385771D01*
X215291485Y-186385771D01*
X215291485Y-184885771D01*
X215791485Y-184885771D01*
X215934342Y-184957200D01*
X216005771Y-185028628D01*
X216077200Y-185171485D01*
X216077200Y-185314342D01*
X216005771Y-185457200D01*
X215934342Y-185528628D01*
X215791485Y-185600057D01*
X215291485Y-185600057D01*
X216791485Y-186242914D02*
X216862914Y-186314342D01*
X216791485Y-186385771D01*
X216720057Y-186314342D01*
X216791485Y-186242914D01*
X216791485Y-186385771D01*
X217505771Y-186385771D02*
X217505771Y-184885771D01*
X217648628Y-185814342D02*
X218077200Y-186385771D01*
X218077200Y-185385771D02*
X217505771Y-185957200D01*
X218720057Y-186385771D02*
X218720057Y-185385771D01*
X218720057Y-184885771D02*
X218648628Y-184957200D01*
X218720057Y-185028628D01*
X218791485Y-184957200D01*
X218720057Y-184885771D01*
X218720057Y-185028628D01*
X220077200Y-186314342D02*
X219934342Y-186385771D01*
X219648628Y-186385771D01*
X219505771Y-186314342D01*
X219434342Y-186242914D01*
X219362914Y-186100057D01*
X219362914Y-185671485D01*
X219434342Y-185528628D01*
X219505771Y-185457200D01*
X219648628Y-185385771D01*
X219934342Y-185385771D01*
X220077200Y-185457200D01*
X221362914Y-186385771D02*
X221362914Y-185600057D01*
X221291485Y-185457200D01*
X221148628Y-185385771D01*
X220862914Y-185385771D01*
X220720057Y-185457200D01*
X221362914Y-186314342D02*
X221220057Y-186385771D01*
X220862914Y-186385771D01*
X220720057Y-186314342D01*
X220648628Y-186171485D01*
X220648628Y-186028628D01*
X220720057Y-185885771D01*
X220862914Y-185814342D01*
X221220057Y-185814342D01*
X221362914Y-185742914D01*
X222720057Y-186385771D02*
X222720057Y-184885771D01*
X222720057Y-186314342D02*
X222577200Y-186385771D01*
X222291485Y-186385771D01*
X222148628Y-186314342D01*
X222077200Y-186242914D01*
X222005771Y-186100057D01*
X222005771Y-185671485D01*
X222077200Y-185528628D01*
X222148628Y-185457200D01*
X222291485Y-185385771D01*
X222577200Y-185385771D01*
X222720057Y-185457200D01*
X223077200Y-186528628D02*
X224220057Y-186528628D01*
X224577200Y-185385771D02*
X224577200Y-186885771D01*
X224577200Y-185457200D02*
X224720057Y-185385771D01*
X225005771Y-185385771D01*
X225148628Y-185457200D01*
X225220057Y-185528628D01*
X225291485Y-185671485D01*
X225291485Y-186100057D01*
X225220057Y-186242914D01*
X225148628Y-186314342D01*
X225005771Y-186385771D01*
X224720057Y-186385771D01*
X224577200Y-186314342D01*
X226577200Y-186314342D02*
X226434342Y-186385771D01*
X226148628Y-186385771D01*
X226005771Y-186314342D01*
X225934342Y-186242914D01*
X225862914Y-186100057D01*
X225862914Y-185671485D01*
X225934342Y-185528628D01*
X226005771Y-185457200D01*
X226148628Y-185385771D01*
X226434342Y-185385771D01*
X226577200Y-185457200D01*
X227220057Y-186385771D02*
X227220057Y-184885771D01*
X227220057Y-185457200D02*
X227362914Y-185385771D01*
X227648628Y-185385771D01*
X227791485Y-185457200D01*
X227862914Y-185528628D01*
X227934342Y-185671485D01*
X227934342Y-186100057D01*
X227862914Y-186242914D01*
X227791485Y-186314342D01*
X227648628Y-186385771D01*
X227362914Y-186385771D01*
X227220057Y-186314342D01*
D10*
D11*
X177002200Y-181507200D02*
X285002200Y-181507200D01*
D10*
D11*
X178362914Y-183614342D02*
X178577200Y-183685771D01*
X178934342Y-183685771D01*
X179077200Y-183614342D01*
X179148628Y-183542914D01*
X179220057Y-183400057D01*
X179220057Y-183257200D01*
X179148628Y-183114342D01*
X179077200Y-183042914D01*
X178934342Y-182971485D01*
X178648628Y-182900057D01*
X178505771Y-182828628D01*
X178434342Y-182757200D01*
X178362914Y-182614342D01*
X178362914Y-182471485D01*
X178434342Y-182328628D01*
X178505771Y-182257200D01*
X178648628Y-182185771D01*
X179005771Y-182185771D01*
X179220057Y-182257200D01*
X179862914Y-183685771D02*
X179862914Y-182185771D01*
X180505771Y-183685771D02*
X180505771Y-182900057D01*
X180434342Y-182757200D01*
X180291485Y-182685771D01*
X180077200Y-182685771D01*
X179934342Y-182757200D01*
X179862914Y-182828628D01*
X181791485Y-183614342D02*
X181648628Y-183685771D01*
X181362914Y-183685771D01*
X181220057Y-183614342D01*
X181148628Y-183471485D01*
X181148628Y-182900057D01*
X181220057Y-182757200D01*
X181362914Y-182685771D01*
X181648628Y-182685771D01*
X181791485Y-182757200D01*
X181862914Y-182900057D01*
X181862914Y-183042914D01*
X181148628Y-183185771D01*
X183077200Y-183614342D02*
X182934342Y-183685771D01*
X182648628Y-183685771D01*
X182505771Y-183614342D01*
X182434342Y-183471485D01*
X182434342Y-182900057D01*
X182505771Y-182757200D01*
X182648628Y-182685771D01*
X182934342Y-182685771D01*
X183077200Y-182757200D01*
X183148628Y-182900057D01*
X183148628Y-183042914D01*
X182434342Y-183185771D01*
X183577200Y-182685771D02*
X184148628Y-182685771D01*
X183791485Y-182185771D02*
X183791485Y-183471485D01*
X183862914Y-183614342D01*
X184005771Y-183685771D01*
X184148628Y-183685771D01*
X184648628Y-183542914D02*
X184720057Y-183614342D01*
X184648628Y-183685771D01*
X184577200Y-183614342D01*
X184648628Y-183542914D01*
X184648628Y-183685771D01*
X184648628Y-182757200D02*
X184720057Y-182828628D01*
X184648628Y-182900057D01*
X184577200Y-182828628D01*
X184648628Y-182757200D01*
X184648628Y-182900057D01*
D10*
D12*
X179268628Y-180685771D02*
X178554342Y-180685771D01*
X178554342Y-179185771D01*
X179982914Y-180685771D02*
X179840057Y-180614342D01*
X179768628Y-180542914D01*
X179697200Y-180400057D01*
X179697200Y-179971485D01*
X179768628Y-179828628D01*
X179840057Y-179757200D01*
X179982914Y-179685771D01*
X180197200Y-179685771D01*
X180340057Y-179757200D01*
X180411485Y-179828628D01*
X180482914Y-179971485D01*
X180482914Y-180400057D01*
X180411485Y-180542914D01*
X180340057Y-180614342D01*
X180197200Y-180685771D01*
X179982914Y-180685771D01*
X181768628Y-179685771D02*
X181768628Y-180900057D01*
X181697200Y-181042914D01*
X181625771Y-181114342D01*
X181482914Y-181185771D01*
X181268628Y-181185771D01*
X181125771Y-181114342D01*
X181768628Y-180614342D02*
X181625771Y-180685771D01*
X181340057Y-180685771D01*
X181197200Y-180614342D01*
X181125771Y-180542914D01*
X181054342Y-180400057D01*
X181054342Y-179971485D01*
X181125771Y-179828628D01*
X181197200Y-179757200D01*
X181340057Y-179685771D01*
X181625771Y-179685771D01*
X181768628Y-179757200D01*
X182482914Y-180685771D02*
X182482914Y-179685771D01*
X182482914Y-179185771D02*
X182411485Y-179257200D01*
X182482914Y-179328628D01*
X182554342Y-179257200D01*
X182482914Y-179185771D01*
X182482914Y-179328628D01*
X183840057Y-180614342D02*
X183697200Y-180685771D01*
X183411485Y-180685771D01*
X183268628Y-180614342D01*
X183197200Y-180542914D01*
X183125771Y-180400057D01*
X183125771Y-179971485D01*
X183197200Y-179828628D01*
X183268628Y-179757200D01*
X183411485Y-179685771D01*
X183697200Y-179685771D01*
X183840057Y-179757200D01*
X186125771Y-179900057D02*
X186340057Y-179971485D01*
X186411485Y-180042914D01*
X186482914Y-180185771D01*
X186482914Y-180400057D01*
X186411485Y-180542914D01*
X186340057Y-180614342D01*
X186197200Y-180685771D01*
X185625771Y-180685771D01*
X185625771Y-179185771D01*
X186125771Y-179185771D01*
X186268628Y-179257200D01*
X186340057Y-179328628D01*
X186411485Y-179471485D01*
X186411485Y-179614342D01*
X186340057Y-179757200D01*
X186268628Y-179828628D01*
X186125771Y-179900057D01*
X185625771Y-179900057D01*
X187340057Y-180685771D02*
X187197200Y-180614342D01*
X187125771Y-180542914D01*
X187054342Y-180400057D01*
X187054342Y-179971485D01*
X187125771Y-179828628D01*
X187197200Y-179757200D01*
X187340057Y-179685771D01*
X187554342Y-179685771D01*
X187697200Y-179757200D01*
X187768628Y-179828628D01*
X187840057Y-179971485D01*
X187840057Y-180400057D01*
X187768628Y-180542914D01*
X187697200Y-180614342D01*
X187554342Y-180685771D01*
X187340057Y-180685771D01*
X189125771Y-180685771D02*
X189125771Y-179900057D01*
X189054342Y-179757200D01*
X188911485Y-179685771D01*
X188625771Y-179685771D01*
X188482914Y-179757200D01*
X189125771Y-180614342D02*
X188982914Y-180685771D01*
X188625771Y-180685771D01*
X188482914Y-180614342D01*
X188411485Y-180471485D01*
X188411485Y-180328628D01*
X188482914Y-180185771D01*
X188625771Y-180114342D01*
X188982914Y-180114342D01*
X189125771Y-180042914D01*
X189840057Y-180685771D02*
X189840057Y-179685771D01*
X189840057Y-179971485D02*
X189911485Y-179828628D01*
X189982914Y-179757200D01*
X190125771Y-179685771D01*
X190268628Y-179685771D01*
X191411485Y-180685771D02*
X191411485Y-179185771D01*
X191411485Y-180614342D02*
X191268628Y-180685771D01*
X190982914Y-180685771D01*
X190840057Y-180614342D01*
X190768628Y-180542914D01*
X190697200Y-180400057D01*
X190697200Y-179971485D01*
X190768628Y-179828628D01*
X190840057Y-179757200D01*
X190982914Y-179685771D01*
X191268628Y-179685771D01*
X191411485Y-179757200D01*
X192054342Y-180614342D02*
X192197200Y-180685771D01*
X192482914Y-180685771D01*
X192625771Y-180614342D01*
X192697200Y-180471485D01*
X192697200Y-180400057D01*
X192625771Y-180257200D01*
X192482914Y-180185771D01*
X192268628Y-180185771D01*
X192125771Y-180114342D01*
X192054342Y-179971485D01*
X192054342Y-179900057D01*
X192125771Y-179757200D01*
X192268628Y-179685771D01*
X192482914Y-179685771D01*
X192625771Y-179757200D01*
D10*
D11*
X178291485Y-176685771D02*
X178577200Y-177685771D01*
X178862914Y-176971485D01*
X179148628Y-177685771D01*
X179434342Y-176685771D01*
X179862914Y-176685771D02*
X180148628Y-177685771D01*
X180434342Y-176971485D01*
X180720057Y-177685771D01*
X181005771Y-176685771D01*
X181434342Y-176685771D02*
X181720057Y-177685771D01*
X182005771Y-176971485D01*
X182291485Y-177685771D01*
X182577200Y-176685771D01*
X183148628Y-177542914D02*
X183220057Y-177614342D01*
X183148628Y-177685771D01*
X183077200Y-177614342D01*
X183148628Y-177542914D01*
X183148628Y-177685771D01*
X184077200Y-177685771D02*
X183934342Y-177614342D01*
X183862914Y-177471485D01*
X183862914Y-176185771D01*
X184862914Y-177685771D02*
X184720057Y-177614342D01*
X184648628Y-177542914D01*
X184577200Y-177400057D01*
X184577200Y-176971485D01*
X184648628Y-176828628D01*
X184720057Y-176757200D01*
X184862914Y-176685771D01*
X185077200Y-176685771D01*
X185220057Y-176757200D01*
X185291485Y-176828628D01*
X185362914Y-176971485D01*
X185362914Y-177400057D01*
X185291485Y-177542914D01*
X185220057Y-177614342D01*
X185077200Y-177685771D01*
X184862914Y-177685771D01*
X186648628Y-176685771D02*
X186648628Y-177900057D01*
X186577200Y-178042914D01*
X186505771Y-178114342D01*
X186362914Y-178185771D01*
X186148628Y-178185771D01*
X186005771Y-178114342D01*
X186648628Y-177614342D02*
X186505771Y-177685771D01*
X186220057Y-177685771D01*
X186077200Y-177614342D01*
X186005771Y-177542914D01*
X185934342Y-177400057D01*
X185934342Y-176971485D01*
X186005771Y-176828628D01*
X186077200Y-176757200D01*
X186220057Y-176685771D01*
X186505771Y-176685771D01*
X186648628Y-176757200D01*
X187362914Y-177685771D02*
X187362914Y-176685771D01*
X187362914Y-176185771D02*
X187291485Y-176257200D01*
X187362914Y-176328628D01*
X187434342Y-176257200D01*
X187362914Y-176185771D01*
X187362914Y-176328628D01*
X188720057Y-177614342D02*
X188577200Y-177685771D01*
X188291485Y-177685771D01*
X188148628Y-177614342D01*
X188077200Y-177542914D01*
X188005771Y-177400057D01*
X188005771Y-176971485D01*
X188077200Y-176828628D01*
X188148628Y-176757200D01*
X188291485Y-176685771D01*
X188577200Y-176685771D01*
X188720057Y-176757200D01*
X189362914Y-177685771D02*
X189362914Y-176185771D01*
X189362914Y-176757200D02*
X189505771Y-176685771D01*
X189791485Y-176685771D01*
X189934342Y-176757200D01*
X190005771Y-176828628D01*
X190077200Y-176971485D01*
X190077200Y-177400057D01*
X190005771Y-177542914D01*
X189934342Y-177614342D01*
X189791485Y-177685771D01*
X189505771Y-177685771D01*
X189362914Y-177614342D01*
X190934342Y-177685771D02*
X190791485Y-177614342D01*
X190720057Y-177542914D01*
X190648628Y-177400057D01*
X190648628Y-176971485D01*
X190720057Y-176828628D01*
X190791485Y-176757200D01*
X190934342Y-176685771D01*
X191148628Y-176685771D01*
X191291485Y-176757200D01*
X191362914Y-176828628D01*
X191434342Y-176971485D01*
X191434342Y-177400057D01*
X191362914Y-177542914D01*
X191291485Y-177614342D01*
X191148628Y-177685771D01*
X190934342Y-177685771D01*
X192720057Y-177685771D02*
X192720057Y-176900057D01*
X192648628Y-176757200D01*
X192505771Y-176685771D01*
X192220057Y-176685771D01*
X192077200Y-176757200D01*
X192720057Y-177614342D02*
X192577200Y-177685771D01*
X192220057Y-177685771D01*
X192077200Y-177614342D01*
X192005771Y-177471485D01*
X192005771Y-177328628D01*
X192077200Y-177185771D01*
X192220057Y-177114342D01*
X192577200Y-177114342D01*
X192720057Y-177042914D01*
X193434342Y-177685771D02*
X193434342Y-176685771D01*
X193434342Y-176971485D02*
X193505771Y-176828628D01*
X193577200Y-176757200D01*
X193720057Y-176685771D01*
X193862914Y-176685771D01*
X195005771Y-177685771D02*
X195005771Y-176185771D01*
X195005771Y-177614342D02*
X194862914Y-177685771D01*
X194577200Y-177685771D01*
X194434342Y-177614342D01*
X194362914Y-177542914D01*
X194291485Y-177400057D01*
X194291485Y-176971485D01*
X194362914Y-176828628D01*
X194434342Y-176757200D01*
X194577200Y-176685771D01*
X194862914Y-176685771D01*
X195005771Y-176757200D01*
X195648628Y-177614342D02*
X195791485Y-177685771D01*
X196077200Y-177685771D01*
X196220057Y-177614342D01*
X196291485Y-177471485D01*
X196291485Y-177400057D01*
X196220057Y-177257200D01*
X196077200Y-177185771D01*
X195862914Y-177185771D01*
X195720057Y-177114342D01*
X195648628Y-176971485D01*
X195648628Y-176900057D01*
X195720057Y-176757200D01*
X195862914Y-176685771D01*
X196077200Y-176685771D01*
X196220057Y-176757200D01*
X196934342Y-177542914D02*
X197005771Y-177614342D01*
X196934342Y-177685771D01*
X196862914Y-177614342D01*
X196934342Y-177542914D01*
X196934342Y-177685771D01*
X197862914Y-177685771D02*
X197720057Y-177614342D01*
X197648628Y-177542914D01*
X197577200Y-177400057D01*
X197577200Y-176971485D01*
X197648628Y-176828628D01*
X197720057Y-176757200D01*
X197862914Y-176685771D01*
X198077200Y-176685771D01*
X198220057Y-176757200D01*
X198291485Y-176828628D01*
X198362914Y-176971485D01*
X198362914Y-177400057D01*
X198291485Y-177542914D01*
X198220057Y-177614342D01*
X198077200Y-177685771D01*
X197862914Y-177685771D01*
X199005771Y-177685771D02*
X199005771Y-176685771D01*
X199005771Y-176971485D02*
X199077200Y-176828628D01*
X199148628Y-176757200D01*
X199291485Y-176685771D01*
X199434342Y-176685771D01*
X200577200Y-176685771D02*
X200577200Y-177900057D01*
X200505771Y-178042914D01*
X200434342Y-178114342D01*
X200291485Y-178185771D01*
X200077200Y-178185771D01*
X199934342Y-178114342D01*
X200577200Y-177614342D02*
X200434342Y-177685771D01*
X200148628Y-177685771D01*
X200005771Y-177614342D01*
X199934342Y-177542914D01*
X199862914Y-177400057D01*
X199862914Y-176971485D01*
X199934342Y-176828628D01*
X200005771Y-176757200D01*
X200148628Y-176685771D01*
X200434342Y-176685771D01*
X200577200Y-176757200D01*
D10*
D11*
X197002200Y-191507200D02*
X197002200Y-194507200D01*
D10*
D11*
X261002200Y-191507200D02*
X261002200Y-198007200D01*
%TO.C,C46*%
G36*
G01*
X68305000Y-85680000D02*
X68305000Y-86020000D01*
G75*
G02*
X68165000Y-86160000I-140000J0D01*
G01*
X67885000Y-86160000D01*
G75*
G02*
X67745000Y-86020000I0J140000D01*
G01*
X67745000Y-85680000D01*
G75*
G02*
X67885000Y-85540000I140000J0D01*
G01*
X68165000Y-85540000D01*
G75*
G02*
X68305000Y-85680000I0J-140000D01*
G01*
G37*
G36*
G01*
X69265000Y-85680000D02*
X69265000Y-86020000D01*
G75*
G02*
X69125000Y-86160000I-140000J0D01*
G01*
X68845000Y-86160000D01*
G75*
G02*
X68705000Y-86020000I0J140000D01*
G01*
X68705000Y-85680000D01*
G75*
G02*
X68845000Y-85540000I140000J0D01*
G01*
X69125000Y-85540000D01*
G75*
G02*
X69265000Y-85680000I0J-140000D01*
G01*
G37*
%TD*%
D14*
%TO.C,U8*%
X91580000Y-62945000D03*
X91080000Y-62945000D03*
X90580000Y-62945000D03*
X90080000Y-62945000D03*
X89580000Y-62945000D03*
X89080000Y-62945000D03*
X88580000Y-62945000D03*
X88080000Y-62945000D03*
X87580000Y-62945000D03*
X87080000Y-62945000D03*
X86580000Y-62945000D03*
X86080000Y-62945000D03*
X85580000Y-62945000D03*
X85080000Y-62945000D03*
X84580000Y-62945000D03*
X84080000Y-62945000D03*
X83580000Y-62945000D03*
X83080000Y-62945000D03*
X82580000Y-62945000D03*
D15*
X82655000Y-63720000D03*
X82655000Y-64220000D03*
X82655000Y-64720000D03*
X82655000Y-65220000D03*
X82655000Y-65720000D03*
X82655000Y-66220000D03*
X82655000Y-66720000D03*
X82655000Y-67220000D03*
X82655000Y-67720000D03*
X82655000Y-68220000D03*
D14*
X82580000Y-68995000D03*
X83080000Y-68995000D03*
X83580000Y-68995000D03*
X84080000Y-68995000D03*
X84580000Y-68995000D03*
X85080000Y-68995000D03*
X85580000Y-68995000D03*
X86080000Y-68995000D03*
X86580000Y-68995000D03*
X87080000Y-68995000D03*
X87580000Y-68995000D03*
X88080000Y-68995000D03*
X88580000Y-68995000D03*
X89080000Y-68995000D03*
X89580000Y-68995000D03*
X90080000Y-68995000D03*
X90580000Y-68995000D03*
X91080000Y-68995000D03*
X91580000Y-68995000D03*
D15*
X91505000Y-68220000D03*
X91505000Y-67720000D03*
X91505000Y-67220000D03*
X91505000Y-66720000D03*
X91505000Y-66220000D03*
X91505000Y-65720000D03*
X91505000Y-65220000D03*
X91505000Y-64720000D03*
X91505000Y-64220000D03*
X91505000Y-63720000D03*
D14*
X90080000Y-64320000D03*
X89580000Y-64320000D03*
X89080000Y-64320000D03*
X88580000Y-64320000D03*
X88080000Y-64320000D03*
X87580000Y-64320000D03*
X87080000Y-64320000D03*
X86580000Y-64320000D03*
X86080000Y-64320000D03*
X85580000Y-64320000D03*
X85080000Y-64320000D03*
X84580000Y-64320000D03*
X84080000Y-64320000D03*
D15*
X84230000Y-64970000D03*
X84230000Y-65470000D03*
X84230000Y-65970000D03*
X84230000Y-66470000D03*
X84230000Y-66970000D03*
D14*
X84080000Y-67620000D03*
X84580000Y-67620000D03*
X85080000Y-67620000D03*
X85580000Y-67620000D03*
X86080000Y-67620000D03*
X86580000Y-67620000D03*
X87080000Y-67620000D03*
X87580000Y-67620000D03*
X88080000Y-67620000D03*
X88580000Y-67620000D03*
X89080000Y-67620000D03*
X89580000Y-67620000D03*
X90080000Y-67620000D03*
D15*
X89930000Y-66970000D03*
X89930000Y-66470000D03*
X89930000Y-65970000D03*
X89930000Y-65470000D03*
X89930000Y-64970000D03*
X88280000Y-65470000D03*
X87480000Y-65470000D03*
X86680000Y-65470000D03*
X85880000Y-65470000D03*
X88280000Y-65970000D03*
X87480000Y-65970000D03*
X86680000Y-65970000D03*
X85880000Y-65970000D03*
X88280000Y-66470000D03*
X87480000Y-66470000D03*
X86680000Y-66470000D03*
X85880000Y-66470000D03*
%TD*%
%TO.C,R49*%
G36*
G01*
X94020000Y-63820000D02*
X94020000Y-63620000D01*
G75*
G02*
X94120000Y-63520000I100000J0D01*
G01*
X94380000Y-63520000D01*
G75*
G02*
X94480000Y-63620000I0J-100000D01*
G01*
X94480000Y-63820000D01*
G75*
G02*
X94380000Y-63920000I-100000J0D01*
G01*
X94120000Y-63920000D01*
G75*
G02*
X94020000Y-63820000I0J100000D01*
G01*
G37*
G36*
G01*
X93380000Y-63820000D02*
X93380000Y-63620000D01*
G75*
G02*
X93480000Y-63520000I100000J0D01*
G01*
X93740000Y-63520000D01*
G75*
G02*
X93840000Y-63620000I0J-100000D01*
G01*
X93840000Y-63820000D01*
G75*
G02*
X93740000Y-63920000I-100000J0D01*
G01*
X93480000Y-63920000D01*
G75*
G02*
X93380000Y-63820000I0J100000D01*
G01*
G37*
%TD*%
%TO.C,R48*%
G36*
G01*
X95550000Y-63820000D02*
X95550000Y-63620000D01*
G75*
G02*
X95650000Y-63520000I100000J0D01*
G01*
X95910000Y-63520000D01*
G75*
G02*
X96010000Y-63620000I0J-100000D01*
G01*
X96010000Y-63820000D01*
G75*
G02*
X95910000Y-63920000I-100000J0D01*
G01*
X95650000Y-63920000D01*
G75*
G02*
X95550000Y-63820000I0J100000D01*
G01*
G37*
G36*
G01*
X94910000Y-63820000D02*
X94910000Y-63620000D01*
G75*
G02*
X95010000Y-63520000I100000J0D01*
G01*
X95270000Y-63520000D01*
G75*
G02*
X95370000Y-63620000I0J-100000D01*
G01*
X95370000Y-63820000D01*
G75*
G02*
X95270000Y-63920000I-100000J0D01*
G01*
X95010000Y-63920000D01*
G75*
G02*
X94910000Y-63820000I0J100000D01*
G01*
G37*
%TD*%
%TO.C,R47*%
G36*
G01*
X99200000Y-61300000D02*
X99200000Y-61100000D01*
G75*
G02*
X99300000Y-61000000I100000J0D01*
G01*
X99560000Y-61000000D01*
G75*
G02*
X99660000Y-61100000I0J-100000D01*
G01*
X99660000Y-61300000D01*
G75*
G02*
X99560000Y-61400000I-100000J0D01*
G01*
X99300000Y-61400000D01*
G75*
G02*
X99200000Y-61300000I0J100000D01*
G01*
G37*
G36*
G01*
X98560000Y-61300000D02*
X98560000Y-61100000D01*
G75*
G02*
X98660000Y-61000000I100000J0D01*
G01*
X98920000Y-61000000D01*
G75*
G02*
X99020000Y-61100000I0J-100000D01*
G01*
X99020000Y-61300000D01*
G75*
G02*
X98920000Y-61400000I-100000J0D01*
G01*
X98660000Y-61400000D01*
G75*
G02*
X98560000Y-61300000I0J100000D01*
G01*
G37*
%TD*%
%TO.C,L8*%
G36*
G01*
X98890000Y-62490000D02*
X98690000Y-62490000D01*
G75*
G02*
X98590000Y-62390000I0J100000D01*
G01*
X98590000Y-62130000D01*
G75*
G02*
X98690000Y-62030000I100000J0D01*
G01*
X98890000Y-62030000D01*
G75*
G02*
X98990000Y-62130000I0J-100000D01*
G01*
X98990000Y-62390000D01*
G75*
G02*
X98890000Y-62490000I-100000J0D01*
G01*
G37*
G36*
G01*
X98890000Y-63130000D02*
X98690000Y-63130000D01*
G75*
G02*
X98590000Y-63030000I0J100000D01*
G01*
X98590000Y-62770000D01*
G75*
G02*
X98690000Y-62670000I100000J0D01*
G01*
X98890000Y-62670000D01*
G75*
G02*
X98990000Y-62770000I0J-100000D01*
G01*
X98990000Y-63030000D01*
G75*
G02*
X98890000Y-63130000I-100000J0D01*
G01*
G37*
%TD*%
%TO.C,L7*%
G36*
G01*
X96880000Y-63620000D02*
X96880000Y-63820000D01*
G75*
G02*
X96780000Y-63920000I-100000J0D01*
G01*
X96520000Y-63920000D01*
G75*
G02*
X96420000Y-63820000I0J100000D01*
G01*
X96420000Y-63620000D01*
G75*
G02*
X96520000Y-63520000I100000J0D01*
G01*
X96780000Y-63520000D01*
G75*
G02*
X96880000Y-63620000I0J-100000D01*
G01*
G37*
G36*
G01*
X97520000Y-63620000D02*
X97520000Y-63820000D01*
G75*
G02*
X97420000Y-63920000I-100000J0D01*
G01*
X97160000Y-63920000D01*
G75*
G02*
X97060000Y-63820000I0J100000D01*
G01*
X97060000Y-63620000D01*
G75*
G02*
X97160000Y-63520000I100000J0D01*
G01*
X97420000Y-63520000D01*
G75*
G02*
X97520000Y-63620000I0J-100000D01*
G01*
G37*
%TD*%
%TO.C,L6*%
G36*
G01*
X101140000Y-63490000D02*
X101340000Y-63490000D01*
G75*
G02*
X101440000Y-63590000I0J-100000D01*
G01*
X101440000Y-63850000D01*
G75*
G02*
X101340000Y-63950000I-100000J0D01*
G01*
X101140000Y-63950000D01*
G75*
G02*
X101040000Y-63850000I0J100000D01*
G01*
X101040000Y-63590000D01*
G75*
G02*
X101140000Y-63490000I100000J0D01*
G01*
G37*
G36*
G01*
X101140000Y-62850000D02*
X101340000Y-62850000D01*
G75*
G02*
X101440000Y-62950000I0J-100000D01*
G01*
X101440000Y-63210000D01*
G75*
G02*
X101340000Y-63310000I-100000J0D01*
G01*
X101140000Y-63310000D01*
G75*
G02*
X101040000Y-63210000I0J100000D01*
G01*
X101040000Y-62950000D01*
G75*
G02*
X101140000Y-62850000I100000J0D01*
G01*
G37*
%TD*%
%TO.C,L5*%
G36*
G01*
X103690000Y-61320000D02*
X103690000Y-61120000D01*
G75*
G02*
X103790000Y-61020000I100000J0D01*
G01*
X104050000Y-61020000D01*
G75*
G02*
X104150000Y-61120000I0J-100000D01*
G01*
X104150000Y-61320000D01*
G75*
G02*
X104050000Y-61420000I-100000J0D01*
G01*
X103790000Y-61420000D01*
G75*
G02*
X103690000Y-61320000I0J100000D01*
G01*
G37*
G36*
G01*
X103050000Y-61320000D02*
X103050000Y-61120000D01*
G75*
G02*
X103150000Y-61020000I100000J0D01*
G01*
X103410000Y-61020000D01*
G75*
G02*
X103510000Y-61120000I0J-100000D01*
G01*
X103510000Y-61320000D01*
G75*
G02*
X103410000Y-61420000I-100000J0D01*
G01*
X103150000Y-61420000D01*
G75*
G02*
X103050000Y-61320000I0J100000D01*
G01*
G37*
%TD*%
%TO.C,C78*%
G36*
G01*
X98380000Y-63620000D02*
X98380000Y-63820000D01*
G75*
G02*
X98280000Y-63920000I-100000J0D01*
G01*
X98020000Y-63920000D01*
G75*
G02*
X97920000Y-63820000I0J100000D01*
G01*
X97920000Y-63620000D01*
G75*
G02*
X98020000Y-63520000I100000J0D01*
G01*
X98280000Y-63520000D01*
G75*
G02*
X98380000Y-63620000I0J-100000D01*
G01*
G37*
G36*
G01*
X99020000Y-63620000D02*
X99020000Y-63820000D01*
G75*
G02*
X98920000Y-63920000I-100000J0D01*
G01*
X98660000Y-63920000D01*
G75*
G02*
X98560000Y-63820000I0J100000D01*
G01*
X98560000Y-63620000D01*
G75*
G02*
X98660000Y-63520000I100000J0D01*
G01*
X98920000Y-63520000D01*
G75*
G02*
X99020000Y-63620000I0J-100000D01*
G01*
G37*
%TD*%
%TO.C,C71*%
G36*
G01*
X103180000Y-64490000D02*
X103380000Y-64490000D01*
G75*
G02*
X103480000Y-64590000I0J-100000D01*
G01*
X103480000Y-64850000D01*
G75*
G02*
X103380000Y-64950000I-100000J0D01*
G01*
X103180000Y-64950000D01*
G75*
G02*
X103080000Y-64850000I0J100000D01*
G01*
X103080000Y-64590000D01*
G75*
G02*
X103180000Y-64490000I100000J0D01*
G01*
G37*
G36*
G01*
X103180000Y-63850000D02*
X103380000Y-63850000D01*
G75*
G02*
X103480000Y-63950000I0J-100000D01*
G01*
X103480000Y-64210000D01*
G75*
G02*
X103380000Y-64310000I-100000J0D01*
G01*
X103180000Y-64310000D01*
G75*
G02*
X103080000Y-64210000I0J100000D01*
G01*
X103080000Y-63950000D01*
G75*
G02*
X103180000Y-63850000I100000J0D01*
G01*
G37*
%TD*%
%TO.C,C33*%
G36*
G01*
X104340000Y-66840000D02*
X104340000Y-67040000D01*
G75*
G02*
X104240000Y-67140000I-100000J0D01*
G01*
X103980000Y-67140000D01*
G75*
G02*
X103880000Y-67040000I0J100000D01*
G01*
X103880000Y-66840000D01*
G75*
G02*
X103980000Y-66740000I100000J0D01*
G01*
X104240000Y-66740000D01*
G75*
G02*
X104340000Y-66840000I0J-100000D01*
G01*
G37*
G36*
G01*
X104980000Y-66840000D02*
X104980000Y-67040000D01*
G75*
G02*
X104880000Y-67140000I-100000J0D01*
G01*
X104620000Y-67140000D01*
G75*
G02*
X104520000Y-67040000I0J100000D01*
G01*
X104520000Y-66840000D01*
G75*
G02*
X104620000Y-66740000I100000J0D01*
G01*
X104880000Y-66740000D01*
G75*
G02*
X104980000Y-66840000I0J-100000D01*
G01*
G37*
%TD*%
D16*
%TO.C,H3*%
X105500000Y-108000000D03*
%TD*%
%TO.C,H1*%
X60500000Y-63000000D03*
%TD*%
D17*
%TO.C,U1*%
X84790000Y-103110000D03*
X84790000Y-102610000D03*
X84790000Y-102110000D03*
X84790000Y-101610000D03*
X84790000Y-101110000D03*
X84790000Y-100110000D03*
X84790000Y-99610000D03*
X84790000Y-98610000D03*
X84790000Y-98110000D03*
X84790000Y-97110000D03*
X84790000Y-96610000D03*
X84790000Y-95610000D03*
X84790000Y-95110000D03*
X84790000Y-94110000D03*
X84790000Y-93610000D03*
X84790000Y-93110000D03*
X84790000Y-92610000D03*
X84790000Y-92110000D03*
X85290000Y-103110000D03*
X85290000Y-102610000D03*
X85290000Y-102110000D03*
X85290000Y-101610000D03*
X85290000Y-101110000D03*
X85290000Y-100610000D03*
X85290000Y-100110000D03*
X85290000Y-99610000D03*
X85290000Y-99110000D03*
X85290000Y-98610000D03*
X85290000Y-98110000D03*
X85290000Y-97610000D03*
X85290000Y-97110000D03*
X85290000Y-96610000D03*
X85290000Y-96110000D03*
X85290000Y-95610000D03*
X85290000Y-95110000D03*
X85290000Y-94610000D03*
X85290000Y-94110000D03*
X85290000Y-93610000D03*
X85290000Y-93110000D03*
X85290000Y-92610000D03*
X85290000Y-92110000D03*
X85790000Y-103110000D03*
X85790000Y-102610000D03*
X85790000Y-102110000D03*
X85790000Y-101610000D03*
X85790000Y-101110000D03*
X85790000Y-100610000D03*
X85790000Y-100110000D03*
X85790000Y-99610000D03*
X85790000Y-99110000D03*
X85790000Y-98610000D03*
X85790000Y-98110000D03*
X85790000Y-97610000D03*
X85790000Y-97110000D03*
X85790000Y-96610000D03*
X85790000Y-96110000D03*
X85790000Y-95610000D03*
X85790000Y-95110000D03*
X85790000Y-94610000D03*
X85790000Y-94110000D03*
X85790000Y-93610000D03*
X85790000Y-93110000D03*
X85790000Y-92610000D03*
X85790000Y-92110000D03*
X86290000Y-103110000D03*
X86290000Y-102610000D03*
X86290000Y-102110000D03*
X86290000Y-101610000D03*
X86290000Y-101110000D03*
X86290000Y-100610000D03*
X86290000Y-100110000D03*
X86290000Y-99610000D03*
X86290000Y-99110000D03*
X86290000Y-98610000D03*
X86290000Y-98110000D03*
X86290000Y-97610000D03*
X86290000Y-97110000D03*
X86290000Y-96610000D03*
X86290000Y-96110000D03*
X86290000Y-95610000D03*
X86290000Y-95110000D03*
X86290000Y-94610000D03*
X86290000Y-94110000D03*
X86290000Y-93610000D03*
X86290000Y-93110000D03*
X86290000Y-92610000D03*
X86290000Y-92110000D03*
X86790000Y-103110000D03*
X86790000Y-102610000D03*
X86790000Y-102110000D03*
X86790000Y-101610000D03*
X86790000Y-93610000D03*
X86790000Y-93110000D03*
X86790000Y-92610000D03*
X86790000Y-92110000D03*
X87290000Y-102610000D03*
X87290000Y-102110000D03*
X87290000Y-101610000D03*
X87290000Y-93610000D03*
X87290000Y-93110000D03*
X87290000Y-92610000D03*
X87790000Y-103110000D03*
X87790000Y-102610000D03*
X87790000Y-102110000D03*
X87790000Y-101610000D03*
X87790000Y-93610000D03*
X87790000Y-93110000D03*
X87790000Y-92610000D03*
X87790000Y-92110000D03*
X88290000Y-103110000D03*
X88290000Y-102610000D03*
X88290000Y-102110000D03*
X88290000Y-101610000D03*
X87690000Y-99560000D03*
X87690000Y-98910000D03*
X87690000Y-98260000D03*
X87690000Y-97610000D03*
X87690000Y-96960000D03*
X87690000Y-96310000D03*
X87690000Y-95660000D03*
X88290000Y-93610000D03*
X88290000Y-93110000D03*
X88290000Y-92610000D03*
X88290000Y-92110000D03*
X88790000Y-102610000D03*
X88790000Y-102110000D03*
X88790000Y-101610000D03*
X88340000Y-100210000D03*
X88340000Y-99560000D03*
X88340000Y-98910000D03*
X88340000Y-98260000D03*
X88340000Y-97610000D03*
X88340000Y-96960000D03*
X88340000Y-96310000D03*
X88340000Y-95660000D03*
X88340000Y-95010000D03*
X88790000Y-93610000D03*
X88790000Y-93110000D03*
X88790000Y-92610000D03*
X89290000Y-103110000D03*
X89290000Y-102610000D03*
X89290000Y-102110000D03*
X89290000Y-101610000D03*
X88990000Y-100210000D03*
X88990000Y-99560000D03*
X88990000Y-98910000D03*
X88990000Y-98260000D03*
X88990000Y-97610000D03*
X88990000Y-96960000D03*
X88990000Y-96310000D03*
X88990000Y-95660000D03*
X88990000Y-95010000D03*
X89290000Y-93610000D03*
X89290000Y-93110000D03*
X89290000Y-92610000D03*
X89290000Y-92110000D03*
X89790000Y-103110000D03*
X89790000Y-102610000D03*
X89790000Y-102110000D03*
X89790000Y-101610000D03*
X89640000Y-100210000D03*
X89640000Y-99560000D03*
X89640000Y-98910000D03*
X89640000Y-98260000D03*
X89640000Y-97610000D03*
X89640000Y-96960000D03*
X89640000Y-96310000D03*
X89640000Y-95660000D03*
X89640000Y-95010000D03*
X89790000Y-93610000D03*
X89790000Y-93110000D03*
X89790000Y-92610000D03*
X89790000Y-92110000D03*
X90290000Y-102610000D03*
X90290000Y-102110000D03*
X90290000Y-101610000D03*
X90290000Y-100210000D03*
X90290000Y-99560000D03*
X90290000Y-98910000D03*
X90290000Y-98260000D03*
X90290000Y-97610000D03*
X90290000Y-96960000D03*
X90290000Y-96310000D03*
X90290000Y-95660000D03*
X90290000Y-95010000D03*
X90290000Y-93610000D03*
X90290000Y-93110000D03*
X90290000Y-92610000D03*
X90790000Y-103110000D03*
X90790000Y-102610000D03*
X90790000Y-102110000D03*
X90790000Y-101610000D03*
X90940000Y-100210000D03*
X90940000Y-99560000D03*
X90940000Y-98910000D03*
X90940000Y-98260000D03*
X90940000Y-97610000D03*
X90940000Y-96960000D03*
X90940000Y-96310000D03*
X90940000Y-95660000D03*
X90940000Y-95010000D03*
X90790000Y-93610000D03*
X90790000Y-93110000D03*
X90790000Y-92610000D03*
X90790000Y-92110000D03*
X91290000Y-103110000D03*
X91290000Y-102610000D03*
X91290000Y-102110000D03*
X91290000Y-101610000D03*
X91590000Y-100210000D03*
X91590000Y-99560000D03*
X91590000Y-98910000D03*
X91590000Y-98260000D03*
X91590000Y-97610000D03*
X91590000Y-96960000D03*
X91590000Y-96310000D03*
X91590000Y-95660000D03*
X91590000Y-95010000D03*
X91290000Y-93610000D03*
X91290000Y-93110000D03*
X91290000Y-92610000D03*
X91290000Y-92110000D03*
X91790000Y-102610000D03*
X91790000Y-102110000D03*
X91790000Y-101610000D03*
X92240000Y-100210000D03*
X92240000Y-99560000D03*
X92240000Y-98910000D03*
X92240000Y-98260000D03*
X92240000Y-97610000D03*
X92240000Y-96960000D03*
X92240000Y-96310000D03*
X92240000Y-95660000D03*
X92240000Y-95010000D03*
X91790000Y-93610000D03*
X91790000Y-93110000D03*
X91790000Y-92610000D03*
X92290000Y-103110000D03*
X92290000Y-102610000D03*
X92290000Y-102110000D03*
X92290000Y-101610000D03*
X92890000Y-99560000D03*
X92890000Y-98910000D03*
X92890000Y-98260000D03*
X92890000Y-97610000D03*
X92890000Y-96960000D03*
X92890000Y-96310000D03*
X92890000Y-95660000D03*
X92290000Y-93610000D03*
X92290000Y-93110000D03*
X92290000Y-92610000D03*
X92290000Y-92110000D03*
X92790000Y-103110000D03*
X92790000Y-102610000D03*
X92790000Y-102110000D03*
X92790000Y-101610000D03*
X92790000Y-93610000D03*
X92790000Y-93110000D03*
X92790000Y-92610000D03*
X92790000Y-92110000D03*
X93290000Y-102610000D03*
X93290000Y-102110000D03*
X93290000Y-101610000D03*
X93290000Y-93610000D03*
X93290000Y-93110000D03*
X93290000Y-92610000D03*
X93790000Y-103110000D03*
X93790000Y-102610000D03*
X93790000Y-102110000D03*
X93790000Y-101610000D03*
X93790000Y-93610000D03*
X93790000Y-93110000D03*
X93790000Y-92610000D03*
X93790000Y-92110000D03*
X94290000Y-103110000D03*
X94290000Y-102610000D03*
X94290000Y-102110000D03*
X94290000Y-101610000D03*
X94290000Y-101110000D03*
X94290000Y-100610000D03*
X94290000Y-100110000D03*
X94290000Y-99610000D03*
X94290000Y-99110000D03*
X94290000Y-98610000D03*
X94290000Y-98110000D03*
X94290000Y-97610000D03*
X94290000Y-97110000D03*
X94290000Y-96610000D03*
X94290000Y-96110000D03*
X94290000Y-95610000D03*
X94290000Y-95110000D03*
X94290000Y-94610000D03*
X94290000Y-94110000D03*
X94290000Y-93610000D03*
X94290000Y-93110000D03*
X94290000Y-92610000D03*
X94290000Y-92110000D03*
X94790000Y-103110000D03*
X94790000Y-102610000D03*
X94790000Y-102110000D03*
X94790000Y-101610000D03*
X94790000Y-101110000D03*
X94790000Y-100610000D03*
X94790000Y-100110000D03*
X94790000Y-99610000D03*
X94790000Y-99110000D03*
X94790000Y-98610000D03*
X94790000Y-98110000D03*
X94790000Y-97610000D03*
X94790000Y-97110000D03*
X94790000Y-96610000D03*
X94790000Y-96110000D03*
X94790000Y-95610000D03*
X94790000Y-95110000D03*
X94790000Y-94610000D03*
X94790000Y-94110000D03*
X94790000Y-93610000D03*
X94790000Y-93110000D03*
X94790000Y-92610000D03*
X94790000Y-92110000D03*
X95290000Y-103110000D03*
X95290000Y-102610000D03*
X95290000Y-102110000D03*
X95290000Y-101610000D03*
X95290000Y-101110000D03*
X95290000Y-100610000D03*
X95290000Y-100110000D03*
X95290000Y-99610000D03*
X95290000Y-99110000D03*
X95290000Y-98610000D03*
X95290000Y-98110000D03*
X95290000Y-97610000D03*
X95290000Y-97110000D03*
X95290000Y-96610000D03*
X95290000Y-96110000D03*
X95290000Y-95610000D03*
X95290000Y-95110000D03*
X95290000Y-94610000D03*
X95290000Y-94110000D03*
X95290000Y-93610000D03*
X95290000Y-93110000D03*
X95290000Y-92610000D03*
X95290000Y-92110000D03*
X95790000Y-103110000D03*
X95790000Y-102610000D03*
X95790000Y-102110000D03*
X95790000Y-101610000D03*
X95790000Y-101110000D03*
X95790000Y-100110000D03*
X95790000Y-99610000D03*
X95790000Y-98610000D03*
X95790000Y-98110000D03*
X95790000Y-97110000D03*
X95790000Y-96610000D03*
X95790000Y-95610000D03*
X95790000Y-95110000D03*
X95790000Y-94110000D03*
X95790000Y-93610000D03*
X95790000Y-93110000D03*
X95790000Y-92610000D03*
X95790000Y-92110000D03*
%TD*%
D18*
%TO.C,U2*%
X88110000Y-72490000D03*
X88910000Y-72490000D03*
X89710000Y-72490000D03*
X92910000Y-72490000D03*
X93710000Y-72490000D03*
X94510000Y-72490000D03*
X88110000Y-73290000D03*
X88910000Y-73290000D03*
X89710000Y-73290000D03*
X92910000Y-73290000D03*
X93710000Y-73290000D03*
X94510000Y-73290000D03*
X88110000Y-74090000D03*
X88910000Y-74090000D03*
X89710000Y-74090000D03*
X92910000Y-74090000D03*
X93710000Y-74090000D03*
X94510000Y-74090000D03*
X88110000Y-74890000D03*
X88910000Y-74890000D03*
X89710000Y-74890000D03*
X92910000Y-74890000D03*
X93710000Y-74890000D03*
X94510000Y-74890000D03*
X88110000Y-75690000D03*
X88910000Y-75690000D03*
X89710000Y-75690000D03*
X92910000Y-75690000D03*
X93710000Y-75690000D03*
X94510000Y-75690000D03*
X88110000Y-76490000D03*
X88910000Y-76490000D03*
X89710000Y-76490000D03*
X92910000Y-76490000D03*
X93710000Y-76490000D03*
X94510000Y-76490000D03*
X88110000Y-77290000D03*
X88910000Y-77290000D03*
X89710000Y-77290000D03*
X92910000Y-77290000D03*
X93710000Y-77290000D03*
X94510000Y-77290000D03*
X88110000Y-78090000D03*
X88910000Y-78090000D03*
X89710000Y-78090000D03*
X92910000Y-78090000D03*
X93710000Y-78090000D03*
X94510000Y-78090000D03*
X88110000Y-78890000D03*
X88910000Y-78890000D03*
X89710000Y-78890000D03*
X92910000Y-78890000D03*
X93710000Y-78890000D03*
X94510000Y-78890000D03*
X88110000Y-79690000D03*
X88910000Y-79690000D03*
X89710000Y-79690000D03*
X92910000Y-79690000D03*
X93710000Y-79690000D03*
X94510000Y-79690000D03*
X88110000Y-80490000D03*
X88910000Y-80490000D03*
X89710000Y-80490000D03*
X92910000Y-80490000D03*
X93710000Y-80490000D03*
X94510000Y-80490000D03*
X88110000Y-81290000D03*
X88910000Y-81290000D03*
X89710000Y-81290000D03*
X92910000Y-81290000D03*
X93710000Y-81290000D03*
X94510000Y-81290000D03*
X88110000Y-82090000D03*
X88910000Y-82090000D03*
X89710000Y-82090000D03*
X92910000Y-82090000D03*
X93710000Y-82090000D03*
X94510000Y-82090000D03*
X88110000Y-82890000D03*
X88910000Y-82890000D03*
X89710000Y-82890000D03*
X92910000Y-82890000D03*
X93710000Y-82890000D03*
X94510000Y-82890000D03*
X88110000Y-83690000D03*
X88910000Y-83690000D03*
X89710000Y-83690000D03*
X92910000Y-83690000D03*
X93710000Y-83690000D03*
X94510000Y-83690000D03*
X88110000Y-84490000D03*
X88910000Y-84490000D03*
X89710000Y-84490000D03*
X92910000Y-84490000D03*
X93710000Y-84490000D03*
X94510000Y-84490000D03*
%TD*%
%TO.C,R6*%
G36*
G01*
X99630000Y-103125000D02*
X99630000Y-102755000D01*
G75*
G02*
X99765000Y-102620000I135000J0D01*
G01*
X100035000Y-102620000D01*
G75*
G02*
X100170000Y-102755000I0J-135000D01*
G01*
X100170000Y-103125000D01*
G75*
G02*
X100035000Y-103260000I-135000J0D01*
G01*
X99765000Y-103260000D01*
G75*
G02*
X99630000Y-103125000I0J135000D01*
G01*
G37*
G36*
G01*
X98610000Y-103125000D02*
X98610000Y-102755000D01*
G75*
G02*
X98745000Y-102620000I135000J0D01*
G01*
X99015000Y-102620000D01*
G75*
G02*
X99150000Y-102755000I0J-135000D01*
G01*
X99150000Y-103125000D01*
G75*
G02*
X99015000Y-103260000I-135000J0D01*
G01*
X98745000Y-103260000D01*
G75*
G02*
X98610000Y-103125000I0J135000D01*
G01*
G37*
%TD*%
%TO.C,C77*%
G36*
G01*
X89200000Y-107990000D02*
X89200000Y-107650000D01*
G75*
G02*
X89340000Y-107510000I140000J0D01*
G01*
X89620000Y-107510000D01*
G75*
G02*
X89760000Y-107650000I0J-140000D01*
G01*
X89760000Y-107990000D01*
G75*
G02*
X89620000Y-108130000I-140000J0D01*
G01*
X89340000Y-108130000D01*
G75*
G02*
X89200000Y-107990000I0J140000D01*
G01*
G37*
G36*
G01*
X88240000Y-107990000D02*
X88240000Y-107650000D01*
G75*
G02*
X88380000Y-107510000I140000J0D01*
G01*
X88660000Y-107510000D01*
G75*
G02*
X88800000Y-107650000I0J-140000D01*
G01*
X88800000Y-107990000D01*
G75*
G02*
X88660000Y-108130000I-140000J0D01*
G01*
X88380000Y-108130000D01*
G75*
G02*
X88240000Y-107990000I0J140000D01*
G01*
G37*
%TD*%
D19*
%TO.C,FID3*%
X101080000Y-107970000D03*
%TD*%
%TO.C,FID2*%
X106080000Y-74970000D03*
%TD*%
%TO.C,FID1*%
X60260000Y-69330000D03*
%TD*%
D20*
%TO.C,X1*%
X88720000Y-106460000D03*
X88920000Y-105560000D03*
D21*
X89570000Y-106010000D03*
X88070000Y-106010000D03*
%TD*%
D22*
%TO.C,U4*%
X76410000Y-77850000D03*
X76010000Y-77850000D03*
X75610000Y-77850000D03*
X75210000Y-77850000D03*
X74810000Y-77850000D03*
X74410000Y-77850000D03*
X74010000Y-77850000D03*
X73610000Y-77850000D03*
X73210000Y-77850000D03*
X72810000Y-77850000D03*
X72410000Y-77850000D03*
X72010000Y-77850000D03*
D23*
X71260000Y-78500000D03*
X71260000Y-78900000D03*
X71260000Y-79300000D03*
X71260000Y-79700000D03*
X71260000Y-80100000D03*
X71260000Y-80500000D03*
X71260000Y-80900000D03*
X71260000Y-81300000D03*
X71260000Y-81700000D03*
X71260000Y-82100000D03*
D22*
X72010000Y-82750000D03*
X72410000Y-82750000D03*
X72810000Y-82750000D03*
X73210000Y-82750000D03*
X73610000Y-82750000D03*
X74010000Y-82750000D03*
X74410000Y-82750000D03*
X74810000Y-82750000D03*
X75210000Y-82750000D03*
X75610000Y-82750000D03*
X76010000Y-82750000D03*
X76410000Y-82750000D03*
D23*
X77160000Y-82100000D03*
X77160000Y-81700000D03*
X77160000Y-81300000D03*
X77160000Y-80900000D03*
X77160000Y-80500000D03*
X77160000Y-80100000D03*
X77160000Y-79700000D03*
X77160000Y-79300000D03*
X77160000Y-78900000D03*
X77160000Y-78500000D03*
D24*
X74210000Y-80300000D03*
%TD*%
D25*
%TO.C,U3*%
X76420000Y-95240000D03*
X76420000Y-95740000D03*
X76420000Y-96240000D03*
X76420000Y-96740000D03*
X76420000Y-97240000D03*
X76420000Y-97740000D03*
X76420000Y-98240000D03*
X76420000Y-98740000D03*
X76420000Y-99240000D03*
X76420000Y-99740000D03*
X76420000Y-100240000D03*
X76420000Y-100740000D03*
X76420000Y-101240000D03*
X76420000Y-101740000D03*
X75920000Y-95240000D03*
X75920000Y-95740000D03*
X75920000Y-96240000D03*
X75920000Y-96740000D03*
X75920000Y-97240000D03*
X75920000Y-97740000D03*
X75920000Y-98240000D03*
X75920000Y-98740000D03*
X75920000Y-99240000D03*
X75920000Y-99740000D03*
X75920000Y-100240000D03*
X75920000Y-100740000D03*
X75920000Y-101240000D03*
X75920000Y-101740000D03*
X75420000Y-95240000D03*
X75420000Y-95740000D03*
X75420000Y-96240000D03*
X75420000Y-96740000D03*
X75420000Y-97240000D03*
X75420000Y-97740000D03*
X75420000Y-98240000D03*
X75420000Y-98740000D03*
X75420000Y-99240000D03*
X75420000Y-99740000D03*
X75420000Y-100240000D03*
X75420000Y-100740000D03*
X75420000Y-101240000D03*
X75420000Y-101740000D03*
X74920000Y-95240000D03*
X74920000Y-95740000D03*
X74920000Y-96240000D03*
X74920000Y-96740000D03*
X74920000Y-100740000D03*
X74920000Y-101240000D03*
X74920000Y-101740000D03*
X74420000Y-95240000D03*
X74420000Y-95740000D03*
X74420000Y-96240000D03*
X74420000Y-97240000D03*
X74420000Y-97740000D03*
X74420000Y-98240000D03*
X74420000Y-98740000D03*
X74420000Y-99240000D03*
X74420000Y-99740000D03*
X74420000Y-100740000D03*
X74420000Y-101240000D03*
X74420000Y-101740000D03*
X73920000Y-95240000D03*
X73920000Y-95740000D03*
X73920000Y-96240000D03*
X73920000Y-97240000D03*
X73920000Y-99740000D03*
X73920000Y-100740000D03*
X73920000Y-101240000D03*
X73920000Y-101740000D03*
X73420000Y-95240000D03*
X73420000Y-95740000D03*
X73420000Y-96240000D03*
X73420000Y-97240000D03*
X73420000Y-99740000D03*
X73420000Y-100740000D03*
X73420000Y-101240000D03*
X73420000Y-101740000D03*
X72920000Y-95240000D03*
X72920000Y-95740000D03*
X72920000Y-96240000D03*
X72920000Y-97240000D03*
X72920000Y-99740000D03*
X72920000Y-100740000D03*
X72920000Y-101240000D03*
X72920000Y-101740000D03*
X72420000Y-95240000D03*
X72420000Y-95740000D03*
X72420000Y-96240000D03*
X72420000Y-97240000D03*
X72420000Y-99740000D03*
X72420000Y-100740000D03*
X72420000Y-101240000D03*
X72420000Y-101740000D03*
X71920000Y-95240000D03*
X71920000Y-95740000D03*
X71920000Y-96240000D03*
X71920000Y-97240000D03*
X71920000Y-97740000D03*
X71920000Y-98240000D03*
X71920000Y-98740000D03*
X71920000Y-99240000D03*
X71920000Y-99740000D03*
X71920000Y-100740000D03*
X71920000Y-101240000D03*
X71920000Y-101740000D03*
X71420000Y-95240000D03*
X71420000Y-95740000D03*
X71420000Y-96240000D03*
X71420000Y-100740000D03*
X71420000Y-101240000D03*
X71420000Y-101740000D03*
X70920000Y-95240000D03*
X70920000Y-95740000D03*
X70920000Y-96240000D03*
X70920000Y-96740000D03*
X70920000Y-97240000D03*
X70920000Y-97740000D03*
X70920000Y-98240000D03*
X70920000Y-98740000D03*
X70920000Y-99240000D03*
X70920000Y-99740000D03*
X70920000Y-100240000D03*
X70920000Y-100740000D03*
X70920000Y-101240000D03*
X70920000Y-101740000D03*
X70420000Y-95240000D03*
X70420000Y-95740000D03*
X70420000Y-96240000D03*
X70420000Y-96740000D03*
X70420000Y-97240000D03*
X70420000Y-97740000D03*
X70420000Y-98240000D03*
X70420000Y-98740000D03*
X70420000Y-99240000D03*
X70420000Y-99740000D03*
X70420000Y-100240000D03*
X70420000Y-100740000D03*
X70420000Y-101240000D03*
X70420000Y-101740000D03*
X69920000Y-95240000D03*
X69920000Y-95740000D03*
X69920000Y-96240000D03*
X69920000Y-96740000D03*
X69920000Y-97240000D03*
X69920000Y-97740000D03*
X69920000Y-98240000D03*
X69920000Y-98740000D03*
X69920000Y-99240000D03*
X69920000Y-99740000D03*
X69920000Y-100240000D03*
X69920000Y-100740000D03*
X69920000Y-101240000D03*
X69920000Y-101740000D03*
%TD*%
%TO.C,R46*%
G36*
G01*
X79735000Y-77510000D02*
X80105000Y-77510000D01*
G75*
G02*
X80240000Y-77645000I0J-135000D01*
G01*
X80240000Y-77915000D01*
G75*
G02*
X80105000Y-78050000I-135000J0D01*
G01*
X79735000Y-78050000D01*
G75*
G02*
X79600000Y-77915000I0J135000D01*
G01*
X79600000Y-77645000D01*
G75*
G02*
X79735000Y-77510000I135000J0D01*
G01*
G37*
G36*
G01*
X79735000Y-76490000D02*
X80105000Y-76490000D01*
G75*
G02*
X80240000Y-76625000I0J-135000D01*
G01*
X80240000Y-76895000D01*
G75*
G02*
X80105000Y-77030000I-135000J0D01*
G01*
X79735000Y-77030000D01*
G75*
G02*
X79600000Y-76895000I0J135000D01*
G01*
X79600000Y-76625000D01*
G75*
G02*
X79735000Y-76490000I135000J0D01*
G01*
G37*
%TD*%
%TO.C,R43*%
G36*
G01*
X78840000Y-99345000D02*
X78840000Y-99715000D01*
G75*
G02*
X78705000Y-99850000I-135000J0D01*
G01*
X78435000Y-99850000D01*
G75*
G02*
X78300000Y-99715000I0J135000D01*
G01*
X78300000Y-99345000D01*
G75*
G02*
X78435000Y-99210000I135000J0D01*
G01*
X78705000Y-99210000D01*
G75*
G02*
X78840000Y-99345000I0J-135000D01*
G01*
G37*
G36*
G01*
X79860000Y-99345000D02*
X79860000Y-99715000D01*
G75*
G02*
X79725000Y-99850000I-135000J0D01*
G01*
X79455000Y-99850000D01*
G75*
G02*
X79320000Y-99715000I0J135000D01*
G01*
X79320000Y-99345000D01*
G75*
G02*
X79455000Y-99210000I135000J0D01*
G01*
X79725000Y-99210000D01*
G75*
G02*
X79860000Y-99345000I0J-135000D01*
G01*
G37*
%TD*%
%TO.C,R40*%
G36*
G01*
X78860000Y-95025000D02*
X78860000Y-95395000D01*
G75*
G02*
X78725000Y-95530000I-135000J0D01*
G01*
X78455000Y-95530000D01*
G75*
G02*
X78320000Y-95395000I0J135000D01*
G01*
X78320000Y-95025000D01*
G75*
G02*
X78455000Y-94890000I135000J0D01*
G01*
X78725000Y-94890000D01*
G75*
G02*
X78860000Y-95025000I0J-135000D01*
G01*
G37*
G36*
G01*
X79880000Y-95025000D02*
X79880000Y-95395000D01*
G75*
G02*
X79745000Y-95530000I-135000J0D01*
G01*
X79475000Y-95530000D01*
G75*
G02*
X79340000Y-95395000I0J135000D01*
G01*
X79340000Y-95025000D01*
G75*
G02*
X79475000Y-94890000I135000J0D01*
G01*
X79745000Y-94890000D01*
G75*
G02*
X79880000Y-95025000I0J-135000D01*
G01*
G37*
%TD*%
%TO.C,R39*%
G36*
G01*
X78860000Y-93935000D02*
X78860000Y-94305000D01*
G75*
G02*
X78725000Y-94440000I-135000J0D01*
G01*
X78455000Y-94440000D01*
G75*
G02*
X78320000Y-94305000I0J135000D01*
G01*
X78320000Y-93935000D01*
G75*
G02*
X78455000Y-93800000I135000J0D01*
G01*
X78725000Y-93800000D01*
G75*
G02*
X78860000Y-93935000I0J-135000D01*
G01*
G37*
G36*
G01*
X79880000Y-93935000D02*
X79880000Y-94305000D01*
G75*
G02*
X79745000Y-94440000I-135000J0D01*
G01*
X79475000Y-94440000D01*
G75*
G02*
X79340000Y-94305000I0J135000D01*
G01*
X79340000Y-93935000D01*
G75*
G02*
X79475000Y-93800000I135000J0D01*
G01*
X79745000Y-93800000D01*
G75*
G02*
X79880000Y-93935000I0J-135000D01*
G01*
G37*
%TD*%
%TO.C,R38*%
G36*
G01*
X78850000Y-98275000D02*
X78850000Y-98645000D01*
G75*
G02*
X78715000Y-98780000I-135000J0D01*
G01*
X78445000Y-98780000D01*
G75*
G02*
X78310000Y-98645000I0J135000D01*
G01*
X78310000Y-98275000D01*
G75*
G02*
X78445000Y-98140000I135000J0D01*
G01*
X78715000Y-98140000D01*
G75*
G02*
X78850000Y-98275000I0J-135000D01*
G01*
G37*
G36*
G01*
X79870000Y-98275000D02*
X79870000Y-98645000D01*
G75*
G02*
X79735000Y-98780000I-135000J0D01*
G01*
X79465000Y-98780000D01*
G75*
G02*
X79330000Y-98645000I0J135000D01*
G01*
X79330000Y-98275000D01*
G75*
G02*
X79465000Y-98140000I135000J0D01*
G01*
X79735000Y-98140000D01*
G75*
G02*
X79870000Y-98275000I0J-135000D01*
G01*
G37*
%TD*%
%TO.C,R37*%
G36*
G01*
X78850000Y-97185000D02*
X78850000Y-97555000D01*
G75*
G02*
X78715000Y-97690000I-135000J0D01*
G01*
X78445000Y-97690000D01*
G75*
G02*
X78310000Y-97555000I0J135000D01*
G01*
X78310000Y-97185000D01*
G75*
G02*
X78445000Y-97050000I135000J0D01*
G01*
X78715000Y-97050000D01*
G75*
G02*
X78850000Y-97185000I0J-135000D01*
G01*
G37*
G36*
G01*
X79870000Y-97185000D02*
X79870000Y-97555000D01*
G75*
G02*
X79735000Y-97690000I-135000J0D01*
G01*
X79465000Y-97690000D01*
G75*
G02*
X79330000Y-97555000I0J135000D01*
G01*
X79330000Y-97185000D01*
G75*
G02*
X79465000Y-97050000I135000J0D01*
G01*
X79735000Y-97050000D01*
G75*
G02*
X79870000Y-97185000I0J-135000D01*
G01*
G37*
%TD*%
%TO.C,R36*%
G36*
G01*
X78860000Y-96105000D02*
X78860000Y-96475000D01*
G75*
G02*
X78725000Y-96610000I-135000J0D01*
G01*
X78455000Y-96610000D01*
G75*
G02*
X78320000Y-96475000I0J135000D01*
G01*
X78320000Y-96105000D01*
G75*
G02*
X78455000Y-95970000I135000J0D01*
G01*
X78725000Y-95970000D01*
G75*
G02*
X78860000Y-96105000I0J-135000D01*
G01*
G37*
G36*
G01*
X79880000Y-96105000D02*
X79880000Y-96475000D01*
G75*
G02*
X79745000Y-96610000I-135000J0D01*
G01*
X79475000Y-96610000D01*
G75*
G02*
X79340000Y-96475000I0J135000D01*
G01*
X79340000Y-96105000D01*
G75*
G02*
X79475000Y-95970000I135000J0D01*
G01*
X79745000Y-95970000D01*
G75*
G02*
X79880000Y-96105000I0J-135000D01*
G01*
G37*
%TD*%
%TO.C,R34*%
G36*
G01*
X97115000Y-78400000D02*
X96745000Y-78400000D01*
G75*
G02*
X96610000Y-78265000I0J135000D01*
G01*
X96610000Y-77995000D01*
G75*
G02*
X96745000Y-77860000I135000J0D01*
G01*
X97115000Y-77860000D01*
G75*
G02*
X97250000Y-77995000I0J-135000D01*
G01*
X97250000Y-78265000D01*
G75*
G02*
X97115000Y-78400000I-135000J0D01*
G01*
G37*
G36*
G01*
X97115000Y-79420000D02*
X96745000Y-79420000D01*
G75*
G02*
X96610000Y-79285000I0J135000D01*
G01*
X96610000Y-79015000D01*
G75*
G02*
X96745000Y-78880000I135000J0D01*
G01*
X97115000Y-78880000D01*
G75*
G02*
X97250000Y-79015000I0J-135000D01*
G01*
X97250000Y-79285000D01*
G75*
G02*
X97115000Y-79420000I-135000J0D01*
G01*
G37*
%TD*%
%TO.C,R27*%
G36*
G01*
X84860000Y-88395000D02*
X84860000Y-88765000D01*
G75*
G02*
X84725000Y-88900000I-135000J0D01*
G01*
X84455000Y-88900000D01*
G75*
G02*
X84320000Y-88765000I0J135000D01*
G01*
X84320000Y-88395000D01*
G75*
G02*
X84455000Y-88260000I135000J0D01*
G01*
X84725000Y-88260000D01*
G75*
G02*
X84860000Y-88395000I0J-135000D01*
G01*
G37*
G36*
G01*
X85880000Y-88395000D02*
X85880000Y-88765000D01*
G75*
G02*
X85745000Y-88900000I-135000J0D01*
G01*
X85475000Y-88900000D01*
G75*
G02*
X85340000Y-88765000I0J135000D01*
G01*
X85340000Y-88395000D01*
G75*
G02*
X85475000Y-88260000I135000J0D01*
G01*
X85745000Y-88260000D01*
G75*
G02*
X85880000Y-88395000I0J-135000D01*
G01*
G37*
%TD*%
%TO.C,R5*%
G36*
G01*
X79750000Y-75525000D02*
X80120000Y-75525000D01*
G75*
G02*
X80255000Y-75660000I0J-135000D01*
G01*
X80255000Y-75930000D01*
G75*
G02*
X80120000Y-76065000I-135000J0D01*
G01*
X79750000Y-76065000D01*
G75*
G02*
X79615000Y-75930000I0J135000D01*
G01*
X79615000Y-75660000D01*
G75*
G02*
X79750000Y-75525000I135000J0D01*
G01*
G37*
G36*
G01*
X79750000Y-74505000D02*
X80120000Y-74505000D01*
G75*
G02*
X80255000Y-74640000I0J-135000D01*
G01*
X80255000Y-74910000D01*
G75*
G02*
X80120000Y-75045000I-135000J0D01*
G01*
X79750000Y-75045000D01*
G75*
G02*
X79615000Y-74910000I0J135000D01*
G01*
X79615000Y-74640000D01*
G75*
G02*
X79750000Y-74505000I135000J0D01*
G01*
G37*
%TD*%
%TO.C,R4*%
G36*
G01*
X78675000Y-75525000D02*
X79045000Y-75525000D01*
G75*
G02*
X79180000Y-75660000I0J-135000D01*
G01*
X79180000Y-75930000D01*
G75*
G02*
X79045000Y-76065000I-135000J0D01*
G01*
X78675000Y-76065000D01*
G75*
G02*
X78540000Y-75930000I0J135000D01*
G01*
X78540000Y-75660000D01*
G75*
G02*
X78675000Y-75525000I135000J0D01*
G01*
G37*
G36*
G01*
X78675000Y-74505000D02*
X79045000Y-74505000D01*
G75*
G02*
X79180000Y-74640000I0J-135000D01*
G01*
X79180000Y-74910000D01*
G75*
G02*
X79045000Y-75045000I-135000J0D01*
G01*
X78675000Y-75045000D01*
G75*
G02*
X78540000Y-74910000I0J135000D01*
G01*
X78540000Y-74640000D01*
G75*
G02*
X78675000Y-74505000I135000J0D01*
G01*
G37*
%TD*%
%TO.C,R3*%
G36*
G01*
X99630000Y-104195000D02*
X99630000Y-103825000D01*
G75*
G02*
X99765000Y-103690000I135000J0D01*
G01*
X100035000Y-103690000D01*
G75*
G02*
X100170000Y-103825000I0J-135000D01*
G01*
X100170000Y-104195000D01*
G75*
G02*
X100035000Y-104330000I-135000J0D01*
G01*
X99765000Y-104330000D01*
G75*
G02*
X99630000Y-104195000I0J135000D01*
G01*
G37*
G36*
G01*
X98610000Y-104195000D02*
X98610000Y-103825000D01*
G75*
G02*
X98745000Y-103690000I135000J0D01*
G01*
X99015000Y-103690000D01*
G75*
G02*
X99150000Y-103825000I0J-135000D01*
G01*
X99150000Y-104195000D01*
G75*
G02*
X99015000Y-104330000I-135000J0D01*
G01*
X98745000Y-104330000D01*
G75*
G02*
X98610000Y-104195000I0J135000D01*
G01*
G37*
%TD*%
%TO.C,R1*%
G36*
G01*
X87610000Y-88995000D02*
X87610000Y-89365000D01*
G75*
G02*
X87475000Y-89500000I-135000J0D01*
G01*
X87205000Y-89500000D01*
G75*
G02*
X87070000Y-89365000I0J135000D01*
G01*
X87070000Y-88995000D01*
G75*
G02*
X87205000Y-88860000I135000J0D01*
G01*
X87475000Y-88860000D01*
G75*
G02*
X87610000Y-88995000I0J-135000D01*
G01*
G37*
G36*
G01*
X88630000Y-88995000D02*
X88630000Y-89365000D01*
G75*
G02*
X88495000Y-89500000I-135000J0D01*
G01*
X88225000Y-89500000D01*
G75*
G02*
X88090000Y-89365000I0J135000D01*
G01*
X88090000Y-88995000D01*
G75*
G02*
X88225000Y-88860000I135000J0D01*
G01*
X88495000Y-88860000D01*
G75*
G02*
X88630000Y-88995000I0J-135000D01*
G01*
G37*
%TD*%
D26*
%TO.C,L4*%
X74185000Y-85100000D03*
X74185000Y-87100000D03*
%TD*%
%TO.C,L3*%
X77910000Y-85100000D03*
X77910000Y-87100000D03*
%TD*%
%TO.C,L2*%
X71460000Y-75425000D03*
X71460000Y-73425000D03*
%TD*%
D27*
%TO.C,L1*%
X75110000Y-75025000D03*
X77110000Y-75025000D03*
%TD*%
%TO.C,C62*%
G36*
G01*
X79690000Y-79545000D02*
X79690000Y-79205000D01*
G75*
G02*
X79830000Y-79065000I140000J0D01*
G01*
X80110000Y-79065000D01*
G75*
G02*
X80250000Y-79205000I0J-140000D01*
G01*
X80250000Y-79545000D01*
G75*
G02*
X80110000Y-79685000I-140000J0D01*
G01*
X79830000Y-79685000D01*
G75*
G02*
X79690000Y-79545000I0J140000D01*
G01*
G37*
G36*
G01*
X78730000Y-79545000D02*
X78730000Y-79205000D01*
G75*
G02*
X78870000Y-79065000I140000J0D01*
G01*
X79150000Y-79065000D01*
G75*
G02*
X79290000Y-79205000I0J-140000D01*
G01*
X79290000Y-79545000D01*
G75*
G02*
X79150000Y-79685000I-140000J0D01*
G01*
X78870000Y-79685000D01*
G75*
G02*
X78730000Y-79545000I0J140000D01*
G01*
G37*
%TD*%
%TO.C,C61*%
G36*
G01*
X68305000Y-84630000D02*
X68305000Y-84970000D01*
G75*
G02*
X68165000Y-85110000I-140000J0D01*
G01*
X67885000Y-85110000D01*
G75*
G02*
X67745000Y-84970000I0J140000D01*
G01*
X67745000Y-84630000D01*
G75*
G02*
X67885000Y-84490000I140000J0D01*
G01*
X68165000Y-84490000D01*
G75*
G02*
X68305000Y-84630000I0J-140000D01*
G01*
G37*
G36*
G01*
X69265000Y-84630000D02*
X69265000Y-84970000D01*
G75*
G02*
X69125000Y-85110000I-140000J0D01*
G01*
X68845000Y-85110000D01*
G75*
G02*
X68705000Y-84970000I0J140000D01*
G01*
X68705000Y-84630000D01*
G75*
G02*
X68845000Y-84490000I140000J0D01*
G01*
X69125000Y-84490000D01*
G75*
G02*
X69265000Y-84630000I0J-140000D01*
G01*
G37*
%TD*%
%TO.C,C60*%
G36*
G01*
X68305000Y-83580000D02*
X68305000Y-83920000D01*
G75*
G02*
X68165000Y-84060000I-140000J0D01*
G01*
X67885000Y-84060000D01*
G75*
G02*
X67745000Y-83920000I0J140000D01*
G01*
X67745000Y-83580000D01*
G75*
G02*
X67885000Y-83440000I140000J0D01*
G01*
X68165000Y-83440000D01*
G75*
G02*
X68305000Y-83580000I0J-140000D01*
G01*
G37*
G36*
G01*
X69265000Y-83580000D02*
X69265000Y-83920000D01*
G75*
G02*
X69125000Y-84060000I-140000J0D01*
G01*
X68845000Y-84060000D01*
G75*
G02*
X68705000Y-83920000I0J140000D01*
G01*
X68705000Y-83580000D01*
G75*
G02*
X68845000Y-83440000I140000J0D01*
G01*
X69125000Y-83440000D01*
G75*
G02*
X69265000Y-83580000I0J-140000D01*
G01*
G37*
%TD*%
%TO.C,C59*%
G36*
G01*
X79690000Y-80720000D02*
X79690000Y-80380000D01*
G75*
G02*
X79830000Y-80240000I140000J0D01*
G01*
X80110000Y-80240000D01*
G75*
G02*
X80250000Y-80380000I0J-140000D01*
G01*
X80250000Y-80720000D01*
G75*
G02*
X80110000Y-80860000I-140000J0D01*
G01*
X79830000Y-80860000D01*
G75*
G02*
X79690000Y-80720000I0J140000D01*
G01*
G37*
G36*
G01*
X78730000Y-80720000D02*
X78730000Y-80380000D01*
G75*
G02*
X78870000Y-80240000I140000J0D01*
G01*
X79150000Y-80240000D01*
G75*
G02*
X79290000Y-80380000I0J-140000D01*
G01*
X79290000Y-80720000D01*
G75*
G02*
X79150000Y-80860000I-140000J0D01*
G01*
X78870000Y-80860000D01*
G75*
G02*
X78730000Y-80720000I0J140000D01*
G01*
G37*
%TD*%
%TO.C,C58*%
G36*
G01*
X68315000Y-78905000D02*
X68315000Y-79245000D01*
G75*
G02*
X68175000Y-79385000I-140000J0D01*
G01*
X67895000Y-79385000D01*
G75*
G02*
X67755000Y-79245000I0J140000D01*
G01*
X67755000Y-78905000D01*
G75*
G02*
X67895000Y-78765000I140000J0D01*
G01*
X68175000Y-78765000D01*
G75*
G02*
X68315000Y-78905000I0J-140000D01*
G01*
G37*
G36*
G01*
X69275000Y-78905000D02*
X69275000Y-79245000D01*
G75*
G02*
X69135000Y-79385000I-140000J0D01*
G01*
X68855000Y-79385000D01*
G75*
G02*
X68715000Y-79245000I0J140000D01*
G01*
X68715000Y-78905000D01*
G75*
G02*
X68855000Y-78765000I140000J0D01*
G01*
X69135000Y-78765000D01*
G75*
G02*
X69275000Y-78905000I0J-140000D01*
G01*
G37*
%TD*%
%TO.C,C57*%
G36*
G01*
X68305000Y-81330000D02*
X68305000Y-81670000D01*
G75*
G02*
X68165000Y-81810000I-140000J0D01*
G01*
X67885000Y-81810000D01*
G75*
G02*
X67745000Y-81670000I0J140000D01*
G01*
X67745000Y-81330000D01*
G75*
G02*
X67885000Y-81190000I140000J0D01*
G01*
X68165000Y-81190000D01*
G75*
G02*
X68305000Y-81330000I0J-140000D01*
G01*
G37*
G36*
G01*
X69265000Y-81330000D02*
X69265000Y-81670000D01*
G75*
G02*
X69125000Y-81810000I-140000J0D01*
G01*
X68845000Y-81810000D01*
G75*
G02*
X68705000Y-81670000I0J140000D01*
G01*
X68705000Y-81330000D01*
G75*
G02*
X68845000Y-81190000I140000J0D01*
G01*
X69125000Y-81190000D01*
G75*
G02*
X69265000Y-81330000I0J-140000D01*
G01*
G37*
%TD*%
%TO.C,C56*%
G36*
G01*
X71115000Y-85580000D02*
X71455000Y-85580000D01*
G75*
G02*
X71595000Y-85720000I0J-140000D01*
G01*
X71595000Y-86000000D01*
G75*
G02*
X71455000Y-86140000I-140000J0D01*
G01*
X71115000Y-86140000D01*
G75*
G02*
X70975000Y-86000000I0J140000D01*
G01*
X70975000Y-85720000D01*
G75*
G02*
X71115000Y-85580000I140000J0D01*
G01*
G37*
G36*
G01*
X71115000Y-84620000D02*
X71455000Y-84620000D01*
G75*
G02*
X71595000Y-84760000I0J-140000D01*
G01*
X71595000Y-85040000D01*
G75*
G02*
X71455000Y-85180000I-140000J0D01*
G01*
X71115000Y-85180000D01*
G75*
G02*
X70975000Y-85040000I0J140000D01*
G01*
X70975000Y-84760000D01*
G75*
G02*
X71115000Y-84620000I140000J0D01*
G01*
G37*
%TD*%
%TO.C,C55*%
G36*
G01*
X68315000Y-79930000D02*
X68315000Y-80270000D01*
G75*
G02*
X68175000Y-80410000I-140000J0D01*
G01*
X67895000Y-80410000D01*
G75*
G02*
X67755000Y-80270000I0J140000D01*
G01*
X67755000Y-79930000D01*
G75*
G02*
X67895000Y-79790000I140000J0D01*
G01*
X68175000Y-79790000D01*
G75*
G02*
X68315000Y-79930000I0J-140000D01*
G01*
G37*
G36*
G01*
X69275000Y-79930000D02*
X69275000Y-80270000D01*
G75*
G02*
X69135000Y-80410000I-140000J0D01*
G01*
X68855000Y-80410000D01*
G75*
G02*
X68715000Y-80270000I0J140000D01*
G01*
X68715000Y-79930000D01*
G75*
G02*
X68855000Y-79790000I140000J0D01*
G01*
X69135000Y-79790000D01*
G75*
G02*
X69275000Y-79930000I0J-140000D01*
G01*
G37*
%TD*%
%TO.C,C54*%
G36*
G01*
X68315000Y-77830000D02*
X68315000Y-78170000D01*
G75*
G02*
X68175000Y-78310000I-140000J0D01*
G01*
X67895000Y-78310000D01*
G75*
G02*
X67755000Y-78170000I0J140000D01*
G01*
X67755000Y-77830000D01*
G75*
G02*
X67895000Y-77690000I140000J0D01*
G01*
X68175000Y-77690000D01*
G75*
G02*
X68315000Y-77830000I0J-140000D01*
G01*
G37*
G36*
G01*
X69275000Y-77830000D02*
X69275000Y-78170000D01*
G75*
G02*
X69135000Y-78310000I-140000J0D01*
G01*
X68855000Y-78310000D01*
G75*
G02*
X68715000Y-78170000I0J140000D01*
G01*
X68715000Y-77830000D01*
G75*
G02*
X68855000Y-77690000I140000J0D01*
G01*
X69135000Y-77690000D01*
G75*
G02*
X69275000Y-77830000I0J-140000D01*
G01*
G37*
%TD*%
%TO.C,C53*%
G36*
G01*
X75890000Y-85580000D02*
X76230000Y-85580000D01*
G75*
G02*
X76370000Y-85720000I0J-140000D01*
G01*
X76370000Y-86000000D01*
G75*
G02*
X76230000Y-86140000I-140000J0D01*
G01*
X75890000Y-86140000D01*
G75*
G02*
X75750000Y-86000000I0J140000D01*
G01*
X75750000Y-85720000D01*
G75*
G02*
X75890000Y-85580000I140000J0D01*
G01*
G37*
G36*
G01*
X75890000Y-84620000D02*
X76230000Y-84620000D01*
G75*
G02*
X76370000Y-84760000I0J-140000D01*
G01*
X76370000Y-85040000D01*
G75*
G02*
X76230000Y-85180000I-140000J0D01*
G01*
X75890000Y-85180000D01*
G75*
G02*
X75750000Y-85040000I0J140000D01*
G01*
X75750000Y-84760000D01*
G75*
G02*
X75890000Y-84620000I140000J0D01*
G01*
G37*
%TD*%
%TO.C,C52*%
G36*
G01*
X72165000Y-85580000D02*
X72505000Y-85580000D01*
G75*
G02*
X72645000Y-85720000I0J-140000D01*
G01*
X72645000Y-86000000D01*
G75*
G02*
X72505000Y-86140000I-140000J0D01*
G01*
X72165000Y-86140000D01*
G75*
G02*
X72025000Y-86000000I0J140000D01*
G01*
X72025000Y-85720000D01*
G75*
G02*
X72165000Y-85580000I140000J0D01*
G01*
G37*
G36*
G01*
X72165000Y-84620000D02*
X72505000Y-84620000D01*
G75*
G02*
X72645000Y-84760000I0J-140000D01*
G01*
X72645000Y-85040000D01*
G75*
G02*
X72505000Y-85180000I-140000J0D01*
G01*
X72165000Y-85180000D01*
G75*
G02*
X72025000Y-85040000I0J140000D01*
G01*
X72025000Y-84760000D01*
G75*
G02*
X72165000Y-84620000I140000J0D01*
G01*
G37*
%TD*%
%TO.C,C51*%
G36*
G01*
X79690000Y-81920000D02*
X79690000Y-81580000D01*
G75*
G02*
X79830000Y-81440000I140000J0D01*
G01*
X80110000Y-81440000D01*
G75*
G02*
X80250000Y-81580000I0J-140000D01*
G01*
X80250000Y-81920000D01*
G75*
G02*
X80110000Y-82060000I-140000J0D01*
G01*
X79830000Y-82060000D01*
G75*
G02*
X79690000Y-81920000I0J140000D01*
G01*
G37*
G36*
G01*
X78730000Y-81920000D02*
X78730000Y-81580000D01*
G75*
G02*
X78870000Y-81440000I140000J0D01*
G01*
X79150000Y-81440000D01*
G75*
G02*
X79290000Y-81580000I0J-140000D01*
G01*
X79290000Y-81920000D01*
G75*
G02*
X79150000Y-82060000I-140000J0D01*
G01*
X78870000Y-82060000D01*
G75*
G02*
X78730000Y-81920000I0J140000D01*
G01*
G37*
%TD*%
%TO.C,C50*%
G36*
G01*
X69585000Y-87424999D02*
X69585000Y-88725001D01*
G75*
G02*
X69335001Y-88975000I-249999J0D01*
G01*
X68684999Y-88975000D01*
G75*
G02*
X68435000Y-88725001I0J249999D01*
G01*
X68435000Y-87424999D01*
G75*
G02*
X68684999Y-87175000I249999J0D01*
G01*
X69335001Y-87175000D01*
G75*
G02*
X69585000Y-87424999I0J-249999D01*
G01*
G37*
G36*
G01*
X72535000Y-87424999D02*
X72535000Y-88725001D01*
G75*
G02*
X72285001Y-88975000I-249999J0D01*
G01*
X71634999Y-88975000D01*
G75*
G02*
X71385000Y-88725001I0J249999D01*
G01*
X71385000Y-87424999D01*
G75*
G02*
X71634999Y-87175000I249999J0D01*
G01*
X72285001Y-87175000D01*
G75*
G02*
X72535000Y-87424999I0J-249999D01*
G01*
G37*
%TD*%
%TO.C,C49*%
G36*
G01*
X81185001Y-84575000D02*
X79884999Y-84575000D01*
G75*
G02*
X79635000Y-84325001I0J249999D01*
G01*
X79635000Y-83674999D01*
G75*
G02*
X79884999Y-83425000I249999J0D01*
G01*
X81185001Y-83425000D01*
G75*
G02*
X81435000Y-83674999I0J-249999D01*
G01*
X81435000Y-84325001D01*
G75*
G02*
X81185001Y-84575000I-249999J0D01*
G01*
G37*
G36*
G01*
X81185001Y-87525000D02*
X79884999Y-87525000D01*
G75*
G02*
X79635000Y-87275001I0J249999D01*
G01*
X79635000Y-86624999D01*
G75*
G02*
X79884999Y-86375000I249999J0D01*
G01*
X81185001Y-86375000D01*
G75*
G02*
X81435000Y-86624999I0J-249999D01*
G01*
X81435000Y-87275001D01*
G75*
G02*
X81185001Y-87525000I-249999J0D01*
G01*
G37*
%TD*%
%TO.C,C48*%
G36*
G01*
X66835000Y-72849999D02*
X66835000Y-74150001D01*
G75*
G02*
X66585001Y-74400000I-249999J0D01*
G01*
X65934999Y-74400000D01*
G75*
G02*
X65685000Y-74150001I0J249999D01*
G01*
X65685000Y-72849999D01*
G75*
G02*
X65934999Y-72600000I249999J0D01*
G01*
X66585001Y-72600000D01*
G75*
G02*
X66835000Y-72849999I0J-249999D01*
G01*
G37*
G36*
G01*
X69785000Y-72849999D02*
X69785000Y-74150001D01*
G75*
G02*
X69535001Y-74400000I-249999J0D01*
G01*
X68884999Y-74400000D01*
G75*
G02*
X68635000Y-74150001I0J249999D01*
G01*
X68635000Y-72849999D01*
G75*
G02*
X68884999Y-72600000I249999J0D01*
G01*
X69535001Y-72600000D01*
G75*
G02*
X69785000Y-72849999I0J-249999D01*
G01*
G37*
%TD*%
%TO.C,C47*%
G36*
G01*
X75585000Y-71699999D02*
X75585000Y-73000001D01*
G75*
G02*
X75335001Y-73250000I-249999J0D01*
G01*
X74684999Y-73250000D01*
G75*
G02*
X74435000Y-73000001I0J249999D01*
G01*
X74435000Y-71699999D01*
G75*
G02*
X74684999Y-71450000I249999J0D01*
G01*
X75335001Y-71450000D01*
G75*
G02*
X75585000Y-71699999I0J-249999D01*
G01*
G37*
G36*
G01*
X78535000Y-71699999D02*
X78535000Y-73000001D01*
G75*
G02*
X78285001Y-73250000I-249999J0D01*
G01*
X77634999Y-73250000D01*
G75*
G02*
X77385000Y-73000001I0J249999D01*
G01*
X77385000Y-71699999D01*
G75*
G02*
X77634999Y-71450000I249999J0D01*
G01*
X78285001Y-71450000D01*
G75*
G02*
X78535000Y-71699999I0J-249999D01*
G01*
G37*
%TD*%
%TO.C,C45*%
G36*
G01*
X68305000Y-82530000D02*
X68305000Y-82870000D01*
G75*
G02*
X68165000Y-83010000I-140000J0D01*
G01*
X67885000Y-83010000D01*
G75*
G02*
X67745000Y-82870000I0J140000D01*
G01*
X67745000Y-82530000D01*
G75*
G02*
X67885000Y-82390000I140000J0D01*
G01*
X68165000Y-82390000D01*
G75*
G02*
X68305000Y-82530000I0J-140000D01*
G01*
G37*
G36*
G01*
X69265000Y-82530000D02*
X69265000Y-82870000D01*
G75*
G02*
X69125000Y-83010000I-140000J0D01*
G01*
X68845000Y-83010000D01*
G75*
G02*
X68705000Y-82870000I0J140000D01*
G01*
X68705000Y-82530000D01*
G75*
G02*
X68845000Y-82390000I140000J0D01*
G01*
X69125000Y-82390000D01*
G75*
G02*
X69265000Y-82530000I0J-140000D01*
G01*
G37*
%TD*%
%TO.C,C44*%
G36*
G01*
X68315000Y-76630000D02*
X68315000Y-76970000D01*
G75*
G02*
X68175000Y-77110000I-140000J0D01*
G01*
X67895000Y-77110000D01*
G75*
G02*
X67755000Y-76970000I0J140000D01*
G01*
X67755000Y-76630000D01*
G75*
G02*
X67895000Y-76490000I140000J0D01*
G01*
X68175000Y-76490000D01*
G75*
G02*
X68315000Y-76630000I0J-140000D01*
G01*
G37*
G36*
G01*
X69275000Y-76630000D02*
X69275000Y-76970000D01*
G75*
G02*
X69135000Y-77110000I-140000J0D01*
G01*
X68855000Y-77110000D01*
G75*
G02*
X68715000Y-76970000I0J140000D01*
G01*
X68715000Y-76630000D01*
G75*
G02*
X68855000Y-76490000I140000J0D01*
G01*
X69135000Y-76490000D01*
G75*
G02*
X69275000Y-76630000I0J-140000D01*
G01*
G37*
%TD*%
%TO.C,C43*%
G36*
G01*
X73780000Y-74075000D02*
X73440000Y-74075000D01*
G75*
G02*
X73300000Y-73935000I0J140000D01*
G01*
X73300000Y-73655000D01*
G75*
G02*
X73440000Y-73515000I140000J0D01*
G01*
X73780000Y-73515000D01*
G75*
G02*
X73920000Y-73655000I0J-140000D01*
G01*
X73920000Y-73935000D01*
G75*
G02*
X73780000Y-74075000I-140000J0D01*
G01*
G37*
G36*
G01*
X73780000Y-75035000D02*
X73440000Y-75035000D01*
G75*
G02*
X73300000Y-74895000I0J140000D01*
G01*
X73300000Y-74615000D01*
G75*
G02*
X73440000Y-74475000I140000J0D01*
G01*
X73780000Y-74475000D01*
G75*
G02*
X73920000Y-74615000I0J-140000D01*
G01*
X73920000Y-74895000D01*
G75*
G02*
X73780000Y-75035000I-140000J0D01*
G01*
G37*
%TD*%
%TO.C,C41*%
G36*
G01*
X67470000Y-96880000D02*
X67810000Y-96880000D01*
G75*
G02*
X67950000Y-97020000I0J-140000D01*
G01*
X67950000Y-97300000D01*
G75*
G02*
X67810000Y-97440000I-140000J0D01*
G01*
X67470000Y-97440000D01*
G75*
G02*
X67330000Y-97300000I0J140000D01*
G01*
X67330000Y-97020000D01*
G75*
G02*
X67470000Y-96880000I140000J0D01*
G01*
G37*
G36*
G01*
X67470000Y-95920000D02*
X67810000Y-95920000D01*
G75*
G02*
X67950000Y-96060000I0J-140000D01*
G01*
X67950000Y-96340000D01*
G75*
G02*
X67810000Y-96480000I-140000J0D01*
G01*
X67470000Y-96480000D01*
G75*
G02*
X67330000Y-96340000I0J140000D01*
G01*
X67330000Y-96060000D01*
G75*
G02*
X67470000Y-95920000I140000J0D01*
G01*
G37*
%TD*%
%TO.C,C40*%
G36*
G01*
X78870000Y-100420000D02*
X78870000Y-100760000D01*
G75*
G02*
X78730000Y-100900000I-140000J0D01*
G01*
X78450000Y-100900000D01*
G75*
G02*
X78310000Y-100760000I0J140000D01*
G01*
X78310000Y-100420000D01*
G75*
G02*
X78450000Y-100280000I140000J0D01*
G01*
X78730000Y-100280000D01*
G75*
G02*
X78870000Y-100420000I0J-140000D01*
G01*
G37*
G36*
G01*
X79830000Y-100420000D02*
X79830000Y-100760000D01*
G75*
G02*
X79690000Y-100900000I-140000J0D01*
G01*
X79410000Y-100900000D01*
G75*
G02*
X79270000Y-100760000I0J140000D01*
G01*
X79270000Y-100420000D01*
G75*
G02*
X79410000Y-100280000I140000J0D01*
G01*
X79690000Y-100280000D01*
G75*
G02*
X79830000Y-100420000I0J-140000D01*
G01*
G37*
%TD*%
%TO.C,C39*%
G36*
G01*
X78900000Y-92880000D02*
X78900000Y-93220000D01*
G75*
G02*
X78760000Y-93360000I-140000J0D01*
G01*
X78480000Y-93360000D01*
G75*
G02*
X78340000Y-93220000I0J140000D01*
G01*
X78340000Y-92880000D01*
G75*
G02*
X78480000Y-92740000I140000J0D01*
G01*
X78760000Y-92740000D01*
G75*
G02*
X78900000Y-92880000I0J-140000D01*
G01*
G37*
G36*
G01*
X79860000Y-92880000D02*
X79860000Y-93220000D01*
G75*
G02*
X79720000Y-93360000I-140000J0D01*
G01*
X79440000Y-93360000D01*
G75*
G02*
X79300000Y-93220000I0J140000D01*
G01*
X79300000Y-92880000D01*
G75*
G02*
X79440000Y-92740000I140000J0D01*
G01*
X79720000Y-92740000D01*
G75*
G02*
X79860000Y-92880000I0J-140000D01*
G01*
G37*
%TD*%
%TO.C,C37*%
G36*
G01*
X86040000Y-77670000D02*
X85700000Y-77670000D01*
G75*
G02*
X85560000Y-77530000I0J140000D01*
G01*
X85560000Y-77250000D01*
G75*
G02*
X85700000Y-77110000I140000J0D01*
G01*
X86040000Y-77110000D01*
G75*
G02*
X86180000Y-77250000I0J-140000D01*
G01*
X86180000Y-77530000D01*
G75*
G02*
X86040000Y-77670000I-140000J0D01*
G01*
G37*
G36*
G01*
X86040000Y-78630000D02*
X85700000Y-78630000D01*
G75*
G02*
X85560000Y-78490000I0J140000D01*
G01*
X85560000Y-78210000D01*
G75*
G02*
X85700000Y-78070000I140000J0D01*
G01*
X86040000Y-78070000D01*
G75*
G02*
X86180000Y-78210000I0J-140000D01*
G01*
X86180000Y-78490000D01*
G75*
G02*
X86040000Y-78630000I-140000J0D01*
G01*
G37*
%TD*%
%TO.C,C36*%
G36*
G01*
X97110000Y-80470000D02*
X96770000Y-80470000D01*
G75*
G02*
X96630000Y-80330000I0J140000D01*
G01*
X96630000Y-80050000D01*
G75*
G02*
X96770000Y-79910000I140000J0D01*
G01*
X97110000Y-79910000D01*
G75*
G02*
X97250000Y-80050000I0J-140000D01*
G01*
X97250000Y-80330000D01*
G75*
G02*
X97110000Y-80470000I-140000J0D01*
G01*
G37*
G36*
G01*
X97110000Y-81430000D02*
X96770000Y-81430000D01*
G75*
G02*
X96630000Y-81290000I0J140000D01*
G01*
X96630000Y-81010000D01*
G75*
G02*
X96770000Y-80870000I140000J0D01*
G01*
X97110000Y-80870000D01*
G75*
G02*
X97250000Y-81010000I0J-140000D01*
G01*
X97250000Y-81290000D01*
G75*
G02*
X97110000Y-81430000I-140000J0D01*
G01*
G37*
%TD*%
%TO.C,C35*%
G36*
G01*
X85660000Y-72900000D02*
X86000000Y-72900000D01*
G75*
G02*
X86140000Y-73040000I0J-140000D01*
G01*
X86140000Y-73320000D01*
G75*
G02*
X86000000Y-73460000I-140000J0D01*
G01*
X85660000Y-73460000D01*
G75*
G02*
X85520000Y-73320000I0J140000D01*
G01*
X85520000Y-73040000D01*
G75*
G02*
X85660000Y-72900000I140000J0D01*
G01*
G37*
G36*
G01*
X85660000Y-71940000D02*
X86000000Y-71940000D01*
G75*
G02*
X86140000Y-72080000I0J-140000D01*
G01*
X86140000Y-72360000D01*
G75*
G02*
X86000000Y-72500000I-140000J0D01*
G01*
X85660000Y-72500000D01*
G75*
G02*
X85520000Y-72360000I0J140000D01*
G01*
X85520000Y-72080000D01*
G75*
G02*
X85660000Y-71940000I140000J0D01*
G01*
G37*
%TD*%
%TO.C,C34*%
G36*
G01*
X98250000Y-72960000D02*
X97910000Y-72960000D01*
G75*
G02*
X97770000Y-72820000I0J140000D01*
G01*
X97770000Y-72540000D01*
G75*
G02*
X97910000Y-72400000I140000J0D01*
G01*
X98250000Y-72400000D01*
G75*
G02*
X98390000Y-72540000I0J-140000D01*
G01*
X98390000Y-72820000D01*
G75*
G02*
X98250000Y-72960000I-140000J0D01*
G01*
G37*
G36*
G01*
X98250000Y-73920000D02*
X97910000Y-73920000D01*
G75*
G02*
X97770000Y-73780000I0J140000D01*
G01*
X97770000Y-73500000D01*
G75*
G02*
X97910000Y-73360000I140000J0D01*
G01*
X98250000Y-73360000D01*
G75*
G02*
X98390000Y-73500000I0J-140000D01*
G01*
X98390000Y-73780000D01*
G75*
G02*
X98250000Y-73920000I-140000J0D01*
G01*
G37*
%TD*%
%TO.C,C31*%
G36*
G01*
X102350000Y-74590000D02*
X102010000Y-74590000D01*
G75*
G02*
X101870000Y-74450000I0J140000D01*
G01*
X101870000Y-74170000D01*
G75*
G02*
X102010000Y-74030000I140000J0D01*
G01*
X102350000Y-74030000D01*
G75*
G02*
X102490000Y-74170000I0J-140000D01*
G01*
X102490000Y-74450000D01*
G75*
G02*
X102350000Y-74590000I-140000J0D01*
G01*
G37*
G36*
G01*
X102350000Y-75550000D02*
X102010000Y-75550000D01*
G75*
G02*
X101870000Y-75410000I0J140000D01*
G01*
X101870000Y-75130000D01*
G75*
G02*
X102010000Y-74990000I140000J0D01*
G01*
X102350000Y-74990000D01*
G75*
G02*
X102490000Y-75130000I0J-140000D01*
G01*
X102490000Y-75410000D01*
G75*
G02*
X102350000Y-75550000I-140000J0D01*
G01*
G37*
%TD*%
%TO.C,C30*%
G36*
G01*
X81070000Y-80630000D02*
X81410000Y-80630000D01*
G75*
G02*
X81550000Y-80770000I0J-140000D01*
G01*
X81550000Y-81050000D01*
G75*
G02*
X81410000Y-81190000I-140000J0D01*
G01*
X81070000Y-81190000D01*
G75*
G02*
X80930000Y-81050000I0J140000D01*
G01*
X80930000Y-80770000D01*
G75*
G02*
X81070000Y-80630000I140000J0D01*
G01*
G37*
G36*
G01*
X81070000Y-79670000D02*
X81410000Y-79670000D01*
G75*
G02*
X81550000Y-79810000I0J-140000D01*
G01*
X81550000Y-80090000D01*
G75*
G02*
X81410000Y-80230000I-140000J0D01*
G01*
X81070000Y-80230000D01*
G75*
G02*
X80930000Y-80090000I0J140000D01*
G01*
X80930000Y-79810000D01*
G75*
G02*
X81070000Y-79670000I140000J0D01*
G01*
G37*
%TD*%
%TO.C,C29*%
G36*
G01*
X86000000Y-82170000D02*
X85660000Y-82170000D01*
G75*
G02*
X85520000Y-82030000I0J140000D01*
G01*
X85520000Y-81750000D01*
G75*
G02*
X85660000Y-81610000I140000J0D01*
G01*
X86000000Y-81610000D01*
G75*
G02*
X86140000Y-81750000I0J-140000D01*
G01*
X86140000Y-82030000D01*
G75*
G02*
X86000000Y-82170000I-140000J0D01*
G01*
G37*
G36*
G01*
X86000000Y-83130000D02*
X85660000Y-83130000D01*
G75*
G02*
X85520000Y-82990000I0J140000D01*
G01*
X85520000Y-82710000D01*
G75*
G02*
X85660000Y-82570000I140000J0D01*
G01*
X86000000Y-82570000D01*
G75*
G02*
X86140000Y-82710000I0J-140000D01*
G01*
X86140000Y-82990000D01*
G75*
G02*
X86000000Y-83130000I-140000J0D01*
G01*
G37*
%TD*%
%TO.C,C28*%
G36*
G01*
X85660000Y-74900000D02*
X86000000Y-74900000D01*
G75*
G02*
X86140000Y-75040000I0J-140000D01*
G01*
X86140000Y-75320000D01*
G75*
G02*
X86000000Y-75460000I-140000J0D01*
G01*
X85660000Y-75460000D01*
G75*
G02*
X85520000Y-75320000I0J140000D01*
G01*
X85520000Y-75040000D01*
G75*
G02*
X85660000Y-74900000I140000J0D01*
G01*
G37*
G36*
G01*
X85660000Y-73940000D02*
X86000000Y-73940000D01*
G75*
G02*
X86140000Y-74080000I0J-140000D01*
G01*
X86140000Y-74360000D01*
G75*
G02*
X86000000Y-74500000I-140000J0D01*
G01*
X85660000Y-74500000D01*
G75*
G02*
X85520000Y-74360000I0J140000D01*
G01*
X85520000Y-74080000D01*
G75*
G02*
X85660000Y-73940000I140000J0D01*
G01*
G37*
%TD*%
%TO.C,C27*%
G36*
G01*
X84500000Y-72930000D02*
X84840000Y-72930000D01*
G75*
G02*
X84980000Y-73070000I0J-140000D01*
G01*
X84980000Y-73350000D01*
G75*
G02*
X84840000Y-73490000I-140000J0D01*
G01*
X84500000Y-73490000D01*
G75*
G02*
X84360000Y-73350000I0J140000D01*
G01*
X84360000Y-73070000D01*
G75*
G02*
X84500000Y-72930000I140000J0D01*
G01*
G37*
G36*
G01*
X84500000Y-71970000D02*
X84840000Y-71970000D01*
G75*
G02*
X84980000Y-72110000I0J-140000D01*
G01*
X84980000Y-72390000D01*
G75*
G02*
X84840000Y-72530000I-140000J0D01*
G01*
X84500000Y-72530000D01*
G75*
G02*
X84360000Y-72390000I0J140000D01*
G01*
X84360000Y-72110000D01*
G75*
G02*
X84500000Y-71970000I140000J0D01*
G01*
G37*
%TD*%
%TO.C,C26*%
G36*
G01*
X97100000Y-72960000D02*
X96760000Y-72960000D01*
G75*
G02*
X96620000Y-72820000I0J140000D01*
G01*
X96620000Y-72540000D01*
G75*
G02*
X96760000Y-72400000I140000J0D01*
G01*
X97100000Y-72400000D01*
G75*
G02*
X97240000Y-72540000I0J-140000D01*
G01*
X97240000Y-72820000D01*
G75*
G02*
X97100000Y-72960000I-140000J0D01*
G01*
G37*
G36*
G01*
X97100000Y-73920000D02*
X96760000Y-73920000D01*
G75*
G02*
X96620000Y-73780000I0J140000D01*
G01*
X96620000Y-73500000D01*
G75*
G02*
X96760000Y-73360000I140000J0D01*
G01*
X97100000Y-73360000D01*
G75*
G02*
X97240000Y-73500000I0J-140000D01*
G01*
X97240000Y-73780000D01*
G75*
G02*
X97100000Y-73920000I-140000J0D01*
G01*
G37*
%TD*%
%TO.C,C25*%
G36*
G01*
X97100000Y-76490000D02*
X96760000Y-76490000D01*
G75*
G02*
X96620000Y-76350000I0J140000D01*
G01*
X96620000Y-76070000D01*
G75*
G02*
X96760000Y-75930000I140000J0D01*
G01*
X97100000Y-75930000D01*
G75*
G02*
X97240000Y-76070000I0J-140000D01*
G01*
X97240000Y-76350000D01*
G75*
G02*
X97100000Y-76490000I-140000J0D01*
G01*
G37*
G36*
G01*
X97100000Y-77450000D02*
X96760000Y-77450000D01*
G75*
G02*
X96620000Y-77310000I0J140000D01*
G01*
X96620000Y-77030000D01*
G75*
G02*
X96760000Y-76890000I140000J0D01*
G01*
X97100000Y-76890000D01*
G75*
G02*
X97240000Y-77030000I0J-140000D01*
G01*
X97240000Y-77310000D01*
G75*
G02*
X97100000Y-77450000I-140000J0D01*
G01*
G37*
%TD*%
%TO.C,C24*%
G36*
G01*
X96780000Y-82850000D02*
X97120000Y-82850000D01*
G75*
G02*
X97260000Y-82990000I0J-140000D01*
G01*
X97260000Y-83270000D01*
G75*
G02*
X97120000Y-83410000I-140000J0D01*
G01*
X96780000Y-83410000D01*
G75*
G02*
X96640000Y-83270000I0J140000D01*
G01*
X96640000Y-82990000D01*
G75*
G02*
X96780000Y-82850000I140000J0D01*
G01*
G37*
G36*
G01*
X96780000Y-81890000D02*
X97120000Y-81890000D01*
G75*
G02*
X97260000Y-82030000I0J-140000D01*
G01*
X97260000Y-82310000D01*
G75*
G02*
X97120000Y-82450000I-140000J0D01*
G01*
X96780000Y-82450000D01*
G75*
G02*
X96640000Y-82310000I0J140000D01*
G01*
X96640000Y-82030000D01*
G75*
G02*
X96780000Y-81890000I140000J0D01*
G01*
G37*
%TD*%
%TO.C,C23*%
G36*
G01*
X96780000Y-84840000D02*
X97120000Y-84840000D01*
G75*
G02*
X97260000Y-84980000I0J-140000D01*
G01*
X97260000Y-85260000D01*
G75*
G02*
X97120000Y-85400000I-140000J0D01*
G01*
X96780000Y-85400000D01*
G75*
G02*
X96640000Y-85260000I0J140000D01*
G01*
X96640000Y-84980000D01*
G75*
G02*
X96780000Y-84840000I140000J0D01*
G01*
G37*
G36*
G01*
X96780000Y-83880000D02*
X97120000Y-83880000D01*
G75*
G02*
X97260000Y-84020000I0J-140000D01*
G01*
X97260000Y-84300000D01*
G75*
G02*
X97120000Y-84440000I-140000J0D01*
G01*
X96780000Y-84440000D01*
G75*
G02*
X96640000Y-84300000I0J140000D01*
G01*
X96640000Y-84020000D01*
G75*
G02*
X96780000Y-83880000I140000J0D01*
G01*
G37*
%TD*%
%TO.C,C8*%
G36*
G01*
X98420000Y-93800000D02*
X98420000Y-93460000D01*
G75*
G02*
X98560000Y-93320000I140000J0D01*
G01*
X98840000Y-93320000D01*
G75*
G02*
X98980000Y-93460000I0J-140000D01*
G01*
X98980000Y-93800000D01*
G75*
G02*
X98840000Y-93940000I-140000J0D01*
G01*
X98560000Y-93940000D01*
G75*
G02*
X98420000Y-93800000I0J140000D01*
G01*
G37*
G36*
G01*
X97460000Y-93800000D02*
X97460000Y-93460000D01*
G75*
G02*
X97600000Y-93320000I140000J0D01*
G01*
X97880000Y-93320000D01*
G75*
G02*
X98020000Y-93460000I0J-140000D01*
G01*
X98020000Y-93800000D01*
G75*
G02*
X97880000Y-93940000I-140000J0D01*
G01*
X97600000Y-93940000D01*
G75*
G02*
X97460000Y-93800000I0J140000D01*
G01*
G37*
%TD*%
M02*
