M48
; DRILL file {KiCad 5.1.10-88a1d61d58~88~ubuntu20.04.1} date Mon Jun 28 10:22:19 2021
; FORMAT={-:-/ absolute / metric / decimal}
; #@! TF.CreationDate,2021-06-28T10:22:19+05:30
; #@! TF.GenerationSoftware,Kicad,Pcbnew,5.1.10-88a1d61d58~88~ubuntu20.04.1
; #@! TF.FileFunction,Plated,5,6,Blind
FMAT,2
METRIC
T1C0.100
%
G90
G05
T1
X32.18Y-58.04
X32.19Y-58.45
X32.21Y-57.64
X32.26Y-57.23
X33.38Y-56.83
X33.63Y-60.44
X33.87Y-50.17
X40.05Y-64.46
X40.05Y-64.83
X40.42Y-64.82
X52.46Y-62.73
X76.12Y-60.43
X76.13Y-60.83
X76.14Y-59.23
X76.14Y-59.64
X76.151Y-60.017
X76.16Y-58.83
X76.16Y-61.22
X76.17Y-61.64
X76.2Y-58.44
X76.204Y-62.035
X76.22Y-58.06
X76.23Y-56.83
X76.24Y-57.23
X76.25Y-57.64
T0
M30
