M48
; DRILL file {KiCad 5.1.10-88a1d61d58~88~ubuntu20.04.1} date Mon Jun 28 10:22:19 2021
; FORMAT={-:-/ absolute / metric / decimal}
; #@! TF.CreationDate,2021-06-28T10:22:19+05:30
; #@! TF.GenerationSoftware,Kicad,Pcbnew,5.1.10-88a1d61d58~88~ubuntu20.04.1
; #@! TF.FileFunction,Plated,1,6,PTH
FMAT,2
METRIC
T1C0.201
T2C2.200
%
G90
G05
T1
X31.647Y-62.03
X31.824Y-56.035
X31.825Y-59.631
X31.844Y-55.232
X31.91Y-58.79
X32.08Y-54.03
X32.085Y-59.233
X32.085Y-60.03
X32.09Y-53.23
X32.09Y-55.64
X32.09Y-56.43
X32.1Y-54.83
X33.47Y-54.46
X33.495Y-53.63
X34.73Y-56.83
X34.74Y-56.05
X34.77Y-54.44
X34.78Y-57.62
X34.79Y-58.42
X34.79Y-59.23
X34.79Y-59.71
X34.8Y-53.63
X34.82Y-55.22
X36.16Y-58.85
X36.2Y-54.03
X36.22Y-53.23
X36.23Y-54.85
X36.23Y-58.02
X36.25Y-55.65
X36.26Y-56.45
X36.27Y-57.23
X38.49Y-65.76
X38.49Y-68.63
X38.83Y-37.31
X38.83Y-41.51
X38.92Y-66.13
X39.09Y-68.967
X39.23Y-36.81
X39.23Y-41.91
X39.24Y-54.25
X39.29Y-58.79
X39.31Y-57.75
X39.31Y-66.46
X39.32Y-67.017
X39.449Y-68.116
X39.47Y-69.26
X39.535Y-50.3
X39.535Y-51.5
X39.63Y-37.31
X39.63Y-41.51
X39.71Y-55.575
X39.735Y-55.0
X39.735Y-56.2
X39.735Y-57.25
X39.76Y-52.575
X39.76Y-53.6
X39.76Y-58.325
X39.76Y-59.328
X39.79Y-67.748
X39.82Y-57.77
X40.03Y-36.81
X40.03Y-41.91
X40.39Y-65.82
X40.42Y-67.87
X40.43Y-37.31
X40.43Y-41.51
X40.98Y-69.71
X41.36Y-74.34
X41.37Y-74.82
X41.63Y-37.37
X41.63Y-41.47
X41.96Y-69.74
X41.97Y-70.24
X41.98Y-70.75
X41.99Y-71.47
X42.03Y-36.99
X42.03Y-41.79
X42.17Y-52.46
X42.42Y-67.72
X42.43Y-37.37
X42.43Y-41.4
X42.72Y-52.44
X42.76Y-50.025
X42.76Y-50.525
X42.785Y-51.3
X42.83Y-41.81
X42.84Y-36.97
X42.84Y-54.39
X42.935Y-53.6
X43.185Y-56.45
X43.185Y-57.325
X43.21Y-61.575
X43.23Y-37.38
X43.23Y-41.45
X43.31Y-47.725
X43.32Y-67.47
X43.335Y-51.325
X43.435Y-50.025
X43.46Y-50.525
X43.79Y-57.21
X43.79Y-57.75
X43.794Y-60.134
X43.81Y-56.425
X43.885Y-47.725
X44.04Y-37.39
X44.32Y-57.21
X44.43Y-40.11
X44.44Y-36.93
X44.485Y-47.725
X44.83Y-37.39
X44.835Y-57.775
X44.835Y-60.125
X44.84Y-39.8
X44.86Y-57.225
X44.92Y-72.74
X45.08Y-67.752
X45.08Y-71.33
X45.23Y-36.98
X45.23Y-40.14
X45.47Y-67.382
X45.64Y-37.39
X45.64Y-39.8
X45.73Y-72.07
X45.785Y-62.225
X45.81Y-61.55
X45.91Y-67.752
X46.11Y-46.35
X46.42Y-67.752
X46.42Y-71.24
X46.435Y-61.55
X46.435Y-62.225
X46.52Y-57.21
X46.74Y-48.16
X46.84Y-40.13
X46.885Y-53.75
X46.885Y-54.975
X46.91Y-52.675
X46.93Y-67.752
X47.16Y-61.55
X47.16Y-62.225
X47.22Y-39.8
X47.63Y-40.11
X47.805Y-50.387
X47.91Y-67.752
X48.03Y-39.81
X48.23Y-50.61
X48.8Y-50.63
X48.85Y-39.03
X48.86Y-45.85
X49.24Y-38.74
X49.45Y-73.23
X49.46Y-68.973
X49.49Y-71.23
X49.52Y-71.95
X49.78Y-51.35
X49.858Y-65.919
X49.987Y-72.095
X50.04Y-74.845
X50.15Y-59.72
X50.16Y-70.53
X50.32Y-73.45
X50.35Y-67.63
X50.36Y-65.919
X50.5Y-54.05
X50.538Y-70.2
X50.54Y-74.845
X50.55Y-72.441
X50.69Y-59.71
X50.78Y-55.17
X50.81Y-75.825
X50.83Y-37.21
X50.83Y-40.01
X50.92Y-53.11
X50.99Y-54.05
X51.23Y-36.71
X51.23Y-39.51
X51.235Y-59.7
X51.3Y-42.46
X51.37Y-75.825
X51.63Y-37.21
X51.63Y-40.01
X51.66Y-74.892
X51.685Y-45.05
X51.685Y-45.675
X51.685Y-46.325
X51.685Y-47.0
X51.81Y-50.11
X51.93Y-41.93
X52.03Y-36.71
X52.03Y-39.51
X52.24Y-52.16
X52.43Y-37.21
X52.43Y-40.01
X52.43Y-81.81
X53.024Y-67.44
X53.31Y-38.72
X53.491Y-76.058
X53.66Y-37.72
X53.8Y-51.82
X53.958Y-76.286
X54.0Y-39.26
X54.37Y-40.22
X54.4Y-45.18
X54.51Y-53.43
X54.567Y-72.313
X54.688Y-75.752
X54.72Y-73.97
X54.73Y-71.121
X54.731Y-71.601
X54.742Y-70.641
X54.751Y-70.161
X54.94Y-58.95
X55.25Y-47.58
X55.25Y-49.74
X55.25Y-51.99
X55.26Y-54.27
X55.27Y-56.26
X55.29Y-73.295
X55.64Y-76.977
X55.731Y-72.935
X55.84Y-67.89
X56.015Y-77.31
X56.13Y-44.37
X56.14Y-47.04
X56.21Y-49.11
X56.22Y-51.19
X56.22Y-53.48
X56.22Y-55.77
X56.25Y-56.36
X56.35Y-72.935
X56.38Y-68.04
X56.66Y-75.662
X56.82Y-70.49
X57.08Y-65.17
X57.55Y-41.78
X57.619Y-64.232
X57.706Y-64.704
X58.06Y-41.86
X58.09Y-35.86
X58.358Y-64.09
X58.38Y-64.57
X58.54Y-63.12
X58.54Y-79.185
X59.18Y-64.06
X59.19Y-67.621
X59.19Y-72.31
X59.223Y-79.313
X59.235Y-62.54
X59.266Y-68.093
X59.28Y-58.03
X59.4Y-69.115
X59.4Y-69.595
X59.48Y-73.67
X59.48Y-74.19
X59.48Y-74.67
X59.5Y-40.48
X59.5Y-56.4
X59.504Y-70.064
X59.66Y-64.046
X59.731Y-79.321
X59.75Y-44.18
X59.75Y-68.32
X59.767Y-80.33
X59.783Y-79.82
X59.8Y-70.87
X59.85Y-57.99
X59.9Y-54.97
X59.92Y-46.0
X59.92Y-47.59
X59.937Y-68.782
X59.95Y-49.99
X59.95Y-51.59
X59.95Y-67.82
X59.97Y-50.79
X59.98Y-77.17
X59.99Y-73.64
X60.02Y-56.39
X60.19Y-57.59
X60.25Y-81.31
X60.37Y-74.37
X60.42Y-64.77
X60.45Y-67.52
X60.45Y-68.0
X60.45Y-68.77
X60.5Y-72.77
X60.52Y-64.03
X60.53Y-58.69
X60.54Y-77.15
X60.97Y-80.62
X61.0Y-53.59
X61.005Y-56.79
X61.01Y-55.18
X61.01Y-64.04
X61.02Y-46.39
X61.02Y-47.98
X61.02Y-54.41
X61.02Y-56.0
X61.13Y-72.12
X61.13Y-77.17
X61.15Y-68.82
X61.15Y-70.17
X61.15Y-72.77
X61.15Y-73.42
X61.201Y-83.027
X61.223Y-82.194
X61.25Y-67.62
X61.259Y-83.525
X61.295Y-78.335
X61.47Y-64.23
X61.49Y-62.23
X61.55Y-63.42
X61.59Y-82.662
X61.63Y-43.51
X61.63Y-62.86
X61.651Y-81.932
X61.77Y-56.06
X61.79Y-52.8
X61.8Y-54.39
X61.8Y-55.17
X61.8Y-68.82
X61.8Y-70.17
X61.81Y-53.6
X61.84Y-46.37
X61.85Y-67.92
X61.85Y-70.77
X62.1Y-63.3
X62.44Y-77.37
X62.45Y-68.82
X62.45Y-72.07
X62.45Y-73.42
X62.55Y-67.92
X62.6Y-35.87
X62.6Y-52.79
X62.609Y-52.002
X62.612Y-47.18
X62.612Y-47.96
X62.612Y-48.79
X62.62Y-53.6
X62.67Y-43.54
X62.898Y-74.161
X62.98Y-74.63
X63.05Y-68.77
X63.1Y-70.17
X63.1Y-72.12
X63.11Y-70.77
X63.13Y-72.71
X63.47Y-63.43
X63.528Y-67.474
X63.552Y-67.954
X63.615Y-79.56
X63.75Y-68.82
X63.75Y-70.82
X63.75Y-72.12
X63.75Y-72.77
X63.809Y-63.769
X63.85Y-74.12
X63.876Y-64.245
X63.962Y-64.978
X64.14Y-76.99
X64.18Y-78.42
X64.35Y-67.62
X64.35Y-68.12
X64.4Y-68.82
X64.4Y-70.17
X64.4Y-72.77
X64.4Y-73.42
X64.45Y-72.07
X64.46Y-77.47
X64.47Y-82.32
X64.57Y-44.21
X64.645Y-78.3
X64.68Y-37.77
X64.78Y-74.57
X64.83Y-68.12
X64.88Y-36.57
X64.95Y-51.21
X64.99Y-48.81
X65.0Y-52.79
X65.01Y-47.19
X65.05Y-68.82
X65.05Y-70.17
X65.05Y-70.82
X65.05Y-72.12
X65.05Y-72.72
X65.05Y-73.38
X65.07Y-55.21
X65.097Y-78.461
X65.28Y-37.77
X65.48Y-36.57
X65.55Y-81.16
X65.577Y-78.449
X65.61Y-77.97
X65.683Y-58.56
X65.75Y-68.02
X65.8Y-47.18
X65.8Y-56.01
X65.808Y-52.8
X65.81Y-46.38
X65.822Y-54.396
X65.85Y-67.52
X65.88Y-37.77
X65.94Y-77.0
X66.0Y-69.82
X66.045Y-59.13
X66.08Y-36.57
X66.34Y-77.27
X66.35Y-67.52
X66.35Y-68.82
X66.48Y-37.77
X66.6Y-47.19
X66.6Y-47.99
X66.6Y-48.78
X66.62Y-46.39
X66.68Y-36.57
X66.8Y-77.44
X67.07Y-82.93
X67.08Y-37.77
X67.19Y-77.06
X67.28Y-36.57
X67.348Y-55.968
X67.566Y-57.658
X67.61Y-53.19
X67.61Y-58.562
X67.63Y-51.59
X67.66Y-50.792
X67.677Y-77.674
X67.68Y-37.77
X67.682Y-56.855
X67.69Y-49.96
X67.75Y-52.49
X67.88Y-36.57
X68.02Y-60.39
X68.09Y-77.43
X68.14Y-47.25
X68.2Y-54.4
X68.22Y-55.142
X68.23Y-55.828
X68.28Y-37.77
X68.33Y-46.38
X68.37Y-57.37
X68.48Y-36.57
X68.54Y-80.89
X68.58Y-51.618
X68.69Y-56.58
X68.7Y-58.36
X68.74Y-65.36
X68.79Y-71.85
X68.81Y-72.4
X68.85Y-73.293
X68.88Y-37.77
X68.94Y-69.47
X68.96Y-69.98
X69.02Y-75.18
X69.08Y-36.57
X69.22Y-68.0
X69.48Y-37.77
X69.48Y-44.27
X69.68Y-36.57
X69.93Y-76.97
X70.07Y-77.43
X70.08Y-37.77
X70.15Y-73.92
X70.28Y-36.57
X70.55Y-76.18
X70.68Y-34.67
X70.68Y-35.22
X70.68Y-35.72
X70.68Y-36.22
X70.68Y-37.77
X70.72Y-77.41
X70.85Y-73.77
X70.9Y-73.13
X70.936Y-66.406
X71.28Y-37.77
X71.38Y-38.37
X71.38Y-38.97
X71.38Y-39.57
X71.38Y-40.17
X71.38Y-40.77
X71.38Y-41.37
X71.38Y-41.97
X71.38Y-42.47
X71.38Y-43.07
X71.38Y-43.67
X71.38Y-44.87
X71.38Y-46.07
X71.38Y-46.67
X71.41Y-73.51
X71.46Y-65.92
X71.91Y-70.01
X72.38Y-46.77
X72.54Y-56.76
X72.57Y-51.38
X72.57Y-54.02
X72.58Y-48.57
X72.58Y-49.22
X72.58Y-66.51
X72.749Y-67.232
X72.98Y-46.77
X73.22Y-76.46
X73.411Y-53.921
X73.54Y-51.28
X73.56Y-49.08
X73.58Y-46.77
X74.18Y-46.77
X74.53Y-54.43
X74.6Y-55.22
X74.74Y-56.096
X74.78Y-46.77
X74.82Y-54.01
X74.89Y-55.64
X74.909Y-54.803
X74.957Y-56.524
X75.38Y-46.77
X75.98Y-46.77
X76.33Y-53.627
X76.58Y-46.77
X76.76Y-53.24
X77.07Y-54.408
X77.18Y-46.77
X77.226Y-76.841
X77.252Y-76.34
X77.262Y-57.249
X77.276Y-56.459
X77.5Y-54.81
X77.52Y-53.24
X77.591Y-54.018
X77.63Y-57.639
X77.634Y-56.849
X77.78Y-46.77
X78.38Y-46.77
X78.98Y-46.77
X79.01Y-58.03
X79.02Y-55.19
X79.03Y-60.44
X79.03Y-61.24
X79.04Y-62.02
X79.43Y-61.61
X79.49Y-62.43
X79.52Y-60.82
X79.58Y-46.77
X79.78Y-63.2
X79.81Y-64.35
X79.904Y-62.714
X79.98Y-64.81
X80.14Y-63.65
X80.18Y-46.77
T2
X33.0Y-36.5
X78.0Y-81.5
T0
M30
