M48
; DRILL file {KiCad 5.1.10-88a1d61d58~88~ubuntu20.04.1} date Mon Jun 28 10:22:19 2021
; FORMAT={-:-/ absolute / metric / decimal}
; #@! TF.CreationDate,2021-06-28T10:22:19+05:30
; #@! TF.GenerationSoftware,Kicad,Pcbnew,5.1.10-88a1d61d58~88~ubuntu20.04.1
; #@! TF.FileFunction,Plated,1,2,Blind
FMAT,2
METRIC
T1C0.100
%
G90
G05
T1
X39.73Y-47.0
X39.985Y-50.3
X39.985Y-51.5
X40.14Y-71.35
X42.435Y-61.575
X45.435Y-50.05
X45.435Y-50.5
X46.11Y-56.925
X46.63Y-59.78
X47.12Y-50.1
X48.56Y-59.975
X51.09Y-74.88
X51.12Y-65.85
X52.46Y-56.29
X52.47Y-55.85
X53.035Y-58.325
X53.04Y-58.9
X54.56Y-37.22
X55.06Y-80.32
X55.07Y-35.91
X55.08Y-43.02
X55.541Y-70.093
X55.69Y-40.71
X55.831Y-69.851
X56.113Y-75.16
X56.4Y-76.87
X56.4Y-80.55
X56.43Y-69.65
X57.05Y-76.845
X57.259Y-73.979
X57.54Y-66.337
X57.54Y-74.36
X58.017Y-66.86
X58.026Y-75.369
X58.05Y-71.37
X58.489Y-68.909
X58.525Y-71.345
X58.525Y-73.846
X58.526Y-75.369
X58.55Y-67.37
X58.55Y-75.845
X58.56Y-72.37
X58.56Y-73.38
X58.576Y-70.783
X59.125Y-70.345
X59.13Y-50.75
X59.14Y-71.12
X59.517Y-66.86
X59.55Y-75.345
X59.88Y-48.39
X59.96Y-49.18
X60.029Y-75.349
X60.03Y-46.79
X60.5Y-74.82
X60.55Y-75.37
X61.05Y-52.72
X61.425Y-74.42
X61.586Y-75.406
X62.04Y-66.883
X62.282Y-76.96
X62.525Y-75.37
X63.41Y-41.22
X63.54Y-66.337
X63.55Y-75.37
X63.59Y-74.69
X64.149Y-74.758
X65.017Y-75.36
X65.029Y-75.849
X65.54Y-66.337
X66.05Y-74.87
X66.35Y-70.28
X66.5Y-69.37
X66.5Y-71.37
X66.5Y-72.82
X66.512Y-74.856
X67.025Y-73.87
X67.029Y-70.849
X67.04Y-67.837
X67.04Y-68.337
X67.049Y-73.346
X67.05Y-72.87
X67.525Y-73.845
X67.54Y-68.837
X67.55Y-70.87
X67.55Y-74.37
X67.55Y-74.87
X67.55Y-75.37
X67.55Y-75.87
X68.55Y-76.87
X69.65Y-72.233
X70.02Y-76.55
X70.19Y-74.811
X70.62Y-74.582
X70.79Y-69.38
X71.08Y-70.74
X71.426Y-66.409
X72.02Y-74.22
X72.67Y-70.21
X73.14Y-67.55
X75.33Y-47.81
T0
M30
